<svg width="41" height="40" viewBox="0 0 41 40" fill="none" xmlns="http://www.w3.org/2000/svg">
<path d="M39.8907 20.9195C39.8907 29.1593 33.211 35.8389 24.9712 35.8389C16.7314 35.8389 10.0518 29.1593 10.0518 20.9195C10.0518 12.6797 16.7314 6 24.9712 6C33.211 6 39.8907 12.6797 39.8907 20.9195Z" stroke="#0095DA" stroke-width="2"/>
<mask id="path-2-inside-1" fill="white">
<path fill-rule="evenodd" clip-rule="evenodd" d="M4.98394 15.3648C2.96402 9.5088 5.8825 3.052 11.6965 0.735058L12.4369 2.59297C7.57168 4.5318 5.15412 9.96702 6.9257 14.857C8.9824 19.6644 14.5018 21.9757 19.3873 20.0288L20.1276 21.8867C14.3136 24.2037 7.75361 21.5224 5.19274 15.8837L5.17881 15.8893C5.13932 15.7902 5.10128 15.6909 5.06468 15.5914C5.03359 15.5177 5.00318 15.4436 4.97345 15.369L4.98394 15.3648Z"/>
</mask>
<path d="M4.98394 15.3648L5.72434 17.2227L7.49679 16.5163L6.87463 14.7126L4.98394 15.3648ZM11.6965 0.735058L13.5544 -0.00533436L12.814 -1.86324L10.9561 -1.12285L11.6965 0.735058ZM12.4369 2.59297L13.1773 4.45087L15.0352 3.71048L14.2948 1.85257L12.4369 2.59297ZM6.9257 14.857L5.0453 15.5382L5.06461 15.5915L5.08691 15.6436L6.9257 14.857ZM19.3873 20.0288L21.2452 19.2884L20.5048 17.4305L18.6469 18.1709L19.3873 20.0288ZM20.1276 21.8867L20.868 23.7446L22.7259 23.0042L21.9856 21.1463L20.1276 21.8867ZM5.19274 15.8837L7.01374 15.0567L6.22477 13.3195L4.45235 14.0258L5.19274 15.8837ZM5.17881 15.8893L3.3209 16.6297L4.0613 18.4876L5.9192 17.7472L5.17881 15.8893ZM5.06468 15.5914L6.94175 14.901L6.92554 14.8569L6.90727 14.8136L5.06468 15.5914ZM4.97345 15.369L4.23305 13.511L2.37515 14.2514L3.11554 16.1093L4.97345 15.369ZM6.87463 14.7126C5.20143 9.86184 7.61933 4.51282 12.4369 2.59297L10.9561 -1.12285C4.14567 1.59118 0.726609 9.15576 3.09326 16.0169L6.87463 14.7126ZM9.83862 1.47545L10.579 3.33336L14.2948 1.85257L13.5544 -0.00533436L9.83862 1.47545ZM11.6965 0.735058C5.82522 3.07483 2.90692 9.63581 5.0453 15.5382L8.8061 14.1757C7.40132 10.2982 9.31815 5.98878 13.1773 4.45087L11.6965 0.735058ZM5.08691 15.6436C7.56936 21.4463 14.2318 24.2363 20.1276 21.8867L18.6469 18.1709C14.7719 19.7151 10.3954 17.8826 8.7645 14.0703L5.08691 15.6436ZM17.5293 20.7692L18.2697 22.6271L21.9856 21.1463L21.2452 19.2884L17.5293 20.7692ZM19.3873 20.0288C14.5698 21.9486 9.13502 19.7275 7.01374 15.0567L3.37175 16.7107C6.3722 23.3173 14.0573 26.4588 20.868 23.7446L19.3873 20.0288ZM4.45235 14.0258L4.43842 14.0314L5.9192 17.7472L5.93313 17.7416L4.45235 14.0258ZM7.03672 15.1489C7.00383 15.0664 6.97218 14.9837 6.94175 14.901L3.18761 16.2817C3.23038 16.398 3.27481 16.514 3.3209 16.6297L7.03672 15.1489ZM6.90727 14.8136C6.88142 14.7524 6.85611 14.6907 6.83135 14.6286L3.11554 16.1093C3.15025 16.1964 3.18577 16.283 3.22209 16.3691L6.90727 14.8136ZM5.71384 17.2269L5.72434 17.2227L4.24355 13.5069L4.23305 13.511L5.71384 17.2269Z" fill="#F58220" mask="url(#path-2-inside-1)"/>
<path d="M35.9089 38.5857L30.6756 30.001" stroke="#F58220" stroke-width="2"/>
</svg>
