<svg width="48" height="32" viewBox="0 0 48 32" fill="none" xmlns="http://www.w3.org/2000/svg">
<path d="M46.8907 15.9195C46.8907 24.1593 40.211 30.8389 31.9712 30.8389C23.7314 30.8389 17.0518 24.1593 17.0518 15.9195C17.0518 7.67967 23.7314 1 31.9712 1C40.211 1 46.8907 7.67967 46.8907 15.9195Z" stroke="#0095DA" stroke-width="2"/>
<path d="M1 14.7981C3.77937 14.7371 5.53554 16.8301 8.25458 15.096C9.6803 14.1875 11.1315 12.7809 12.8169 13.0289C14.4488 13.2698 15.6348 15.1111 17.2935 15.3062C19.3979 15.5529 20.5729 13.0925 22.8743 14.4492C24.3104 15.2968 25.6681 16.9444 27.3328 16.261C28.8463 15.6397 30.0498 13.678 31.6609 13.4625C33.6895 13.1921 34.8682 15.7627 35.932 17.5982" stroke="#F58220" stroke-width="2" stroke-miterlimit="10"/>
</svg>
