<?xml version="1.0" standalone="no"?>
<!DOCTYPE svg PUBLIC "-//W3C//DTD SVG 1.1//EN" "http://www.w3.org/Graphics/SVG/1.1/DTD/svg11.dtd" >
<svg xmlns="http://www.w3.org/2000/svg" xmlns:xlink="http://www.w3.org/1999/xlink" version="1.1">
<metadata>
Created by FontForge 20201107 at Mon Aug 27 15:24:51 2018
 By Jimmy Wärting
Copyright \(c\) 2018 by Swiss Typefaces. All rights reserved. |DCNT
</metadata>
<defs>
<font id="EuclidSquare-Regular" horiz-adv-x="0" >
  <font-face 
    font-family="Euclid Square"
    font-weight="400"
    font-stretch="normal"
    units-per-em="1000"
    panose-1="2 11 5 4 0 0 0 0 0 0"
    ascent="732"
    descent="-268"
    x-height="500"
    cap-height="710"
    bbox="-361 -273 1382 993"
    underline-thickness="75"
    underline-position="-170"
    unicode-range="U+0020-FEFF"
  />
<missing-glyph horiz-adv-x="682" 
d="M91 0v710h500v-710h-500zM330 355l-220 327v-654zM351 355l221 -327v654zM557 691h-432l216 -321zM341 339l-216 -320h432z" />
    <glyph glyph-name="uni0407_uni0407" unicode="&#x407;&#x407;" horiz-adv-x="562" 
d="M94 0v710h93v-710h-93zM375 0v710h93v-710h-93zM25 785c-33 0 -59 26 -59 58s26 59 59 59c32 0 58 -27 58 -59s-26 -58 -58 -58zM280 785c-33 0 -59 26 -59 58s26 59 59 59c32 0 58 -27 58 -59s-26 -58 -58 -58zM535 785c-33 0 -59 26 -59 58s26 59 59 59
c32 0 58 -27 58 -59s-26 -58 -58 -58z" />
    <glyph glyph-name="uni0457_uni0457" unicode="&#x457;&#x457;" horiz-adv-x="497" 
d="M167 0h-86v500h86v-500zM416 0h-86v500h86v-500zM42 596c-35 0 -61 26 -61 61c0 33 26 60 61 60c33 0 60 -27 60 -60c0 -35 -27 -61 -60 -61zM248 596c-35 0 -61 26 -61 61c0 33 26 60 61 60c33 0 60 -27 60 -60c0 -35 -27 -61 -60 -61zM454 596c-35 0 -61 26 -61 61
c0 33 26 60 61 60c33 0 61 -27 61 -60c0 -35 -28 -61 -61 -61z" />
    <glyph glyph-name="uni0457_uni0458" unicode="&#x457;&#x458;" horiz-adv-x="497" 
d="M167 0h-86v500h86v-500zM42 596c-35 0 -61 26 -61 61c0 33 26 60 61 60c33 0 60 -27 60 -60c0 -35 -27 -61 -60 -61zM248 596c-35 0 -61 26 -61 61c0 33 26 60 61 60c33 0 60 -27 60 -60c0 -35 -27 -61 -60 -61zM454 596c-35 0 -61 26 -61 61c0 33 26 60 61 60
c33 0 61 -27 61 -60c0 -35 -28 -61 -61 -61zM272 -199c-28 0 -63 7 -76 14l19 73c11 -4 26 -9 50 -9c35 0 65 21 65 85v536h86v-546c0 -104 -65 -153 -144 -153z" />
    <glyph glyph-name="_515" unicode="ff" horiz-adv-x="788" 
d="M134 0v421h-118v79h118v73c0 99 62 163 161 163c48 0 82 -13 105 -25l-33 -72c-15 7 -39 18 -68 18c-51 0 -79 -34 -79 -89v-68h144v-79h-144v-421h-86zM521 0v421h-101v79h101v73c0 99 61 163 161 163c48 0 81 -13 104 -25l-32 -72c-15 7 -40 18 -68 18
c-51 0 -79 -34 -79 -89v-68h170v-79h-170v-421h-86z" />
    <glyph glyph-name="f_i" unicode="fi" horiz-adv-x="650" 
d="M134 0v421h-118v79h118v73c0 99 61 163 161 163c48 0 81 -13 104 -25l-32 -72c-15 7 -40 18 -68 18c-51 0 -79 -34 -79 -89v-68h170v-79h-170v-421h-86zM526 614c-35 0 -62 26 -62 61c0 33 27 61 62 61s61 -28 61 -61c0 -35 -26 -61 -61 -61zM482 0v500h86v-500h-86z" />
    <glyph glyph-name="_519" unicode="ffi" horiz-adv-x="1037" 
d="M913 614c-35 0 -62 26 -62 61c0 33 27 61 62 61s61 -28 61 -61c0 -35 -26 -61 -61 -61zM869 0v500h86v-500h-86zM134 0v421h-118v79h118v73c0 99 62 163 161 163c48 0 82 -13 105 -25l-33 -72c-15 7 -39 18 -68 18c-51 0 -79 -34 -79 -89v-68h144v-79h-144v-421h-86z
M521 0v421h-101v79h101v73c0 99 61 163 161 163c48 0 81 -13 104 -25l-32 -72c-15 7 -40 18 -68 18c-51 0 -79 -34 -79 -89v-68h170v-79h-170v-421h-86z" />
    <glyph glyph-name="f_l" unicode="fl" horiz-adv-x="650" 
d="M134 0v421h-118v79h118v73c0 99 61 163 161 163c48 0 81 -13 104 -25l-32 -72c-15 7 -40 18 -68 18c-51 0 -79 -34 -79 -89v-68h170v-79h-170v-421h-86zM482 0v730h86v-730h-86z" />
    <glyph glyph-name="_523" unicode="ffl" horiz-adv-x="1037" 
d="M869 0v730h86v-730h-86zM134 0v421h-118v79h118v73c0 99 62 163 161 163c48 0 82 -13 105 -25l-33 -72c-15 7 -39 18 -68 18c-51 0 -79 -34 -79 -89v-68h144v-79h-144v-421h-86zM521 0v421h-101v79h101v73c0 99 61 163 161 163c48 0 81 -13 104 -25l-32 -72
c-15 7 -40 18 -68 18c-51 0 -79 -34 -79 -89v-68h170v-79h-170v-421h-86z" />
    <glyph glyph-name="f_t" unicode="ft" horiz-adv-x="804" 
d="M134 0v421h-118v79h118v73c0 99 61 163 161 163c48 0 81 -13 104 -25l-32 -72c-15 7 -40 18 -68 18c-51 0 -79 -34 -79 -89v-68h142v-79h-142v-421h-86zM684 -5c-84 0 -156 49 -156 153v273h-110v79h110v142h86v-142h155v-79h-155v-262c0 -64 35 -87 80 -87
c33 0 57 10 72 19l26 -73c-23 -11 -57 -23 -108 -23z" />
    <glyph glyph-name="t_t" unicode="tt" horiz-adv-x="818" 
d="M295 -5c-84 0 -156 49 -156 153v273h-126v79h126v142h86v-142h144v-79h-144v-262c0 -64 35 -87 80 -87c33 0 57 10 72 19l26 -73c-21 -11 -57 -23 -108 -23zM699 -5c-84 0 -156 49 -156 153v273h-119v79h119v142h86v-142h154v-79h-154v-262c0 -64 35 -87 79 -87
c35 0 57 10 73 19l26 -73c-23 -11 -57 -23 -108 -23z" />
    <glyph glyph-name=".notdef" horiz-adv-x="682" 
d="M91 0v710h500v-710h-500zM330 355l-220 327v-654zM351 355l221 -327v654zM557 691h-432l216 -321zM341 339l-216 -320h432z" />
    <glyph glyph-name="NULL" 
 />
    <glyph glyph-name="CR" horiz-adv-x="241" 
 />
    <glyph glyph-name="space" unicode=" " horiz-adv-x="241" 
 />
    <glyph glyph-name="exclam" unicode="!" horiz-adv-x="272" 
d="M109 222l-16 204v284h86v-284l-16 -204h-54zM193 0h-124v124h124v-124z" />
    <glyph glyph-name="quotedbl" unicode="&#x22;" horiz-adv-x="413" 
d="M66 463v247h78v-247h-78zM268 463v247h78v-247h-78z" />
    <glyph glyph-name="numbersign" unicode="#" horiz-adv-x="737" 
d="M347 0l62 200h-181l-61 -200h-80l62 200h-116v73h139l54 171h-120v73h143l60 193h79l-60 -193h180l61 193h78l-60 -193h116v-73h-139l-53 -171h120v-73h-144l-61 -200h-79zM305 444l-53 -171h180l53 171h-180z" />
    <glyph glyph-name="dollar" unicode="$" horiz-adv-x="511" 
d="M232 -88v79c-84 7 -151 43 -188 84l57 66c29 -35 75 -59 131 -66v250l-33 13c-108 43 -154 110 -154 202c0 108 86 170 187 181v77h54v-78c68 -7 124 -38 160 -77l-57 -63c-29 31 -64 50 -103 57v-236l27 -11c105 -41 160 -105 160 -206c0 -121 -82 -185 -187 -193v-79
h-54zM387 178c0 64 -36 97 -101 125v-228c59 9 101 47 101 103zM131 541c0 -56 29 -88 101 -119v215c-60 -8 -101 -44 -101 -96z" />
    <glyph glyph-name="percent" unicode="%" horiz-adv-x="991" 
d="M317 0h-93l450 710h93zM762 -8c-109 0 -197 89 -197 197c0 109 88 197 197 197c108 0 197 -88 197 -197c0 -108 -89 -197 -197 -197zM762 70c64 0 118 55 118 119s-54 119 -118 119c-67 0 -118 -55 -118 -119s51 -119 118 -119zM229 324c-109 0 -197 89 -197 197
c0 109 88 197 197 197c108 0 197 -88 197 -197c0 -108 -89 -197 -197 -197zM229 402c64 0 118 55 118 119s-54 119 -118 119c-67 0 -118 -55 -118 -119s51 -119 118 -119z" />
    <glyph glyph-name="ampersand" unicode="&#x26;" horiz-adv-x="740" 
d="M284 -10c-132 0 -218 87 -218 204c0 103 76 160 151 203l5 3c-43 40 -86 93 -86 161c0 95 80 161 181 161c104 0 175 -74 175 -165c0 -87 -69 -141 -138 -175l152 -148l104 134l61 -48l-109 -140l185 -180h-113l-122 118c-74 -85 -137 -128 -228 -128zM287 68
c64 0 111 33 170 104l-178 172l-13 -7c-71 -37 -113 -76 -113 -144c0 -79 65 -125 134 -125zM219 559c0 -48 33 -79 80 -123l5 3c57 30 102 57 102 112c0 56 -35 96 -91 96c-52 0 -96 -32 -96 -88z" />
    <glyph glyph-name="quotesingle" unicode="'" horiz-adv-x="211" 
d="M66 463v247h78v-247h-78z" />
    <glyph glyph-name="parenleft" unicode="(" horiz-adv-x="264" 
d="M124 320c0 -155 31 -297 107 -450l-56 -30c-85 155 -128 315 -128 480s43 325 128 480l56 -30c-76 -153 -107 -295 -107 -450z" />
    <glyph glyph-name="parenright" unicode=")" horiz-adv-x="264" 
d="M140 320c0 155 -31 297 -107 450l56 30c85 -155 128 -315 128 -480s-43 -325 -128 -480l-56 30c76 153 107 295 107 450z" />
    <glyph glyph-name="asterisk" unicode="*" horiz-adv-x="440" 
d="M142 372l-54 39l77 107l-126 42l19 64l128 -42v128h67v-128l127 41l21 -63l-127 -42l79 -107l-54 -39l-79 107z" />
    <glyph glyph-name="plus" unicode="+" horiz-adv-x="500" 
d="M38 251v77h173v172h78v-172h172v-77h-172v-172h-78v172h-173z" />
    <glyph glyph-name="comma" unicode="," horiz-adv-x="257" 
d="M74 -154l47 154h-55v124h124v-125l-62 -153h-54z" />
    <glyph glyph-name="hyphen" unicode="-" horiz-adv-x="386" 
d="M65 237v86h255v-86h-255z" />
    <glyph glyph-name="period" unicode="." horiz-adv-x="242" 
d="M183 0h-124v124h124v-124z" />
    <glyph glyph-name="slash" unicode="/" horiz-adv-x="509" 
d="M21 -110l386 820h81l-386 -820h-81z" />
    <glyph glyph-name="zero" unicode="0" horiz-adv-x="623" 
d="M311 -10c-147 0 -251 109 -251 267v198c0 157 104 267 251 267c146 0 252 -110 252 -267v-198c0 -158 -106 -267 -252 -267zM311 74c97 0 166 67 166 183v198c0 116 -69 183 -166 183c-96 0 -165 -68 -165 -183v-198c0 -115 69 -183 165 -183z" />
    <glyph glyph-name="one" unicode="1" horiz-adv-x="311" 
d="M131 0v625h-98v85h184v-710h-86z" />
    <glyph glyph-name="two" unicode="2" horiz-adv-x="551" 
d="M39 0v72l274 266c47 45 94 102 94 167c0 76 -59 133 -134 133c-71 0 -130 -54 -141 -123l-86 18c19 109 110 189 230 189c124 0 218 -88 218 -213c0 -91 -47 -161 -122 -233l-202 -193h333v-83h-464z" />
    <glyph glyph-name="three" unicode="3" horiz-adv-x="567" 
d="M277 -10c-112 0 -223 66 -250 174l87 30c19 -71 79 -120 164 -120c83 0 154 58 154 141c0 91 -64 143 -157 143h-84v71l180 197h-304v84h419v-71l-182 -201c133 -5 215 -102 215 -223c0 -129 -98 -225 -242 -225z" />
    <glyph glyph-name="four" unicode="4" horiz-adv-x="617" 
d="M395 0v193h-378v69l389 448h75v-436h98v-81h-98v-193h-86zM129 274h266v306z" />
    <glyph glyph-name="five" unicode="5" horiz-adv-x="568" 
d="M294 -10c-112 0 -224 68 -250 174l87 30c17 -69 78 -120 163 -120c84 0 146 68 146 152c0 85 -61 153 -149 153c-56 0 -102 -22 -127 -61h-88v392h405v-84h-319v-216c27 27 77 51 140 51c133 0 226 -107 226 -246c0 -125 -102 -225 -234 -225z" />
    <glyph glyph-name="six" unicode="6" horiz-adv-x="559" 
d="M277 -10c-139 0 -241 105 -241 234c0 75 36 129 80 181l259 305h109l-217 -257c9 1 17 2 28 2c119 0 222 -105 222 -229c0 -131 -101 -236 -240 -236zM277 73c86 0 152 69 152 153s-66 153 -152 153c-88 0 -153 -69 -153 -153s65 -153 153 -153z" />
    <glyph glyph-name="seven" unicode="7" horiz-adv-x="509" 
d="M157 0h-96l331 626h-363v84h466v-72z" />
    <glyph glyph-name="eight" unicode="8" horiz-adv-x="571" 
d="M286 -10c-139 0 -239 94 -239 223c0 85 41 150 112 185c-45 32 -73 81 -73 141c0 107 85 183 200 183c117 0 199 -76 199 -183c0 -60 -27 -109 -72 -141c71 -35 111 -100 111 -185c0 -129 -98 -223 -238 -223zM286 72c96 0 151 63 151 141c0 80 -55 142 -151 142
c-93 0 -152 -62 -152 -142c0 -78 59 -141 152 -141zM286 432c72 0 114 49 114 105c0 60 -42 104 -114 104c-69 0 -115 -44 -115 -104c0 -56 45 -105 115 -105z" />
    <glyph glyph-name="nine" unicode="9" horiz-adv-x="559" 
d="M74 0l219 258c-11 -1 -19 -1 -28 -1c-119 0 -222 105 -222 228c0 132 101 237 240 237c138 0 241 -105 241 -234c0 -75 -36 -129 -80 -181l-260 -307h-110zM283 333c88 0 153 69 153 153s-65 153 -153 153c-87 0 -152 -69 -152 -153s65 -153 152 -153z" />
    <glyph glyph-name="colon" unicode=":" horiz-adv-x="254" 
d="M184 370h-124v124h124v-124zM184 0h-124v124h124v-124z" />
    <glyph glyph-name="semicolon" unicode=";" horiz-adv-x="254" 
d="M184 370h-124v124h124v-124zM73 -154l47 154h-55v124h124v-125l-62 -153h-54z" />
    <glyph glyph-name="less" unicode="&#x3c;" horiz-adv-x="444" 
d="M398 -11l-360 235v87l360 234v-94l-282 -184l282 -184v-94z" />
    <glyph glyph-name="equal" unicode="=" horiz-adv-x="560" 
d="M68 143v76h424v-76h-424zM68 360v77h424v-77h-424z" />
    <glyph glyph-name="greater" unicode="&#x3e;" horiz-adv-x="444" 
d="M406 224l-360 -235v94l282 184l-282 184v94l360 -234v-87z" />
    <glyph glyph-name="question" unicode="?" horiz-adv-x="526" 
d="M202 236v20c0 53 51 101 91 130c55 40 93 71 93 130c0 68 -59 122 -130 122c-69 0 -126 -36 -157 -92l-70 42c40 77 125 134 228 134c125 0 215 -96 215 -204c0 -90 -57 -143 -105 -180c-37 -29 -79 -56 -79 -94v-8h-86zM301 0h-124v124h124v-124z" />
    <glyph glyph-name="at" unicode="@" horiz-adv-x="812" 
d="M395 -10c-216 0 -348 154 -348 347c0 228 184 385 389 385c192 0 340 -124 340 -316c0 -172 -87 -247 -178 -247c-63 0 -92 29 -105 60c-25 -35 -78 -59 -129 -59c-84 0 -153 65 -153 173c0 125 91 218 202 218c69 0 105 -46 116 -67l10 58h76l-49 -238
c-9 -44 -5 -79 38 -79c61 0 102 58 102 183c0 152 -116 249 -271 249c-167 0 -317 -124 -317 -320c0 -164 105 -282 277 -282c60 0 127 13 182 42l28 -63c-63 -29 -142 -44 -210 -44zM376 228c47 0 87 27 110 66l24 113c-11 36 -43 76 -96 76c-61 0 -115 -49 -126 -114
c-16 -80 24 -141 88 -141z" />
    <glyph glyph-name="A" unicode="A" horiz-adv-x="718" 
d="M6 0l314 710h77l315 -710h-97l-92 207h-331l-90 -207h-96zM357 584l-128 -293h257z" />
    <glyph glyph-name="B" unicode="B" horiz-adv-x="629" 
d="M94 0v710h233c132 0 212 -88 212 -188c0 -71 -31 -117 -76 -145c69 -25 123 -75 123 -170c0 -118 -94 -207 -238 -207h-254zM187 84h165c96 0 143 49 143 120c0 69 -47 121 -142 121h-166v-241zM187 405h140c76 0 121 46 121 110c0 60 -45 111 -121 111h-140v-221z" />
    <glyph glyph-name="C" unicode="C" horiz-adv-x="755" 
d="M412 -12c-204 0 -367 162 -367 367s163 367 367 367c136 0 250 -67 314 -172l-78 -47c-49 80 -132 131 -236 131c-155 0 -273 -123 -273 -279s118 -279 273 -279c104 0 187 51 236 131l78 -47c-64 -105 -178 -172 -314 -172z" />
    <glyph glyph-name="D" unicode="D" horiz-adv-x="721" 
d="M94 0v710h204c218 0 378 -152 378 -355s-160 -355 -378 -355h-204zM187 87h111c171 0 284 113 284 268s-113 268 -284 268h-111v-536z" />
    <glyph glyph-name="E" unicode="E" horiz-adv-x="557" 
d="M94 0v710h414v-88h-321v-215h261v-88h-261v-231h321v-88h-414z" />
    <glyph glyph-name="F" unicode="F" horiz-adv-x="531" 
d="M94 0v710h413v-88h-320v-215h253v-88h-253v-319h-93z" />
    <glyph glyph-name="G" unicode="G" horiz-adv-x="765" 
d="M428 -12c-224 0 -382 159 -382 367c0 205 158 367 370 367c112 0 200 -35 267 -99l-62 -67c-51 47 -116 78 -205 78c-161 0 -277 -123 -277 -279c0 -157 113 -279 289 -279c69 0 142 16 189 53v190h-201v87h291v-318c-65 -68 -172 -100 -279 -100z" />
    <glyph glyph-name="H" unicode="H" horiz-adv-x="763" 
d="M94 0v710h93v-303h389v303h93v-710h-93v320h-389v-320h-93z" />
    <glyph glyph-name="I" unicode="I" horiz-adv-x="281" 
d="M94 0v710h93v-710h-93z" />
    <glyph glyph-name="J" unicode="J" horiz-adv-x="469" 
d="M186 -12c-84 0 -144 35 -180 78l61 65c29 -33 62 -57 117 -57c64 0 105 33 105 124v512h93v-516c0 -142 -85 -206 -196 -206z" />
    <glyph glyph-name="K" unicode="K" horiz-adv-x="671" 
d="M563 0l-377 338v-338h-92v710h92v-308l310 308h121l-338 -338l415 -372h-131z" />
    <glyph glyph-name="L" unicode="L" horiz-adv-x="548" 
d="M94 0v710h93v-622h343v-88h-436z" />
    <glyph glyph-name="M" unicode="M" horiz-adv-x="885" 
d="M94 0v710h85l263 -416l264 416h85v-710h-92v530l-223 -351h-66l-223 352v-531h-93z" />
    <glyph glyph-name="N" unicode="N" horiz-adv-x="794" 
d="M699 0h-80l-432 553v-553h-93v710h81l432 -553v553h92v-710z" />
    <glyph glyph-name="O" unicode="O" horiz-adv-x="825" 
d="M412 76c156 0 274 123 274 279s-118 279 -274 279c-155 0 -273 -123 -273 -279s118 -279 273 -279zM412 -12c-204 0 -367 162 -367 367s163 367 367 367c205 0 367 -162 367 -367s-162 -367 -367 -367z" />
    <glyph glyph-name="P" unicode="P" horiz-adv-x="586" 
d="M555 484c0 -128 -96 -225 -244 -225h-124v-259h-93v710h217c148 0 244 -98 244 -226zM463 484c0 79 -54 139 -152 139h-124v-278h124c98 0 152 60 152 139z" />
    <glyph glyph-name="Q" unicode="Q" horiz-adv-x="832" 
d="M412 -12c-204 0 -367 162 -367 367s163 367 367 367c205 0 367 -162 367 -367c0 -91 -31 -169 -82 -233l72 -66l-57 -64l-77 70c-61 -47 -139 -74 -223 -74zM412 76c59 0 112 16 157 48l-113 105l57 64l117 -109c35 47 56 106 56 171c0 156 -118 279 -274 279
c-155 0 -273 -123 -273 -279s118 -279 273 -279z" />
    <glyph glyph-name="R" unicode="R" horiz-adv-x="635" 
d="M94 0v710h242c132 0 212 -79 212 -196c0 -104 -65 -174 -176 -190l274 -324h-117l-273 323h-69v-323h-93zM187 406h138c81 0 130 36 130 108s-49 110 -130 110h-138v-218z" />
    <glyph glyph-name="S" unicode="S" horiz-adv-x="554" 
d="M284 -12c-116 0 -213 55 -248 128l74 56c39 -60 96 -97 176 -97c75 0 132 40 132 106c0 57 -35 95 -102 120l-94 36c-112 41 -162 99 -162 196c0 116 96 189 223 189c89 0 163 -40 206 -97l-67 -60c-37 43 -80 70 -141 70c-70 0 -128 -39 -128 -98c0 -60 34 -87 107 -114
l85 -33c107 -40 166 -100 166 -205c0 -120 -95 -197 -227 -197z" />
    <glyph glyph-name="T" unicode="T" horiz-adv-x="567" 
d="M238 0v622h-221v88h533v-88h-221v-622h-91z" />
    <glyph glyph-name="U" unicode="U" horiz-adv-x="726" 
d="M363 -12c-164 0 -278 111 -278 288v434h93v-436c0 -128 73 -198 185 -198s185 70 185 198v436h93v-434c0 -177 -114 -288 -278 -288z" />
    <glyph glyph-name="V" unicode="V" horiz-adv-x="701" 
d="M311 0l-303 710h103l239 -565l240 565h101l-302 -710h-78z" />
    <glyph glyph-name="W" unicode="W" horiz-adv-x="1000" 
d="M238 0l-221 710h97l169 -547l176 547h80l177 -547l168 547h99l-222 -710h-81l-180 558l-180 -558h-82z" />
    <glyph glyph-name="X" unicode="X" horiz-adv-x="670" 
d="M118 0h-114l274 359l-263 351h111l209 -277l209 277h111l-262 -351l273 -359h-113l-218 284z" />
    <glyph glyph-name="Y" unicode="Y" horiz-adv-x="674" 
d="M291 0v301l-276 409h111l211 -316l212 316h111l-277 -410v-300h-92z" />
    <glyph glyph-name="Z" unicode="Z" horiz-adv-x="587" 
d="M34 0v62l385 560h-374v88h497v-62l-385 -560h395v-88h-518z" />
    <glyph glyph-name="bracketleft" unicode="[" horiz-adv-x="305" 
d="M92 -160v960h187v-72h-109v-816h109v-72h-187z" />
    <glyph glyph-name="backslash" unicode="\" horiz-adv-x="509" 
d="M102 710l386 -820h-81l-386 820h81z" />
    <glyph glyph-name="bracketright" unicode="]" horiz-adv-x="305" 
d="M213 800v-960h-187v72h109v816h-109v72h187z" />
    <glyph glyph-name="asciicircum" unicode="^" horiz-adv-x="407" 
d="M124 500h-72l126 210h52l126 -210h-73l-80 132z" />
    <glyph glyph-name="underscore" unicode="_" horiz-adv-x="532" 
d="M54 -73v73h424v-73h-424z" />
    <glyph glyph-name="grave" unicode="`" 
d="M98 574h-72l-125 156h109z" />
    <glyph glyph-name="a" unicode="a" horiz-adv-x="624" 
d="M294 -10c-149 0 -252 118 -252 260s103 260 252 260c65 0 123 -22 163 -65v55h86v-500h-86v55c-40 -43 -98 -65 -163 -65zM301 69c75 0 127 36 156 83v197c-29 47 -81 82 -156 82c-100 0 -170 -81 -170 -181s70 -181 170 -181z" />
    <glyph glyph-name="b" unicode="b" horiz-adv-x="624" 
d="M330 -10c-64 0 -122 22 -163 65v-55h-86v730h86v-285c41 43 99 65 163 65c149 0 252 -118 252 -260s-103 -260 -252 -260zM323 69c100 0 170 81 170 181s-70 181 -170 181c-75 0 -127 -35 -156 -82v-197c29 -47 81 -83 156 -83z" />
    <glyph glyph-name="c" unicode="c" horiz-adv-x="565" 
d="M304 -10c-152 0 -262 115 -262 260s110 260 262 260c104 0 187 -54 231 -134l-75 -42c-28 57 -84 96 -156 96c-104 0 -175 -80 -175 -180s71 -180 175 -180c72 0 128 39 156 96l75 -42c-44 -80 -127 -134 -231 -134z" />
    <glyph glyph-name="d" unicode="d" horiz-adv-x="624" 
d="M294 -10c-149 0 -252 118 -252 260s103 260 252 260c65 0 123 -22 163 -65v285h86v-730h-86v55c-40 -43 -98 -65 -163 -65zM301 69c75 0 127 36 156 83v197c-29 47 -81 82 -156 82c-100 0 -170 -81 -170 -181s70 -181 170 -181z" />
    <glyph glyph-name="e" unicode="e" horiz-adv-x="581" 
d="M301 -10c-156 0 -259 113 -259 260s107 260 260 260c130 0 238 -91 238 -251c0 -9 0 -15 -1 -26h-410c3 -93 74 -164 173 -164c77 0 125 34 156 87l68 -47c-45 -73 -121 -119 -225 -119zM135 303h317c-13 82 -77 131 -153 131c-75 0 -148 -48 -164 -131z" />
    <glyph glyph-name="f" unicode="f" horiz-adv-x="401" 
d="M134 0v421h-118v79h118v73c0 99 61 163 161 163c48 0 81 -13 104 -25l-32 -72c-15 7 -40 18 -68 18c-51 0 -79 -34 -79 -89v-68h170v-79h-170v-421h-86z" />
    <glyph glyph-name="g" unicode="g" horiz-adv-x="625" 
d="M294 -204c-103 0 -182 39 -225 92l59 60c40 -47 94 -74 166 -74c79 0 164 47 164 159v38c-40 -44 -99 -66 -163 -66c-148 0 -253 113 -253 253s106 252 253 252c64 0 123 -22 163 -65v55h86v-470c0 -160 -115 -234 -250 -234zM302 85c75 0 127 35 156 82v182
c-29 47 -81 82 -156 82c-100 0 -171 -76 -171 -173c0 -99 72 -173 171 -173z" />
    <glyph glyph-name="h" unicode="h" horiz-adv-x="589" 
d="M167 0h-86v730h86v-293c35 51 94 73 158 73c112 0 190 -78 190 -203v-307h-85v294c0 88 -48 137 -125 137c-71 0 -118 -40 -138 -99v-332z" />
    <glyph glyph-name="i" unicode="i" horiz-adv-x="249" 
d="M125 614c-35 0 -62 26 -62 61c0 33 27 61 62 61s61 -28 61 -61c0 -35 -26 -61 -61 -61zM81 0v500h86v-500h-86z" />
    <glyph glyph-name="j" unicode="j" horiz-adv-x="257" 
d="M32 -199c-28 0 -64 7 -76 14l19 73c11 -4 25 -9 49 -9c35 0 65 21 65 85v536h86v-546c0 -104 -66 -153 -143 -153zM133 614c-35 0 -62 26 -62 61c0 33 27 61 62 61s61 -28 61 -61c0 -35 -26 -61 -61 -61z" />
    <glyph glyph-name="k" unicode="k" horiz-adv-x="539" 
d="M438 0l-271 250v-250h-86v730h86v-425l218 195h114l-246 -221l301 -279h-116z" />
    <glyph glyph-name="l" unicode="l" horiz-adv-x="249" 
d="M81 0v730h86v-730h-86z" />
    <glyph glyph-name="m" unicode="m" horiz-adv-x="885" 
d="M725 0v293c0 85 -42 138 -114 138c-63 0 -105 -39 -124 -98c1 -9 2 -17 2 -26v-307h-86v293c0 85 -42 138 -113 138c-60 0 -104 -36 -123 -88v-343h-86v500h86v-53c35 44 90 63 143 63c63 0 115 -30 146 -82c40 59 104 82 168 82c119 0 187 -80 187 -203v-307h-86z" />
    <glyph glyph-name="n" unicode="n" horiz-adv-x="589" 
d="M81 0v500h86v-63c35 51 94 73 158 73c112 0 190 -78 190 -203v-307h-85v294c0 88 -48 137 -125 137c-71 0 -118 -40 -138 -99v-332h-86z" />
    <glyph glyph-name="o" unicode="o" horiz-adv-x="606" 
d="M303 -10c-152 0 -262 116 -262 260s110 260 262 260c150 0 261 -116 261 -260s-111 -260 -261 -260zM303 70c104 0 173 80 173 180s-69 180 -173 180s-174 -80 -174 -180s70 -180 174 -180z" />
    <glyph glyph-name="p" unicode="p" horiz-adv-x="624" 
d="M81 -194v694h86v-55c41 43 99 65 163 65c149 0 252 -118 252 -260s-103 -260 -252 -260c-64 0 -122 22 -163 65v-249h-86zM323 69c100 0 170 81 170 181s-70 181 -170 181c-75 0 -127 -35 -156 -82v-197c29 -47 81 -83 156 -83z" />
    <glyph glyph-name="q" unicode="q" horiz-adv-x="624" 
d="M457 -194v249c-40 -43 -98 -65 -163 -65c-149 0 -252 118 -252 260s103 260 252 260c65 0 123 -22 163 -65v55h86v-694h-86zM301 69c75 0 127 36 156 83v197c-29 47 -81 82 -156 82c-100 0 -170 -81 -170 -181s70 -181 170 -181z" />
    <glyph glyph-name="r" unicode="r" horiz-adv-x="359" 
d="M81 0v500h86v-74c19 41 75 79 135 79c17 0 31 -2 44 -5l-11 -86c-15 5 -28 6 -43 6c-51 0 -105 -33 -125 -96v-324h-86z" />
    <glyph glyph-name="s" unicode="s" horiz-adv-x="450" 
d="M232 -10c-89 0 -165 37 -196 116l70 39c19 -51 71 -79 127 -79c48 0 87 24 87 67c0 36 -22 58 -87 78l-50 16c-83 24 -125 75 -125 146c0 85 77 137 172 137c75 0 132 -31 165 -87l-64 -44c-23 32 -56 57 -104 57c-43 0 -83 -23 -83 -60c0 -31 15 -55 71 -72l55 -17
c87 -27 136 -71 136 -147c0 -96 -74 -150 -174 -150z" />
    <glyph glyph-name="t" unicode="t" horiz-adv-x="415" 
d="M295 -5c-84 0 -156 49 -156 153v273h-126v79h126v142h86v-142h155v-79h-155v-262c0 -64 35 -87 80 -87c33 0 57 10 72 19l26 -73c-21 -11 -57 -23 -108 -23z" />
    <glyph glyph-name="u" unicode="u" horiz-adv-x="579" 
d="M498 500v-500h-86v63c-35 -51 -95 -73 -151 -73c-110 0 -187 78 -187 203v307h86v-294c0 -88 45 -137 120 -137c64 0 111 40 132 99v332h86z" />
    <glyph glyph-name="v" unicode="v" horiz-adv-x="546" 
d="M237 0l-231 500h96l171 -379l171 379h96l-231 -500h-72z" />
    <glyph glyph-name="w" unicode="w" horiz-adv-x="763" 
d="M505 0l-124 359l-123 -359h-76l-170 500h90l121 -365l125 365h66l125 -365l121 365h91l-170 -500h-76z" />
    <glyph glyph-name="x" unicode="x" horiz-adv-x="530" 
d="M417 0l-152 189l-152 -189h-107l205 253l-188 247h104l138 -181l137 181h105l-189 -247l205 -253h-106z" />
    <glyph glyph-name="y" unicode="y" horiz-adv-x="547" 
d="M221 -194h-96l102 220l-219 474h95l172 -380l171 380h96z" />
    <glyph glyph-name="z" unicode="z" horiz-adv-x="484" 
d="M40 0v68l286 353h-282v79h393v-69l-286 -352h295v-79h-406z" />
    <glyph glyph-name="braceleft" unicode="{" horiz-adv-x="316" 
d="M290 -160h-60c-95 0 -127 50 -127 143v230c0 45 -9 71 -58 71h-15v72h15c49 0 58 23 58 70v231c0 93 31 143 126 143h61v-72h-48c-51 0 -61 -22 -61 -73v-225c0 -63 -13 -91 -54 -110c41 -19 54 -48 54 -111v-224c0 -52 10 -73 61 -73h48v-72z" />
    <glyph glyph-name="bar" unicode="|" horiz-adv-x="262" 
d="M92 -110v820h79v-820h-79z" />
    <glyph glyph-name="braceright" unicode="}" horiz-adv-x="316" 
d="M86 -160h-60v72h48c51 0 61 21 61 73v224c0 63 13 92 54 111c-41 19 -54 47 -54 110v225c0 51 -10 73 -61 73h-48v72h61c95 0 126 -50 126 -143v-231c0 -47 9 -70 58 -70h15v-72h-15c-49 0 -58 -26 -58 -71v-230c0 -93 -32 -143 -127 -143z" />
    <glyph glyph-name="asciitilde" unicode="~" horiz-adv-x="412" 
d="M69 230l55 119h46l81 -59l27 59h67l-55 -119h-46l-82 58l-26 -58h-67z" />
    <glyph glyph-name="uni00A0" unicode="&#xa0;" horiz-adv-x="241" 
 />
    <glyph glyph-name="exclamdown" unicode="&#xa1;" horiz-adv-x="253" 
d="M153 282l17 -191v-285h-87v285l17 191h53zM183 376h-124v124h124v-124z" />
    <glyph glyph-name="cent" unicode="&#xa2;" horiz-adv-x="572" 
d="M276 -88v80c-136 13 -233 121 -233 258c0 135 97 245 233 258v80h54v-79c92 -8 165 -60 206 -133l-75 -42c-25 51 -71 86 -131 94v-357c60 8 106 44 131 95l75 -42c-41 -75 -114 -125 -206 -133v-79h-54zM130 250c0 -92 58 -163 146 -178v355c-88 -13 -146 -86 -146 -177
z" />
    <glyph glyph-name="sterling" unicode="&#xa3;" horiz-adv-x="559" 
d="M51 336v55h62c-12 43 -22 85 -22 125c0 118 86 206 218 206c106 0 180 -67 209 -155l-72 -37c-24 56 -62 108 -138 108c-80 0 -131 -49 -131 -124c0 -40 12 -80 25 -123h191v-55h-173c13 -43 24 -84 24 -128c0 -50 -12 -91 -37 -124h310v-84h-466v84h62
c29 31 47 68 47 119c0 36 -15 82 -30 133h-79z" />
    <glyph glyph-name="yen" unicode="&#xa5;" horiz-adv-x="673" 
d="M86 300v54h174l-230 356h103l203 -324l203 324h104l-229 -356h173v-54h-207v-75h207v-54h-207v-171h-86v171h-208v54h208v75h-208z" />
    <glyph glyph-name="brokenbar" unicode="&#xa6;" horiz-adv-x="262" 
d="M92 -110v362h79v-362h-79zM92 348v362h79v-362h-79z" />
    <glyph glyph-name="section" unicode="&#xa7;" horiz-adv-x="458" 
d="M239 -219c-79 0 -160 38 -171 139h80c11 -52 51 -69 91 -69c47 0 86 31 85 84c-3 61 -46 98 -97 122l-63 30c-71 33 -111 89 -111 164c0 72 35 129 107 164c-61 36 -103 82 -103 161c0 87 60 146 155 146c79 0 151 -38 162 -139h-80c-11 52 -43 69 -82 69
c-48 0 -76 -31 -76 -76c0 -61 47 -88 96 -113l63 -30c71 -33 112 -89 112 -164c0 -72 -36 -131 -109 -164c63 -39 102 -91 105 -171c0 -92 -71 -153 -164 -153zM132 255c0 -53 35 -84 79 -104l7 -4c65 25 110 54 110 119c0 52 -36 84 -79 104l-7 3
c-66 -24 -110 -54 -110 -118z" />
    <glyph glyph-name="dieresis" unicode="&#xa8;" 
d="M-112 594c-33 0 -59 26 -59 58s26 59 59 59c32 0 58 -27 58 -59s-26 -58 -58 -58zM113 594c-32 0 -59 26 -59 58s27 59 59 59s58 -27 58 -59s-26 -58 -58 -58z" />
    <glyph glyph-name="copyright" unicode="&#xa9;" horiz-adv-x="824" 
d="M411 59c163 0 297 133 297 296s-134 296 -297 296c-161 0 -295 -133 -295 -296s134 -296 295 -296zM411 -12c-201 0 -366 165 -366 367s165 367 366 367c203 0 368 -165 368 -367s-165 -367 -368 -367zM414 163c-107 0 -193 85 -193 192s86 193 193 193
c76 0 138 -38 170 -98l-61 -34c-23 39 -60 64 -109 64c-68 0 -122 -57 -122 -125s54 -124 122 -124c49 0 86 24 109 63l61 -34c-32 -59 -94 -97 -170 -97z" />
    <glyph glyph-name="ordfeminine" unicode="&#xaa;" horiz-adv-x="417" 
d="M192 404c-88 0 -149 71 -149 156s61 156 149 156c36 0 65 -11 86 -33v27h70v-300h-70v27c-21 -22 -50 -33 -86 -33zM201 467c39 0 61 17 77 40v106c-16 23 -38 40 -77 40c-51 0 -86 -42 -86 -93s35 -93 86 -93z" />
    <glyph glyph-name="guillemotleft" unicode="&#xab;" horiz-adv-x="477" 
d="M311 250l114 -196l-58 -38l-152 234l152 234l58 -38zM138 250l114 -196l-58 -38l-152 234l152 234l58 -38z" />
    <glyph glyph-name="uni00AD" unicode="&#xad;" horiz-adv-x="386" 
d="M65 237v86h255v-86h-255z" />
    <glyph glyph-name="registered" unicode="&#xae;" horiz-adv-x="824" 
d="M411 -12c-201 0 -366 165 -366 367s165 367 366 367c203 0 368 -165 368 -367s-165 -367 -368 -367zM411 59c163 0 297 133 297 296s-134 296 -297 296c-161 0 -295 -133 -295 -296s134 -296 295 -296zM293 169v373h139c71 0 114 -46 114 -109c0 -51 -26 -84 -79 -99
l135 -165h-85l-131 159h-22v-159h-71zM364 389h60c31 0 52 17 52 44c0 28 -21 43 -52 43h-60v-87z" />
    <glyph glyph-name="macron" unicode="&#xaf;" 
d="M-161 641v69h322v-69h-322z" />
    <glyph glyph-name="degree" unicode="&#xb0;" horiz-adv-x="347" 
d="M174 517c37 0 67 30 67 67s-30 68 -67 68c-39 0 -68 -31 -68 -68s29 -67 68 -67zM174 455c-72 0 -130 57 -130 129s58 130 130 130s129 -58 129 -130s-57 -129 -129 -129z" />
    <glyph glyph-name="twosuperior" unicode="&#xb2;" horiz-adv-x="351" 
d="M30 410v60l167 162c24 24 46 51 46 83c0 36 -27 65 -66 65s-70 -28 -77 -67l-69 16c15 73 72 120 148 120c75 0 135 -49 135 -130c0 -59 -30 -98 -73 -139l-105 -102h182v-68h-288z" />
    <glyph glyph-name="threesuperior" unicode="&#xb3;" horiz-adv-x="354" 
d="M175 403c-68 0 -139 41 -155 108l68 26c11 -39 43 -66 88 -66s79 29 79 72c0 47 -35 74 -83 74h-54v57l95 100h-167v68h257v-58l-101 -106c77 -8 123 -64 123 -135c0 -82 -62 -140 -150 -140z" />
    <glyph glyph-name="acute" unicode="&#xb4;" 
d="M-99 574l88 156h109l-125 -156h-72z" />
    <glyph glyph-name="paragraph" unicode="&#xb6;" horiz-adv-x="624" 
d="M255 -184v444c-124 0 -225 101 -225 225s101 225 225 225h265v-894h-79v815h-107v-815h-79z" />
    <glyph glyph-name="periodcentered" unicode="&#xb7;" horiz-adv-x="253" 
d="M183 205h-124v124h124v-124z" />
    <glyph glyph-name="cedilla" unicode="&#xb8;" 
d="M-105 -187l13 50c22 -9 45 -14 69 -14c27 0 57 8 57 33c0 19 -18 27 -39 27c-19 0 -33 -4 -46 -9l-31 22l49 81h55l-32 -52c11 5 23 7 38 7c43 0 76 -27 76 -72c0 -59 -51 -90 -122 -90c-29 0 -60 5 -87 17z" />
    <glyph glyph-name="onesuperior" unicode="&#xb9;" horiz-adv-x="214" 
d="M86 410v366h-67v66h134v-432h-67z" />
    <glyph glyph-name="ordmasculine" unicode="&#xba;" horiz-adv-x="398" 
d="M199 404c-89 0 -157 68 -157 156s68 156 157 156c88 0 157 -68 157 -156s-69 -156 -157 -156zM199 469c51 0 87 39 87 91s-36 91 -87 91s-86 -39 -86 -91s35 -91 86 -91z" />
    <glyph glyph-name="guillemotright" unicode="&#xbb;" horiz-adv-x="477" 
d="M224 54l114 196l-114 196l58 38l152 -234l-152 -234zM51 54l114 196l-114 196l58 38l152 -234l-152 -234z" />
    <glyph glyph-name="onequarter" unicode="&#xbc;" horiz-adv-x="772" 
d="M85 278v366h-67v66h134v-432h-67zM109 0h-81l500 710h81zM622 1v107h-221v56l228 269h63v-261h58v-64h-58v-107h-70zM487 172h135v157z" />
    <glyph glyph-name="onehalf" unicode="&#xbd;" horiz-adv-x="760" 
d="M85 278v366h-67v66h134v-432h-67zM109 0h-81l500 710h81zM438 1v60l167 162c24 24 46 51 46 83c0 36 -27 65 -66 65s-70 -28 -77 -67l-69 16c15 73 72 120 148 120c75 0 135 -49 135 -130c0 -59 -30 -98 -73 -139l-105 -102h182v-68h-288z" />
    <glyph glyph-name="threequarters" unicode="&#xbe;" horiz-adv-x="898" 
d="M175 271c-68 0 -139 41 -155 108l68 26c11 -39 43 -66 88 -66s79 29 79 72c0 47 -35 74 -83 74h-54v57l95 100h-167v68h257v-58l-101 -106c77 -8 123 -64 123 -135c0 -82 -62 -140 -150 -140zM235 0h-81l500 710h81zM748 1v107h-221v56l228 269h63v-261h58v-64h-58v-107
h-70zM613 172h135v157z" />
    <glyph glyph-name="questiondown" unicode="&#xbf;" horiz-adv-x="517" 
d="M263 -204c-125 0 -215 96 -215 204c0 90 56 143 104 180c38 30 80 55 80 94v8h86v-20c0 -53 -51 -101 -91 -130c-56 -40 -93 -71 -93 -130c0 -68 59 -122 130 -122c69 0 126 36 157 92l70 -42c-40 -77 -125 -134 -228 -134zM332 376h-124v124h124v-124z" />
    <glyph glyph-name="Agrave" unicode="&#xc0;" horiz-adv-x="718" 
d="M6 0l314 710h77l315 -710h-97l-92 207h-331l-90 -207h-96zM357 584l-128 -293h257zM391 768h-72l-115 137h109z" />
    <glyph glyph-name="Aacute" unicode="&#xc1;" horiz-adv-x="718" 
d="M6 0l314 710h77l315 -710h-97l-92 207h-331l-90 -207h-96zM357 584l-128 -293h257zM325 768l78 137h109l-115 -137h-72z" />
    <glyph glyph-name="Acircumflex" unicode="&#xc2;" horiz-adv-x="718" 
d="M6 0l314 710h77l315 -710h-97l-92 207h-331l-90 -207h-96zM357 584l-128 -293h257zM185 768l127 137h93l127 -137h-93l-81 83l-80 -83h-93z" />
    <glyph glyph-name="Atilde" unicode="&#xc3;" horiz-adv-x="718" 
d="M6 0l314 710h77l315 -710h-97l-92 207h-331l-90 -207h-96zM357 584l-128 -293h257zM185 786l3 18c11 57 53 95 106 95c52 0 97 -44 129 -44c22 0 36 15 43 44h66l-4 -19c-11 -56 -51 -94 -106 -94c-53 0 -96 44 -128 44c-21 0 -36 -15 -44 -44h-65z" />
    <glyph glyph-name="Adieresis" unicode="&#xc4;" horiz-adv-x="718" 
d="M6 0l314 710h77l315 -710h-97l-92 207h-331l-90 -207h-96zM357 584l-128 -293h257zM246 785c-33 0 -59 26 -59 58s26 59 59 59c32 0 58 -27 58 -59s-26 -58 -58 -58zM471 785c-32 0 -59 26 -59 58s27 59 59 59s58 -27 58 -59s-26 -58 -58 -58z" />
    <glyph glyph-name="Aring" unicode="&#xc5;" horiz-adv-x="718" 
d="M6 0l314 710h77l315 -710h-97l-92 207h-331l-90 -207h-96zM357 584l-128 -293h257zM358 753c-67 0 -121 54 -121 120s54 120 121 120c66 0 122 -54 122 -120s-56 -120 -122 -120zM358 804c39 0 71 30 71 69s-32 70 -71 70s-69 -31 -69 -70s30 -69 69 -69z" />
    <glyph glyph-name="AE" unicode="&#xc6;" horiz-adv-x="914" 
d="M451 0v207h-248l-123 -207h-103l425 710h463v-88h-321v-215h261v-88h-261v-231h321v-88h-414zM450 622l-197 -331h198v331h-1z" />
    <glyph glyph-name="Ccedilla" unicode="&#xc7;" horiz-adv-x="755" 
d="M412 -12c-204 0 -367 162 -367 367s163 367 367 367c136 0 250 -67 314 -172l-78 -47c-49 80 -132 131 -236 131c-155 0 -273 -123 -273 -279s118 -279 273 -279c104 0 187 51 236 131l78 -47c-64 -105 -178 -172 -314 -172zM308 -187l14 50c22 -9 45 -14 68 -14
c27 0 57 8 57 33c0 19 -16 27 -39 27c-19 0 -33 -4 -46 -9l-30 22l48 81h55l-32 -52c11 5 23 7 38 7c43 0 76 -27 76 -72c0 -59 -51 -90 -122 -90c-29 0 -60 5 -87 17z" />
    <glyph glyph-name="Egrave" unicode="&#xc8;" horiz-adv-x="557" 
d="M94 0v710h414v-88h-321v-215h261v-88h-261v-231h321v-88h-414zM334 768h-72l-115 137h109z" />
    <glyph glyph-name="Eacute" unicode="&#xc9;" horiz-adv-x="557" 
d="M94 0v710h414v-88h-321v-215h261v-88h-261v-231h321v-88h-414zM267 768l78 137h109l-115 -137h-72z" />
    <glyph glyph-name="Ecircumflex" unicode="&#xca;" horiz-adv-x="557" 
d="M94 0v710h414v-88h-321v-215h261v-88h-261v-231h321v-88h-414zM128 768l127 137h93l127 -137h-93l-81 83l-80 -83h-93z" />
    <glyph glyph-name="Edieresis" unicode="&#xcb;" horiz-adv-x="557" 
d="M94 0v710h414v-88h-321v-215h261v-88h-261v-231h321v-88h-414zM189 785c-33 0 -59 26 -59 58s26 59 59 59c32 0 58 -27 58 -59s-26 -58 -58 -58zM414 785c-32 0 -59 26 -59 58s27 59 59 59s58 -27 58 -59s-26 -58 -58 -58z" />
    <glyph glyph-name="Igrave" unicode="&#xcc;" horiz-adv-x="281" 
d="M94 0v710h93v-710h-93zM174 768h-72l-115 137h109z" />
    <glyph glyph-name="Iacute" unicode="&#xcd;" horiz-adv-x="281" 
d="M94 0v710h93v-710h-93zM107 768l78 137h109l-115 -137h-72z" />
    <glyph glyph-name="Icircumflex" unicode="&#xce;" horiz-adv-x="281" 
d="M94 0v710h93v-710h-93zM-32 768l127 137h93l127 -137h-93l-81 83l-80 -83h-93z" />
    <glyph glyph-name="Idieresis" unicode="&#xcf;" horiz-adv-x="281" 
d="M94 0v710h93v-710h-93zM29 785c-33 0 -59 26 -59 58s26 59 59 59c32 0 58 -27 58 -59s-26 -58 -58 -58zM254 785c-32 0 -59 26 -59 58s27 59 59 59s58 -27 58 -59s-26 -58 -58 -58z" />
    <glyph glyph-name="Eth" unicode="&#xd0;" horiz-adv-x="729" 
d="M101 0v710h204c218 0 378 -152 378 -355s-160 -355 -378 -355h-204zM194 87h111c171 0 284 113 284 268s-113 268 -284 268h-111v-536zM28 319v82h326v-82h-326z" />
    <glyph glyph-name="Ntilde" unicode="&#xd1;" horiz-adv-x="794" 
d="M699 0h-80l-432 553v-553h-93v710h81l432 -553v553h92v-710zM220 786l3 18c11 57 53 95 106 95c52 0 97 -44 129 -44c22 0 36 15 43 44h66l-4 -19c-11 -56 -51 -94 -106 -94c-53 0 -96 44 -128 44c-21 0 -36 -15 -44 -44h-65z" />
    <glyph glyph-name="Ograve" unicode="&#xd2;" horiz-adv-x="825" 
d="M412 76c156 0 274 123 274 279s-118 279 -274 279c-155 0 -273 -123 -273 -279s118 -279 273 -279zM412 -12c-204 0 -367 162 -367 367s163 367 367 367c205 0 367 -162 367 -367s-162 -367 -367 -367zM445 768h-72l-115 137h109z" />
    <glyph glyph-name="Oacute" unicode="&#xd3;" horiz-adv-x="825" 
d="M412 76c156 0 274 123 274 279s-118 279 -274 279c-155 0 -273 -123 -273 -279s118 -279 273 -279zM412 -12c-204 0 -367 162 -367 367s163 367 367 367c205 0 367 -162 367 -367s-162 -367 -367 -367zM379 768l78 137h109l-115 -137h-72z" />
    <glyph glyph-name="Ocircumflex" unicode="&#xd4;" horiz-adv-x="825" 
d="M412 76c156 0 274 123 274 279s-118 279 -274 279c-155 0 -273 -123 -273 -279s118 -279 273 -279zM412 -12c-204 0 -367 162 -367 367s163 367 367 367c205 0 367 -162 367 -367s-162 -367 -367 -367zM239 768l127 137h93l127 -137h-93l-81 83l-80 -83h-93z" />
    <glyph glyph-name="Otilde" unicode="&#xd5;" horiz-adv-x="825" 
d="M412 76c156 0 274 123 274 279s-118 279 -274 279c-155 0 -273 -123 -273 -279s118 -279 273 -279zM412 -12c-204 0 -367 162 -367 367s163 367 367 367c205 0 367 -162 367 -367s-162 -367 -367 -367zM239 786l3 18c11 57 53 95 106 95c52 0 97 -44 129 -44
c22 0 36 15 43 44h66l-4 -19c-11 -56 -51 -94 -106 -94c-53 0 -96 44 -128 44c-21 0 -36 -15 -44 -44h-65z" />
    <glyph glyph-name="Odieresis" unicode="&#xd6;" horiz-adv-x="825" 
d="M412 76c156 0 274 123 274 279s-118 279 -274 279c-155 0 -273 -123 -273 -279s118 -279 273 -279zM412 -12c-204 0 -367 162 -367 367s163 367 367 367c205 0 367 -162 367 -367s-162 -367 -367 -367zM300 785c-33 0 -59 26 -59 58s26 59 59 59c32 0 58 -27 58 -59
s-26 -58 -58 -58zM525 785c-32 0 -59 26 -59 58s27 59 59 59s58 -27 58 -59s-26 -58 -58 -58z" />
    <glyph glyph-name="multiply" unicode="&#xd7;" horiz-adv-x="503" 
d="M109 94l-56 55l143 141l-143 140l56 56l143 -140l142 140l56 -56l-143 -140l143 -141l-56 -55l-142 140z" />
    <glyph glyph-name="Oslash" unicode="&#xd8;" horiz-adv-x="826" 
d="M413 76c156 0 274 123 274 279s-118 279 -274 279c-155 0 -273 -123 -273 -279s118 -279 273 -279zM413 -12c-204 0 -367 162 -367 367s163 367 367 367c205 0 367 -162 367 -367s-162 -367 -367 -367zM752 679l-622 -699l-56 52l623 698z" />
    <glyph glyph-name="Ugrave" unicode="&#xd9;" horiz-adv-x="726" 
d="M363 -12c-164 0 -278 111 -278 288v434h93v-436c0 -128 73 -198 185 -198s185 70 185 198v436h93v-434c0 -177 -114 -288 -278 -288zM396 768h-72l-115 137h109z" />
    <glyph glyph-name="Uacute" unicode="&#xda;" horiz-adv-x="726" 
d="M363 -12c-164 0 -278 111 -278 288v434h93v-436c0 -128 73 -198 185 -198s185 70 185 198v436h93v-434c0 -177 -114 -288 -278 -288zM329 768l78 137h109l-115 -137h-72z" />
    <glyph glyph-name="Ucircumflex" unicode="&#xdb;" horiz-adv-x="726" 
d="M363 -12c-164 0 -278 111 -278 288v434h93v-436c0 -128 73 -198 185 -198s185 70 185 198v436h93v-434c0 -177 -114 -288 -278 -288zM190 768l127 137h93l127 -137h-93l-81 83l-80 -83h-93z" />
    <glyph glyph-name="Udieresis" unicode="&#xdc;" horiz-adv-x="726" 
d="M363 -12c-164 0 -278 111 -278 288v434h93v-436c0 -128 73 -198 185 -198s185 70 185 198v436h93v-434c0 -177 -114 -288 -278 -288zM251 785c-33 0 -59 26 -59 58s26 59 59 59c32 0 58 -27 58 -59s-26 -58 -58 -58zM476 785c-32 0 -59 26 -59 58s27 59 59 59
s58 -27 58 -59s-26 -58 -58 -58z" />
    <glyph glyph-name="Yacute" unicode="&#xdd;" horiz-adv-x="674" 
d="M291 0v301l-276 409h111l211 -316l212 316h111l-277 -410v-300h-92zM303 768l78 137h109l-115 -137h-72z" />
    <glyph glyph-name="Thorn" unicode="&#xde;" horiz-adv-x="595" 
d="M555 355c0 -127 -96 -225 -244 -225h-124v-130h-93v710h93v-129h124c148 0 244 -98 244 -226zM463 355c0 79 -54 140 -152 140h-124v-279h124c98 0 152 61 152 139z" />
    <glyph glyph-name="germandbls" unicode="&#xdf;" horiz-adv-x="573" 
d="M81 0v527c0 125 92 209 205 209c112 0 205 -84 205 -191c0 -65 -32 -123 -88 -158c84 -32 129 -108 129 -179c0 -111 -89 -208 -230 -208h-51v81h47c85 0 148 53 148 129s-63 130 -148 130h-45v80h26c74 0 126 52 126 117c0 67 -51 118 -118 118
c-68 0 -120 -53 -120 -129v-526h-86z" />
    <glyph glyph-name="agrave" unicode="&#xe0;" horiz-adv-x="624" 
d="M294 -10c-149 0 -252 118 -252 260s103 260 252 260c65 0 123 -22 163 -65v55h86v-500h-86v55c-40 -43 -98 -65 -163 -65zM301 69c75 0 127 36 156 83v197c-29 47 -81 82 -156 82c-100 0 -170 -81 -170 -181s70 -181 170 -181zM369 574h-72l-125 156h109z" />
    <glyph glyph-name="aacute" unicode="&#xe1;" horiz-adv-x="624" 
d="M294 -10c-149 0 -252 118 -252 260s103 260 252 260c65 0 123 -22 163 -65v55h86v-500h-86v55c-40 -43 -98 -65 -163 -65zM301 69c75 0 127 36 156 83v197c-29 47 -81 82 -156 82c-100 0 -170 -81 -170 -181s70 -181 170 -181zM296 574l88 156h109l-125 -156h-72z" />
    <glyph glyph-name="acircumflex" unicode="&#xe2;" horiz-adv-x="624" 
d="M294 -10c-149 0 -252 118 -252 260s103 260 252 260c65 0 123 -22 163 -65v55h86v-500h-86v55c-40 -43 -98 -65 -163 -65zM301 69c75 0 127 36 156 83v197c-29 47 -81 82 -156 82c-100 0 -170 -81 -170 -181s70 -181 170 -181zM162 578l127 152h88l127 -152h-90l-81 94
l-81 -94h-90z" />
    <glyph glyph-name="atilde" unicode="&#xe3;" horiz-adv-x="624" 
d="M294 -10c-149 0 -252 118 -252 260s103 260 252 260c65 0 123 -22 163 -65v55h86v-500h-86v55c-40 -43 -98 -65 -163 -65zM301 69c75 0 127 36 156 83v197c-29 47 -81 82 -156 82c-100 0 -170 -81 -170 -181s70 -181 170 -181zM159 593l3 18c11 57 53 95 106 95
s98 -44 129 -44c22 0 36 15 43 44h66l-3 -18c-11 -57 -53 -95 -106 -95s-98 44 -129 44c-22 0 -36 -15 -43 -44h-66z" />
    <glyph glyph-name="adieresis" unicode="&#xe4;" horiz-adv-x="624" 
d="M294 -10c-149 0 -252 118 -252 260s103 260 252 260c65 0 123 -22 163 -65v55h86v-500h-86v55c-40 -43 -98 -65 -163 -65zM301 69c75 0 127 36 156 83v197c-29 47 -81 82 -156 82c-100 0 -170 -81 -170 -181s70 -181 170 -181zM221 594c-33 0 -59 26 -59 58s26 59 59 59
c32 0 58 -27 58 -59s-26 -58 -58 -58zM446 594c-32 0 -59 26 -59 58s27 59 59 59s58 -27 58 -59s-26 -58 -58 -58z" />
    <glyph glyph-name="aring" unicode="&#xe5;" horiz-adv-x="624" 
d="M294 -10c-149 0 -252 118 -252 260s103 260 252 260c65 0 123 -22 163 -65v55h86v-500h-86v55c-40 -43 -98 -65 -163 -65zM301 69c75 0 127 36 156 83v197c-29 47 -81 82 -156 82c-100 0 -170 -81 -170 -181s70 -181 170 -181zM334 541c-68 0 -122 54 -122 121
s54 121 122 121c67 0 121 -54 121 -121s-54 -121 -121 -121zM334 592c37 0 69 31 69 70s-32 70 -69 70c-39 0 -71 -31 -71 -70s32 -70 71 -70z" />
    <glyph glyph-name="ae" unicode="&#xe6;" horiz-adv-x="919" 
d="M231 -10c-114 0 -195 67 -195 168c0 95 87 162 202 162c63 0 104 -17 143 -38v23c0 91 -63 126 -131 126c-57 0 -109 -24 -144 -56l-38 72c43 36 112 63 184 63c84 0 149 -33 184 -98c45 60 118 98 206 98c127 0 236 -91 236 -251c0 -9 0 -15 -1 -26h-410
c3 -93 73 -164 172 -164c79 0 126 34 157 87l67 -47c-44 -73 -120 -119 -221 -119c-88 0 -156 34 -203 90c-56 -64 -133 -90 -208 -90zM235 67c61 0 118 20 146 68v68c-36 28 -76 47 -137 47c-64 0 -121 -25 -121 -92c0 -65 55 -91 112 -91zM637 434
c-75 0 -149 -48 -165 -131h318c-13 81 -77 131 -153 131z" />
    <glyph glyph-name="ccedilla" unicode="&#xe7;" horiz-adv-x="565" 
d="M304 -10c-152 0 -262 115 -262 260s110 260 262 260c104 0 187 -54 231 -134l-75 -42c-28 57 -84 96 -156 96c-104 0 -175 -80 -175 -180s71 -180 175 -180c72 0 128 39 156 96l75 -42c-44 -80 -127 -134 -231 -134zM200 -187l13 50c22 -9 45 -14 69 -14c27 0 57 8 57 33
c0 19 -18 27 -39 27c-19 0 -33 -4 -46 -9l-31 22l49 81h55l-32 -52c11 5 23 7 38 7c43 0 76 -27 76 -72c0 -59 -51 -90 -122 -90c-29 0 -60 5 -87 17z" />
    <glyph glyph-name="egrave" unicode="&#xe8;" horiz-adv-x="581" 
d="M301 -10c-156 0 -259 113 -259 260s107 260 260 260c130 0 238 -91 238 -251c0 -9 0 -15 -1 -26h-410c3 -93 74 -164 173 -164c77 0 125 34 156 87l68 -47c-45 -73 -121 -119 -225 -119zM135 303h317c-13 82 -77 131 -153 131c-75 0 -148 -48 -164 -131zM340 574h-72
l-125 156h109z" />
    <glyph glyph-name="eacute" unicode="&#xe9;" horiz-adv-x="581" 
d="M301 -10c-156 0 -259 113 -259 260s107 260 260 260c130 0 238 -91 238 -251c0 -9 0 -15 -1 -26h-410c3 -93 74 -164 173 -164c77 0 125 34 156 87l68 -47c-45 -73 -121 -119 -225 -119zM135 303h317c-13 82 -77 131 -153 131c-75 0 -148 -48 -164 -131zM267 574l88 156
h109l-125 -156h-72z" />
    <glyph glyph-name="ecircumflex" unicode="&#xea;" horiz-adv-x="581" 
d="M301 -10c-156 0 -259 113 -259 260s107 260 260 260c130 0 238 -91 238 -251c0 -9 0 -15 -1 -26h-410c3 -93 74 -164 173 -164c77 0 125 34 156 87l68 -47c-45 -73 -121 -119 -225 -119zM135 303h317c-13 82 -77 131 -153 131c-75 0 -148 -48 -164 -131zM132 578l127 152
h88l127 -152h-90l-81 94l-81 -94h-90z" />
    <glyph glyph-name="edieresis" unicode="&#xeb;" horiz-adv-x="581" 
d="M301 -10c-156 0 -259 113 -259 260s107 260 260 260c130 0 238 -91 238 -251c0 -9 0 -15 -1 -26h-410c3 -93 74 -164 173 -164c77 0 125 34 156 87l68 -47c-45 -73 -121 -119 -225 -119zM135 303h317c-13 82 -77 131 -153 131c-75 0 -148 -48 -164 -131zM191 594
c-33 0 -59 26 -59 58s26 59 59 59c32 0 58 -27 58 -59s-26 -58 -58 -58zM416 594c-32 0 -59 26 -59 58s27 59 59 59s58 -27 58 -59s-26 -58 -58 -58z" />
    <glyph glyph-name="igrave" unicode="&#xec;" horiz-adv-x="249" 
d="M81 0v500h86v-500h-86zM161 574h-72l-125 156h109z" />
    <glyph glyph-name="iacute" unicode="&#xed;" horiz-adv-x="249" 
d="M81 0v500h86v-500h-86zM88 574l88 156h109l-125 -156h-72z" />
    <glyph glyph-name="icircumflex" unicode="&#xee;" horiz-adv-x="249" 
d="M81 0v500h86v-500h-86zM-47 578l127 152h88l127 -152h-90l-81 94l-81 -94h-90z" />
    <glyph glyph-name="idieresis" unicode="&#xef;" horiz-adv-x="249" 
d="M81 0v500h86v-500h-86zM26 596c-35 0 -61 26 -61 61c0 33 26 60 61 60c33 0 61 -27 61 -60c0 -35 -28 -61 -61 -61zM222 596c-35 0 -61 26 -61 61c0 33 26 60 61 60c33 0 61 -27 61 -60c0 -35 -28 -61 -61 -61z" />
    <glyph glyph-name="eth" unicode="&#xf0;" horiz-adv-x="606" 
d="M478 574h-78l111 -164c31 -47 54 -99 54 -160c0 -143 -110 -260 -262 -260c-150 0 -261 117 -261 260c0 148 117 259 258 259c15 0 32 -1 53 -5l-48 70h-142v68h96l-59 88h95l59 -88h124v-68zM303 70c104 0 174 80 174 180s-70 180 -174 180s-174 -80 -174 -180
s70 -180 174 -180z" />
    <glyph glyph-name="ntilde" unicode="&#xf1;" horiz-adv-x="589" 
d="M81 0v500h86v-63c35 51 94 73 158 73c112 0 190 -78 190 -203v-307h-85v294c0 88 -48 137 -125 137c-71 0 -118 -40 -138 -99v-332h-86zM124 593l3 18c11 57 53 95 106 95s98 -44 129 -44c22 0 36 15 43 44h66l-3 -18c-11 -57 -53 -95 -106 -95s-98 44 -129 44
c-22 0 -36 -15 -43 -44h-66z" />
    <glyph glyph-name="ograve" unicode="&#xf2;" horiz-adv-x="606" 
d="M303 -10c-152 0 -262 116 -262 260s110 260 262 260c150 0 261 -116 261 -260s-111 -260 -261 -260zM303 70c104 0 173 80 173 180s-69 180 -173 180s-174 -80 -174 -180s70 -180 174 -180zM339 574h-72l-125 156h109z" />
    <glyph glyph-name="oacute" unicode="&#xf3;" horiz-adv-x="606" 
d="M303 -10c-152 0 -262 116 -262 260s110 260 262 260c150 0 261 -116 261 -260s-111 -260 -261 -260zM303 70c104 0 173 80 173 180s-69 180 -173 180s-174 -80 -174 -180s70 -180 174 -180zM266 574l88 156h109l-125 -156h-72z" />
    <glyph glyph-name="ocircumflex" unicode="&#xf4;" horiz-adv-x="606" 
d="M303 -10c-152 0 -262 116 -262 260s110 260 262 260c150 0 261 -116 261 -260s-111 -260 -261 -260zM303 70c104 0 173 80 173 180s-69 180 -173 180s-174 -80 -174 -180s70 -180 174 -180zM132 578l127 152h88l127 -152h-90l-81 94l-81 -94h-90z" />
    <glyph glyph-name="otilde" unicode="&#xf5;" horiz-adv-x="606" 
d="M303 -10c-152 0 -262 116 -262 260s110 260 262 260c150 0 261 -116 261 -260s-111 -260 -261 -260zM303 70c104 0 173 80 173 180s-69 180 -173 180s-174 -80 -174 -180s70 -180 174 -180zM129 593l3 18c11 57 53 95 106 95s98 -44 129 -44c22 0 36 15 43 44h66l-3 -18
c-11 -57 -53 -95 -106 -95s-98 44 -129 44c-22 0 -36 -15 -43 -44h-66z" />
    <glyph glyph-name="odieresis" unicode="&#xf6;" horiz-adv-x="606" 
d="M303 -10c-152 0 -262 116 -262 260s110 260 262 260c150 0 261 -116 261 -260s-111 -260 -261 -260zM303 70c104 0 173 80 173 180s-69 180 -173 180s-174 -80 -174 -180s70 -180 174 -180zM191 594c-33 0 -59 26 -59 58s26 59 59 59c32 0 58 -27 58 -59s-26 -58 -58 -58
zM416 594c-32 0 -59 26 -59 58s27 59 59 59s58 -27 58 -59s-26 -58 -58 -58z" />
    <glyph glyph-name="oslash" unicode="&#xf8;" horiz-adv-x="616" 
d="M308 -10c-152 0 -262 116 -262 260s110 260 262 260c150 0 261 -116 261 -260s-111 -260 -261 -260zM308 70c104 0 173 80 173 180s-69 180 -173 180s-174 -80 -174 -180s70 -180 174 -180zM563 471l-470 -481l-40 40l471 480z" />
    <glyph glyph-name="ugrave" unicode="&#xf9;" horiz-adv-x="579" 
d="M498 500v-500h-86v63c-35 -51 -95 -73 -151 -73c-110 0 -187 78 -187 203v307h86v-294c0 -88 45 -137 120 -137c64 0 111 40 132 99v332h86zM322 574h-72l-125 156h109z" />
    <glyph glyph-name="uacute" unicode="&#xfa;" horiz-adv-x="579" 
d="M498 500v-500h-86v63c-35 -51 -95 -73 -151 -73c-110 0 -187 78 -187 203v307h86v-294c0 -88 45 -137 120 -137c64 0 111 40 132 99v332h86zM248 574l88 156h109l-125 -156h-72z" />
    <glyph glyph-name="ucircumflex" unicode="&#xfb;" horiz-adv-x="579" 
d="M498 500v-500h-86v63c-35 -51 -95 -73 -151 -73c-110 0 -187 78 -187 203v307h86v-294c0 -88 45 -137 120 -137c64 0 111 40 132 99v332h86zM114 578l127 152h88l127 -152h-90l-81 94l-81 -94h-90z" />
    <glyph glyph-name="udieresis" unicode="&#xfc;" horiz-adv-x="579" 
d="M498 500v-500h-86v63c-35 -51 -95 -73 -151 -73c-110 0 -187 78 -187 203v307h86v-294c0 -88 45 -137 120 -137c64 0 111 40 132 99v332h86zM173 594c-33 0 -59 26 -59 58s26 59 59 59c32 0 58 -27 58 -59s-26 -58 -58 -58zM398 594c-32 0 -59 26 -59 58s27 59 59 59
s58 -27 58 -59s-26 -58 -58 -58z" />
    <glyph glyph-name="yacute" unicode="&#xfd;" horiz-adv-x="547" 
d="M221 -194h-96l102 220l-219 474h95l172 -380l171 380h96zM238 574l88 156h109l-125 -156h-72z" />
    <glyph glyph-name="thorn" unicode="&#xfe;" horiz-adv-x="624" 
d="M81 -194v924h86v-285c41 43 99 65 163 65c149 0 252 -118 252 -260s-103 -260 -252 -260c-64 0 -122 22 -163 65v-249h-86zM323 69c100 0 170 81 170 181s-70 181 -170 181c-75 0 -127 -35 -156 -82v-197c29 -47 81 -83 156 -83z" />
    <glyph glyph-name="ydieresis" unicode="&#xff;" horiz-adv-x="547" 
d="M221 -194h-96l102 220l-219 474h95l172 -380l171 380h96zM163 594c-33 0 -59 26 -59 58s26 59 59 59c32 0 58 -27 58 -59s-26 -58 -58 -58zM388 594c-32 0 -59 26 -59 58s27 59 59 59s58 -27 58 -59s-26 -58 -58 -58z" />
    <glyph glyph-name="Abreve" unicode="&#x102;" horiz-adv-x="718" 
d="M6 0l314 710h77l315 -710h-97l-92 207h-331l-90 -207h-96zM357 584l-128 -293h257zM358 759c-88 0 -159 61 -159 158h58c0 -65 45 -101 101 -101s101 36 101 101h58c0 -97 -71 -158 -159 -158z" />
    <glyph glyph-name="Amacron" unicode="&#x100;" horiz-adv-x="718" 
d="M6 0l314 710h77l315 -710h-97l-92 207h-331l-90 -207h-96zM357 584l-128 -293h257zM197 805v69h322v-69h-322z" />
    <glyph glyph-name="Aogonek" unicode="&#x104;" horiz-adv-x="718" 
d="M6 0l314 710h77l315 -710c-56 -35 -84 -65 -84 -100c0 -23 16 -32 36 -32c11 0 22 2 34 9l28 -56c-20 -15 -50 -25 -81 -25c-57 0 -98 35 -98 86s31 87 68 118l-92 207h-331l-90 -207h-96zM357 584l-128 -293h257z" />
    <glyph glyph-name="Cacute" unicode="&#x106;" horiz-adv-x="755" 
d="M412 -12c-204 0 -367 162 -367 367s163 367 367 367c136 0 250 -67 314 -172l-78 -47c-49 80 -132 131 -236 131c-155 0 -273 -123 -273 -279s118 -279 273 -279c104 0 187 51 236 131l78 -47c-64 -105 -178 -172 -314 -172zM379 768l78 137h109l-115 -137h-72z" />
    <glyph glyph-name="Ccaron" unicode="&#x10c;" horiz-adv-x="755" 
d="M412 -12c-204 0 -367 162 -367 367s163 367 367 367c136 0 250 -67 314 -172l-78 -47c-49 80 -132 131 -236 131c-155 0 -273 -123 -273 -279s118 -279 273 -279c104 0 187 51 236 131l78 -47c-64 -105 -178 -172 -314 -172zM366 768l-127 137h93l80 -84l81 84h93
l-127 -137h-93z" />
    <glyph glyph-name="Ccircumflex" unicode="&#x108;" horiz-adv-x="755" 
d="M412 -12c-204 0 -367 162 -367 367s163 367 367 367c136 0 250 -67 314 -172l-78 -47c-49 80 -132 131 -236 131c-155 0 -273 -123 -273 -279s118 -279 273 -279c104 0 187 51 236 131l78 -47c-64 -105 -178 -172 -314 -172zM239 768l127 137h93l127 -137h-93l-81 83
l-80 -83h-93z" />
    <glyph glyph-name="Cdotaccent" unicode="&#x10a;" horiz-adv-x="755" 
d="M412 -12c-204 0 -367 162 -367 367s163 367 367 367c136 0 250 -67 314 -172l-78 -47c-49 80 -132 131 -236 131c-155 0 -273 -123 -273 -279s118 -279 273 -279c104 0 187 51 236 131l78 -47c-64 -105 -178 -172 -314 -172zM412 785c-33 0 -59 26 -59 58s26 59 59 59
c32 0 58 -27 58 -59s-26 -58 -58 -58z" />
    <glyph glyph-name="Dcaron" unicode="&#x10e;" horiz-adv-x="721" 
d="M94 0v710h204c218 0 378 -152 378 -355s-160 -355 -378 -355h-204zM187 87h111c171 0 284 113 284 268s-113 268 -284 268h-111v-536zM295 768l-127 137h93l80 -84l81 84h93l-127 -137h-93z" />
    <glyph glyph-name="Dcroat" unicode="&#x110;" horiz-adv-x="729" 
d="M101 0v710h204c218 0 378 -152 378 -355s-160 -355 -378 -355h-204zM194 87h111c171 0 284 113 284 268s-113 268 -284 268h-111v-536zM28 319v82h326v-82h-326z" />
    <glyph glyph-name="Ebreve" unicode="&#x114;" horiz-adv-x="557" 
d="M94 0v710h414v-88h-321v-215h261v-88h-261v-231h321v-88h-414zM301 759c-88 0 -159 61 -159 158h58c0 -65 45 -101 101 -101s101 36 101 101h58c0 -97 -71 -158 -159 -158z" />
    <glyph glyph-name="Ecaron" unicode="&#x11a;" horiz-adv-x="557" 
d="M94 0v710h414v-88h-321v-215h261v-88h-261v-231h321v-88h-414zM255 768l-127 137h93l80 -84l81 84h93l-127 -137h-93z" />
    <glyph glyph-name="Emacron" unicode="&#x112;" horiz-adv-x="557" 
d="M94 0v710h414v-88h-321v-215h261v-88h-261v-231h321v-88h-414zM140 805v69h322v-69h-322z" />
    <glyph glyph-name="Eogonek" unicode="&#x118;" horiz-adv-x="557" 
d="M94 0v710h414v-88h-321v-215h261v-88h-261v-231h321v-88h-414zM441 -204c-57 0 -99 35 -99 86s34 86 74 118h92c-56 -35 -84 -66 -84 -99c0 -23 17 -31 36 -31c11 0 22 2 34 9l29 -58c-20 -15 -51 -25 -82 -25z" />
    <glyph glyph-name="Edotaccent" unicode="&#x116;" horiz-adv-x="557" 
d="M94 0v710h414v-88h-321v-215h261v-88h-261v-231h321v-88h-414zM301 785c-33 0 -59 26 -59 58s26 59 59 59c32 0 58 -27 58 -59s-26 -58 -58 -58z" />
    <glyph glyph-name="Gbreve" unicode="&#x11e;" horiz-adv-x="765" 
d="M428 -12c-224 0 -382 159 -382 367c0 205 158 367 370 367c112 0 200 -35 267 -99l-62 -67c-51 47 -116 78 -205 78c-161 0 -277 -123 -277 -279c0 -157 113 -279 289 -279c69 0 142 16 189 53v190h-201v87h291v-318c-65 -68 -172 -100 -279 -100zM417 759
c-88 0 -159 61 -159 158h58c0 -65 45 -101 101 -101s101 36 101 101h58c0 -97 -71 -158 -159 -158z" />
    <glyph glyph-name="Gcircumflex" unicode="&#x11c;" horiz-adv-x="765" 
d="M428 -12c-224 0 -382 159 -382 367c0 205 158 367 370 367c112 0 200 -35 267 -99l-62 -67c-51 47 -116 78 -205 78c-161 0 -277 -123 -277 -279c0 -157 113 -279 289 -279c69 0 142 16 189 53v190h-201v87h291v-318c-65 -68 -172 -100 -279 -100zM244 768l127 137h93
l127 -137h-93l-81 83l-80 -83h-93z" />
    <glyph glyph-name="uni0122" unicode="&#x122;" horiz-adv-x="765" 
d="M428 -12c-224 0 -382 159 -382 367c0 205 158 367 370 367c112 0 200 -35 267 -99l-62 -67c-51 47 -116 78 -205 78c-161 0 -277 -123 -277 -279c0 -157 113 -279 289 -279c69 0 142 16 189 53v190h-201v87h291v-318c-65 -68 -172 -100 -279 -100zM432 -273h-47l26 93
h-47v104h106v-104z" />
    <glyph glyph-name="Gdotaccent" unicode="&#x120;" horiz-adv-x="765" 
d="M428 -12c-224 0 -382 159 -382 367c0 205 158 367 370 367c112 0 200 -35 267 -99l-62 -67c-51 47 -116 78 -205 78c-161 0 -277 -123 -277 -279c0 -157 113 -279 289 -279c69 0 142 16 189 53v190h-201v87h291v-318c-65 -68 -172 -100 -279 -100zM417 785
c-33 0 -59 26 -59 58s26 59 59 59c32 0 58 -27 58 -59s-26 -58 -58 -58z" />
    <glyph glyph-name="Hbar" unicode="&#x126;" horiz-adv-x="776" 
d="M101 0v710h93v-303h389v303h93v-710h-93v320h-389v-320h-93zM28 523v72h721v-72h-721z" />
    <glyph glyph-name="Hcircumflex" unicode="&#x124;" horiz-adv-x="763" 
d="M94 0v710h93v-303h389v303h93v-710h-93v320h-389v-320h-93zM208 768l127 137h93l127 -137h-93l-81 83l-80 -83h-93z" />
    <glyph glyph-name="Ibreve" unicode="&#x12c;" horiz-adv-x="281" 
d="M94 0v710h93v-710h-93zM141 759c-88 0 -159 61 -159 158h58c0 -65 45 -101 101 -101s101 36 101 101h58c0 -97 -71 -158 -159 -158z" />
    <glyph glyph-name="Idotaccent" unicode="&#x130;" horiz-adv-x="281" 
d="M94 0v710h93v-710h-93zM141 785c-33 0 -59 26 -59 58s26 59 59 59c32 0 58 -27 58 -59s-26 -58 -58 -58z" />
    <glyph glyph-name="Imacron" unicode="&#x12a;" horiz-adv-x="281" 
d="M94 0v710h93v-710h-93zM-20 805v69h322v-69h-322z" />
    <glyph glyph-name="Iogonek" unicode="&#x12e;" horiz-adv-x="281" 
d="M94 0v710h93v-710h-93zM120 -204c-57 0 -99 35 -99 86s34 86 74 118h92c-56 -35 -84 -66 -84 -99c0 -23 17 -31 36 -31c11 0 22 2 34 9l29 -58c-20 -15 -51 -25 -82 -25z" />
    <glyph glyph-name="Itilde" unicode="&#x128;" horiz-adv-x="281" 
d="M94 0v710h93v-710h-93zM-32 786l3 18c11 57 53 95 106 95c52 0 97 -44 129 -44c22 0 36 15 43 44h66l-4 -19c-11 -56 -51 -94 -106 -94c-53 0 -96 44 -128 44c-21 0 -36 -15 -44 -44h-65z" />
    <glyph glyph-name="uni1ECA" unicode="&#x1eca;" horiz-adv-x="281" 
d="M94 0v710h93v-710h-93zM141 -190c-33 0 -59 26 -59 58s26 59 59 59c32 0 58 -27 58 -59s-26 -58 -58 -58z" />
    <glyph glyph-name="Jcircumflex" unicode="&#x134;" horiz-adv-x="469" 
d="M186 -12c-84 0 -144 35 -180 78l61 65c29 -33 62 -57 117 -57c64 0 105 33 105 124v512h93v-516c0 -142 -85 -206 -196 -206zM162 768l127 137h93l127 -137h-93l-81 83l-80 -83h-93z" />
    <glyph glyph-name="uni0136" unicode="&#x136;" horiz-adv-x="671" 
d="M563 0l-377 338v-338h-92v710h92v-308l310 308h121l-338 -338l415 -372h-131zM389 -273h-47l26 93h-47v104h106v-104z" />
    <glyph glyph-name="Lacute" unicode="&#x139;" horiz-adv-x="548" 
d="M94 0v710h93v-622h343v-88h-436zM107 768l78 137h109l-115 -137h-72z" />
    <glyph glyph-name="Lcaron" unicode="&#x13d;" horiz-adv-x="548" 
d="M94 0v710h93v-622h343v-88h-436zM287 565l24 165h86l-50 -165h-60z" />
    <glyph glyph-name="uni013B" unicode="&#x13b;" horiz-adv-x="548" 
d="M94 0v710h93v-622h343v-88h-436zM321 -273h-47l26 93h-47v104h106v-104z" />
    <glyph glyph-name="Ldot" unicode="&#x13f;" horiz-adv-x="553" 
d="M94 0v710h93v-622h343v-88h-436zM417 341c-33 0 -59 26 -59 58s26 59 59 59c32 0 58 -27 58 -59s-26 -58 -58 -58z" />
    <glyph glyph-name="L_periodcentered" horiz-adv-x="553" 
d="M94 0v710h93v-622h343v-88h-436zM417 341c-33 0 -59 26 -59 58s26 59 59 59c32 0 58 -27 58 -59s-26 -58 -58 -58z" />
    <glyph glyph-name="Lslash" unicode="&#x141;" horiz-adv-x="567" 
d="M113 0v710h93v-622h343v-88h-436zM365 423l-325 -210v84l325 210v-84z" />
    <glyph glyph-name="Eng" unicode="&#x14a;" horiz-adv-x="794" 
d="M699 710v-750c0 -103 -51 -154 -153 -154h-41v78h26c51 0 76 25 76 76v55l-420 538v-553h-93v710h81l432 -553v553h92z" />
    <glyph glyph-name="Nacute" unicode="&#x143;" horiz-adv-x="794" 
d="M699 0h-80l-432 553v-553h-93v710h81l432 -553v553h92v-710zM359 768l78 137h109l-115 -137h-72z" />
    <glyph glyph-name="Ncaron" unicode="&#x147;" horiz-adv-x="794" 
d="M699 0h-80l-432 553v-553h-93v710h81l432 -553v553h92v-710zM347 768l-127 137h93l80 -84l81 84h93l-127 -137h-93z" />
    <glyph glyph-name="uni0145" unicode="&#x145;" horiz-adv-x="794" 
d="M699 0h-80l-432 553v-553h-93v710h81l432 -553v553h92v-710zM415 -273h-47l26 93h-47v104h106v-104z" />
    <glyph glyph-name="OE" unicode="&#x152;" horiz-adv-x="1149" 
d="M412 76c156 0 274 123 274 279s-118 279 -274 279c-155 0 -273 -123 -273 -279s118 -279 273 -279zM686 0v118c-64 -83 -158 -130 -274 -130c-204 0 -367 162 -367 367s163 367 367 367c116 0 210 -47 274 -130v118h414v-88h-322v-215h262v-88h-262v-231h322v-88h-414z
" />
    <glyph glyph-name="Obreve" unicode="&#x14e;" horiz-adv-x="825" 
d="M412 76c156 0 274 123 274 279s-118 279 -274 279c-155 0 -273 -123 -273 -279s118 -279 273 -279zM412 -12c-204 0 -367 162 -367 367s163 367 367 367c205 0 367 -162 367 -367s-162 -367 -367 -367zM412 759c-88 0 -159 61 -159 158h58c0 -65 45 -101 101 -101
s101 36 101 101h58c0 -97 -71 -158 -159 -158z" />
    <glyph glyph-name="Ohungarumlaut" unicode="&#x150;" horiz-adv-x="825" 
d="M412 76c156 0 274 123 274 279s-118 279 -274 279c-155 0 -273 -123 -273 -279s118 -279 273 -279zM412 -12c-204 0 -367 162 -367 367s163 367 367 367c205 0 367 -162 367 -367s-162 -367 -367 -367zM305 768l55 137h99l-91 -137h-63zM473 768l54 137h100l-92 -137h-62
z" />
    <glyph glyph-name="Omacron" unicode="&#x14c;" horiz-adv-x="825" 
d="M412 76c156 0 274 123 274 279s-118 279 -274 279c-155 0 -273 -123 -273 -279s118 -279 273 -279zM412 -12c-204 0 -367 162 -367 367s163 367 367 367c205 0 367 -162 367 -367s-162 -367 -367 -367zM251 805v69h322v-69h-322z" />
    <glyph glyph-name="uni1ECC" unicode="&#x1ecc;" horiz-adv-x="825" 
d="M412 76c156 0 274 123 274 279s-118 279 -274 279c-155 0 -273 -123 -273 -279s118 -279 273 -279zM412 -12c-204 0 -367 162 -367 367s163 367 367 367c205 0 367 -162 367 -367s-162 -367 -367 -367zM412 -190c-33 0 -59 26 -59 58s26 59 59 59c32 0 58 -27 58 -59
s-26 -58 -58 -58z" />
    <glyph glyph-name="Racute" unicode="&#x154;" horiz-adv-x="635" 
d="M94 0v710h242c132 0 212 -79 212 -196c0 -104 -65 -174 -176 -190l274 -324h-117l-273 323h-69v-323h-93zM187 406h138c81 0 130 36 130 108s-49 110 -130 110h-138v-218zM266 768l78 137h109l-115 -137h-72z" />
    <glyph glyph-name="Rcaron" unicode="&#x158;" horiz-adv-x="635" 
d="M94 0v710h242c132 0 212 -79 212 -196c0 -104 -65 -174 -176 -190l274 -324h-117l-273 323h-69v-323h-93zM187 406h138c81 0 130 36 130 108s-49 110 -130 110h-138v-218zM253 768l-127 137h93l80 -84l81 84h93l-127 -137h-93z" />
    <glyph glyph-name="uni0156" unicode="&#x156;" horiz-adv-x="635" 
d="M94 0v710h242c132 0 212 -79 212 -196c0 -104 -65 -174 -176 -190l274 -324h-117l-273 323h-69v-323h-93zM187 406h138c81 0 130 36 130 108s-49 110 -130 110h-138v-218zM373 -273h-47l26 93h-47v104h106v-104z" />
    <glyph glyph-name="Sacute" unicode="&#x15a;" horiz-adv-x="554" 
d="M284 -12c-116 0 -213 55 -248 128l74 56c39 -60 96 -97 176 -97c75 0 132 40 132 106c0 57 -35 95 -102 120l-94 36c-112 41 -162 99 -162 196c0 116 96 189 223 189c89 0 163 -40 206 -97l-67 -60c-37 43 -80 70 -141 70c-70 0 -128 -39 -128 -98c0 -60 34 -87 107 -114
l85 -33c107 -40 166 -100 166 -205c0 -120 -95 -197 -227 -197zM250 768l78 137h109l-115 -137h-72z" />
    <glyph glyph-name="Scaron" unicode="&#x160;" horiz-adv-x="554" 
d="M284 -12c-116 0 -213 55 -248 128l74 56c39 -60 96 -97 176 -97c75 0 132 40 132 106c0 57 -35 95 -102 120l-94 36c-112 41 -162 99 -162 196c0 116 96 189 223 189c89 0 163 -40 206 -97l-67 -60c-37 43 -80 70 -141 70c-70 0 -128 -39 -128 -98c0 -60 34 -87 107 -114
l85 -33c107 -40 166 -100 166 -205c0 -120 -95 -197 -227 -197zM237 768l-127 137h93l80 -84l81 84h93l-127 -137h-93z" />
    <glyph glyph-name="Scedilla" unicode="&#x15e;" horiz-adv-x="554" 
d="M284 -12c-116 0 -213 55 -248 128l74 56c39 -60 96 -97 176 -97c75 0 132 40 132 106c0 57 -35 95 -102 120l-94 36c-112 41 -162 99 -162 196c0 116 96 189 223 189c89 0 163 -40 206 -97l-67 -60c-37 43 -80 70 -141 70c-70 0 -128 -39 -128 -98c0 -60 34 -87 107 -114
l85 -33c107 -40 166 -100 166 -205c0 -120 -95 -197 -227 -197zM180 -187l14 50c22 -9 45 -14 68 -14c27 0 57 8 57 33c0 19 -16 27 -39 27c-19 0 -33 -4 -46 -9l-30 22l48 81h55l-32 -52c11 5 23 7 38 7c43 0 76 -27 76 -72c0 -59 -51 -90 -122 -90c-29 0 -60 5 -87 17z
" />
    <glyph glyph-name="Scircumflex" unicode="&#x15c;" horiz-adv-x="554" 
d="M284 -12c-116 0 -213 55 -248 128l74 56c39 -60 96 -97 176 -97c75 0 132 40 132 106c0 57 -35 95 -102 120l-94 36c-112 41 -162 99 -162 196c0 116 96 189 223 189c89 0 163 -40 206 -97l-67 -60c-37 43 -80 70 -141 70c-70 0 -128 -39 -128 -98c0 -60 34 -87 107 -114
l85 -33c107 -40 166 -100 166 -205c0 -120 -95 -197 -227 -197zM110 768l127 137h93l127 -137h-93l-81 83l-80 -83h-93z" />
    <glyph glyph-name="uni0218" unicode="&#x218;" horiz-adv-x="554" 
d="M284 -12c-116 0 -213 55 -248 128l74 56c39 -60 96 -97 176 -97c75 0 132 40 132 106c0 57 -35 95 -102 120l-94 36c-112 41 -162 99 -162 196c0 116 96 189 223 189c89 0 163 -40 206 -97l-67 -60c-37 43 -80 70 -141 70c-70 0 -128 -39 -128 -98c0 -60 34 -87 107 -114
l85 -33c107 -40 166 -100 166 -205c0 -120 -95 -197 -227 -197zM299 -273h-47l26 93h-47v104h106v-104z" />
    <glyph glyph-name="Tbar" unicode="&#x166;" horiz-adv-x="593" 
d="M251 0v622h-221v88h533v-88h-221v-622h-91zM94 324v81h405v-81h-405z" />
    <glyph glyph-name="Tcaron" unicode="&#x164;" horiz-adv-x="567" 
d="M238 0v622h-221v88h533v-88h-221v-622h-91zM237 768l-127 137h93l80 -84l81 84h93l-127 -137h-93z" />
    <glyph glyph-name="uni0162" unicode="&#x162;" horiz-adv-x="567" 
d="M238 0v622h-221v88h533v-88h-221v-622h-91zM298 -273h-47l26 93h-47v104h106v-104z" />
    <glyph glyph-name="uni021A" unicode="&#x21a;" horiz-adv-x="567" 
d="M238 0v622h-221v88h533v-88h-221v-622h-91zM298 -273h-47l26 93h-47v104h106v-104z" />
    <glyph glyph-name="Ubreve" unicode="&#x16c;" horiz-adv-x="726" 
d="M363 -12c-164 0 -278 111 -278 288v434h93v-436c0 -128 73 -198 185 -198s185 70 185 198v436h93v-434c0 -177 -114 -288 -278 -288zM363 759c-88 0 -159 61 -159 158h58c0 -65 45 -101 101 -101s101 36 101 101h58c0 -97 -71 -158 -159 -158z" />
    <glyph glyph-name="Uhungarumlaut" unicode="&#x170;" horiz-adv-x="726" 
d="M363 -12c-164 0 -278 111 -278 288v434h93v-436c0 -128 73 -198 185 -198s185 70 185 198v436h93v-434c0 -177 -114 -288 -278 -288zM255 768l55 137h99l-91 -137h-63zM423 768l54 137h100l-92 -137h-62z" />
    <glyph glyph-name="Umacron" unicode="&#x16a;" horiz-adv-x="726" 
d="M363 -12c-164 0 -278 111 -278 288v434h93v-436c0 -128 73 -198 185 -198s185 70 185 198v436h93v-434c0 -177 -114 -288 -278 -288zM202 805v69h322v-69h-322z" />
    <glyph glyph-name="Uogonek" unicode="&#x172;" horiz-adv-x="726" 
d="M421 -204c-53 0 -98 31 -98 82c0 41 22 78 67 112c-11 -1 -18 -2 -25 -2c-168 0 -280 111 -280 288v434h93v-436c0 -128 73 -198 185 -198s185 70 185 198v436h93v-434c0 -99 -34 -175 -94 -226c-61 -53 -140 -105 -140 -150c0 -21 15 -30 32 -30c12 0 24 2 35 9l30 -58
c-21 -15 -52 -25 -83 -25z" />
    <glyph glyph-name="Uring" unicode="&#x16e;" horiz-adv-x="726" 
d="M363 -12c-164 0 -278 111 -278 288v434h93v-436c0 -128 73 -198 185 -198s185 70 185 198v436h93v-434c0 -177 -114 -288 -278 -288zM363 753c-67 0 -121 54 -121 120s54 120 121 120c66 0 122 -54 122 -120s-56 -120 -122 -120zM363 804c39 0 71 30 71 69s-32 70 -71 70
s-69 -31 -69 -70s30 -69 69 -69z" />
    <glyph glyph-name="Utilde" unicode="&#x168;" horiz-adv-x="726" 
d="M363 -12c-164 0 -278 111 -278 288v434h93v-436c0 -128 73 -198 185 -198s185 70 185 198v436h93v-434c0 -177 -114 -288 -278 -288zM190 786l3 18c11 57 53 95 106 95c52 0 97 -44 129 -44c22 0 36 15 43 44h66l-4 -19c-11 -56 -51 -94 -106 -94c-53 0 -96 44 -128 44
c-21 0 -36 -15 -44 -44h-65z" />
    <glyph glyph-name="uni1EE4" unicode="&#x1ee4;" horiz-adv-x="726" 
d="M363 -12c-164 0 -278 111 -278 288v434h93v-436c0 -128 73 -198 185 -198s185 70 185 198v436h93v-434c0 -177 -114 -288 -278 -288zM363 -190c-33 0 -59 26 -59 58s26 59 59 59c32 0 58 -27 58 -59s-26 -58 -58 -58z" />
    <glyph glyph-name="Wacute" unicode="&#x1e82;" horiz-adv-x="1000" 
d="M238 0l-221 710h97l169 -547l176 547h80l177 -547l168 547h99l-222 -710h-81l-180 558l-180 -558h-82zM467 768l78 137h109l-115 -137h-72z" />
    <glyph glyph-name="Wcircumflex" unicode="&#x174;" horiz-adv-x="1000" 
d="M238 0l-221 710h97l169 -547l176 547h80l177 -547l168 547h99l-222 -710h-81l-180 558l-180 -558h-82zM327 768l127 137h93l127 -137h-93l-81 83l-80 -83h-93z" />
    <glyph glyph-name="Wdieresis" unicode="&#x1e84;" horiz-adv-x="1000" 
d="M238 0l-221 710h97l169 -547l176 547h80l177 -547l168 547h99l-222 -710h-81l-180 558l-180 -558h-82zM388 785c-33 0 -59 26 -59 58s26 59 59 59c32 0 58 -27 58 -59s-26 -58 -58 -58zM613 785c-32 0 -59 26 -59 58s27 59 59 59s58 -27 58 -59s-26 -58 -58 -58z" />
    <glyph glyph-name="Wgrave" unicode="&#x1e80;" horiz-adv-x="1000" 
d="M238 0l-221 710h97l169 -547l176 547h80l177 -547l168 547h99l-222 -710h-81l-180 558l-180 -558h-82zM533 768h-72l-115 137h109z" />
    <glyph glyph-name="Ycircumflex" unicode="&#x176;" horiz-adv-x="674" 
d="M291 0v301l-276 409h111l211 -316l212 316h111l-277 -410v-300h-92zM164 768l127 137h93l127 -137h-93l-81 83l-80 -83h-93z" />
    <glyph glyph-name="Ydieresis" unicode="&#x178;" horiz-adv-x="674" 
d="M291 0v301l-276 409h111l211 -316l212 316h111l-277 -410v-300h-92zM225 785c-33 0 -59 26 -59 58s26 59 59 59c32 0 58 -27 58 -59s-26 -58 -58 -58zM450 785c-32 0 -59 26 -59 58s27 59 59 59s58 -27 58 -59s-26 -58 -58 -58z" />
    <glyph glyph-name="Ygrave" unicode="&#x1ef2;" horiz-adv-x="674" 
d="M291 0v301l-276 409h111l211 -316l212 316h111l-277 -410v-300h-92zM370 768h-72l-115 137h109z" />
    <glyph glyph-name="uni0232" unicode="&#x232;" horiz-adv-x="674" 
d="M291 0v301l-276 409h111l211 -316l212 316h111l-277 -410v-300h-92zM176 805v69h322v-69h-322z" />
    <glyph glyph-name="Zacute" unicode="&#x179;" horiz-adv-x="587" 
d="M34 0v62l385 560h-374v88h497v-62l-385 -560h395v-88h-518zM267 768l78 137h109l-115 -137h-72z" />
    <glyph glyph-name="Zcaron" unicode="&#x17d;" horiz-adv-x="587" 
d="M34 0v62l385 560h-374v88h497v-62l-385 -560h395v-88h-518zM255 768l-127 137h93l80 -84l81 84h93l-127 -137h-93z" />
    <glyph glyph-name="Zdotaccent" unicode="&#x17b;" horiz-adv-x="587" 
d="M34 0v62l385 560h-374v88h497v-62l-385 -560h395v-88h-518zM301 785c-33 0 -59 26 -59 58s26 59 59 59c32 0 58 -27 58 -59s-26 -58 -58 -58z" />
    <glyph glyph-name="uni1E9E" unicode="&#x1e9e;" horiz-adv-x="634" 
d="M94 0v710h441v-61l-133 -204c119 -21 186 -92 186 -217c0 -150 -106 -228 -255 -228h-37v88h44c91 0 156 48 156 140s-65 140 -156 140h-44v70l123 188h-232v-626h-93z" />
    <glyph glyph-name="uni018F" unicode="&#x18f;" horiz-adv-x="814" 
d="M401 -12c-205 0 -367 162 -367 367v48h637c-21 133 -131 231 -271 231c-80 0 -158 -32 -207 -83l-63 64c67 65 166 107 271 107c204 0 367 -159 367 -367c0 -205 -162 -367 -367 -367zM401 76c145 0 255 105 271 244h-541c13 -139 126 -244 270 -244z" />
    <glyph glyph-name="abreve" unicode="&#x103;" horiz-adv-x="624" 
d="M294 -10c-149 0 -252 118 -252 260s103 260 252 260c65 0 123 -22 163 -65v55h86v-500h-86v55c-40 -43 -98 -65 -163 -65zM301 69c75 0 127 36 156 83v197c-29 47 -81 82 -156 82c-100 0 -170 -81 -170 -181s70 -181 170 -181zM333 561c-88 0 -159 60 -159 159v10h58v-10
c0 -67 45 -102 101 -102s101 35 101 102v10h58v-10c0 -99 -71 -159 -159 -159z" />
    <glyph glyph-name="amacron" unicode="&#x101;" horiz-adv-x="624" 
d="M294 -10c-149 0 -252 118 -252 260s103 260 252 260c65 0 123 -22 163 -65v55h86v-500h-86v55c-40 -43 -98 -65 -163 -65zM301 69c75 0 127 36 156 83v197c-29 47 -81 82 -156 82c-100 0 -170 -81 -170 -181s70 -181 170 -181zM172 641v69h322v-69h-322z" />
    <glyph glyph-name="aogonek" unicode="&#x105;" horiz-adv-x="624" 
d="M294 -10c-149 0 -252 118 -252 260s103 260 252 260c65 0 123 -22 163 -65v55h86v-500h-86v55c-40 -43 -98 -65 -163 -65zM301 69c75 0 127 36 156 83v197c-29 47 -81 82 -156 82c-100 0 -170 -81 -170 -181s70 -181 170 -181zM477 -204c-59 0 -94 35 -94 86
s35 87 74 118h86c-56 -35 -84 -69 -84 -101c0 -23 17 -34 36 -34c12 0 24 2 36 9l27 -53c-20 -15 -50 -25 -81 -25z" />
    <glyph glyph-name="cacute" unicode="&#x107;" horiz-adv-x="565" 
d="M304 -10c-152 0 -262 115 -262 260s110 260 262 260c104 0 187 -54 231 -134l-75 -42c-28 57 -84 96 -156 96c-104 0 -175 -80 -175 -180s71 -180 175 -180c72 0 128 39 156 96l75 -42c-44 -80 -127 -134 -231 -134zM267 574l88 156h109l-125 -156h-72z" />
    <glyph glyph-name="ccaron" unicode="&#x10d;" horiz-adv-x="565" 
d="M304 -10c-152 0 -262 115 -262 260s110 260 262 260c104 0 187 -54 231 -134l-75 -42c-28 57 -84 96 -156 96c-104 0 -175 -80 -175 -180s71 -180 175 -180c72 0 128 39 156 96l75 -42c-44 -80 -127 -134 -231 -134zM133 730h90l81 -95l81 95h90l-127 -152h-88z" />
    <glyph glyph-name="ccircumflex" unicode="&#x109;" horiz-adv-x="565" 
d="M304 -10c-152 0 -262 115 -262 260s110 260 262 260c104 0 187 -54 231 -134l-75 -42c-28 57 -84 96 -156 96c-104 0 -175 -80 -175 -180s71 -180 175 -180c72 0 128 39 156 96l75 -42c-44 -80 -127 -134 -231 -134zM133 578l127 152h88l127 -152h-90l-81 94l-81 -94h-90
z" />
    <glyph glyph-name="cdotaccent" unicode="&#x10b;" horiz-adv-x="565" 
d="M304 -10c-152 0 -262 115 -262 260s110 260 262 260c104 0 187 -54 231 -134l-75 -42c-28 57 -84 96 -156 96c-104 0 -175 -80 -175 -180s71 -180 175 -180c72 0 128 39 156 96l75 -42c-44 -80 -127 -134 -231 -134zM304 594c-33 0 -59 26 -59 58s26 59 59 59
c32 0 58 -27 58 -59s-26 -58 -58 -58z" />
    <glyph glyph-name="dcaron" unicode="&#x10f;" horiz-adv-x="624" 
d="M294 -10c-149 0 -252 118 -252 260s103 260 252 260c65 0 123 -22 163 -65v285h86v-730h-86v55c-40 -43 -98 -65 -163 -65zM301 69c75 0 127 36 156 83v197c-29 47 -81 82 -156 82c-100 0 -170 -81 -170 -181s70 -181 170 -181zM579 565l24 165h86l-50 -165h-60z" />
    <glyph glyph-name="dcroat" unicode="&#x111;" horiz-adv-x="624" 
d="M294 -10c-149 0 -252 118 -252 260s103 260 252 260c65 0 123 -22 163 -65v285h86v-730h-86v55c-40 -43 -98 -65 -163 -65zM301 69c75 0 127 36 156 83v197c-29 47 -81 82 -156 82c-100 0 -170 -81 -170 -181s70 -181 170 -181zM621 577h-323v68h323v-68z" />
    <glyph glyph-name="ebreve" unicode="&#x115;" horiz-adv-x="581" 
d="M301 -10c-156 0 -259 113 -259 260s107 260 260 260c130 0 238 -91 238 -251c0 -9 0 -15 -1 -26h-410c3 -93 74 -164 173 -164c77 0 125 34 156 87l68 -47c-45 -73 -121 -119 -225 -119zM135 303h317c-13 82 -77 131 -153 131c-75 0 -148 -48 -164 -131zM303 561
c-88 0 -159 60 -159 159v10h58v-10c0 -67 45 -102 101 -102s101 35 101 102v10h58v-10c0 -99 -71 -159 -159 -159z" />
    <glyph glyph-name="ecaron" unicode="&#x11b;" horiz-adv-x="581" 
d="M301 -10c-156 0 -259 113 -259 260s107 260 260 260c130 0 238 -91 238 -251c0 -9 0 -15 -1 -26h-410c3 -93 74 -164 173 -164c77 0 125 34 156 87l68 -47c-45 -73 -121 -119 -225 -119zM135 303h317c-13 82 -77 131 -153 131c-75 0 -148 -48 -164 -131zM132 730h90
l81 -95l81 95h90l-127 -152h-88z" />
    <glyph glyph-name="emacron" unicode="&#x113;" horiz-adv-x="581" 
d="M301 -10c-156 0 -259 113 -259 260s107 260 260 260c130 0 238 -91 238 -251c0 -9 0 -15 -1 -26h-410c3 -93 74 -164 173 -164c77 0 125 34 156 87l68 -47c-45 -73 -121 -119 -225 -119zM135 303h317c-13 82 -77 131 -153 131c-75 0 -148 -48 -164 -131zM142 641v69h322
v-69h-322z" />
    <glyph glyph-name="eogonek" unicode="&#x119;" horiz-adv-x="581" 
d="M445 -204c-53 0 -97 32 -97 88c0 54 34 98 58 128c-25 -15 -73 -22 -105 -22c-156 0 -259 113 -259 260s107 260 260 260c130 0 238 -91 238 -251c0 -9 0 -15 -1 -26h-410c3 -93 74 -164 173 -164c77 0 125 34 156 87l68 -47c-43 -61 -100 -150 -100 -198
c0 -35 21 -46 45 -46c12 0 23 2 34 9l28 -53c-21 -15 -49 -25 -88 -25zM299 434c-75 0 -148 -48 -164 -131h317c-13 82 -77 131 -153 131z" />
    <glyph glyph-name="edotaccent" unicode="&#x117;" horiz-adv-x="581" 
d="M301 -10c-156 0 -259 113 -259 260s107 260 260 260c130 0 238 -91 238 -251c0 -9 0 -15 -1 -26h-410c3 -93 74 -164 173 -164c77 0 125 34 156 87l68 -47c-45 -73 -121 -119 -225 -119zM135 303h317c-13 82 -77 131 -153 131c-75 0 -148 -48 -164 -131zM303 594
c-33 0 -59 26 -59 58s26 59 59 59c32 0 58 -27 58 -59s-26 -58 -58 -58z" />
    <glyph glyph-name="gbreve" unicode="&#x11f;" horiz-adv-x="625" 
d="M294 -204c-103 0 -182 39 -225 92l59 60c40 -47 94 -74 166 -74c79 0 164 47 164 159v38c-40 -44 -99 -66 -163 -66c-148 0 -253 113 -253 253s106 252 253 252c64 0 123 -22 163 -65v55h86v-470c0 -160 -115 -234 -250 -234zM302 85c75 0 127 35 156 82v182
c-29 47 -81 82 -156 82c-100 0 -171 -76 -171 -173c0 -99 72 -173 171 -173zM323 561c-88 0 -159 60 -159 159v10h58v-10c0 -67 45 -102 101 -102s101 35 101 102v10h58v-10c0 -99 -71 -159 -159 -159z" />
    <glyph glyph-name="gcircumflex" unicode="&#x11d;" horiz-adv-x="625" 
d="M294 -204c-103 0 -182 39 -225 92l59 60c40 -47 94 -74 166 -74c79 0 164 47 164 159v38c-40 -44 -99 -66 -163 -66c-148 0 -253 113 -253 253s106 252 253 252c64 0 123 -22 163 -65v55h86v-470c0 -160 -115 -234 -250 -234zM302 85c75 0 127 35 156 82v182
c-29 47 -81 82 -156 82c-100 0 -171 -76 -171 -173c0 -99 72 -173 171 -173zM152 578l127 152h88l127 -152h-90l-81 94l-81 -94h-90z" />
    <glyph glyph-name="uni0123" unicode="&#x123;" horiz-adv-x="625" 
d="M294 -204c-103 0 -182 39 -225 92l59 60c40 -47 94 -74 166 -74c79 0 164 47 164 159v38c-40 -44 -99 -66 -163 -66c-148 0 -253 113 -253 253s106 252 253 252c64 0 123 -22 163 -65v55h86v-470c0 -160 -115 -234 -250 -234zM302 85c75 0 127 35 156 82v182
c-29 47 -81 82 -156 82c-100 0 -171 -76 -171 -173c0 -99 72 -173 171 -173zM308 797h47l-26 -93h47v-105h-106v105z" />
    <glyph glyph-name="gdotaccent" unicode="&#x121;" horiz-adv-x="625" 
d="M294 -204c-103 0 -182 39 -225 92l59 60c40 -47 94 -74 166 -74c79 0 164 47 164 159v38c-40 -44 -99 -66 -163 -66c-148 0 -253 113 -253 253s106 252 253 252c64 0 123 -22 163 -65v55h86v-470c0 -160 -115 -234 -250 -234zM302 85c75 0 127 35 156 82v182
c-29 47 -81 82 -156 82c-100 0 -171 -76 -171 -173c0 -99 72 -173 171 -173zM323 594c-33 0 -59 26 -59 58s26 59 59 59c32 0 58 -27 58 -59s-26 -58 -58 -58z" />
    <glyph glyph-name="hbar" unicode="&#x127;" horiz-adv-x="589" 
d="M167 0h-86v730h86v-293c35 51 94 73 158 73c112 0 190 -78 190 -203v-307h-85v294c0 88 -48 137 -125 137c-71 0 -118 -40 -138 -99v-332zM334 577h-323v68h323v-68z" />
    <glyph glyph-name="hcircumflex" unicode="&#x125;" horiz-adv-x="589" 
d="M167 0h-86v730h86v-293c35 51 94 73 158 73c112 0 190 -78 190 -203v-307h-85v294c0 88 -48 137 -125 137c-71 0 -118 -40 -138 -99v-332zM128 768l127 137h93l127 -137h-93l-81 83l-80 -83h-93z" />
    <glyph glyph-name="dotlessi" unicode="&#x131;" horiz-adv-x="249" 
d="M81 0v500h86v-500h-86z" />
    <glyph glyph-name="ibreve" unicode="&#x12d;" horiz-adv-x="249" 
d="M81 0v500h86v-500h-86zM124 561c-88 0 -159 60 -159 159v10h58v-10c0 -67 45 -102 101 -102s101 35 101 102v10h58v-10c0 -99 -71 -159 -159 -159z" />
    <glyph glyph-name="imacron" unicode="&#x12b;" horiz-adv-x="249" 
d="M81 0v500h86v-500h-86zM-37 641v69h322v-69h-322z" />
    <glyph glyph-name="iogonek" unicode="&#x12f;" horiz-adv-x="249" 
d="M125 614c-35 0 -62 26 -62 61c0 33 27 61 62 61s61 -28 61 -61c0 -35 -26 -61 -61 -61zM81 0v500h86v-500h-86zM101 -204c-59 0 -94 35 -94 86s35 87 74 118h86c-56 -35 -84 -69 -84 -101c0 -23 17 -34 36 -34c12 0 24 2 36 9l27 -53c-20 -15 -50 -25 -81 -25z" />
    <glyph glyph-name="itilde" unicode="&#x129;" horiz-adv-x="249" 
d="M81 0v500h86v-500h-86zM-50 593l3 18c11 57 53 95 106 95s98 -44 129 -44c22 0 36 15 43 44h66l-3 -18c-11 -57 -53 -95 -106 -95s-98 44 -129 44c-22 0 -36 -15 -43 -44h-66z" />
    <glyph glyph-name="uni1ECB" unicode="&#x1ecb;" horiz-adv-x="249" 
d="M125 614c-35 0 -62 26 -62 61c0 33 27 61 62 61s61 -28 61 -61c0 -35 -26 -61 -61 -61zM81 0v500h86v-500h-86zM125 -190c-33 0 -59 26 -59 58s26 58 59 58c32 0 58 -26 58 -58s-26 -58 -58 -58z" />
    <glyph glyph-name="uni0237" unicode="&#x237;" horiz-adv-x="257" 
d="M32 -199c-28 0 -64 7 -76 14l19 73c11 -4 25 -9 49 -9c35 0 65 21 65 85v536h86v-546c0 -104 -66 -153 -143 -153z" />
    <glyph glyph-name="jcircumflex" unicode="&#x135;" horiz-adv-x="257" 
d="M32 -199c-28 0 -64 7 -76 14l19 73c11 -4 25 -9 49 -9c35 0 65 21 65 85v536h86v-546c0 -104 -66 -153 -143 -153zM-39 578l127 152h88l127 -152h-90l-81 94l-81 -94h-90z" />
    <glyph glyph-name="uni0137" unicode="&#x137;" horiz-adv-x="539" 
d="M438 0l-271 250v-250h-86v730h86v-425l218 195h114l-246 -221l301 -279h-116zM316 -273h-47l26 93h-47v104h106v-104z" />
    <glyph glyph-name="lacute" unicode="&#x13a;" horiz-adv-x="249" 
d="M81 0v730h86v-730h-86zM88 804l88 156h109l-125 -156h-72z" />
    <glyph glyph-name="lcaron" unicode="&#x13e;" horiz-adv-x="249" 
d="M81 0v730h86v-730h-86zM204 565l24 165h86l-50 -165h-60z" />
    <glyph glyph-name="uni013C" unicode="&#x13c;" horiz-adv-x="249" 
d="M81 0v730h86v-730h-86zM139 -273h-47l26 93h-47v104h106v-104z" />
    <glyph glyph-name="ldot" unicode="&#x140;" horiz-adv-x="383" 
d="M81 0v730h86v-730h-86zM317 317c-33 0 -59 26 -59 58s26 59 59 59c32 0 58 -27 58 -59s-26 -58 -58 -58z" />
    <glyph glyph-name="l_periodcentered" horiz-adv-x="383" 
d="M81 0v730h86v-730h-86zM317 317c-33 0 -59 26 -59 58s26 59 59 59c32 0 58 -27 58 -59s-26 -58 -58 -58z" />
    <glyph glyph-name="lslash" unicode="&#x142;" horiz-adv-x="319" 
d="M118 0v730h86v-730h-86zM283 414l-244 -157v78l244 156v-77z" />
    <glyph glyph-name="eng" unicode="&#x14b;" horiz-adv-x="589" 
d="M81 0v500h86v-63c35 51 94 73 158 73c112 0 190 -78 190 -203v-355c0 -105 -72 -156 -157 -156c-28 0 -52 4 -71 11l19 74c12 -5 28 -7 44 -7c43 0 80 23 80 86v334c0 88 -48 137 -125 137c-71 0 -118 -40 -138 -99v-332h-86z" />
    <glyph glyph-name="nacute" unicode="&#x144;" horiz-adv-x="589" 
d="M81 0v500h86v-63c35 51 94 73 158 73c112 0 190 -78 190 -203v-307h-85v294c0 88 -48 137 -125 137c-71 0 -118 -40 -138 -99v-332h-86zM262 574l88 156h109l-125 -156h-72z" />
    <glyph glyph-name="ncaron" unicode="&#x148;" horiz-adv-x="589" 
d="M81 0v500h86v-63c35 51 94 73 158 73c112 0 190 -78 190 -203v-307h-85v294c0 88 -48 137 -125 137c-71 0 -118 -40 -138 -99v-332h-86zM127 730h90l81 -95l81 95h90l-127 -152h-88z" />
    <glyph glyph-name="uni0146" unicode="&#x146;" horiz-adv-x="589" 
d="M81 0v500h86v-63c35 51 94 73 158 73c112 0 190 -78 190 -203v-307h-85v294c0 88 -48 137 -125 137c-71 0 -118 -40 -138 -99v-332h-86zM313 -273h-47l26 93h-47v104h106v-104z" />
    <glyph glyph-name="oe" unicode="&#x153;" horiz-adv-x="1015" 
d="M735 -10c-96 0 -172 43 -217 111c-47 -68 -123 -111 -215 -111c-152 0 -262 116 -262 260s110 260 262 260c92 0 169 -44 216 -112c47 68 122 112 217 112c130 0 238 -91 238 -251c0 -9 0 -15 -1 -26h-410c3 -93 74 -164 173 -164c77 0 125 34 156 87l68 -47
c-45 -73 -121 -119 -225 -119zM303 70c104 0 173 80 173 180s-69 180 -173 180s-174 -80 -174 -180s70 -180 174 -180zM733 434c-75 0 -148 -48 -164 -131h317c-13 82 -77 131 -153 131z" />
    <glyph glyph-name="obreve" unicode="&#x14f;" horiz-adv-x="606" 
d="M303 -10c-152 0 -262 116 -262 260s110 260 262 260c150 0 261 -116 261 -260s-111 -260 -261 -260zM303 70c104 0 173 80 173 180s-69 180 -173 180s-174 -80 -174 -180s70 -180 174 -180zM303 561c-88 0 -159 60 -159 159v10h58v-10c0 -67 45 -102 101 -102
s101 35 101 102v10h58v-10c0 -99 -71 -159 -159 -159z" />
    <glyph glyph-name="ohungarumlaut" unicode="&#x151;" horiz-adv-x="606" 
d="M303 -10c-152 0 -262 116 -262 260s110 260 262 260c150 0 261 -116 261 -260s-111 -260 -261 -260zM303 70c104 0 173 80 173 180s-69 180 -173 180s-174 -80 -174 -180s70 -180 174 -180zM195 574l55 156h99l-91 -156h-63zM363 574l54 156h100l-92 -156h-62z" />
    <glyph glyph-name="omacron" unicode="&#x14d;" horiz-adv-x="606" 
d="M303 -10c-152 0 -262 116 -262 260s110 260 262 260c150 0 261 -116 261 -260s-111 -260 -261 -260zM303 70c104 0 173 80 173 180s-69 180 -173 180s-174 -80 -174 -180s70 -180 174 -180zM142 641v69h322v-69h-322z" />
    <glyph glyph-name="uni1ECD" unicode="&#x1ecd;" horiz-adv-x="606" 
d="M303 -10c-152 0 -262 116 -262 260s110 260 262 260c150 0 261 -116 261 -260s-111 -260 -261 -260zM303 70c104 0 173 80 173 180s-69 180 -173 180s-174 -80 -174 -180s70 -180 174 -180zM303 -190c-33 0 -59 26 -59 58s26 58 59 58c32 0 58 -26 58 -58
s-26 -58 -58 -58z" />
    <glyph glyph-name="racute" unicode="&#x155;" horiz-adv-x="359" 
d="M81 0v500h86v-74c19 41 75 79 135 79c17 0 31 -2 44 -5l-11 -86c-15 5 -28 6 -43 6c-51 0 -105 -33 -125 -96v-324h-86zM176 574l88 156h109l-125 -156h-72z" />
    <glyph glyph-name="rcaron" unicode="&#x159;" horiz-adv-x="359" 
d="M81 0v500h86v-74c19 41 75 79 135 79c17 0 31 -2 44 -5l-11 -86c-15 5 -28 6 -43 6c-51 0 -105 -33 -125 -96v-324h-86zM42 730h90l81 -95l81 95h90l-127 -152h-88z" />
    <glyph glyph-name="uni0157" unicode="&#x157;" horiz-adv-x="359" 
d="M81 0v500h86v-74c19 41 75 79 135 79c17 0 31 -2 44 -5l-11 -86c-15 5 -28 6 -43 6c-51 0 -105 -33 -125 -96v-324h-86zM140 -273h-47l26 93h-47v104h106v-104z" />
    <glyph glyph-name="sacute" unicode="&#x15b;" horiz-adv-x="450" 
d="M232 -10c-89 0 -165 37 -196 116l70 39c19 -51 71 -79 127 -79c48 0 87 24 87 67c0 36 -22 58 -87 78l-50 16c-83 24 -125 75 -125 146c0 85 77 137 172 137c75 0 132 -31 165 -87l-64 -44c-23 32 -56 57 -104 57c-43 0 -83 -23 -83 -60c0 -31 15 -55 71 -72l55 -17
c87 -27 136 -71 136 -147c0 -96 -74 -150 -174 -150zM195 574l88 156h109l-125 -156h-72z" />
    <glyph glyph-name="scaron" unicode="&#x161;" horiz-adv-x="450" 
d="M232 -10c-89 0 -165 37 -196 116l70 39c19 -51 71 -79 127 -79c48 0 87 24 87 67c0 36 -22 58 -87 78l-50 16c-83 24 -125 75 -125 146c0 85 77 137 172 137c75 0 132 -31 165 -87l-64 -44c-23 32 -56 57 -104 57c-43 0 -83 -23 -83 -60c0 -31 15 -55 71 -72l55 -17
c87 -27 136 -71 136 -147c0 -96 -74 -150 -174 -150zM61 730h90l81 -95l81 95h90l-127 -152h-88z" />
    <glyph glyph-name="scedilla" unicode="&#x15f;" horiz-adv-x="450" 
d="M232 -10c-89 0 -165 37 -196 116l70 39c19 -51 71 -79 127 -79c48 0 87 24 87 67c0 36 -22 58 -87 78l-50 16c-83 24 -125 75 -125 146c0 85 77 137 172 137c75 0 132 -31 165 -87l-64 -44c-23 32 -56 57 -104 57c-43 0 -83 -23 -83 -60c0 -31 15 -55 71 -72l55 -17
c87 -27 136 -71 136 -147c0 -96 -74 -150 -174 -150zM126 -187l13 50c22 -9 45 -14 69 -14c27 0 57 8 57 33c0 19 -18 27 -39 27c-19 0 -33 -4 -46 -9l-31 22l49 81h55l-32 -52c11 5 23 7 38 7c43 0 76 -27 76 -72c0 -59 -51 -90 -122 -90c-29 0 -60 5 -87 17z" />
    <glyph glyph-name="scircumflex" unicode="&#x15d;" horiz-adv-x="450" 
d="M232 -10c-89 0 -165 37 -196 116l70 39c19 -51 71 -79 127 -79c48 0 87 24 87 67c0 36 -22 58 -87 78l-50 16c-83 24 -125 75 -125 146c0 85 77 137 172 137c75 0 132 -31 165 -87l-64 -44c-23 32 -56 57 -104 57c-43 0 -83 -23 -83 -60c0 -31 15 -55 71 -72l55 -17
c87 -27 136 -71 136 -147c0 -96 -74 -150 -174 -150zM61 578l127 152h88l127 -152h-90l-81 94l-81 -94h-90z" />
    <glyph glyph-name="uni0219" unicode="&#x219;" horiz-adv-x="450" 
d="M232 -10c-89 0 -165 37 -196 116l70 39c19 -51 71 -79 127 -79c48 0 87 24 87 67c0 36 -22 58 -87 78l-50 16c-83 24 -125 75 -125 146c0 85 77 137 172 137c75 0 132 -31 165 -87l-64 -44c-23 32 -56 57 -104 57c-43 0 -83 -23 -83 -60c0 -31 15 -55 71 -72l55 -17
c87 -27 136 -71 136 -147c0 -96 -74 -150 -174 -150zM244 -273h-47l26 93h-47v104h106v-104z" />
    <glyph glyph-name="tbar" unicode="&#x167;" horiz-adv-x="429" 
d="M306 -5c-84 0 -156 49 -156 153v273h-126v79h126v142h86v-142h155v-79h-155v-262c0 -64 35 -87 80 -87c33 0 57 10 72 19l26 -73c-21 -11 -57 -23 -108 -23zM24 266v68h367v-68h-367z" />
    <glyph glyph-name="tcaron" unicode="&#x165;" horiz-adv-x="415" 
d="M295 -5c-84 0 -156 49 -156 153v273h-126v79h126v142h86v-142h155v-79h-155v-262c0 -64 35 -87 80 -87c33 0 57 10 72 19l26 -73c-21 -11 -57 -23 -108 -23zM260 545l24 165h86l-50 -165h-60z" />
    <glyph glyph-name="uni0163" unicode="&#x163;" horiz-adv-x="415" 
d="M295 -5c-84 0 -156 49 -156 153v273h-126v79h126v142h86v-142h155v-79h-155v-262c0 -64 35 -87 80 -87c33 0 57 10 72 19l26 -73c-21 -11 -57 -23 -108 -23zM285 -273h-47l26 93h-47v104h106v-104z" />
    <glyph glyph-name="uni021B" unicode="&#x21b;" horiz-adv-x="415" 
d="M295 -5c-84 0 -156 49 -156 153v273h-126v79h126v142h86v-142h155v-79h-155v-262c0 -64 35 -87 80 -87c33 0 57 10 72 19l26 -73c-21 -11 -57 -23 -108 -23zM285 -273h-47l26 93h-47v104h106v-104z" />
    <glyph glyph-name="ubreve" unicode="&#x16d;" horiz-adv-x="579" 
d="M498 500v-500h-86v63c-35 -51 -95 -73 -151 -73c-110 0 -187 78 -187 203v307h86v-294c0 -88 45 -137 120 -137c64 0 111 40 132 99v332h86zM285 561c-88 0 -159 60 -159 159v10h58v-10c0 -67 45 -102 101 -102s101 35 101 102v10h58v-10c0 -99 -71 -159 -159 -159z" />
    <glyph glyph-name="uhungarumlaut" unicode="&#x171;" horiz-adv-x="579" 
d="M498 500v-500h-86v63c-35 -51 -95 -73 -151 -73c-110 0 -187 78 -187 203v307h86v-294c0 -88 45 -137 120 -137c64 0 111 40 132 99v332h86zM177 574l55 156h99l-91 -156h-63zM345 574l54 156h100l-92 -156h-62z" />
    <glyph glyph-name="umacron" unicode="&#x16b;" horiz-adv-x="579" 
d="M498 500v-500h-86v63c-35 -51 -95 -73 -151 -73c-110 0 -187 78 -187 203v307h86v-294c0 -88 45 -137 120 -137c64 0 111 40 132 99v332h86zM124 641v69h322v-69h-322z" />
    <glyph glyph-name="uogonek" unicode="&#x173;" horiz-adv-x="579" 
d="M498 500v-500h-86v63c-35 -51 -95 -73 -151 -73c-110 0 -187 78 -187 203v307h86v-294c0 -88 45 -137 120 -137c64 0 111 40 132 99v332h86zM432 -204c-59 0 -94 35 -94 86s35 87 74 118h86c-56 -35 -84 -69 -84 -101c0 -23 17 -34 36 -34c12 0 24 2 36 9l27 -53
c-20 -15 -50 -25 -81 -25z" />
    <glyph glyph-name="uring" unicode="&#x16f;" horiz-adv-x="579" 
d="M498 500v-500h-86v63c-35 -51 -95 -73 -151 -73c-110 0 -187 78 -187 203v307h86v-294c0 -88 45 -137 120 -137c64 0 111 40 132 99v332h86zM286 541c-68 0 -122 54 -122 121s54 121 122 121c67 0 121 -54 121 -121s-54 -121 -121 -121zM286 592c37 0 69 31 69 70
s-32 70 -69 70c-39 0 -71 -31 -71 -70s32 -70 71 -70z" />
    <glyph glyph-name="utilde" unicode="&#x169;" horiz-adv-x="579" 
d="M498 500v-500h-86v63c-35 -51 -95 -73 -151 -73c-110 0 -187 78 -187 203v307h86v-294c0 -88 45 -137 120 -137c64 0 111 40 132 99v332h86zM111 593l3 18c11 57 53 95 106 95s98 -44 129 -44c22 0 36 15 43 44h66l-3 -18c-11 -57 -53 -95 -106 -95s-98 44 -129 44
c-22 0 -36 -15 -43 -44h-66z" />
    <glyph glyph-name="uni1EE5" unicode="&#x1ee5;" horiz-adv-x="579" 
d="M498 500v-500h-86v63c-35 -51 -95 -73 -151 -73c-110 0 -187 78 -187 203v307h86v-294c0 -88 45 -137 120 -137c64 0 111 40 132 99v332h86zM286 -190c-33 0 -59 26 -59 58s26 58 59 58c32 0 58 -26 58 -58s-26 -58 -58 -58z" />
    <glyph glyph-name="wacute" unicode="&#x1e83;" horiz-adv-x="763" 
d="M505 0l-124 359l-123 -359h-76l-170 500h90l121 -365l125 365h66l125 -365l121 365h91l-170 -500h-76zM345 574l88 156h109l-125 -156h-72z" />
    <glyph glyph-name="wcircumflex" unicode="&#x175;" horiz-adv-x="763" 
d="M505 0l-124 359l-123 -359h-76l-170 500h90l121 -365l125 365h66l125 -365l121 365h91l-170 -500h-76zM210 578l127 152h88l127 -152h-90l-81 94l-81 -94h-90z" />
    <glyph glyph-name="wdieresis" unicode="&#x1e85;" horiz-adv-x="763" 
d="M505 0l-124 359l-123 -359h-76l-170 500h90l121 -365l125 365h66l125 -365l121 365h91l-170 -500h-76zM269 594c-33 0 -59 26 -59 58s26 59 59 59c32 0 58 -27 58 -59s-26 -58 -58 -58zM494 594c-32 0 -59 26 -59 58s27 59 59 59s58 -27 58 -59s-26 -58 -58 -58z" />
    <glyph glyph-name="wgrave" unicode="&#x1e81;" horiz-adv-x="763" 
d="M505 0l-124 359l-123 -359h-76l-170 500h90l121 -365l125 365h66l125 -365l121 365h91l-170 -500h-76zM418 574h-72l-125 156h109z" />
    <glyph glyph-name="ycircumflex" unicode="&#x177;" horiz-adv-x="547" 
d="M221 -194h-96l102 220l-219 474h95l172 -380l171 380h96zM104 578l127 152h88l127 -152h-90l-81 94l-81 -94h-90z" />
    <glyph glyph-name="ygrave" unicode="&#x1ef3;" horiz-adv-x="547" 
d="M221 -194h-96l102 220l-219 474h95l172 -380l171 380h96zM312 574h-72l-125 156h109z" />
    <glyph glyph-name="uni0233" unicode="&#x233;" horiz-adv-x="547" 
d="M221 -194h-96l102 220l-219 474h95l172 -380l171 380h96zM114 641v69h322v-69h-322z" />
    <glyph glyph-name="zacute" unicode="&#x17a;" horiz-adv-x="484" 
d="M40 0v68l286 353h-282v79h393v-69l-286 -352h295v-79h-406zM204 574l88 156h109l-125 -156h-72z" />
    <glyph glyph-name="zcaron" unicode="&#x17e;" horiz-adv-x="484" 
d="M40 0v68l286 353h-282v79h393v-69l-286 -352h295v-79h-406zM69 730h90l81 -95l81 95h90l-127 -152h-88z" />
    <glyph glyph-name="zdotaccent" unicode="&#x17c;" horiz-adv-x="484" 
d="M40 0v68l286 353h-282v79h393v-69l-286 -352h295v-79h-406zM240 594c-33 0 -59 26 -59 58s26 59 59 59c32 0 58 -27 58 -59s-26 -58 -58 -58z" />
    <glyph glyph-name="uni0259" unicode="&#x259;" horiz-adv-x="579" 
d="M284 -10c-135 0 -245 93 -245 251v26h411c-3 93 -79 164 -165 164c-76 0 -121 -34 -152 -87l-68 47c45 72 117 119 220 119c147 0 251 -113 251 -260s-104 -260 -252 -260zM285 66c69 0 143 48 159 131h-317c12 -83 77 -131 158 -131z" />
    <glyph glyph-name="uni0410" unicode="&#x410;" horiz-adv-x="718" 
d="M6 0l314 710h77l315 -710h-97l-92 207h-331l-90 -207h-96zM357 584l-128 -293h257z" />
    <glyph glyph-name="uni0411" unicode="&#x411;" horiz-adv-x="624" 
d="M187 416h164c139 0 240 -74 240 -208c0 -132 -101 -208 -240 -208h-257v710h431v-88h-338v-206zM498 208c0 79 -52 122 -147 122h-164v-244h164c95 0 147 45 147 122z" />
    <glyph glyph-name="uni0412" unicode="&#x412;" horiz-adv-x="629" 
d="M94 0v710h233c132 0 212 -88 212 -188c0 -71 -31 -117 -76 -145c69 -25 123 -75 123 -170c0 -118 -94 -207 -238 -207h-254zM187 84h165c96 0 143 49 143 120c0 69 -47 121 -142 121h-166v-241zM187 405h140c76 0 121 46 121 110c0 60 -45 111 -121 111h-140v-221z" />
    <glyph glyph-name="uni0413" unicode="&#x413;" horiz-adv-x="513" 
d="M495 710v-88h-308v-622h-93v710h401z" />
    <glyph glyph-name="uni0414" unicode="&#x414;" horiz-adv-x="758" 
d="M636 -148v148h-517v-148h-86v236h13c50 0 92 44 92 247v375h496v-622h88v-236h-86zM231 622v-302c0 -126 -18 -189 -45 -232h355v534h-310z" />
    <glyph glyph-name="uni0415" unicode="&#x415;" horiz-adv-x="557" 
d="M94 0v710h414v-88h-321v-215h261v-88h-261v-231h321v-88h-414z" />
    <glyph glyph-name="uni0416" unicode="&#x416;" horiz-adv-x="967" 
d="M853 0l-323 317v-317h-93v317l-323 -317h-123l358 353l-329 357h114l303 -329v329h93v-329l303 329h114l-329 -357l358 -353h-123z" />
    <glyph glyph-name="uni0417" unicode="&#x417;" horiz-adv-x="572" 
d="M110 573l-57 63c59 57 132 86 221 86c131 0 221 -77 221 -192c0 -63 -24 -123 -91 -158c79 -31 118 -94 118 -173c0 -136 -116 -211 -248 -211c-105 0 -198 40 -253 115l68 59c41 -56 112 -87 185 -87c97 0 157 54 157 129c0 71 -49 123 -148 123h-94v79h95
c79 0 121 52 121 115c0 68 -48 114 -136 115c-61 1 -114 -20 -159 -63z" />
    <glyph glyph-name="uni0418" unicode="&#x418;" horiz-adv-x="794" 
d="M175 0h-81v710h93v-552l432 552h80v-710h-92v553z" />
    <glyph glyph-name="uni041A" unicode="&#x41a;" horiz-adv-x="671" 
d="M563 0l-377 338v-338h-92v710h92v-308l310 308h121l-338 -338l415 -372h-131z" />
    <glyph glyph-name="uni041B" unicode="&#x41b;" horiz-adv-x="730" 
d="M140 204v506h495v-710h-92v622h-311v-432c0 -149 -68 -202 -156 -202c-27 0 -45 4 -64 8l17 82c11 -3 24 -4 38 -4c49 0 73 27 73 130z" />
    <glyph glyph-name="uni041C" unicode="&#x41c;" horiz-adv-x="885" 
d="M94 0v710h85l263 -416l264 416h85v-710h-92v530l-223 -351h-66l-223 352v-531h-93z" />
    <glyph glyph-name="uni041D" unicode="&#x41d;" horiz-adv-x="763" 
d="M94 0v710h93v-303h389v303h93v-710h-93v320h-389v-320h-93z" />
    <glyph glyph-name="uni041E" unicode="&#x41e;" horiz-adv-x="825" 
d="M412 76c156 0 274 123 274 279s-118 279 -274 279c-155 0 -273 -123 -273 -279s118 -279 273 -279zM412 -12c-204 0 -367 162 -367 367s163 367 367 367c205 0 367 -162 367 -367s-162 -367 -367 -367z" />
    <glyph glyph-name="uni041F" unicode="&#x41f;" horiz-adv-x="747" 
d="M561 0v622h-377v-622h-90v710h558v-710h-91z" />
    <glyph glyph-name="uni0420" unicode="&#x420;" horiz-adv-x="586" 
d="M555 484c0 -128 -96 -225 -244 -225h-124v-259h-93v710h217c148 0 244 -98 244 -226zM463 484c0 79 -54 139 -152 139h-124v-278h124c98 0 152 60 152 139z" />
    <glyph glyph-name="uni0421" unicode="&#x421;" horiz-adv-x="755" 
d="M412 -12c-204 0 -367 162 -367 367s163 367 367 367c136 0 250 -67 314 -172l-78 -47c-49 80 -132 131 -236 131c-155 0 -273 -123 -273 -279s118 -279 273 -279c104 0 187 51 236 131l78 -47c-64 -105 -178 -172 -314 -172z" />
    <glyph glyph-name="uni0422" unicode="&#x422;" horiz-adv-x="567" 
d="M238 0v622h-221v88h533v-88h-221v-622h-91z" />
    <glyph glyph-name="uni0423" unicode="&#x423;" horiz-adv-x="697" 
d="M125 -3l18 83c17 -3 32 -5 57 -5c43 0 73 20 104 77l9 17l-278 541h105l226 -441l233 441h101l-299 -566c-56 -107 -108 -156 -193 -156c-35 0 -59 2 -83 9z" />
    <glyph glyph-name="uni0424" unicode="&#x424;" horiz-adv-x="868" 
d="M388 148v420h-6c-164 1 -246 -80 -246 -209c0 -131 81 -211 246 -211h6zM480 -30h-92v93h-5c-211 0 -341 112 -341 296s130 294 341 294h5v87h92v-87h5c211 0 341 -110 341 -294s-131 -296 -341 -296h-5v-93zM480 148h6c165 0 246 80 246 211c0 129 -82 210 -246 209h-6
v-420z" />
    <glyph glyph-name="uni0425" unicode="&#x425;" horiz-adv-x="670" 
d="M118 0h-114l274 359l-263 351h111l209 -277l209 277h111l-262 -351l273 -359h-113l-218 284z" />
    <glyph glyph-name="uni0426" unicode="&#x426;" horiz-adv-x="761" 
d="M636 88h89v-236h-87v148h-544v710h93v-622h357v622h92v-622z" />
    <glyph glyph-name="uni0427" unicode="&#x427;" horiz-adv-x="687" 
d="M593 0h-93v302c-57 -20 -129 -34 -209 -34c-147 0 -245 78 -245 222v220h93v-206c0 -112 70 -149 166 -149c68 0 135 11 195 35v320h93v-710z" />
    <glyph glyph-name="uni0428" unicode="&#x428;" horiz-adv-x="987" 
d="M94 0v710h93v-622h260v622h93v-622h260v622h93v-710h-799z" />
    <glyph glyph-name="uni0429" unicode="&#x429;" horiz-adv-x="1018" 
d="M894 -148v148h-800v710h93v-622h260v622h93v-622h260v622h93v-622h89v-236h-88z" />
    <glyph glyph-name="uni042A" unicode="&#x42a;" horiz-adv-x="709" 
d="M301 425h132c149 0 243 -85 243 -212s-94 -213 -243 -213h-225v622h-191v88h284v-285zM301 86h130c97 0 152 44 152 127c0 80 -55 126 -152 126h-130v-253z" />
    <glyph glyph-name="uni042B" unicode="&#x42b;" horiz-adv-x="849" 
d="M187 425h132c148 0 242 -85 242 -212s-94 -213 -242 -213h-225v710h93v-285zM187 86h129c99 0 153 44 153 127c0 80 -54 126 -153 126h-129v-253zM662 0v710h93v-710h-93z" />
    <glyph glyph-name="uni042C" unicode="&#x42c;" horiz-adv-x="595" 
d="M187 425h132c148 0 242 -85 242 -212s-94 -213 -242 -213h-225v710h93v-285zM187 86h129c99 0 153 44 153 127c0 80 -54 126 -153 126h-129v-253z" />
    <glyph glyph-name="uni042D" unicode="&#x42d;" horiz-adv-x="755" 
d="M343 -12c-135 0 -250 67 -314 171l78 47c49 -79 132 -130 236 -130c142 0 252 103 271 240h-366v86h364c-21 132 -130 231 -269 231c-104 0 -187 -51 -236 -130l-78 47c63 103 180 172 314 172c204 0 367 -162 367 -367s-163 -367 -367 -367z" />
    <glyph glyph-name="uni042E" unicode="&#x42e;" horiz-adv-x="1068" 
d="M94 0v710h93v-304h126c24 181 169 316 353 316c200 0 356 -159 356 -367s-156 -367 -356 -367c-187 0 -339 142 -355 331h-124v-319h-93zM929 355c0 157 -114 279 -263 279s-262 -122 -262 -279s113 -279 262 -279s263 122 263 279z" />
    <glyph glyph-name="uni042F" unicode="&#x42f;" horiz-adv-x="630" 
d="M443 0v289h-89l-247 -289h-116l260 302c-107 23 -168 100 -168 199c0 122 91 209 240 209h212v-710h-92zM175 501c0 -77 54 -126 151 -126h117v249h-117c-97 0 -151 -48 -151 -123z" />
    <glyph glyph-name="uni0405" unicode="&#x405;" horiz-adv-x="554" 
d="M285 -12c-117 0 -211 55 -249 128l75 56c39 -60 96 -97 176 -97c73 0 131 39 131 106c0 57 -35 95 -102 120l-94 36c-112 41 -161 99 -161 196c0 116 95 189 222 189c89 0 163 -40 207 -97l-68 -60c-36 43 -80 70 -141 70c-70 0 -128 -39 -128 -98c0 -60 35 -87 107 -114
l86 -33c105 -40 165 -100 165 -205c0 -120 -95 -197 -226 -197z" />
    <glyph glyph-name="uni0404" unicode="&#x404;" horiz-adv-x="755" 
d="M412 -12c-204 0 -367 162 -367 367s163 367 367 367c134 0 251 -69 314 -172l-78 -47c-49 79 -132 130 -236 130c-139 0 -248 -99 -269 -231h364v-86h-366c19 -137 129 -240 271 -240c104 0 187 51 236 130l78 -47c-64 -104 -179 -171 -314 -171z" />
    <glyph glyph-name="uni0406" unicode="&#x406;" horiz-adv-x="281" 
d="M94 0v710h93v-710h-93z" />
    <glyph glyph-name="uni0408" unicode="&#x408;" horiz-adv-x="469" 
d="M185 -12c-84 0 -144 35 -180 78l61 65c31 -33 62 -57 118 -57c63 0 105 33 105 124v512h92v-516c0 -142 -85 -206 -196 -206z" />
    <glyph glyph-name="uni040F" unicode="&#x40f;" horiz-adv-x="741" 
d="M415 0v-148h-88v148h-233v710h93v-622h367v622h93v-710h-232z" />
    <glyph glyph-name="uni0409" unicode="&#x409;" horiz-adv-x="1032" 
d="M907 207c0 68 -51 113 -150 113h-124v-233h124c99 0 150 41 150 120zM140 710h493v-303h125c152 0 241 -85 241 -198c0 -123 -92 -209 -241 -209h-217v622h-309v-432c0 -149 -68 -202 -156 -202c-27 0 -45 4 -64 8l17 82c11 -3 24 -4 38 -4c49 0 73 27 73 130v506z" />
    <glyph glyph-name="uni040A" unicode="&#x40a;" horiz-adv-x="1044" 
d="M94 0v710h93v-303h369v303h92v-303h123c152 0 241 -85 241 -198c0 -123 -92 -209 -241 -209h-215v320h-369v-320h-93zM770 320h-122v-233h122c99 0 150 41 150 120c0 68 -51 113 -150 113z" />
    <glyph glyph-name="uni0402" unicode="&#x402;" horiz-adv-x="749" 
d="M484 442c167 0 230 -109 230 -237c0 -146 -102 -217 -224 -217c-39 0 -67 4 -94 9l15 85c28 -5 48 -8 79 -8c68 0 132 38 132 130c0 96 -44 150 -149 150c-72 0 -125 -13 -188 -36v-318h-93v622h-174v88h491v-88h-224v-216c64 23 124 36 199 36z" />
    <glyph glyph-name="uni040B" unicode="&#x40b;" horiz-adv-x="760" 
d="M192 622h-174v88h491v-88h-224v-216c64 24 126 36 202 36c136 0 226 -86 226 -214v-228h-92v213c0 91 -52 141 -144 141c-68 0 -129 -12 -192 -36v-318h-93v622z" />
    <glyph glyph-name="uni0474" unicode="&#x474;" horiz-adv-x="772" 
d="M111 710l240 -564l185 433c45 112 87 143 162 143c27 0 49 -5 68 -10l-21 -83c-61 11 -88 1 -120 -80l-235 -549h-78l-303 710h102z" />
    <glyph glyph-name="uni04AE" unicode="&#x4ae;" horiz-adv-x="674" 
d="M291 0v301l-276 409h111l211 -316l212 316h111l-277 -410v-300h-92z" />
    <glyph glyph-name="uni04BA" unicode="&#x4ba;" horiz-adv-x="687" 
d="M94 710h93v-302c57 20 129 34 209 34c147 0 245 -78 245 -222v-220h-93v206c0 112 -70 149 -166 149c-68 0 -135 -11 -195 -35v-320h-93v710z" />
    <glyph glyph-name="uni04C0" unicode="&#x4c0;" horiz-adv-x="281" 
d="M94 0v710h93v-710h-93z" />
    <glyph glyph-name="uni04D8" unicode="&#x4d8;" horiz-adv-x="814" 
d="M34 355v48h637c-24 147 -145 231 -271 231c-80 0 -158 -32 -207 -83l-63 64c67 65 166 107 271 107c204 0 367 -159 367 -367c0 -205 -162 -367 -367 -367s-367 162 -367 367zM401 76c133 0 256 95 272 244h-542c13 -139 126 -244 270 -244z" />
    <glyph glyph-name="uni0462" unicode="&#x462;" horiz-adv-x="712" 
d="M302 421h133c148 0 242 -84 242 -210s-94 -211 -242 -211h-225v533h-182v79h182v98h92v-98h226v-79h-226v-112zM302 86h130c99 0 153 45 153 125s-54 124 -153 124h-130v-249z" />
    <glyph glyph-name="uni0419" unicode="&#x419;" horiz-adv-x="794" 
d="M175 0h-81v710h93v-552l432 552h80v-710h-92v553zM406 759c-88 0 -159 61 -159 158h66c0 -60 37 -99 93 -99s93 39 93 99h66c0 -97 -71 -158 -159 -158z" />
    <glyph glyph-name="uni0401" unicode="&#x401;" horiz-adv-x="557" 
d="M94 0v710h414v-88h-321v-215h261v-88h-261v-231h321v-88h-414zM188 785c-33 0 -59 26 -59 58s26 59 59 59c32 0 58 -27 58 -59s-26 -58 -58 -58zM413 785c-32 0 -59 26 -59 58s27 59 59 59s58 -27 58 -59s-26 -58 -58 -58z" />
    <glyph glyph-name="uni040C" unicode="&#x40c;" horiz-adv-x="671" 
d="M563 0l-377 338v-338h-92v710h92v-308l310 308h121l-338 -338l415 -372h-131zM309 768l78 137h109l-115 -137h-72z" />
    <glyph glyph-name="uni0490" unicode="&#x490;" horiz-adv-x="513" 
d="M495 710v-88h-308v-622h-93v710h401zM495 710h-88v148h88v-148z" />
    <glyph glyph-name="uni0403" unicode="&#x403;" horiz-adv-x="513" 
d="M495 710v-88h-308v-622h-93v710h401zM261 768l78 137h109l-115 -137h-72z" />
    <glyph glyph-name="uni040E" unicode="&#x40e;" horiz-adv-x="697" 
d="M125 -3l18 83c17 -3 32 -5 57 -5c43 0 73 20 104 77l9 17l-278 541h105l226 -441l233 441h101l-299 -566c-56 -107 -108 -156 -193 -156c-35 0 -59 2 -83 9zM369 759c-88 0 -159 61 -159 158h66c0 -60 37 -99 93 -99s93 39 93 99h66c0 -97 -71 -158 -159 -158z" />
    <glyph glyph-name="uni0407" unicode="&#x407;" horiz-adv-x="281" 
d="M94 0v710h93v-710h-93zM42 806c-35 0 -61 26 -61 61c0 33 26 60 61 60c33 0 61 -27 61 -60c0 -35 -28 -61 -61 -61zM238 806c-35 0 -61 26 -61 61c0 33 26 60 61 60c33 0 61 -27 61 -60c0 -35 -28 -61 -61 -61z" />
    <glyph glyph-name="uni0472" unicode="&#x472;" horiz-adv-x="825" 
d="M412 76c156 0 274 123 274 279s-118 279 -274 279c-155 0 -273 -123 -273 -279s118 -279 273 -279zM412 -12c-204 0 -367 162 -367 367s163 367 367 367c205 0 367 -162 367 -367s-162 -367 -367 -367zM538 374c51 0 111 16 154 47v-84c-43 -31 -105 -47 -154 -47
c-92 0 -167 47 -251 47c-51 0 -111 -16 -154 -47v84c43 31 105 47 154 47c103 0 160 -47 251 -47z" />
    <glyph glyph-name="uni04E8" unicode="&#x4e8;" horiz-adv-x="825" 
d="M412 76c156 0 274 123 274 279s-118 279 -274 279c-155 0 -273 -123 -273 -279s118 -279 273 -279zM412 -12c-204 0 -367 162 -367 367s163 367 367 367c205 0 367 -162 367 -367s-162 -367 -367 -367zM92 398v-85h640v85h-640z" />
    <glyph glyph-name="uni0492" unicode="&#x492;" horiz-adv-x="532" 
d="M511 710v-88h-308v-622h-93v710h401zM20 316v85h363v-85h-363z" />
    <glyph glyph-name="uni04B0" unicode="&#x4b0;" horiz-adv-x="671" 
d="M290 0v301l-276 409h111l211 -316l212 316h111l-277 -410v-300h-92zM537 301v-85h-404v85h404z" />
    <glyph glyph-name="uni04E2" unicode="&#x4e2;" horiz-adv-x="794" 
d="M175 0h-81v710h93v-552l432 552h80v-710h-92v553zM245 805v69h322v-69h-322z" />
    <glyph glyph-name="uni04EE" unicode="&#x4ee;" horiz-adv-x="697" 
d="M125 -3l18 83c17 -3 32 -5 57 -5c43 0 73 20 104 77l9 17l-278 541h105l226 -441l233 441h101l-299 -566c-56 -107 -108 -156 -193 -156c-35 0 -59 2 -83 9zM208 805v69h322v-69h-322z" />
    <glyph glyph-name="uni0496" unicode="&#x496;" horiz-adv-x="990" 
d="M853 0l-323 317v-317h-93v317l-323 -317h-123l358 353l-329 357h114l303 -329v329h93v-329l303 329h114l-329 -357l358 -353h-123zM899 -148v148h-27v88h115v-236h-88z" />
    <glyph glyph-name="uni049A" unicode="&#x49a;" horiz-adv-x="694" 
d="M563 0l-377 338v-338h-92v710h92v-308l310 308h121l-338 -338l415 -372h-131zM610 -148v148h-27v88h115v-236h-88z" />
    <glyph glyph-name="uni04A2" unicode="&#x4a2;" horiz-adv-x="793" 
d="M94 0v710h93v-303h389v303h93v-710h-93v320h-389v-320h-93zM670 -148v148h-27v88h115v-236h-88z" />
    <glyph glyph-name="uni04B2" unicode="&#x4b2;" horiz-adv-x="704" 
d="M118 0h-114l274 359l-263 351h111l209 -277l209 277h111l-262 -351l273 -359h-113l-218 284zM610 -148v148h-27v88h115v-236h-88z" />
    <glyph glyph-name="uni04B6" unicode="&#x4b6;" horiz-adv-x="718" 
d="M593 0h-93v302c-57 -20 -129 -34 -209 -34c-147 0 -245 78 -245 222v220h93v-206c0 -112 70 -149 166 -149c68 0 135 11 195 35v320h93v-710zM594 -148v148h-27v88h115v-236h-88z" />
    <glyph glyph-name="uni0430" unicode="&#x430;" horiz-adv-x="624" 
d="M293 -10c-148 0 -251 118 -251 260s103 260 251 260c65 0 123 -22 163 -65v55h86v-500h-86v55c-40 -43 -98 -65 -163 -65zM300 69c76 0 127 36 156 83v197c-29 47 -80 82 -156 82c-100 0 -170 -81 -170 -181s70 -181 170 -181z" />
    <glyph glyph-name="uni0431" unicode="&#x431;" horiz-adv-x="625" 
d="M321 -10c-158 0 -259 115 -259 283v51c0 247 84 358 282 396l172 32l14 -80l-167 -31c-147 -26 -198 -96 -214 -228c47 63 115 87 184 87c155 0 250 -115 250 -248c0 -145 -109 -262 -262 -262zM321 70c101 0 174 75 174 182c0 100 -72 170 -172 170
c-104 0 -174 -74 -174 -170c0 -107 71 -182 172 -182z" />
    <glyph glyph-name="uni0432" unicode="&#x432;" horiz-adv-x="545" 
d="M81 0v500h218c113 0 171 -55 171 -136c0 -39 -14 -70 -49 -97c56 -27 82 -70 82 -122c0 -78 -53 -145 -180 -145h-242zM167 75h161c52 0 87 27 87 75s-35 74 -87 74h-161v-149zM167 293h139c39 0 77 16 77 67c0 50 -38 66 -77 66h-139v-133z" />
    <glyph glyph-name="uni0433" unicode="&#x433;" horiz-adv-x="411" 
d="M81 0v500h313v-79h-227v-421h-86z" />
    <glyph glyph-name="uni0434" unicode="&#x434;" horiz-adv-x="625" 
d="M33 79h12c37 0 72 27 72 162v259h397v-421h75v-205h-81v126h-394v-126h-81v205zM203 421v-194c0 -83 -12 -115 -31 -148h256v342h-225z" />
    <glyph glyph-name="uni0435" unicode="&#x435;" horiz-adv-x="581" 
d="M301 -10c-156 0 -259 113 -259 260s107 260 260 260c130 0 238 -91 238 -251c0 -9 0 -15 -1 -26h-410c3 -93 74 -164 173 -164c77 0 125 34 156 87l68 -47c-45 -73 -121 -119 -225 -119zM135 303h317c-13 82 -77 131 -153 131c-75 0 -148 -48 -164 -131z" />
    <glyph glyph-name="uni0436" unicode="&#x436;" horiz-adv-x="778" 
d="M668 0l-236 222v-222h-86v222l-236 -222h-114l268 255l-233 245h107l208 -222v222h86v-222l209 222h106l-233 -245l268 -255h-114z" />
    <glyph glyph-name="uni0437" unicode="&#x437;" horiz-adv-x="475" 
d="M231 -10c-89 0 -157 34 -204 102l64 43c31 -43 76 -71 137 -71c83 0 114 35 114 82c0 49 -32 79 -107 79h-75v70h74c57 0 92 23 92 71c0 47 -37 72 -97 72c-49 0 -93 -22 -124 -61l-61 44c43 56 108 89 188 89c116 0 177 -62 177 -139c0 -45 -19 -83 -62 -108
c51 -23 82 -68 82 -124c0 -81 -67 -149 -198 -149z" />
    <glyph glyph-name="uni0438" unicode="&#x438;" horiz-adv-x="607" 
d="M158 0h-77v500h86v-367l282 367h76v-500h-85v367z" />
    <glyph glyph-name="uni043A" unicode="&#x43a;" horiz-adv-x="524" 
d="M416 0l-249 223v-223h-86v500h86v-222l222 222h109l-245 -245l282 -255h-119z" />
    <glyph glyph-name="uni043B" unicode="&#x43b;" horiz-adv-x="581" 
d="M65 -7c-23 0 -37 2 -52 6l12 74c11 -3 17 -3 28 -3c37 0 60 23 60 99v331h386v-500h-86v421h-214v-270c0 -107 -58 -158 -134 -158z" />
    <glyph glyph-name="uni043C" unicode="&#x43c;" horiz-adv-x="691" 
d="M81 500h78l187 -282l185 282h79v-500h-86v353l-148 -225h-61l-148 225v-353h-86v500z" />
    <glyph glyph-name="uni043D" unicode="&#x43d;" horiz-adv-x="607" 
d="M81 0v500h86v-206h273v206h86v-500h-86v216h-273v-216h-86z" />
    <glyph glyph-name="uni043E" unicode="&#x43e;" horiz-adv-x="606" 
d="M303 -10c-152 0 -262 116 -262 260s110 260 262 260c150 0 261 -116 261 -260s-111 -260 -261 -260zM303 70c104 0 173 80 173 180s-69 180 -173 180s-174 -80 -174 -180s70 -180 174 -180z" />
    <glyph glyph-name="uni043F" unicode="&#x43f;" horiz-adv-x="596" 
d="M81 0v500h434v-500h-86v421h-262v-421h-86z" />
    <glyph glyph-name="uni0440" unicode="&#x440;" horiz-adv-x="624" 
d="M81 -194v694h86v-55c41 43 99 65 163 65c149 0 252 -118 252 -260s-103 -260 -252 -260c-64 0 -122 22 -163 65v-249h-86zM323 69c100 0 170 81 170 181s-70 181 -170 181c-75 0 -127 -35 -156 -82v-197c29 -47 81 -83 156 -83z" />
    <glyph glyph-name="uni0441" unicode="&#x441;" horiz-adv-x="565" 
d="M304 -10c-152 0 -262 115 -262 260s110 260 262 260c104 0 187 -54 231 -134l-75 -42c-28 57 -84 96 -156 96c-104 0 -175 -80 -175 -180s71 -180 175 -180c72 0 128 39 156 96l75 -42c-44 -80 -127 -134 -231 -134z" />
    <glyph glyph-name="uni0442" unicode="&#x442;" horiz-adv-x="445" 
d="M176 0v421h-159v79h411v-79h-166v-421h-86z" />
    <glyph glyph-name="uni0443" unicode="&#x443;" horiz-adv-x="548" 
d="M542 500l-262 -569c-41 -91 -85 -130 -162 -130c-26 0 -49 3 -68 8l15 75c15 -3 28 -5 47 -5c33 0 58 17 85 76l32 68l-221 477h95l173 -377l170 377h96z" />
    <glyph glyph-name="uni0444" unicode="&#x444;" horiz-adv-x="732" 
d="M409 -194h-86v184h-6c-175 0 -275 121 -275 260s100 260 275 260h6v220h86v-220h6c175 0 275 -121 275 -260s-100 -260 -275 -260h-6v-184zM415 431h-6v-362h6c120 0 188 80 188 181s-71 181 -188 181zM323 69v362h-6c-117 0 -188 -80 -188 -181s68 -181 188 -181h6z" />
    <glyph glyph-name="uni0445" unicode="&#x445;" horiz-adv-x="530" 
d="M417 0l-152 189l-152 -189h-107l205 253l-188 247h104l138 -181l137 181h105l-189 -247l205 -253h-106z" />
    <glyph glyph-name="uni0446" unicode="&#x446;" horiz-adv-x="622" 
d="M588 79v-205h-81v126h-426v500h86v-421h258v421h86v-421h77z" />
    <glyph glyph-name="uni0447" unicode="&#x447;" horiz-adv-x="543" 
d="M461 0h-86v203c-43 -23 -95 -33 -146 -33c-112 0 -189 64 -189 178v152h86v-143c0 -84 54 -108 119 -108c39 0 90 10 130 34v217h86v-500z" />
    <glyph glyph-name="uni0448" unicode="&#x448;" horiz-adv-x="819" 
d="M81 0v500h86v-421h199v421h86v-421h199v421h86v-500h-656z" />
    <glyph glyph-name="uni0449" unicode="&#x449;" horiz-adv-x="849" 
d="M814 79v-205h-81v126h-652v500h86v-421h199v421h86v-421h199v421h86v-421h77z" />
    <glyph glyph-name="uni044A" unicode="&#x44a;" horiz-adv-x="573" 
d="M158 0v423h-140v77h226v-180h115c129 0 183 -82 183 -159c0 -79 -54 -161 -184 -161h-200zM244 242v-164h111c65 0 102 31 102 83s-37 81 -101 81h-112z" />
    <glyph glyph-name="uni044B" unicode="&#x44b;" horiz-adv-x="711" 
d="M543 0v500h86v-500h-86zM81 0v500h86v-180h116c129 0 183 -82 183 -159c0 -79 -55 -161 -184 -161h-201zM167 242v-164h112c64 0 101 31 101 83s-36 81 -100 81h-113z" />
    <glyph glyph-name="uni044C" unicode="&#x44c;" horiz-adv-x="496" 
d="M81 0v500h86v-180h116c129 0 183 -82 183 -159c0 -79 -55 -161 -184 -161h-201zM167 242v-164h112c64 0 101 31 101 83s-36 81 -100 81h-113z" />
    <glyph glyph-name="uni044D" unicode="&#x44d;" horiz-adv-x="565" 
d="M261 -10c-104 0 -187 54 -231 134l75 42c28 -57 84 -96 156 -96c93 0 160 63 173 148h-233v72h231c-16 80 -81 140 -171 140c-72 0 -128 -39 -156 -96l-75 42c44 80 127 134 231 134c152 0 262 -115 262 -260s-110 -260 -262 -260z" />
    <glyph glyph-name="uni044E" unicode="&#x44e;" horiz-adv-x="804" 
d="M511 -10c-134 0 -232 97 -248 226h-96v-216h-86v500h86v-207h97c19 124 115 217 247 217c147 0 251 -115 251 -260s-104 -260 -251 -260zM511 71c96 0 163 79 163 179s-67 179 -163 179s-162 -77 -162 -179c0 -100 66 -179 162 -179z" />
    <glyph glyph-name="uni044F" unicode="&#x44f;" horiz-adv-x="524" 
d="M-4 0l202 196c-79 19 -123 74 -123 145c0 88 62 159 182 159h185v-500h-86v182h-64l-188 -182h-108zM262 259h94v164h-94c-67 0 -101 -30 -101 -83s38 -81 101 -81z" />
    <glyph glyph-name="uni0455" unicode="&#x455;" horiz-adv-x="450" 
d="M233 -10c-91 0 -166 37 -197 116l70 39c19 -51 72 -79 127 -79c48 0 87 24 87 67c0 36 -22 58 -87 78l-50 16c-83 24 -125 75 -124 146c0 85 75 137 172 137c73 0 132 -31 164 -87l-64 -44c-21 32 -56 57 -104 57c-41 0 -83 -23 -83 -60c0 -31 15 -55 71 -72l55 -17
c87 -27 136 -71 136 -147c0 -96 -74 -150 -173 -150z" />
    <glyph glyph-name="uni0454" unicode="&#x454;" horiz-adv-x="565" 
d="M304 -10c-152 0 -262 115 -262 260s110 260 262 260c104 0 187 -54 231 -134l-75 -42c-28 57 -84 96 -156 96c-90 0 -155 -60 -171 -140h231v-72h-233c13 -85 80 -148 173 -148c72 0 128 39 156 96l75 -42c-44 -80 -127 -134 -231 -134z" />
    <glyph glyph-name="uni0456" unicode="&#x456;" horiz-adv-x="249" 
d="M125 614c-35 0 -62 26 -62 61c0 33 27 61 62 61s60 -28 60 -61c0 -35 -25 -61 -60 -61zM81 0v500h86v-500h-86z" />
    <glyph glyph-name="uni0458" unicode="&#x458;" horiz-adv-x="257" 
d="M32 -199c-28 0 -64 7 -76 14l19 73c11 -4 25 -9 49 -9c35 0 65 21 65 85v536h86v-546c0 -104 -66 -153 -143 -153zM133 614c-35 0 -62 26 -62 61c0 33 27 61 62 61s60 -28 60 -61c0 -35 -25 -61 -60 -61z" />
    <glyph glyph-name="uni045F" unicode="&#x45f;" horiz-adv-x="602" 
d="M520 0h-178v-126h-81v126h-180v500h86v-421h267v421h86v-500z" />
    <glyph glyph-name="uni0459" unicode="&#x459;" horiz-adv-x="811" 
d="M493 217v-139h115c56 0 88 25 88 69c0 43 -32 70 -88 70h-115zM113 500h380v-206h118c116 0 171 -75 171 -146c0 -72 -55 -148 -171 -148h-204v421h-208v-270c0 -107 -58 -158 -134 -158c-23 0 -37 2 -52 6l12 74c11 -3 17 -3 28 -3c37 0 60 23 60 99v331z" />
    <glyph glyph-name="uni045A" unicode="&#x45a;" horiz-adv-x="833" 
d="M718 147c0 43 -32 70 -88 70h-114v-139h114c56 0 88 25 88 69zM804 148c0 -72 -55 -148 -171 -148h-203v216h-263v-216h-86v500h86v-206h263v206h86v-206h117c116 0 171 -75 171 -146z" />
    <glyph glyph-name="uni0452" unicode="&#x452;" horiz-adv-x="589" 
d="M288 -185l19 73c16 -5 34 -9 58 -9c35 0 65 21 65 85v330c0 84 -45 137 -126 137c-68 0 -117 -40 -137 -100v-331h-86v576h-77v70h77v84h86v-84h174v-70h-174v-138c36 47 91 72 155 72c121 0 193 -79 193 -207v-349c0 -104 -66 -153 -143 -153c-28 0 -61 6 -84 14z" />
    <glyph glyph-name="uni045B" unicode="&#x45b;" horiz-adv-x="589" 
d="M430 0v294c0 88 -48 137 -125 137c-71 0 -118 -40 -138 -99v-332h-86v576h-77v70h77v84h86v-84h174v-70h-174v-139c35 51 94 73 158 73c112 0 190 -78 190 -203v-307h-85z" />
    <glyph glyph-name="uni0457" unicode="&#x457;" horiz-adv-x="249" 
d="M81 0v500h86v-500h-86zM26 596c-33 0 -60 26 -60 61c0 33 27 60 60 60c35 0 61 -27 61 -60c0 -35 -26 -61 -61 -61zM222 596c-33 0 -60 26 -60 61c0 33 27 60 60 60c35 0 61 -27 61 -60c0 -35 -26 -61 -61 -61z" />
    <glyph glyph-name="uni0475" unicode="&#x475;" horiz-adv-x="595" 
d="M6 500h96l170 -379l122 266c39 88 74 123 138 123c24 0 48 -5 61 -10l-23 -75c-44 11 -65 -2 -88 -53l-173 -372h-72z" />
    <glyph glyph-name="uni04AF" unicode="&#x4af;" horiz-adv-x="549" 
d="M232 -194v192l-225 502h96l171 -391l171 391h97l-224 -498v-196h-86z" />
    <glyph glyph-name="uni04BB" unicode="&#x4bb;" horiz-adv-x="589" 
d="M167 0h-86v730h86v-293c35 51 94 73 158 73c112 0 190 -78 190 -203v-307h-85v294c0 88 -48 137 -125 137c-71 0 -118 -40 -138 -99v-332z" />
    <glyph glyph-name="uni04CF" unicode="&#x4cf;" horiz-adv-x="249" 
d="M81 0v730h86v-730h-86z" />
    <glyph glyph-name="uni04D9" unicode="&#x4d9;" horiz-adv-x="581" 
d="M280 510c156 0 259 -113 259 -260s-109 -260 -260 -260c-131 0 -238 91 -238 251c0 9 0 15 1 26h410c-3 93 -74 164 -173 164c-77 0 -125 -34 -156 -87l-68 47c45 73 121 119 225 119zM282 66c75 0 148 48 164 131h-317c11 -82 78 -131 153 -131z" />
    <glyph glyph-name="uni0463" unicode="&#x463;" horiz-adv-x="550" 
d="M18 430v70h114v230h86v-230h200v-70h-200v-110h115c130 0 183 -82 183 -159c0 -79 -54 -161 -184 -161h-200v430h-114zM330 242h-112v-164h111c65 0 102 31 102 83s-37 81 -101 81z" />
    <glyph glyph-name="uni0439" unicode="&#x439;" horiz-adv-x="607" 
d="M158 0h-77v500h86v-367l282 367h76v-500h-85v367zM311 561c-88 0 -159 60 -159 159v10h66v-10c0 -60 37 -100 93 -100s93 40 93 100v10h66v-10c0 -99 -71 -159 -159 -159z" />
    <glyph glyph-name="uni0451" unicode="&#x451;" horiz-adv-x="581" 
d="M301 -10c-156 0 -259 113 -259 260s107 260 260 260c130 0 238 -91 238 -251c0 -9 0 -15 -1 -26h-410c3 -93 74 -164 173 -164c77 0 125 34 156 87l68 -47c-45 -73 -121 -119 -225 -119zM135 303h317c-13 82 -77 131 -153 131c-75 0 -148 -48 -164 -131zM189 594
c-33 0 -59 26 -59 58s26 59 59 59c32 0 58 -27 58 -59s-26 -58 -58 -58zM414 594c-32 0 -59 26 -59 58s27 59 59 59s58 -27 58 -59s-26 -58 -58 -58z" />
    <glyph glyph-name="uni045C" unicode="&#x45c;" horiz-adv-x="524" 
d="M416 0l-249 223v-223h-86v500h86v-222l222 222h109l-245 -245l282 -255h-119zM245 574l88 156h109l-125 -156h-72z" />
    <glyph glyph-name="uni0491" unicode="&#x491;" horiz-adv-x="411" 
d="M81 0v500h313v-79h-227v-421h-86zM394 500h-81v126h81v-126z" />
    <glyph glyph-name="uni0453" unicode="&#x453;" horiz-adv-x="411" 
d="M81 0v500h313v-79h-227v-421h-86zM200 574l88 156h109l-125 -156h-72z" />
    <glyph glyph-name="uni045E" unicode="&#x45e;" horiz-adv-x="548" 
d="M542 500l-262 -569c-41 -91 -85 -130 -162 -130c-26 0 -49 3 -68 8l15 75c15 -3 28 -5 47 -5c33 0 58 17 85 76l32 68l-221 477h95l173 -377l170 377h96zM275 561c-88 0 -159 60 -159 159v10h66v-10c0 -60 37 -100 93 -100s93 40 93 100v10h66v-10
c0 -99 -71 -159 -159 -159z" />
    <glyph glyph-name="uni0473" unicode="&#x473;" horiz-adv-x="606" 
d="M303 -10c-152 0 -262 116 -262 260s110 260 262 260c150 0 261 -116 261 -260s-111 -260 -261 -260zM303 70c104 0 173 80 173 180s-69 180 -173 180s-174 -80 -174 -180s70 -180 174 -180zM102 284v-68h402v68h-402z" />
    <glyph glyph-name="uni04E9" unicode="&#x4e9;" horiz-adv-x="606" 
d="M303 -10c-152 0 -262 116 -262 260s110 260 262 260c150 0 261 -116 261 -260s-111 -260 -261 -260zM303 70c104 0 173 80 173 180s-69 180 -173 180s-174 -80 -174 -180s70 -180 174 -180zM102 284v-68h402v68h-402z" />
    <glyph glyph-name="uni0493" unicode="&#x493;" horiz-adv-x="429" 
d="M99 0v500h313v-79h-227v-421h-86zM315 226h-296v70h296v-70z" />
    <glyph glyph-name="uni04B1" unicode="&#x4b1;" horiz-adv-x="549" 
d="M232 -194v192l-225 502h96l171 -391l171 391h97l-224 -498v-196h-86zM96 -70v70h359v-70h-359z" />
    <glyph glyph-name="uni04E3" unicode="&#x4e3;" horiz-adv-x="607" 
d="M158 0h-77v500h86v-367l282 367h76v-500h-85v367zM150 641v69h322v-69h-322z" />
    <glyph glyph-name="uni04EF" unicode="&#x4ef;" horiz-adv-x="548" 
d="M542 500l-262 -569c-41 -91 -85 -130 -162 -130c-26 0 -49 3 -68 8l15 75c15 -3 28 -5 47 -5c33 0 58 17 85 76l32 68l-221 477h95l173 -377l170 377h96zM114 641v69h322v-69h-322z" />
    <glyph glyph-name="uni0497" unicode="&#x497;" horiz-adv-x="799" 
d="M668 0l-236 222v-222h-86v222l-236 -222h-114l268 255l-233 245h107l208 -222v222h86v-222l209 222h106l-233 -245l268 -255h-114zM710 -126v126h-28v79h109v-205h-81z" />
    <glyph glyph-name="uni049B" unicode="&#x49b;" horiz-adv-x="544" 
d="M416 0l-249 223v-223h-86v500h86v-222l222 222h109l-245 -245l282 -255h-119zM460 -126v126h-28v79h109v-205h-81z" />
    <glyph glyph-name="uni04A3" unicode="&#x4a3;" horiz-adv-x="637" 
d="M81 0v500h86v-206h273v206h86v-500h-86v216h-273v-216h-86zM521 -126v126h-28v79h109v-205h-81z" />
    <glyph glyph-name="uni04B3" unicode="&#x4b3;" horiz-adv-x="555" 
d="M417 0l-152 189l-152 -189h-107l205 253l-188 247h104l138 -181l137 181h105l-189 -247l205 -253h-106zM462 -126v126h-28v79h109v-205h-81z" />
    <glyph glyph-name="uni04B7" unicode="&#x4b7;" horiz-adv-x="573" 
d="M461 0h-86v203c-43 -23 -95 -33 -146 -33c-112 0 -189 64 -189 178v152h86v-143c0 -84 54 -108 119 -108c39 0 90 10 130 34v217h86v-500zM457 -126v126h-28v79h109v-205h-81z" />
    <glyph glyph-name="uniF6D4" unicode="&#xf6d4;" 
d="M0 561c-88 0 -159 60 -159 159v10h66v-10c0 -60 37 -100 93 -100s93 40 93 100v10h66v-10c0 -99 -71 -159 -159 -159z" />
    <glyph glyph-name="_470" 
d="M41 500h-81v126h81v-126z" />
    <glyph glyph-name="_471" 
d="M148 226h-296v70h296v-70z" />
    <glyph glyph-name="_472" 
d="M-201 218v68h402v-68h-402z" />
    <glyph glyph-name="_473" 
d="M-179 -70v70h359v-70h-359z" />
    <glyph glyph-name="_474" 
d="M-7 -126v126h-28v79h109v-205h-81z" />
    <glyph glyph-name="uniF6D1" unicode="&#xf6d1;" 
d="M0 759c-88 0 -159 61 -159 158h66c0 -60 37 -99 93 -99s93 39 93 99h66c0 -97 -71 -158 -159 -158z" />
    <glyph glyph-name="_476" 
d="M45 710h-88v148h88v-148z" />
    <glyph glyph-name="_477" 
d="M126 370c51 0 111 16 154 47v-84c-43 -31 -105 -47 -154 -47c-92 0 -167 47 -251 47c-51 0 -111 -16 -154 -47v84c43 31 105 47 154 47c103 0 160 -47 251 -47z" />
    <glyph glyph-name="_478" 
d="M-181 316v85h363v-85h-363z" />
    <glyph glyph-name="_479" 
d="M-320 302v85h640v-85h-640z" />
    <glyph glyph-name="_480" 
d="M202 301v-85h-404v85h404z" />
    <glyph glyph-name="_481" 
d="M-27 -148v148h-27v88h115v-236h-88z" />
    <glyph glyph-name="uni20B8" unicode="&#x20b8;" horiz-adv-x="601" 
d="M258 0v501h-224v85h533v-85h-223v-501h-86zM34 655v55h533v-55h-533z" />
    <glyph glyph-name="uni20BD" unicode="&#x20bd;" horiz-adv-x="615" 
d="M51 279v84h87v347h205c148 0 239 -86 239 -214s-91 -217 -239 -217h-119v-80h207v-55h-207v-144h-86v144h-87v55h87v80h-87zM224 363h117c97 0 149 52 149 133c0 80 -52 130 -149 130h-117v-263z" />
    <glyph glyph-name="uni20B4" unicode="&#x20b4;" horiz-adv-x="614" 
d="M49 268v55h508v-55h-356c-27 -20 -37 -50 -37 -83c0 -69 61 -118 144 -118c80 0 137 35 178 99l67 -50c-43 -72 -129 -128 -244 -128c-133 0 -231 75 -231 190c0 36 8 66 25 90h-54zM49 392v55h354c27 19 40 46 40 81c0 68 -50 115 -131 115c-61 0 -112 -24 -151 -73
l-62 55c44 57 121 97 213 97c124 0 217 -72 217 -184c0 -36 -8 -67 -27 -91h55v-55h-508z" />
    <glyph glyph-name="ellipsis" unicode="&#x2026;" horiz-adv-x="730" 
d="M183 0h-124v124h124v-124zM422 0h-124v124h124v-124zM661 0h-124v124h124v-124z" />
    <glyph glyph-name="endash" unicode="&#x2013;" horiz-adv-x="565" 
d="M65 237v86h434v-86h-434z" />
    <glyph glyph-name="emdash" unicode="&#x2014;" horiz-adv-x="635" 
d="M65 237v86h505v-86h-505z" />
    <glyph glyph-name="guilsinglleft" unicode="&#x2039;" horiz-adv-x="303" 
d="M138 250l114 -196l-58 -38l-152 234l152 234l58 -38z" />
    <glyph glyph-name="guilsinglright" unicode="&#x203a;" horiz-adv-x="303" 
d="M51 54l114 196l-114 196l58 38l152 -234l-152 -234z" />
    <glyph glyph-name="quoteleft" unicode="&#x2018;" horiz-adv-x="246" 
d="M175 710l-47 -154h55v-124h-124v125l62 153h54z" />
    <glyph glyph-name="quoteright" unicode="&#x2019;" horiz-adv-x="235" 
d="M70 432l47 154h-55v124h123v-124l-61 -154h-54z" />
    <glyph glyph-name="uni02BB" unicode="&#x2bb;" horiz-adv-x="246" 
d="M175 710l-47 -154h55v-124h-124v125l62 153h54z" />
    <glyph glyph-name="uni02BC" unicode="&#x2bc;" horiz-adv-x="235" 
d="M70 432l47 154h-55v124h123v-124l-61 -154h-54z" />
    <glyph glyph-name="quotedblleft" unicode="&#x201c;" horiz-adv-x="432" 
d="M175 710l-47 -154h55v-124h-124v125l62 153h54zM361 710l-47 -154h55v-124h-124v125l62 153h54z" />
    <glyph glyph-name="quotedblright" unicode="&#x201d;" horiz-adv-x="421" 
d="M70 432l47 154h-55v124h123v-124l-61 -154h-54zM256 432l47 154h-55v124h123v-124l-61 -154h-54z" />
    <glyph glyph-name="quotesinglbase" unicode="&#x201a;" horiz-adv-x="257" 
d="M74 -154l47 154h-55v124h124v-125l-62 -153h-54z" />
    <glyph glyph-name="quotedblbase" unicode="&#x201e;" horiz-adv-x="443" 
d="M74 -154l47 154h-55v124h124v-125l-62 -153h-54zM260 -154l47 154h-55v124h124v-125l-62 -153h-54z" />
    <glyph glyph-name="bullet" unicode="&#x2022;" horiz-adv-x="419" 
d="M209 166c-74 0 -136 60 -136 136s62 136 136 136c75 0 137 -60 137 -136s-62 -136 -137 -136z" />
    <glyph glyph-name="dagger" unicode="&#x2020;" horiz-adv-x="506" 
d="M214 -98v523h-185v75h185v210h78v-210h185v-75h-185v-523h-78z" />
    <glyph glyph-name="daggerdbl" unicode="&#x2021;" horiz-adv-x="538" 
d="M493 112h-184v-210h-79v210h-185v75h185v238h-185v75h185v210h79v-210h184v-75h-184v-238h184v-75z" />
    <glyph glyph-name="perthousand" unicode="&#x2030;" horiz-adv-x="1413" 
d="M1185 -8c-109 0 -197 89 -197 197c0 109 88 197 197 197c108 0 197 -88 197 -197c0 -108 -89 -197 -197 -197zM1185 70c64 0 118 55 118 119s-54 119 -118 119c-66 0 -119 -55 -119 -119s53 -119 119 -119zM317 0h-93l450 710h93zM762 -8c-109 0 -197 89 -197 197
c0 109 88 197 197 197c108 0 197 -88 197 -197c0 -108 -89 -197 -197 -197zM762 70c64 0 118 55 118 119s-54 119 -118 119c-67 0 -118 -55 -118 -119s51 -119 118 -119zM229 324c-109 0 -197 89 -197 197c0 109 88 197 197 197c108 0 197 -88 197 -197
c0 -108 -89 -197 -197 -197zM229 402c64 0 118 55 118 119s-54 119 -118 119c-67 0 -118 -55 -118 -119s51 -119 118 -119z" />
    <glyph glyph-name="uni2117" unicode="&#x2117;" horiz-adv-x="824" 
d="M411 -12c-201 0 -366 165 -366 367s165 367 366 367c203 0 368 -165 368 -367s-165 -367 -368 -367zM411 59c163 0 297 133 297 296s-134 296 -297 296c-161 0 -295 -133 -295 -296s134 -296 295 -296zM564 417c0 -69 -53 -123 -129 -123h-51v-125h-71v373h122
c76 0 129 -55 129 -125zM496 417c0 33 -25 58 -62 58h-50v-115h50c37 0 62 25 62 57z" />
    <glyph glyph-name="trademark" unicode="&#x2122;" horiz-adv-x="838" 
d="M395 325v385h68l114 -191l113 191h68v-385h-70v256l-86 -142h-50l-87 142v-256h-70zM146 325v315h-112v70h296v-70h-112v-315h-72z" />
    <glyph glyph-name="uni2116" unicode="&#x2116;" horiz-adv-x="1112" 
d="M699 0h-80l-432 553v-553h-93v710h81l432 -553v553h92v-710zM916 405c-85 0 -154 71 -154 155s69 155 154 155c84 0 155 -71 155 -155s-71 -155 -155 -155zM916 471c49 0 89 40 89 89s-40 89 -89 89c-48 0 -87 -40 -87 -89s39 -89 87 -89zM767 293v66h299v-66h-299z" />
    <glyph glyph-name="_505" horiz-adv-x="535" 
d="M234 675l129 48l-131 -252l233 10l-415 -492l242 402l-205 -12zM455 465c3 0 5 -2 5 -5c0 3 1 4 4 5c-3 0 -4 2 -4 5s2 5 5 5s5 -2 5 -5s-1 -5 -4 -5c2 -1 3 -2 4 -4c0 3 2 4 5 4s5 -2 5 -5s-1 -5 -4 -5c3 -1 4 -3 4 -5c0 -3 -1 -5 -4 -5c2 -1 3 -2 4 -4c0 3 2 4 5 4
s5 -2 5 -5s-1 -5 -4 -5c3 -1 4 -3 4 -5c0 -3 -2 -5 -5 -5s-5 1 -5 4c-1 -3 -3 -4 -4 -4c3 -1 4 -3 4 -5c0 -3 -2 -5 -5 -5s-5 1 -5 4c-1 -3 -3 -4 -4 -4c3 -1 4 -3 4 -5c0 -3 -2 -5 -5 -5s-5 1 -5 4c-1 -3 -3 -4 -4 -4c3 -1 4 -3 4 -5c0 -3 -2 -5 -5 -5s-5 1 -5 4
c-1 -3 -3 -4 -4 -4c3 -1 4 -3 4 -5c0 -3 -2 -5 -5 -5s-5 1 -5 4c-1 -3 -3 -4 -4 -4c3 -1 4 -3 4 -5c0 -3 -2 -5 -5 -5s-5 1 -5 4c-1 -3 -3 -4 -4 -4c3 -1 4 -3 4 -5c0 -3 -2 -5 -5 -5s-5 1 -5 4c-1 -3 -3 -4 -4 -4c3 -1 4 -3 4 -5c0 -3 -1 -5 -4 -5c3 -1 4 -3 4 -5
c0 -3 -2 -5 -5 -5s-5 1 -5 4c-1 -3 -3 -4 -4 -4c3 -1 4 -3 4 -5c0 -3 -2 -5 -5 -5s-5 1 -5 4c-1 -3 -3 -4 -4 -4c3 -1 4 -3 4 -5c0 -3 -2 -5 -5 -5s-5 1 -5 4c-1 -3 -3 -4 -4 -4c3 -1 4 -3 4 -5c0 -3 -2 -5 -5 -5s-5 1 -5 4c-1 -3 -3 -4 -4 -4c3 -1 4 -3 4 -5
c0 -3 -2 -5 -5 -5s-5 1 -5 4c-1 -3 -3 -4 -4 -4c3 -1 4 -3 4 -5c0 -3 -2 -5 -5 -5s-5 1 -5 4c-1 -3 -3 -4 -4 -4c3 -1 4 -3 4 -5c0 -3 -2 -5 -5 -5s-5 1 -5 4c-1 -3 -3 -4 -4 -4c3 -1 4 -3 4 -5c0 -3 -2 -5 -5 -5s-5 1 -5 4c-1 -3 -3 -4 -4 -4c3 -1 4 -3 4 -5
c0 -3 -2 -5 -5 -5s-5 1 -5 4c-1 -3 -3 -4 -4 -4c3 -1 4 -3 4 -5c0 -3 -2 -5 -5 -5s-5 1 -5 4c-1 -3 -3 -4 -4 -4c3 -1 4 -3 4 -5c0 -3 -2 -5 -5 -5s-5 1 -5 4c-1 -3 -3 -4 -4 -4c3 -1 4 -3 4 -5c0 -3 -2 -5 -5 -5s-5 1 -5 4c-1 -3 -3 -4 -4 -4c3 -1 4 -3 4 -5
c0 -3 -2 -5 -5 -5s-5 1 -5 4c-1 -3 -3 -4 -4 -4c3 -1 4 -3 4 -5c0 -3 -1 -5 -4 -5c3 -1 4 -3 4 -5c0 -3 -2 -5 -5 -5s-5 1 -5 4c-1 -3 -3 -4 -4 -4c3 -1 4 -3 4 -5c0 -3 -2 -5 -5 -5s-5 1 -5 4c-1 -3 -3 -4 -4 -4c3 -1 4 -3 4 -5c0 -3 -2 -5 -5 -5s-5 1 -5 4
c-1 -3 -3 -4 -4 -4c3 -1 4 -3 4 -5c0 -3 -2 -5 -5 -5s-5 1 -5 4c-1 -3 -3 -4 -4 -4c3 -1 4 -3 4 -5c0 -3 -2 -5 -5 -5s-5 1 -5 4c-1 -3 -3 -4 -4 -4c3 -1 4 -3 4 -5c0 -3 -2 -5 -5 -5s-5 1 -5 4c-1 -3 -3 -4 -4 -4c3 -1 4 -3 4 -5c0 -3 -2 -5 -5 -5s-5 1 -5 4
c-1 -3 -3 -4 -4 -4c3 -1 4 -3 4 -5c0 -3 -2 -5 -5 -5s-5 1 -5 4c-1 -3 -3 -4 -4 -4c3 -1 4 -3 4 -5c0 -3 -2 -5 -5 -5s-5 1 -5 4c-1 -3 -3 -4 -4 -4c3 -1 4 -3 4 -5c0 -3 -2 -5 -5 -5s-5 1 -5 4c-1 -3 -3 -4 -4 -4c3 -1 4 -3 4 -5c0 -3 -2 -5 -5 -5s-5 1 -5 4
c-1 -3 -3 -4 -4 -4c3 -1 4 -3 4 -5c0 -3 -1 -5 -4 -5c3 -1 4 -3 4 -5c0 -3 -2 -5 -5 -5s-5 1 -5 4c-1 -3 -3 -4 -4 -4c3 -1 4 -3 4 -5c0 -3 -2 -5 -5 -5s-5 1 -5 4c-1 -3 -3 -4 -4 -4c3 -1 4 -3 4 -5c0 -3 -2 -5 -5 -5s-5 1 -5 4c-1 -3 -3 -4 -4 -4c3 -1 4 -3 4 -5
c0 -3 -2 -5 -5 -5s-5 1 -5 4c-1 -3 -3 -4 -4 -4c3 -1 4 -3 4 -5c0 -3 -2 -5 -5 -5s-5 1 -5 4c-1 -3 -3 -4 -4 -4c3 -1 4 -3 4 -5c0 -3 -2 -5 -5 -5s-5 1 -5 4c-1 -3 -3 -4 -4 -4c3 -1 4 -3 4 -5c0 -3 -2 -5 -5 -5s-5 1 -5 4c-1 -3 -3 -4 -4 -4c3 -1 4 -3 4 -5
c0 -3 -2 -5 -5 -5s-5 1 -5 4c-1 -3 -3 -4 -4 -4c3 -1 4 -3 4 -5c0 -3 -2 -5 -5 -5s-5 1 -5 4c-1 -3 -3 -4 -4 -4c3 -1 4 -3 4 -5c0 -3 -2 -5 -5 -5s-5 1 -5 4c-1 -2 -2 -3 -4 -4c3 0 4 -2 4 -5s-2 -5 -5 -5s-5 1 -5 4c-1 -2 -2 -3 -4 -4c3 0 4 -2 4 -5s-2 -5 -5 -5
s-5 2 -5 5s1 5 4 5c-3 1 -4 2 -4 5s2 5 5 5s5 -2 5 -5c0 3 1 5 4 5c-3 1 -4 2 -4 5s1 4 4 5c-3 0 -4 2 -4 5s2 5 5 5s5 -2 5 -5c0 3 1 4 4 5c-3 0 -4 2 -4 5s2 5 5 5c2 0 4 -1 5 -4c0 1 1 3 4 4c-3 0 -4 2 -4 5s2 5 5 5c2 0 4 -1 5 -4c0 1 1 3 4 4c-3 0 -4 2 -4 5s2 5 5 5
c2 0 4 -1 5 -4c0 1 1 3 4 4c-3 0 -4 2 -4 5s2 5 5 5s5 -2 5 -5c0 3 1 4 4 5c-3 0 -4 2 -4 5s2 5 5 5s5 -2 5 -5c0 3 1 4 4 5c-3 0 -4 2 -4 5s1 4 4 5c-3 0 -4 2 -4 5s2 5 5 5s5 -2 5 -5c0 3 1 4 4 5c-3 0 -4 2 -4 5s2 5 5 5c2 0 4 -1 5 -4c0 1 1 3 4 4c-3 0 -4 2 -4 5
s2 5 5 5c2 0 4 -1 5 -4c0 1 1 3 4 4c-3 0 -4 2 -4 5s2 5 5 5s5 -2 5 -5c0 3 1 4 4 5c-3 0 -4 2 -4 5s2 5 5 5s5 -2 5 -5c0 3 1 4 4 5c-3 0 -4 2 -4 5s1 4 4 5c-3 0 -4 2 -4 5s2 5 5 5c2 0 4 -1 5 -4c0 1 1 3 4 4c-3 0 -4 2 -4 5s2 5 5 5s5 -2 5 -5c0 3 1 4 4 5
c-3 0 -4 2 -4 5s2 5 5 5s5 -2 5 -5c0 3 1 4 4 5c-3 0 -4 2 -4 5s2 5 5 5s5 -2 5 -5c0 3 1 4 4 5c-3 0 -4 2 -4 5s2 5 5 5s5 -2 5 -5c0 3 1 4 4 5c-3 0 -4 2 -4 5s1 4 4 5c-3 0 -4 2 -4 5s2 5 5 5s5 -2 5 -5c0 3 1 4 4 5c-3 0 -4 2 -4 5s2 5 5 5c2 0 4 -1 5 -4c0 1 1 3 4 4
c-3 0 -4 2 -4 5s2 5 5 5s5 -2 5 -5c0 3 1 4 4 5c-3 0 -4 2 -4 5s2 5 5 5s5 -2 5 -5c0 3 1 4 4 5c-3 0 -4 2 -4 5s2 5 5 5s5 -2 5 -5c0 3 1 4 4 5c-3 0 -4 2 -4 5s2 5 5 5s5 -2 5 -5c0 3 1 4 4 5c-3 0 -4 2 -4 5s1 4 4 5c-3 0 -4 2 -4 5s2 5 5 5s5 -2 5 -5c0 3 1 4 4 5
c-3 0 -4 2 -4 5s2 5 5 5c2 0 4 -1 5 -4c0 1 1 3 4 4c-3 0 -4 2 -4 5s2 5 5 5s5 -2 5 -5c0 3 1 4 4 5c-3 0 -4 2 -4 5s2 5 5 5c2 0 4 -1 5 -4c0 1 1 3 4 4c-3 0 -4 2 -4 5s2 5 5 5c2 0 4 -1 5 -4c0 1 1 3 4 4c-3 0 -4 2 -4 5s1 4 4 5c-3 0 -4 2 -4 5s2 5 5 5s5 -2 5 -5
c0 3 1 4 4 5c-3 0 -4 2 -4 5s2 5 5 5s5 -2 5 -5c0 3 1 4 4 5c-3 0 -4 2 -4 5s2 5 5 5s5 -2 5 -5c0 3 1 4 4 5c-3 0 -4 2 -4 5s2 5 5 5s5 -2 5 -5c0 3 1 4 4 5c-3 0 -4 2 -4 5s2 5 5 5s5 -2 5 -5c0 3 1 4 4 5c-3 0 -4 2 -4 5s1 4 4 5c-3 0 -4 2 -4 5s2 5 5 5s5 -2 5 -5
c0 3 1 4 4 5c-3 0 -4 2 -4 5s2 5 5 5c2 0 4 -1 5 -4c0 1 1 3 4 4c-3 0 -4 2 -4 5s2 5 5 5c2 0 4 -1 5 -4c0 1 1 3 4 4c-3 0 -4 2 -4 5s2 5 5 5c2 0 4 -1 5 -4c0 1 1 3 4 4c-3 0 -4 2 -4 5s2 5 5 5s5 -2 5 -5c0 3 1 4 4 5c-3 0 -4 2 -4 5s2 5 5 5c2 0 4 -1 5 -4c0 1 1 3 4 4
c-3 0 -4 2 -4 5s1 4 4 5c-3 0 -4 2 -4 5s2 5 5 5zM355 695c2 0 4 -1 5 -4c0 1 1 3 4 4c-3 0 -4 2 -4 5s1 4 4 5c-3 0 -4 2 -4 5s2 5 5 5s5 -2 5 -5s-1 -5 -4 -5c2 -1 3 -2 4 -4c0 3 2 4 5 4s5 -2 5 -5s-1 -5 -4 -5c2 -1 3 -2 4 -4c0 3 2 4 5 4s5 -2 5 -5s-1 -5 -4 -5
c3 -1 4 -3 4 -5c0 -3 -2 -5 -5 -5s-5 1 -5 4c-1 -3 -3 -4 -4 -4c3 -1 4 -3 4 -5c0 -3 -1 -5 -4 -5c3 -1 4 -3 4 -5c0 -3 -2 -5 -5 -5s-5 1 -5 4c-1 -3 -3 -4 -4 -4c3 -1 4 -3 4 -5c0 -3 -2 -5 -5 -5s-5 1 -5 4c-1 -3 -3 -4 -4 -4c3 -1 4 -3 4 -5c0 -3 -1 -5 -4 -5
c3 -1 4 -3 4 -5c0 -3 -2 -5 -5 -5s-5 1 -5 4c-1 -3 -3 -4 -4 -4c3 -1 4 -3 4 -5c0 -3 -1 -5 -4 -5c3 -1 4 -3 4 -5c0 -3 -2 -5 -5 -5s-5 1 -5 4c-1 -3 -3 -4 -4 -4c3 -1 4 -3 4 -5c0 -3 -1 -5 -4 -5c3 -1 4 -3 4 -5c0 -3 -2 -5 -5 -5s-5 1 -5 4c-1 -3 -3 -4 -4 -4
c3 -1 4 -3 4 -5c0 -3 -2 -5 -5 -5s-5 1 -5 4c-1 -3 -3 -4 -4 -4c3 -1 4 -3 4 -5c0 -3 -1 -5 -4 -5c3 -1 4 -3 4 -5c0 -3 -2 -5 -5 -5s-5 1 -5 4c-1 -3 -3 -4 -4 -4c3 -1 4 -3 4 -5c0 -3 -1 -5 -4 -5c3 -1 4 -3 4 -5c0 -3 -2 -5 -5 -5s-5 1 -5 4c-1 -3 -3 -4 -4 -4
c3 -1 4 -3 4 -5c0 -3 -1 -5 -4 -5c3 -1 4 -3 4 -5c0 -3 -2 -5 -5 -5s-5 1 -5 4c-1 -3 -3 -4 -4 -4c3 -1 4 -3 4 -5c0 -3 -1 -5 -4 -5c3 -1 4 -3 4 -5c0 -3 -2 -5 -5 -5s-5 1 -5 4c-1 -3 -3 -4 -4 -4c3 -1 4 -3 4 -5c0 -3 -1 -5 -4 -5c3 -1 4 -3 4 -5c0 -3 -2 -5 -5 -5
s-5 1 -5 4c-1 -3 -2 -4 -5 -4s-5 1 -5 4c-1 -3 -2 -4 -5 -4s-5 1 -5 4c-1 -3 -2 -4 -5 -4s-5 2 -5 5s2 5 5 5c2 0 4 -1 5 -4c0 1 1 3 4 4c-3 0 -4 2 -4 5s1 4 4 5c-3 0 -4 2 -4 5s2 5 5 5c2 0 4 -1 5 -4c0 1 1 3 4 4c-3 0 -4 2 -4 5s1 4 4 5c-3 0 -4 2 -4 5s2 5 5 5
s5 -2 5 -5c0 3 1 4 4 5c-3 0 -4 2 -4 5s1 4 4 5c-3 0 -4 2 -4 5s2 5 5 5c2 0 4 -1 5 -4c0 1 1 3 4 4c-3 0 -4 2 -4 5s1 4 4 5c-3 0 -4 2 -4 5s2 5 5 5s5 -2 5 -5c0 3 1 4 4 5c-3 0 -4 2 -4 5s1 4 4 5c-3 0 -4 2 -4 5s2 5 5 5c2 0 4 -1 5 -4c0 1 1 3 4 4c-3 0 -4 2 -4 5
s1 4 4 5c-3 0 -4 2 -4 5s2 5 5 5s5 -2 5 -5c0 3 1 4 4 5c-3 0 -4 2 -4 5s2 5 5 5c2 0 4 -1 5 -4c0 1 1 3 4 4c-3 0 -4 2 -4 5s1 4 4 5c-3 0 -4 2 -4 5s2 5 5 5c2 0 4 -1 5 -4c0 1 1 3 4 4c-3 0 -4 2 -4 5s1 4 4 5c-3 0 -4 2 -4 5s2 5 5 5c2 0 4 -1 5 -4c0 1 1 3 4 4
c-3 0 -4 2 -4 5s1 4 4 5c-3 0 -4 2 -4 5s2 5 5 5s5 -2 5 -5c0 3 1 4 4 5c-3 0 -4 2 -4 5s1 4 4 5c-3 0 -4 2 -4 5s2 5 5 5zM275 385c3 0 5 -2 5 -5s-2 -5 -5 -5s-5 1 -5 4c-1 -3 -3 -4 -4 -4c3 -1 4 -3 4 -5c0 -3 -1 -5 -4 -5c3 -1 4 -3 4 -5c0 -3 -2 -5 -5 -5s-5 1 -5 4
c-1 -3 -2 -4 -5 -4s-5 1 -5 4c-1 -3 -2 -4 -5 -4s-5 1 -5 4c-1 -3 -2 -4 -5 -4s-5 1 -5 4c-1 -3 -2 -4 -5 -4s-5 1 -5 4c-1 -3 -2 -4 -5 -4s-5 1 -5 4c-1 -3 -2 -4 -5 -4s-5 1 -5 4c-1 -3 -2 -4 -5 -4s-5 1 -5 4c-1 -3 -3 -4 -4 -4c3 -1 4 -3 4 -5c0 -3 -2 -5 -5 -5
s-5 1 -5 4c-1 -3 -2 -4 -5 -4s-5 1 -5 4c-1 -3 -2 -4 -5 -4s-5 1 -5 4c-1 -3 -2 -4 -5 -4s-5 1 -5 4c-1 -3 -2 -4 -5 -4s-5 1 -5 4c-1 -3 -2 -4 -5 -4s-5 1 -5 4c-1 -3 -2 -4 -5 -4s-5 1 -5 4c-1 -3 -2 -4 -5 -4s-5 1 -5 4c-1 -3 -2 -4 -5 -4s-5 2 -5 5s1 4 4 5
c-3 0 -4 1 -4 4c-1 -3 -2 -4 -5 -4s-5 2 -5 5s1 4 4 5c-3 0 -4 2 -4 5s2 5 5 5s5 -2 5 -5c0 3 2 5 5 5s5 -2 5 -5c0 3 2 5 5 5c2 0 4 -1 5 -4c0 3 2 4 5 4s5 -2 5 -5c0 3 2 5 5 5c2 0 4 -1 5 -4c0 3 2 4 5 4s5 -2 5 -5c0 3 2 5 5 5s5 -2 5 -5c0 3 2 5 5 5s5 -2 5 -5
c0 3 2 5 5 5s5 -2 5 -5c0 3 2 5 5 5s5 -2 5 -5c0 3 1 4 4 5c-3 0 -4 2 -4 5s2 5 5 5c2 0 4 -1 5 -4c0 3 2 4 5 4s5 -2 5 -5c0 3 2 5 5 5c2 0 4 -1 5 -4c0 3 2 4 5 4s5 -2 5 -5c0 3 2 5 5 5s5 -2 5 -5c0 3 2 5 5 5c2 0 4 -1 5 -4c0 3 2 4 5 4c2 0 4 -1 5 -4c0 3 2 4 5 4
c2 0 4 -1 5 -4c0 3 2 4 5 4zM110 39c-1 -3 -3 -4 -4 -4c3 -1 4 -3 4 -5c0 3 1 4 4 5c-3 0 -4 1 -4 4zM120 49c-1 -3 -3 -4 -4 -4c3 -1 4 -3 4 -5c0 3 1 4 4 5c-3 0 -4 1 -4 4zM130 59c-1 -3 -3 -4 -4 -4c3 -1 4 -3 4 -5c0 3 1 4 4 5c-3 0 -4 1 -4 4zM140 69
c-1 -3 -3 -4 -4 -4c2 -1 3 -2 4 -4c0 1 1 3 4 4c-3 0 -4 1 -4 4zM140 79c-1 -3 -3 -4 -4 -4c2 -1 3 -2 4 -4c0 1 1 3 4 4c-3 0 -4 1 -4 4zM154 75c-3 0 -4 1 -4 4c-1 -3 -3 -4 -4 -4c2 -1 3 -2 4 -4c0 1 1 3 4 4zM160 89c-1 -3 -3 -4 -4 -4c2 -1 3 -2 4 -4c0 1 1 3 4 4
c-3 0 -4 1 -4 4zM154 85c-3 0 -4 1 -4 4c-1 -3 -3 -4 -4 -4c2 -1 3 -2 4 -4c0 1 1 3 4 4zM170 99c-1 -3 -3 -4 -4 -4c3 -1 4 -3 4 -5c0 3 1 4 4 5c-3 0 -4 1 -4 4zM160 99c-1 -3 -3 -4 -4 -4c2 -1 3 -2 4 -4c0 1 1 3 4 4c-3 0 -4 1 -4 4zM170 109c-1 -3 -3 -4 -4 -4
c3 -1 4 -3 4 -5c0 3 1 4 4 5c-3 0 -4 1 -4 4zM180 119c-1 -3 -3 -4 -4 -4c3 -1 4 -3 4 -5c0 3 1 4 4 5c-3 0 -4 1 -4 4zM190 129c-1 -3 -3 -4 -4 -4c2 -1 3 -2 4 -4c0 1 1 3 4 4c-3 0 -4 1 -4 4zM260 369c-1 -3 -3 -4 -4 -4c2 -1 3 -2 4 -4c0 1 1 3 4 4c-3 0 -4 1 -4 4z
M250 369c-1 -3 -3 -4 -4 -4c3 -1 4 -3 4 -5c0 3 1 4 4 5c-3 0 -4 1 -4 4zM240 369c-1 -3 -3 -4 -4 -4c3 -1 4 -3 4 -5c0 3 1 4 4 5c-3 0 -4 1 -4 4zM230 369c-1 -3 -3 -4 -4 -4c3 -1 4 -3 4 -5c0 3 1 4 4 5c-3 0 -4 1 -4 4zM220 369c-1 -3 -3 -4 -4 -4c3 -1 4 -3 4 -5
c0 3 1 4 4 5c-3 0 -4 1 -4 4zM260 379c-1 -3 -3 -4 -4 -4c2 -1 3 -2 4 -4c0 1 1 3 4 4c-3 0 -4 1 -4 4zM250 379c-1 -3 -3 -4 -4 -4c2 -1 3 -2 4 -4c0 1 1 3 4 4c-3 0 -4 1 -4 4zM240 379c-1 -3 -3 -4 -4 -4c3 -1 4 -3 4 -5c0 3 1 4 4 5c-3 0 -4 1 -4 4zM230 379
c-1 -3 -3 -4 -4 -4c2 -1 3 -2 4 -4c0 1 1 3 4 4c-3 0 -4 1 -4 4zM220 379c-1 -3 -3 -4 -4 -4c2 -1 3 -2 4 -4c0 1 1 3 4 4c-3 0 -4 1 -4 4zM180 359c-1 -3 -3 -4 -4 -4c2 -1 3 -2 4 -4c0 1 1 3 4 4c-3 0 -4 1 -4 4zM170 359c-1 -3 -3 -4 -4 -4c3 -1 4 -3 4 -5c0 3 1 4 4 5
c-3 0 -4 1 -4 4zM160 359c-1 -3 -3 -4 -4 -4c3 -1 4 -3 4 -5c0 3 1 4 4 5c-3 0 -4 1 -4 4zM210 369c-1 -3 -3 -4 -4 -4c3 -1 4 -3 4 -5c0 3 1 4 4 5c-3 0 -4 1 -4 4zM200 369c-1 -3 -3 -4 -4 -4c2 -1 3 -2 4 -4c0 1 1 3 4 4c-3 0 -4 1 -4 4zM190 369c-1 -3 -3 -4 -4 -4
c3 -1 4 -3 4 -5c0 3 1 4 4 5c-3 0 -4 1 -4 4zM180 369c-1 -3 -3 -4 -4 -4c3 -1 4 -3 4 -5c0 3 1 4 4 5c-3 0 -4 1 -4 4zM170 369c-1 -3 -3 -4 -4 -4c3 -1 4 -3 4 -5c0 3 1 4 4 5c-3 0 -4 1 -4 4zM160 369c-1 -3 -3 -4 -4 -4c3 -1 4 -3 4 -5c0 3 1 4 4 5c-3 0 -4 1 -4 4z
M210 379c-1 -3 -3 -4 -4 -4c3 -1 4 -3 4 -5c0 3 1 4 4 5c-3 0 -4 1 -4 4zM200 379c-1 -3 -3 -4 -4 -4c2 -1 3 -2 4 -4c0 1 1 3 4 4c-3 0 -4 1 -4 4zM150 359c-1 -3 -3 -4 -4 -4c3 -1 4 -3 4 -5c0 3 1 4 4 5c-3 0 -4 1 -4 4zM140 359c-1 -3 -3 -4 -4 -4c3 -1 4 -3 4 -5
c0 3 1 4 4 5c-3 0 -4 1 -4 4zM130 359c-1 -3 -3 -4 -4 -4c3 -1 4 -3 4 -5c0 3 1 4 4 5c-3 0 -4 1 -4 4zM120 359c-1 -3 -3 -4 -4 -4c3 -1 4 -3 4 -5c0 3 1 4 4 5c-3 0 -4 1 -4 4zM110 359c-1 -3 -3 -4 -4 -4c3 -1 4 -3 4 -5c0 3 1 4 4 5c-3 0 -4 1 -4 4zM150 369
c-1 -3 -3 -4 -4 -4c3 -1 4 -3 4 -5c0 3 1 4 4 5c-3 0 -4 1 -4 4zM140 369c-1 -3 -3 -4 -4 -4c3 -1 4 -3 4 -5c0 3 1 4 4 5c-3 0 -4 1 -4 4zM130 369c-1 -3 -3 -4 -4 -4c3 -1 4 -3 4 -5c0 3 1 4 4 5c-3 0 -4 1 -4 4zM120 369c-1 -3 -3 -4 -4 -4c3 -1 4 -3 4 -5c0 3 1 4 4 5
c-3 0 -4 1 -4 4zM110 369c-1 -3 -3 -4 -4 -4c3 -1 4 -3 4 -5c0 3 1 4 4 5c-3 0 -4 1 -4 4zM100 369c-1 -3 -3 -4 -4 -4c3 -1 4 -3 4 -5c0 3 1 4 4 5c-3 0 -4 1 -4 4zM410 369c-1 -3 -3 -4 -4 -4c3 -1 4 -3 4 -5c0 3 1 4 4 5c-3 0 -4 1 -4 4zM200 139c-1 -3 -3 -4 -4 -4
c3 -1 4 -3 4 -5c0 3 1 4 4 5c-3 0 -4 1 -4 4zM194 135c-3 0 -4 1 -4 4c-1 -3 -3 -4 -4 -4c3 -1 4 -3 4 -5c0 3 1 4 4 5zM210 149c-1 -3 -3 -4 -4 -4c3 -1 4 -3 4 -5c0 3 1 4 4 5c-3 0 -4 1 -4 4zM200 149c-1 -3 -3 -4 -4 -4c2 -1 3 -2 4 -4c0 1 1 3 4 4c-3 0 -4 1 -4 4z
M220 159c-1 -3 -3 -4 -4 -4c3 -1 4 -3 4 -5c0 3 1 4 4 5c-3 0 -4 1 -4 4zM210 159c-1 -3 -3 -4 -4 -4c3 -1 4 -3 4 -5c0 3 1 4 4 5c-3 0 -4 1 -4 4zM230 169c-1 -3 -3 -4 -4 -4c3 -1 4 -3 4 -5c0 3 1 4 4 5c-3 0 -4 1 -4 4zM220 169c-1 -3 -3 -4 -4 -4c3 -1 4 -3 4 -5
c0 3 1 4 4 5c-3 0 -4 1 -4 4zM240 179c-1 -3 -3 -4 -4 -4c3 -1 4 -3 4 -5c0 3 1 4 4 5c-3 0 -4 1 -4 4zM230 179c-1 -3 -3 -4 -4 -4c3 -1 4 -3 4 -5c0 3 1 4 4 5c-3 0 -4 1 -4 4zM240 189c-1 -3 -3 -4 -4 -4c3 -1 4 -3 4 -5c0 3 1 4 4 5c-3 0 -4 1 -4 4zM240 199
c-1 -3 -3 -4 -4 -4c3 -1 4 -3 4 -5c0 3 1 4 4 5c-3 0 -4 1 -4 4zM254 185c-3 0 -4 1 -4 4c-1 -3 -3 -4 -4 -4c2 -1 3 -2 4 -4c0 1 1 3 4 4zM260 199c-1 -3 -3 -4 -4 -4c3 -1 4 -3 4 -5c0 3 1 4 4 5c-3 0 -4 1 -4 4zM254 195c-3 0 -4 1 -4 4c-1 -3 -3 -4 -4 -4
c3 -1 4 -3 4 -5c0 3 1 4 4 5zM270 209c-1 -3 -3 -4 -4 -4c3 -1 4 -3 4 -5c0 3 1 4 4 5c-3 0 -4 1 -4 4zM260 209c-1 -3 -3 -4 -4 -4c3 -1 4 -3 4 -5c0 3 1 4 4 5c-3 0 -4 1 -4 4zM254 205c-3 0 -4 1 -4 4c-1 -3 -3 -4 -4 -4c3 -1 4 -3 4 -5c0 3 1 4 4 5zM280 219
c-1 -3 -3 -4 -4 -4c2 -1 3 -2 4 -4c0 1 1 3 4 4c-3 0 -4 1 -4 4zM270 219c-1 -3 -3 -4 -4 -4c3 -1 4 -3 4 -5c0 3 1 4 4 5c-3 0 -4 1 -4 4zM260 219c-1 -3 -3 -4 -4 -4c2 -1 3 -2 4 -4c0 1 1 3 4 4c-3 0 -4 1 -4 4zM280 229c-1 -3 -3 -4 -4 -4c3 -1 4 -3 4 -5c0 3 1 4 4 5
c-3 0 -4 1 -4 4zM270 229c-1 -3 -3 -4 -4 -4c2 -1 3 -2 4 -4c0 1 1 3 4 4c-3 0 -4 1 -4 4zM290 239c-1 -3 -3 -4 -4 -4c2 -1 3 -2 4 -4c0 1 1 3 4 4c-3 0 -4 1 -4 4zM280 239c-1 -3 -3 -4 -4 -4c3 -1 4 -3 4 -5c0 3 1 4 4 5c-3 0 -4 1 -4 4zM300 249c-1 -3 -3 -4 -4 -4
c3 -1 4 -3 4 -5c0 3 1 4 4 5c-3 0 -4 1 -4 4zM290 249c-1 -3 -3 -4 -4 -4c3 -1 4 -3 4 -5c0 3 1 4 4 5c-3 0 -4 1 -4 4zM300 259c-1 -3 -3 -4 -4 -4c3 -1 4 -3 4 -5c0 3 1 4 4 5c-3 0 -4 1 -4 4zM300 269c-1 -3 -3 -4 -4 -4c2 -1 3 -2 4 -4c0 1 1 3 4 4c-3 0 -4 1 -4 4z
M314 255c-3 0 -4 1 -4 4c-1 -3 -3 -4 -4 -4c3 -1 4 -3 4 -5c0 3 1 4 4 5zM320 269c-1 -3 -3 -4 -4 -4c3 -1 4 -3 4 -5c0 3 1 4 4 5c-3 0 -4 1 -4 4zM314 265c-3 0 -4 1 -4 4c-1 -3 -3 -4 -4 -4c3 -1 4 -3 4 -5c0 3 1 4 4 5zM330 279c-1 -3 -3 -4 -4 -4c2 -1 3 -2 4 -4
c0 1 1 3 4 4c-3 0 -4 1 -4 4zM320 279c-1 -3 -3 -4 -4 -4c2 -1 3 -2 4 -4c0 1 1 3 4 4c-3 0 -4 1 -4 4zM314 275c-3 0 -4 1 -4 4c-1 -3 -3 -4 -4 -4c2 -1 3 -2 4 -4c0 1 1 3 4 4zM340 289c-1 -3 -3 -4 -4 -4c3 -1 4 -3 4 -5c0 3 1 4 4 5c-3 0 -4 1 -4 4zM330 289
c-1 -3 -3 -4 -4 -4c3 -1 4 -3 4 -5c0 3 1 4 4 5c-3 0 -4 1 -4 4zM320 289c-1 -3 -3 -4 -4 -4c3 -1 4 -3 4 -5c0 3 1 4 4 5c-3 0 -4 1 -4 4zM350 299c-1 -3 -3 -4 -4 -4c3 -1 4 -3 4 -5c0 3 1 4 4 5c-3 0 -4 1 -4 4zM340 299c-1 -3 -3 -4 -4 -4c2 -1 3 -2 4 -4c0 1 1 3 4 4
c-3 0 -4 1 -4 4zM330 299c-1 -3 -3 -4 -4 -4c3 -1 4 -3 4 -5c0 3 1 4 4 5c-3 0 -4 1 -4 4zM360 309c-1 -3 -3 -4 -4 -4c3 -1 4 -3 4 -5c0 3 1 4 4 5c-3 0 -4 1 -4 4zM350 309c-1 -3 -3 -4 -4 -4c2 -1 3 -2 4 -4c0 1 1 3 4 4c-3 0 -4 1 -4 4zM340 309c-1 -3 -3 -4 -4 -4
c3 -1 4 -3 4 -5c0 3 1 4 4 5c-3 0 -4 1 -4 4zM270 489c-1 -3 -3 -4 -4 -4c2 -1 3 -2 4 -4c0 1 1 3 4 4c-3 0 -4 1 -4 4zM260 489c-1 -3 -3 -4 -4 -4c2 -1 3 -2 4 -4c0 1 1 3 4 4c-3 0 -4 1 -4 4zM270 499c-1 -3 -3 -4 -4 -4c3 -1 4 -3 4 -5c0 3 1 4 4 5c-3 0 -4 1 -4 4z
M260 499c-1 -3 -3 -4 -4 -4c2 -1 3 -2 4 -4c0 1 1 3 4 4c-3 0 -4 1 -4 4zM280 509c-1 -3 -3 -4 -4 -4c2 -1 3 -2 4 -4c0 1 1 3 4 4c-3 0 -4 1 -4 4zM270 509c-1 -3 -3 -4 -4 -4c3 -1 4 -3 4 -5c0 3 1 4 4 5c-3 0 -4 1 -4 4zM280 519c-1 -3 -3 -4 -4 -4c3 -1 4 -3 4 -5
c0 3 1 4 4 5c-3 0 -4 1 -4 4zM270 519c-1 -3 -3 -4 -4 -4c3 -1 4 -3 4 -5c0 3 1 4 4 5c-3 0 -4 1 -4 4zM280 529c-1 -3 -3 -4 -4 -4c3 -1 4 -3 4 -5c0 3 1 4 4 5c-3 0 -4 1 -4 4zM280 539c-1 -3 -3 -4 -4 -4c3 -1 4 -3 4 -5c0 3 1 4 4 5c-3 0 -4 1 -4 4zM360 319
c-1 -3 -3 -4 -4 -4c3 -1 4 -3 4 -5c0 3 1 4 4 5c-3 0 -4 1 -4 4zM350 319c-1 -3 -3 -4 -4 -4c2 -1 3 -2 4 -4c0 1 1 3 4 4c-3 0 -4 1 -4 4zM360 329c-1 -3 -3 -4 -4 -4c3 -1 4 -3 4 -5c0 3 1 4 4 5c-3 0 -4 1 -4 4zM350 329c-1 -3 -3 -4 -4 -4c3 -1 4 -3 4 -5c0 3 1 4 4 5
c-3 0 -4 1 -4 4zM360 339c-1 -3 -3 -4 -4 -4c2 -1 3 -2 4 -4c0 1 1 3 4 4c-3 0 -4 1 -4 4zM374 315c-3 0 -4 1 -4 4c-1 -3 -3 -4 -4 -4c2 -1 3 -2 4 -4c0 1 1 3 4 4zM380 329c-1 -3 -3 -4 -4 -4c2 -1 3 -2 4 -4c0 1 1 3 4 4c-3 0 -4 1 -4 4zM374 325c-3 0 -4 1 -4 4
c-1 -3 -3 -4 -4 -4c3 -1 4 -3 4 -5c0 3 1 4 4 5zM390 339c-1 -3 -3 -4 -4 -4c3 -1 4 -3 4 -5c0 3 1 4 4 5c-3 0 -4 1 -4 4zM380 339c-1 -3 -3 -4 -4 -4c3 -1 4 -3 4 -5c0 3 1 4 4 5c-3 0 -4 1 -4 4zM374 335c-3 0 -4 1 -4 4c-1 -3 -3 -4 -4 -4c2 -1 3 -2 4 -4c0 1 1 3 4 4z
M400 349c-1 -3 -3 -4 -4 -4c3 -1 4 -3 4 -5c0 3 1 4 4 5c-3 0 -4 1 -4 4zM390 349c-1 -3 -3 -4 -4 -4c2 -1 3 -2 4 -4c0 1 1 3 4 4c-3 0 -4 1 -4 4zM380 349c-1 -3 -3 -4 -4 -4c3 -1 4 -3 4 -5c0 3 1 4 4 5c-3 0 -4 1 -4 4zM374 345c-3 0 -4 1 -4 4c-1 -3 -3 -4 -4 -4
c3 -1 4 -3 4 -5c0 3 1 4 4 5zM410 359c-1 -3 -3 -4 -4 -4c3 -1 4 -3 4 -5c0 3 1 4 4 5c-3 0 -4 1 -4 4zM400 359c-1 -3 -3 -4 -4 -4c2 -1 3 -2 4 -4c0 1 1 3 4 4c-3 0 -4 1 -4 4zM390 359c-1 -3 -3 -4 -4 -4c2 -1 3 -2 4 -4c0 1 1 3 4 4c-3 0 -4 1 -4 4zM380 359
c-1 -3 -3 -4 -4 -4c2 -1 3 -2 4 -4c0 1 1 3 4 4c-3 0 -4 1 -4 4zM300 549c-1 -3 -3 -4 -4 -4c2 -1 3 -2 4 -4c0 1 1 3 4 4c-3 0 -4 1 -4 4zM400 369c-1 -3 -3 -4 -4 -4c3 -1 4 -3 4 -5c0 3 1 4 4 5c-3 0 -4 1 -4 4zM390 369c-1 -3 -3 -4 -4 -4c2 -1 3 -2 4 -4c0 1 1 3 4 4
c-3 0 -4 1 -4 4zM420 379c-1 -3 -3 -4 -4 -4c2 -1 3 -2 4 -4c0 1 1 3 4 4c-3 0 -4 1 -4 4zM410 379c-1 -3 -3 -4 -4 -4c2 -1 3 -2 4 -4c0 1 1 3 4 4c-3 0 -4 1 -4 4zM400 379c-1 -3 -3 -4 -4 -4c3 -1 4 -3 4 -5c0 3 1 4 4 5c-3 0 -4 1 -4 4zM420 389c-1 -3 -3 -4 -4 -4
c3 -1 4 -3 4 -5c0 3 1 4 4 5c-3 0 -4 1 -4 4zM410 389c-1 -3 -3 -4 -4 -4c3 -1 4 -3 4 -5c0 3 1 4 4 5c-3 0 -4 1 -4 4zM400 389c-1 -3 -3 -4 -4 -4c2 -1 3 -2 4 -4c0 1 1 3 4 4c-3 0 -4 1 -4 4zM420 399c-1 -3 -3 -4 -4 -4c3 -1 4 -3 4 -5c0 3 1 4 4 5c-3 0 -4 1 -4 4z
M410 399c-1 -3 -3 -4 -4 -4c3 -1 4 -3 4 -5c0 3 1 4 4 5c-3 0 -4 1 -4 4zM420 409c-1 -3 -3 -4 -4 -4c3 -1 4 -3 4 -5c0 3 1 4 4 5c-3 0 -4 1 -4 4zM434 385c-3 0 -4 1 -4 4c-1 -3 -3 -4 -4 -4c3 -1 4 -3 4 -5c0 3 1 4 4 5zM440 399c-1 -3 -3 -4 -4 -4c3 -1 4 -3 4 -5
c0 3 1 4 4 5c-3 0 -4 1 -4 4zM434 395c-3 0 -4 1 -4 4c-1 -3 -3 -4 -4 -4c2 -1 3 -2 4 -4c0 1 1 3 4 4zM450 409c-1 -3 -3 -4 -4 -4c3 -1 4 -3 4 -5c0 3 1 4 4 5c-3 0 -4 1 -4 4zM440 409c-1 -3 -3 -4 -4 -4c2 -1 3 -2 4 -4c0 1 1 3 4 4c-3 0 -4 1 -4 4zM434 405
c-3 0 -4 1 -4 4c-1 -3 -3 -4 -4 -4c3 -1 4 -3 4 -5c0 3 1 4 4 5zM460 419c-1 -3 -3 -4 -4 -4c3 -1 4 -3 4 -5c0 3 1 4 4 5c-3 0 -4 1 -4 4zM450 419c-1 -3 -3 -4 -4 -4c2 -1 3 -2 4 -4c0 1 1 3 4 4c-3 0 -4 1 -4 4zM440 419c-1 -3 -3 -4 -4 -4c3 -1 4 -3 4 -5c0 3 1 4 4 5
c-3 0 -4 1 -4 4zM434 415c-3 0 -4 1 -4 4c-1 -3 -3 -4 -4 -4c2 -1 3 -2 4 -4c0 1 1 3 4 4zM470 429c-1 -3 -3 -4 -4 -4c2 -1 3 -2 4 -4c0 1 1 3 4 4c-3 0 -4 1 -4 4zM460 429c-1 -3 -3 -4 -4 -4c3 -1 4 -3 4 -5c0 3 1 4 4 5c-3 0 -4 1 -4 4zM450 429c-1 -3 -3 -4 -4 -4
c2 -1 3 -2 4 -4c0 1 1 3 4 4c-3 0 -4 1 -4 4zM440 429c-1 -3 -3 -4 -4 -4c2 -1 3 -2 4 -4c0 1 1 3 4 4c-3 0 -4 1 -4 4zM480 439c-1 -3 -3 -4 -4 -4c2 -1 3 -2 4 -4c0 1 1 3 4 4c-3 0 -4 1 -4 4zM470 439c-1 -3 -3 -4 -4 -4c2 -1 3 -2 4 -4c0 1 1 3 4 4c-3 0 -4 1 -4 4z
M460 439c-1 -3 -3 -4 -4 -4c3 -1 4 -3 4 -5c0 3 1 4 4 5c-3 0 -4 1 -4 4zM450 439c-1 -3 -3 -4 -4 -4c2 -1 3 -2 4 -4c0 1 1 3 4 4c-3 0 -4 1 -4 4zM470 449c-1 -3 -3 -4 -4 -4c2 -1 3 -2 4 -4c0 1 1 3 4 4c-3 0 -4 1 -4 4zM460 449c-1 -3 -3 -4 -4 -4c2 -1 3 -2 4 -4
c0 1 1 3 4 4c-3 0 -4 1 -4 4zM470 459c-1 -3 -3 -4 -4 -4c3 -1 4 -3 4 -5c0 3 1 4 4 5c-3 0 -4 1 -4 4zM460 459c-1 -3 -3 -4 -4 -4c3 -1 4 -3 4 -5c0 3 1 4 4 5c-3 0 -4 1 -4 4zM340 629c-1 -3 -3 -4 -4 -4c2 -1 3 -2 4 -4c0 1 1 3 4 4c-3 0 -4 1 -4 4zM294 525
c-3 0 -4 1 -4 4c-1 -3 -3 -4 -4 -4c3 -1 4 -3 4 -5c0 3 1 4 4 5zM294 535c-3 0 -4 1 -4 4c-1 -3 -3 -4 -4 -4c3 -1 4 -3 4 -5c0 3 1 4 4 5zM330 629c-1 -3 -3 -4 -4 -4c2 -1 3 -2 4 -4c0 1 1 3 4 4c-3 0 -4 1 -4 4zM294 545c-3 0 -4 1 -4 4c-1 -3 -3 -4 -4 -4
c3 -1 4 -3 4 -5c0 3 1 4 4 5zM300 559c-1 -3 -3 -4 -4 -4c2 -1 3 -2 4 -4c0 1 1 3 4 4c-3 0 -4 1 -4 4zM294 555c-3 0 -4 1 -4 4c-1 -3 -3 -4 -4 -4c3 -1 4 -3 4 -5c0 3 1 4 4 5zM310 569c-1 -3 -3 -4 -4 -4c3 -1 4 -3 4 -5c0 3 1 4 4 5c-3 0 -4 1 -4 4zM300 569
c-1 -3 -3 -4 -4 -4c3 -1 4 -3 4 -5c0 3 1 4 4 5c-3 0 -4 1 -4 4zM310 579c-1 -3 -3 -4 -4 -4c3 -1 4 -3 4 -5c0 3 1 4 4 5c-3 0 -4 1 -4 4zM300 579c-1 -3 -3 -4 -4 -4c2 -1 3 -2 4 -4c0 1 1 3 4 4c-3 0 -4 1 -4 4zM320 589c-1 -3 -3 -4 -4 -4c3 -1 4 -3 4 -5c0 3 1 4 4 5
c-3 0 -4 1 -4 4zM310 589c-1 -3 -3 -4 -4 -4c3 -1 4 -3 4 -5c0 3 1 4 4 5c-3 0 -4 1 -4 4zM330 599c-1 -3 -3 -4 -4 -4c2 -1 3 -2 4 -4c0 1 1 3 4 4c-3 0 -4 1 -4 4zM320 599c-1 -3 -3 -4 -4 -4c3 -1 4 -3 4 -5c0 3 1 4 4 5c-3 0 -4 1 -4 4zM310 599c-1 -3 -3 -4 -4 -4
c3 -1 4 -3 4 -5c0 3 1 4 4 5c-3 0 -4 1 -4 4zM330 609c-1 -3 -3 -4 -4 -4c2 -1 3 -2 4 -4c0 1 1 3 4 4c-3 0 -4 1 -4 4zM320 609c-1 -3 -3 -4 -4 -4c3 -1 4 -3 4 -5c0 3 1 4 4 5c-3 0 -4 1 -4 4zM340 619c-1 -3 -3 -4 -4 -4c3 -1 4 -3 4 -5c0 3 1 4 4 5c-3 0 -4 1 -4 4z
M330 619c-1 -3 -3 -4 -4 -4c3 -1 4 -3 4 -5c0 3 1 4 4 5c-3 0 -4 1 -4 4zM354 665c-3 0 -4 1 -4 4c-1 -3 -3 -4 -4 -4c3 -1 4 -3 4 -5c0 3 1 4 4 5zM360 689c-1 -3 -3 -4 -4 -4c3 -1 4 -3 4 -5c0 3 1 4 4 5c-3 0 -4 1 -4 4zM340 639c-1 -3 -3 -4 -4 -4c2 -1 3 -2 4 -4
c0 1 1 3 4 4c-3 0 -4 1 -4 4zM340 649c-1 -3 -3 -4 -4 -4c3 -1 4 -3 4 -5c0 3 1 4 4 5c-3 0 -4 1 -4 4zM354 635c-3 0 -4 1 -4 4c-1 -3 -3 -4 -4 -4c2 -1 3 -2 4 -4c0 1 1 3 4 4zM354 645c-3 0 -4 1 -4 4c-1 -3 -3 -4 -4 -4c3 -1 4 -3 4 -5c0 3 1 4 4 5zM360 659
c-1 -3 -3 -4 -4 -4c2 -1 3 -2 4 -4c0 1 1 3 4 4c-3 0 -4 1 -4 4zM354 655c-3 0 -4 1 -4 4c-1 -3 -3 -4 -4 -4c3 -1 4 -3 4 -5c0 3 1 4 4 5zM370 669c-1 -3 -3 -4 -4 -4c2 -1 3 -2 4 -4c0 1 1 3 4 4c-3 0 -4 1 -4 4zM360 669c-1 -3 -3 -4 -4 -4c3 -1 4 -3 4 -5c0 3 1 4 4 5
c-3 0 -4 1 -4 4zM80 9c-1 -3 -3 -4 -4 -4c3 -1 4 -3 4 -5c0 3 1 4 4 5c-3 0 -4 1 -4 4zM370 679c-1 -3 -3 -4 -4 -4c3 -1 4 -3 4 -5c0 3 1 4 4 5c-3 0 -4 1 -4 4zM360 679c-1 -3 -3 -4 -4 -4c3 -1 4 -3 4 -5c0 3 1 4 4 5c-3 0 -4 1 -4 4zM380 689c-1 -3 -3 -4 -4 -4
c3 -1 4 -3 4 -5c0 3 1 4 4 5c-3 0 -4 1 -4 4zM370 689c-1 -3 -3 -4 -4 -4c2 -1 3 -2 4 -4c0 1 1 3 4 4c-3 0 -4 1 -4 4zM94 15c-3 0 -4 1 -4 4c-1 -3 -3 -4 -4 -4c3 -1 4 -3 4 -5c0 3 1 4 4 5zM370 699c-1 -3 -3 -4 -4 -4c3 -1 4 -3 4 -5c0 3 1 4 4 5c-3 0 -4 1 -4 4z
M100 29c-1 -3 -3 -4 -4 -4c3 -1 4 -3 4 -5c0 3 1 4 4 5c-3 0 -4 1 -4 4z" />
    <glyph glyph-name="minus" unicode="&#x2212;" horiz-adv-x="558" 
d="M68 251v77h423v-77h-423z" />
    <glyph glyph-name="uni2007" unicode="&#x2007;" horiz-adv-x="590" 
 />
    <glyph glyph-name="uni2008" unicode="&#x2008;" horiz-adv-x="253" 
 />
    <glyph glyph-name="uni2009" unicode="&#x2009;" horiz-adv-x="125" 
 />
    <glyph glyph-name="uni200B" unicode="&#x200b;" 
 />
    <glyph glyph-name="uni2060" unicode="&#x2060;" horiz-adv-x="250" 
 />
    <glyph glyph-name="uniFEFF" unicode="&#xfeff;" 
 />
    <glyph glyph-name="Euro" unicode="&#x20ac;" horiz-adv-x="783" 
d="M147 404h-114l26 55h99c42 154 183 263 345 263c112 0 188 -39 241 -90l-56 -64c-43 43 -101 70 -185 70c-119 0 -218 -72 -255 -179h374l-25 -55h-363c-3 -16 -4 -33 -4 -49c0 -17 1 -32 3 -47h318l-23 -54h-281c37 -109 136 -182 256 -182c84 0 142 27 185 70l56 -64
c-55 -51 -129 -90 -241 -90c-164 0 -303 109 -346 266h-124l26 54h87c-3 15 -2 31 -2 47c0 17 1 33 3 49z" />
    <glyph glyph-name="f_f" unicode="&#xfb00;" horiz-adv-x="788" 
d="M134 0v421h-118v79h118v73c0 99 62 163 161 163c48 0 82 -13 105 -25l-33 -72c-15 7 -39 18 -68 18c-51 0 -79 -34 -79 -89v-68h144v-79h-144v-421h-86zM521 0v421h-101v79h101v73c0 99 61 163 161 163c48 0 81 -13 104 -25l-32 -72c-15 7 -40 18 -68 18
c-51 0 -79 -34 -79 -89v-68h170v-79h-170v-421h-86z" />
    <glyph glyph-name="fi" unicode="&#xfb01;" horiz-adv-x="650" 
d="M134 0v421h-118v79h118v73c0 99 61 163 161 163c48 0 81 -13 104 -25l-32 -72c-15 7 -40 18 -68 18c-51 0 -79 -34 -79 -89v-68h170v-79h-170v-421h-86zM526 614c-35 0 -62 26 -62 61c0 33 27 61 62 61s61 -28 61 -61c0 -35 -26 -61 -61 -61zM482 0v500h86v-500h-86z" />
    <glyph glyph-name="f_f_i" unicode="&#xfb03;" horiz-adv-x="1037" 
d="M913 614c-35 0 -62 26 -62 61c0 33 27 61 62 61s61 -28 61 -61c0 -35 -26 -61 -61 -61zM869 0v500h86v-500h-86zM134 0v421h-118v79h118v73c0 99 62 163 161 163c48 0 82 -13 105 -25l-33 -72c-15 7 -39 18 -68 18c-51 0 -79 -34 -79 -89v-68h144v-79h-144v-421h-86z
M521 0v421h-101v79h101v73c0 99 61 163 161 163c48 0 81 -13 104 -25l-32 -72c-15 7 -40 18 -68 18c-51 0 -79 -34 -79 -89v-68h170v-79h-170v-421h-86z" />
    <glyph glyph-name="fl" unicode="&#xfb02;" horiz-adv-x="650" 
d="M134 0v421h-118v79h118v73c0 99 61 163 161 163c48 0 81 -13 104 -25l-32 -72c-15 7 -40 18 -68 18c-51 0 -79 -34 -79 -89v-68h170v-79h-170v-421h-86zM482 0v730h86v-730h-86z" />
    <glyph glyph-name="f_f_l" unicode="&#xfb04;" horiz-adv-x="1037" 
d="M869 0v730h86v-730h-86zM134 0v421h-118v79h118v73c0 99 62 163 161 163c48 0 82 -13 105 -25l-33 -72c-15 7 -39 18 -68 18c-51 0 -79 -34 -79 -89v-68h144v-79h-144v-421h-86zM521 0v421h-101v79h101v73c0 99 61 163 161 163c48 0 81 -13 104 -25l-32 -72
c-15 7 -40 18 -68 18c-51 0 -79 -34 -79 -89v-68h170v-79h-170v-421h-86z" />
    <glyph glyph-name="_526" horiz-adv-x="249" 
d="M125 614c-35 0 -62 26 -62 61c0 33 27 61 62 61s61 -28 61 -61c0 -35 -26 -61 -61 -61z" />
    <glyph glyph-name="breve" unicode="&#x2d8;" 
d="M0 561c-88 0 -159 60 -159 159v10h58v-10c0 -67 45 -102 101 -102s101 35 101 102v10h58v-10c0 -99 -71 -159 -159 -159z" />
    <glyph glyph-name="caron" unicode="&#x2c7;" 
d="M-171 730h90l81 -95l81 95h90l-127 -152h-88z" />
    <glyph glyph-name="circumflex" unicode="&#x2c6;" 
d="M-171 578l127 152h88l127 -152h-90l-81 94l-81 -94h-90z" />
    <glyph glyph-name="dotaccent" unicode="&#x2d9;" 
d="M0 594c-33 0 -59 26 -59 58s26 59 59 59c32 0 58 -27 58 -59s-26 -58 -58 -58z" />
    <glyph glyph-name="_531" 
d="M0 -58c-33 0 -59 26 -59 58s26 59 59 59c32 0 58 -27 58 -59s-26 -58 -58 -58z" />
    <glyph glyph-name="_532" 
d="M0 -190c-33 0 -59 26 -59 58s26 58 59 58c32 0 58 -26 58 -58s-26 -58 -58 -58z" />
    <glyph glyph-name="hungarumlaut" unicode="&#x2dd;" 
d="M-161 574l55 156h99l-91 -156h-63zM7 574l54 156h100l-92 -156h-62z" />
    <glyph glyph-name="_534" 
d="M15 -273h-47l26 93h-47v104h106v-104z" />
    <glyph glyph-name="ogonek" unicode="&#x2db;" 
d="M6 -204c-59 0 -94 35 -94 86s35 87 74 118h86c-56 -35 -84 -69 -84 -101c0 -23 17 -34 36 -34c12 0 24 2 36 9l27 -53c-20 -15 -50 -25 -81 -25z" />
    <glyph glyph-name="ring" unicode="&#x2da;" 
d="M1 541c-68 0 -122 54 -122 121s54 121 122 121c67 0 121 -54 121 -121s-54 -121 -121 -121zM1 592c37 0 69 31 69 70s-32 70 -69 70c-39 0 -71 -31 -71 -70s32 -70 71 -70z" />
    <glyph glyph-name="tilde" unicode="&#x2dc;" 
d="M-174 593l3 18c11 57 53 95 106 95s98 -44 129 -44c22 0 36 15 43 44h66l-3 -18c-11 -57 -53 -95 -106 -95s-98 44 -129 44c-22 0 -36 -15 -43 -44h-66z" />
    <glyph glyph-name="_538" 
d="M-55 545l24 165h86l-50 -165h-60z" />
    <glyph glyph-name="_539" 
d="M-15 797h47l-26 -93h47v-105h-106v105z" />
    <glyph glyph-name="_540" 
d="M-98 596c-35 0 -61 26 -61 61c0 33 26 60 61 60c33 0 61 -27 61 -60c0 -35 -28 -61 -61 -61zM98 596c-35 0 -61 26 -61 61c0 33 26 60 61 60c33 0 61 -27 61 -60c0 -35 -28 -61 -61 -61z" />
    <glyph glyph-name="_541" 
d="M255 471l-470 -481l-40 40l471 480z" />
    <glyph glyph-name="_542" 
d="M162 577h-323v68h323v-68z" />
    <glyph glyph-name="_543" 
d="M162 577h-323v68h323v-68z" />
    <glyph glyph-name="_544" 
d="M122 411l-244 -157v78l244 156v-77z" />
    <glyph glyph-name="_545" 
d="M-184 266v68h367v-68h-367z" />
    <glyph glyph-name="zero.zero" horiz-adv-x="623" 
d="M311 -10c-147 0 -251 109 -251 267v198c0 157 104 267 251 267c146 0 252 -110 252 -267v-198c0 -158 -106 -267 -252 -267zM311 74c97 0 166 67 166 183v164l-327 -212c17 -87 78 -135 161 -135zM146 455v-164l326 212c-16 85 -78 135 -161 135
c-96 0 -165 -68 -165 -183z" />
    <glyph glyph-name="one.onum" horiz-adv-x="291" 
d="M121 0v482h-89v78h175v-560h-86z" />
    <glyph glyph-name="two.onum" horiz-adv-x="486" 
d="M44 0v68l228 208c37 35 71 74 71 122c0 52 -41 94 -100 94c-56 0 -99 -39 -110 -91l-85 16c16 91 98 153 198 153c103 0 184 -66 184 -169c0 -73 -41 -126 -101 -182l-155 -142h263v-77h-393z" />
    <glyph glyph-name="three.onum" horiz-adv-x="498" 
d="M242 -77c-99 0 -196 61 -217 154l85 30c15 -61 63 -105 132 -105c68 0 125 51 125 123c0 76 -49 123 -125 123h-72v66l145 166h-257v80h367v-67l-149 -172c107 -8 179 -87 179 -196c0 -115 -87 -202 -213 -202z" />
    <glyph glyph-name="four.onum" horiz-adv-x="539" 
d="M336 -68v167h-319v66l329 395h76v-384h83v-77h-83v-167h-86zM126 176h210v254z" />
    <glyph glyph-name="five.onum" horiz-adv-x="498" 
d="M257 -77c-97 0 -194 61 -218 155l86 29c15 -61 63 -104 132 -104s117 58 117 130s-49 130 -118 130c-47 0 -83 -21 -103 -53h-86v350h354v-80h-268v-180c23 21 65 40 116 41c111 0 192 -87 192 -208c0 -120 -87 -210 -204 -210z" />
    <glyph glyph-name="six.onum" horiz-adv-x="508" 
d="M253 -10c-124 0 -211 94 -211 206c0 68 30 114 69 163l215 268h108l-180 -225c5 1 10 1 17 1c101 0 193 -91 193 -203c0 -116 -86 -210 -211 -210zM130 199c0 -73 50 -131 123 -131c74 0 124 58 124 131c0 72 -50 130 -124 130c-73 0 -123 -58 -123 -130z" />
    <glyph glyph-name="seven.onum" horiz-adv-x="450" 
d="M143 -68h-97l284 548h-305v80h407v-69z" />
    <glyph glyph-name="eight.onum" horiz-adv-x="516" 
d="M258 -10c-120 0 -211 83 -211 198c0 75 36 131 96 162c-40 28 -64 72 -64 125c0 94 76 162 179 162c104 0 178 -68 178 -162c0 -53 -24 -97 -63 -125c60 -31 96 -87 96 -162c0 -115 -89 -198 -211 -198zM258 66c76 0 123 55 123 123s-47 122 -123 122
c-75 0 -124 -54 -124 -122s49 -123 124 -123zM258 381c60 0 95 43 95 91c0 51 -35 91 -95 91c-57 0 -95 -40 -95 -91c0 -48 38 -91 95 -91z" />
    <glyph glyph-name="nine.onum" horiz-adv-x="505" 
d="M255 569c124 0 211 -94 211 -206c0 -68 -30 -114 -69 -163l-215 -268h-108l180 224h-17c-101 0 -193 91 -193 203c0 116 86 210 211 210zM378 360c0 73 -50 131 -123 131c-74 0 -124 -58 -124 -131c0 -72 50 -130 124 -130c73 0 123 58 123 130z" />
    <glyph glyph-name="zero.onum" horiz-adv-x="544" 
d="M272 -10c-125 0 -213 87 -213 215v151c0 126 88 214 213 214c124 0 213 -88 213 -214v-151c0 -128 -89 -215 -213 -215zM272 68c75 0 127 50 127 137v151c0 85 -52 136 -127 136c-76 0 -127 -51 -127 -136v-151c0 -87 51 -137 127 -137z" />
    <glyph glyph-name="zero.onum_zero" horiz-adv-x="544" 
d="M272 -10c-125 0 -213 87 -213 215v151c0 126 88 214 213 214c124 0 213 -88 213 -214v-151c0 -128 -89 -215 -213 -215zM272 68c75 0 127 50 127 137v115l-249 -160c15 -60 61 -92 122 -92zM145 356v-116l248 161c-15 59 -61 91 -121 91c-76 0 -127 -51 -127 -136z" />
    <glyph glyph-name="one.tnum" horiz-adv-x="590" 
d="M346 82h177v-82h-440v82h177v543h-128v85h214v-628z" />
    <glyph glyph-name="two.tnum" horiz-adv-x="590" 
d="M59 0v72l274 266c47 45 94 102 94 167c0 76 -59 133 -134 133c-71 0 -130 -54 -141 -123l-86 18c19 109 110 189 230 189c124 0 218 -88 218 -213c0 -91 -47 -161 -122 -233l-202 -193h333v-83h-464z" />
    <glyph glyph-name="three.tnum" horiz-adv-x="590" 
d="M288 -10c-112 0 -223 66 -250 174l87 30c19 -71 79 -120 164 -120c83 0 154 58 154 141c0 91 -64 143 -157 143h-84v71l180 197h-304v84h419v-71l-182 -201c133 -5 215 -102 215 -223c0 -129 -98 -225 -242 -225z" />
    <glyph glyph-name="four.tnum" horiz-adv-x="590" 
d="M391 0v193h-378v69l389 448h75v-436h98v-81h-98v-193h-86zM125 274h266v306z" />
    <glyph glyph-name="five.tnum" horiz-adv-x="590" 
d="M305 -10c-112 0 -224 68 -250 174l87 30c17 -69 78 -120 163 -120c84 0 146 68 146 152c0 85 -61 153 -149 153c-56 0 -102 -22 -127 -61h-88v392h405v-84h-319v-216c27 27 77 51 140 51c133 0 226 -107 226 -246c0 -125 -102 -225 -234 -225z" />
    <glyph glyph-name="six.tnum" horiz-adv-x="590" 
d="M292 -10c-139 0 -241 105 -241 234c0 75 36 129 80 181l259 305h109l-217 -257c9 1 17 2 28 2c119 0 222 -105 222 -229c0 -131 -101 -236 -240 -236zM292 73c86 0 152 69 152 153s-66 153 -152 153c-88 0 -153 -69 -153 -153s65 -153 153 -153z" />
    <glyph glyph-name="seven.tnum" horiz-adv-x="590" 
d="M194 0h-96l331 626h-363v84h466v-72z" />
    <glyph glyph-name="eight.tnum" horiz-adv-x="590" 
d="M295 -10c-139 0 -239 94 -239 223c0 85 41 150 112 185c-45 32 -73 81 -73 141c0 107 85 183 200 183c117 0 199 -76 199 -183c0 -60 -27 -109 -72 -141c71 -35 111 -100 111 -185c0 -129 -98 -223 -238 -223zM295 72c96 0 151 63 151 141c0 80 -55 142 -151 142
c-93 0 -152 -62 -152 -142c0 -78 59 -141 152 -141zM295 432c72 0 114 49 114 105c0 60 -42 104 -114 104c-69 0 -115 -44 -115 -104c0 -56 45 -105 115 -105z" />
    <glyph glyph-name="nine.tnum" horiz-adv-x="590" 
d="M89 0l219 258c-11 -1 -19 -1 -28 -1c-119 0 -222 105 -222 228c0 132 101 237 240 237c138 0 241 -105 241 -234c0 -75 -36 -129 -80 -181l-260 -307h-110zM298 333c88 0 153 69 153 153s-65 153 -153 153c-87 0 -152 -69 -152 -153s65 -153 152 -153z" />
    <glyph glyph-name="zero.tnum" horiz-adv-x="590" 
d="M296 -10c-147 0 -251 109 -251 267v198c0 157 104 267 251 267c146 0 252 -110 252 -267v-198c0 -158 -106 -267 -252 -267zM296 74c97 0 166 67 166 183v198c0 116 -69 183 -166 183c-96 0 -165 -68 -165 -183v-198c0 -115 69 -183 165 -183z" />
    <glyph glyph-name="zero.tnum_zero" horiz-adv-x="590" 
d="M295 -10c-147 0 -251 109 -251 267v198c0 157 104 267 251 267c146 0 252 -110 252 -267v-198c0 -158 -106 -267 -252 -267zM295 74c97 0 166 67 166 183v164l-327 -212c17 -87 78 -135 161 -135zM130 455v-164l326 212c-16 85 -78 135 -161 135
c-96 0 -165 -68 -165 -183z" />
    <glyph glyph-name="uni21B2" unicode="&#x21b2;" horiz-adv-x="858" 
d="M351 -58l-306 306l306 306l48 -50l-219 -220h513v426h72v-498h-585l219 -220z" />
    <glyph glyph-name="uni21B3" unicode="&#x21b3;" horiz-adv-x="858" 
d="M814 248l-306 -306l-49 50l220 220h-585v498h71v-426h514l-220 220l49 50z" />
    <glyph glyph-name="uni21B0" unicode="&#x21b0;" horiz-adv-x="846" 
d="M763 -194h-71v408h-514l219 -220l-48 -50l-306 306l306 306l48 -50l-219 -220h585v-480z" />
    <glyph glyph-name="uni21B1" unicode="&#x21b1;" horiz-adv-x="846" 
d="M83 -194v480h585l-220 220l49 50l306 -306l-306 -306l-49 50l220 220h-514v-408h-71z" />
    <glyph glyph-name="arrowleft" unicode="&#x2190;" horiz-adv-x="821" 
d="M349 -56l-306 306l306 306l48 -51l-219 -219h585v-72h-585l219 -220z" />
    <glyph glyph-name="arrowup" unicode="&#x2191;" horiz-adv-x="704" 
d="M316 0v587l-220 -220l-50 49l306 306l306 -306l-51 -49l-219 220v-587h-72z" />
    <glyph glyph-name="arrowright" unicode="&#x2192;" horiz-adv-x="821" 
d="M472 -56l-49 50l220 220h-585v72h585l-220 220l49 50l306 -306z" />
    <glyph glyph-name="arrowdown" unicode="&#x2193;" horiz-adv-x="701" 
d="M657 294l-306 -306l-306 306l49 49l221 -220v587h72v-587l219 220z" />
    <glyph glyph-name="uni2196" unicode="&#x2196;" horiz-adv-x="732" 
d="M686 38l-50 -50l-464 464v-312h-70v432h433v-70h-313z" />
    <glyph glyph-name="uni2197" unicode="&#x2197;" horiz-adv-x="732" 
d="M96 -12l-51 50l465 464h-313v70h433v-432h-70v312z" />
    <glyph glyph-name="uni2198" unicode="&#x2198;" horiz-adv-x="726" 
d="M199 0v70h313l-464 464l50 50l465 -464v312h69v-432h-433z" />
    <glyph glyph-name="uni2199" unicode="&#x2199;" horiz-adv-x="726" 
d="M163 120l465 464l50 -50l-464 -464h313v-70h-433v432h69v-312z" />
    <glyph glyph-name="onethird" unicode="&#x2153;" horiz-adv-x="770" 
d="M85 278v366h-67v66h134v-432h-67zM109 0h-81l500 710h81zM590 -6c-68 0 -139 41 -155 108l68 26c11 -39 43 -66 88 -66s79 29 79 72c0 47 -35 74 -83 74h-54v57l95 100h-167v68h257v-58l-101 -106c77 -8 123 -64 123 -135c0 -82 -62 -140 -150 -140z" />
    <glyph glyph-name="uni2155" unicode="&#x2155;" horiz-adv-x="772" 
d="M85 278v366h-67v66h134v-432h-67zM109 0h-81l500 710h81zM599 -5c-69 0 -140 41 -156 108l69 25c11 -37 42 -65 87 -65s76 35 76 78s-32 78 -76 78c-31 0 -55 -14 -68 -35h-68v249h254v-68h-184v-104c17 13 45 23 76 23c84 0 137 -62 137 -150c0 -83 -60 -139 -147 -139z
" />
    <glyph glyph-name="uni2159" unicode="&#x2159;" horiz-adv-x="708" 
d="M85 278v366h-67v66h134v-432h-67zM109 0h-81l500 710h81zM534 -5c-88 0 -149 65 -149 144c0 47 19 75 50 114l141 180h87l-120 -153h5c68 0 135 -56 135 -139c0 -82 -61 -146 -149 -146zM534 62c45 0 78 35 78 78c0 44 -33 79 -78 79s-78 -35 -78 -79
c0 -43 33 -78 78 -78z" />
    <glyph glyph-name="uni2150" unicode="&#x2150;" horiz-adv-x="764" 
d="M85 278v366h-67v66h134v-432h-67zM109 0h-81l500 710h81zM549 1h-79l198 364h-210v68h293v-60z" />
    <glyph glyph-name="oneeighth" unicode="&#x215b;" horiz-adv-x="769" 
d="M85 278v366h-67v66h134v-432h-67zM109 0h-81l500 710h81zM588 -5c-84 0 -149 56 -149 136c0 49 22 86 61 109c-27 21 -40 49 -40 86c0 65 53 114 128 114c77 0 128 -49 128 -114c0 -37 -13 -65 -40 -86c39 -23 62 -60 62 -109c0 -80 -62 -136 -150 -136zM588 59
c51 0 78 35 78 74c0 40 -28 74 -77 74s-79 -34 -79 -74c0 -39 30 -74 78 -74zM588 265c39 0 62 25 62 56c0 32 -25 56 -62 56c-35 0 -60 -24 -60 -56c0 -31 25 -56 60 -56z" />
    <glyph glyph-name="uni2151" unicode="&#x2151;" horiz-adv-x="751" 
d="M85 278v366h-67v66h134v-432h-67zM109 0h-81l500 710h81zM452 1l120 154h-4c-68 0 -135 56 -135 139c0 82 59 146 148 146s150 -65 150 -144c0 -47 -19 -76 -50 -115l-142 -180h-87zM581 215c47 0 79 36 79 79c0 44 -32 79 -79 79c-44 0 -77 -35 -77 -79
c0 -43 33 -79 77 -79z" />
    <glyph glyph-name="uni2152" unicode="&#x2152;" horiz-adv-x="1043" 
d="M85 278v366h-67v66h134v-432h-67zM109 0h-81l500 710h81zM526 1v366h-67v66h134v-432h-67zM849 -5c-93 0 -158 70 -158 166v112c0 98 65 167 158 167c92 0 157 -69 157 -167v-112c0 -96 -65 -166 -157 -166zM849 63c51 0 87 37 87 98v112c0 63 -36 98 -87 98
c-52 0 -89 -35 -89 -98v-112c0 -61 37 -98 89 -98z" />
    <glyph glyph-name="twothirds" unicode="&#x2154;" horiz-adv-x="898" 
d="M30 278v60l167 162c24 24 46 51 46 83c0 36 -27 65 -66 65s-70 -28 -77 -67l-69 16c15 73 72 120 148 120c75 0 135 -49 135 -130c0 -59 -30 -98 -73 -139l-105 -102h182v-68h-288zM238 0h-81l500 710h81zM719 -6c-68 0 -139 41 -155 108l68 26c11 -39 43 -66 88 -66
s79 29 79 72c0 47 -35 74 -83 74h-54v57l95 100h-167v68h257v-58l-101 -106c77 -8 123 -64 123 -135c0 -82 -62 -140 -150 -140z" />
    <glyph glyph-name="uni2156" unicode="&#x2156;" horiz-adv-x="901" 
d="M30 278v60l167 162c24 24 46 51 46 83c0 36 -27 65 -66 65s-70 -28 -77 -67l-69 16c15 73 72 120 148 120c75 0 135 -49 135 -130c0 -59 -30 -98 -73 -139l-105 -102h182v-68h-288zM238 0h-81l500 710h81zM727 -5c-69 0 -140 41 -156 108l69 25c11 -37 42 -65 87 -65
s76 35 76 78s-32 78 -76 78c-31 0 -55 -14 -68 -35h-68v249h254v-68h-184v-104c17 13 45 23 76 23c84 0 137 -62 137 -150c0 -83 -60 -139 -147 -139z" />
    <glyph glyph-name="uni2157" unicode="&#x2157;" horiz-adv-x="898" 
d="M175 271c-68 0 -139 41 -155 108l68 26c11 -39 43 -66 88 -66s79 29 79 72c0 47 -35 74 -83 74h-54v57l95 100h-167v68h257v-58l-101 -106c77 -8 123 -64 123 -135c0 -82 -62 -140 -150 -140zM235 0h-81l500 710h81zM725 -5c-69 0 -140 41 -156 108l69 25
c11 -37 42 -65 87 -65s76 35 76 78s-32 78 -76 78c-31 0 -55 -14 -68 -35h-68v249h254v-68h-184v-104c17 13 45 23 76 23c84 0 137 -62 137 -150c0 -83 -60 -139 -147 -139z" />
    <glyph glyph-name="threeeighths" unicode="&#x215c;" horiz-adv-x="895" 
d="M175 271c-68 0 -139 41 -155 108l68 26c11 -39 43 -66 88 -66s79 29 79 72c0 47 -35 74 -83 74h-54v57l95 100h-167v68h257v-58l-101 -106c77 -8 123 -64 123 -135c0 -82 -62 -140 -150 -140zM235 0h-81l500 710h81zM714 -5c-84 0 -149 56 -149 136c0 49 22 86 61 109
c-27 21 -40 49 -40 86c0 65 53 114 128 114c77 0 128 -49 128 -114c0 -37 -13 -65 -40 -86c39 -23 62 -60 62 -109c0 -80 -62 -136 -150 -136zM714 59c51 0 78 35 78 74c0 40 -28 74 -77 74s-79 -34 -79 -74c0 -39 30 -74 78 -74zM714 265c39 0 62 25 62 56
c0 32 -25 56 -62 56c-35 0 -60 -24 -60 -56c0 -31 25 -56 60 -56z" />
    <glyph glyph-name="uni2158" unicode="&#x2158;" horiz-adv-x="934" 
d="M240 278v107h-221v56l228 269h63v-261h58v-64h-58v-107h-70zM105 449h135v157zM271 0h-81l500 710h81zM761 -5c-69 0 -140 41 -156 108l69 25c11 -37 42 -65 87 -65s76 35 76 78s-32 78 -76 78c-31 0 -55 -14 -68 -35h-68v249h254v-68h-184v-104c17 13 45 23 76 23
c84 0 137 -62 137 -150c0 -83 -60 -139 -147 -139z" />
    <glyph glyph-name="uni215A" unicode="&#x215a;" horiz-adv-x="837" 
d="M184 272c-69 0 -140 41 -156 108l69 25c11 -37 42 -65 87 -65s76 35 76 78s-32 78 -76 78c-31 0 -55 -14 -68 -35h-68v249h254v-68h-184v-104c17 13 45 23 76 23c84 0 137 -62 137 -150c0 -83 -60 -139 -147 -139zM238 0h-81l500 710h81zM663 -5c-88 0 -149 65 -149 144
c0 47 19 75 50 114l141 180h87l-120 -153h5c68 0 135 -56 135 -139c0 -82 -61 -146 -149 -146zM663 62c45 0 78 35 78 78c0 44 -33 79 -78 79s-78 -35 -78 -79c0 -43 33 -78 78 -78z" />
    <glyph glyph-name="fiveeighths" unicode="&#x215d;" horiz-adv-x="898" 
d="M184 272c-69 0 -140 41 -156 108l69 25c11 -37 42 -65 87 -65s76 35 76 78s-32 78 -76 78c-31 0 -55 -14 -68 -35h-68v249h254v-68h-184v-104c17 13 45 23 76 23c84 0 137 -62 137 -150c0 -83 -60 -139 -147 -139zM238 0h-81l500 710h81zM717 -5c-84 0 -149 56 -149 136
c0 49 22 86 61 109c-27 21 -40 49 -40 86c0 65 53 114 128 114c77 0 128 -49 128 -114c0 -37 -13 -65 -40 -86c39 -23 62 -60 62 -109c0 -80 -62 -136 -150 -136zM717 59c51 0 78 35 78 74c0 40 -28 74 -77 74s-79 -34 -79 -74c0 -39 30 -74 78 -74zM717 265
c39 0 62 25 62 56c0 32 -25 56 -62 56c-35 0 -60 -24 -60 -56c0 -31 25 -56 60 -56z" />
    <glyph glyph-name="seveneighths" unicode="&#x215e;" horiz-adv-x="818" 
d="M118 278h-79l198 364h-210v68h293v-60zM158 0h-81l500 710h81zM637 -5c-84 0 -149 56 -149 136c0 49 22 86 61 109c-27 21 -40 49 -40 86c0 65 53 114 128 114c77 0 128 -49 128 -114c0 -37 -13 -65 -40 -86c39 -23 62 -60 62 -109c0 -80 -62 -136 -150 -136zM637 59
c51 0 78 35 78 74c0 40 -28 74 -77 74s-79 -34 -79 -74c0 -39 30 -74 78 -74zM637 265c39 0 62 25 62 56c0 32 -25 56 -62 56c-35 0 -60 -24 -60 -56c0 -31 25 -56 60 -56z" />
    <glyph glyph-name="uni215F" unicode="&#x215f;" horiz-adv-x="408" 
d="M85 278v366h-67v66h134v-432h-67zM109 0h-81l500 710h81z" />
    <glyph glyph-name="fraction" unicode="&#x2044;" horiz-adv-x="180" 
d="M-119 0h-81l500 710h81z" />
    <glyph glyph-name="uni2074" unicode="&#x2074;" horiz-adv-x="390" 
d="M240 410v107h-221v56l228 269h63v-261h58v-64h-58v-107h-70zM105 581h135v157z" />
    <glyph glyph-name="uni2075" unicode="&#x2075;" horiz-adv-x="357" 
d="M184 404c-69 0 -140 41 -156 108l69 25c11 -37 42 -65 87 -65s76 35 76 78s-32 78 -76 78c-31 0 -55 -14 -68 -35h-68v249h254v-68h-184v-104c17 13 45 23 76 23c84 0 137 -62 137 -150c0 -83 -60 -139 -147 -139z" />
    <glyph glyph-name="uni2076" unicode="&#x2076;" horiz-adv-x="343" 
d="M169 404c-88 0 -149 65 -149 144c0 47 19 75 50 114l141 180h87l-120 -153h5c68 0 135 -56 135 -139c0 -82 -61 -146 -149 -146zM169 471c45 0 78 35 78 78c0 44 -33 79 -78 79s-78 -35 -78 -79c0 -43 33 -78 78 -78z" />
    <glyph glyph-name="uni2077" unicode="&#x2077;" horiz-adv-x="334" 
d="M118 410h-79l198 364h-210v68h293v-60z" />
    <glyph glyph-name="uni2078" unicode="&#x2078;" horiz-adv-x="361" 
d="M180 404c-84 0 -149 56 -149 136c0 49 22 86 61 109c-27 21 -40 49 -40 86c0 65 53 114 128 114c77 0 128 -49 128 -114c0 -37 -13 -65 -40 -86c39 -23 62 -60 62 -109c0 -80 -62 -136 -150 -136zM180 468c51 0 78 35 78 74c0 40 -28 74 -77 74s-79 -34 -79 -74
c0 -39 30 -74 78 -74zM180 674c39 0 62 25 62 56c0 32 -25 56 -62 56c-35 0 -60 -24 -60 -56c0 -31 25 -56 60 -56z" />
    <glyph glyph-name="uni2079" unicode="&#x2079;" horiz-adv-x="343" 
d="M44 410l120 154h-4c-68 0 -135 56 -135 139c0 82 59 146 148 146s150 -65 150 -144c0 -47 -19 -76 -50 -115l-142 -180h-87zM173 624c47 0 79 36 79 79c0 44 -32 79 -79 79c-44 0 -77 -35 -77 -79c0 -43 33 -79 77 -79z" />
    <glyph glyph-name="uni2070" unicode="&#x2070;" horiz-adv-x="390" 
d="M196 404c-93 0 -158 70 -158 166v112c0 98 65 167 158 167c92 0 157 -69 157 -167v-112c0 -96 -65 -166 -157 -166zM196 472c51 0 87 37 87 98v112c0 63 -36 98 -87 98c-52 0 -89 -35 -89 -98v-112c0 -61 37 -98 89 -98z" />
    <glyph glyph-name="uni2070.zero" horiz-adv-x="390" 
d="M196 404c-93 0 -158 70 -158 166v112c0 98 65 167 158 167c92 0 157 -69 157 -167v-112c0 -96 -65 -166 -157 -166zM196 472c51 0 87 37 87 98v80l-174 -106c9 -47 43 -72 87 -72zM107 682v-79l173 107c-11 45 -43 70 -84 70c-52 0 -89 -35 -89 -98z" />
    <glyph glyph-name="uni2081" unicode="&#x2081;" horiz-adv-x="214" 
d="M86 -114v366h-67v66h134v-432h-67z" />
    <glyph glyph-name="uni2082" unicode="&#x2082;" horiz-adv-x="351" 
d="M30 -114v60l167 162c24 24 46 51 46 83c0 36 -27 65 -66 65s-70 -28 -77 -67l-69 16c15 73 72 120 148 120c75 0 135 -49 135 -130c0 -59 -30 -98 -73 -139l-105 -102h182v-68h-288z" />
    <glyph glyph-name="uni2083" unicode="&#x2083;" horiz-adv-x="354" 
d="M175 -121c-68 0 -139 41 -155 108l68 26c11 -39 43 -66 88 -66s79 29 79 72c0 47 -35 74 -83 74h-54v57l95 100h-167v68h257v-58l-101 -106c77 -8 123 -64 123 -135c0 -82 -62 -140 -150 -140z" />
    <glyph glyph-name="uni2084" unicode="&#x2084;" horiz-adv-x="390" 
d="M240 -114v107h-221v56l228 269h63v-261h58v-64h-58v-107h-70zM105 57h135v157z" />
    <glyph glyph-name="uni2085" unicode="&#x2085;" horiz-adv-x="357" 
d="M184 -120c-69 0 -140 41 -156 108l69 25c11 -37 42 -65 87 -65s76 35 76 78s-32 78 -76 78c-31 0 -55 -14 -68 -35h-68v249h254v-68h-184v-104c17 13 45 23 76 23c84 0 137 -62 137 -150c0 -83 -60 -139 -147 -139z" />
    <glyph glyph-name="uni2086" unicode="&#x2086;" horiz-adv-x="343" 
d="M169 -120c-88 0 -149 65 -149 144c0 47 19 75 50 114l141 180h87l-120 -153h5c68 0 135 -56 135 -139c0 -82 -61 -146 -149 -146zM169 -53c45 0 78 35 78 78c0 44 -33 79 -78 79s-78 -35 -78 -79c0 -43 33 -78 78 -78z" />
    <glyph glyph-name="uni2087" unicode="&#x2087;" horiz-adv-x="334" 
d="M118 -114h-79l198 364h-210v68h293v-60z" />
    <glyph glyph-name="uni2088" unicode="&#x2088;" horiz-adv-x="361" 
d="M180 -120c-84 0 -149 56 -149 136c0 49 22 86 61 109c-27 21 -40 49 -40 86c0 65 53 114 128 114c77 0 128 -49 128 -114c0 -37 -13 -65 -40 -86c39 -23 62 -60 62 -109c0 -80 -62 -136 -150 -136zM180 -56c51 0 78 35 78 74c0 40 -28 74 -77 74s-79 -34 -79 -74
c0 -39 30 -74 78 -74zM180 150c39 0 62 25 62 56c0 32 -25 56 -62 56c-35 0 -60 -24 -60 -56c0 -31 25 -56 60 -56z" />
    <glyph glyph-name="uni2089" unicode="&#x2089;" horiz-adv-x="343" 
d="M44 -114l120 154h-4c-68 0 -135 56 -135 139c0 82 59 146 148 146s150 -65 150 -144c0 -47 -19 -76 -50 -115l-142 -180h-87zM173 100c47 0 79 36 79 79c0 44 -32 79 -79 79c-44 0 -77 -35 -77 -79c0 -43 33 -79 77 -79z" />
    <glyph glyph-name="uni2080" unicode="&#x2080;" horiz-adv-x="390" 
d="M196 -120c-93 0 -158 70 -158 166v112c0 98 65 167 158 167c92 0 157 -69 157 -167v-112c0 -96 -65 -166 -157 -166zM196 -52c51 0 87 37 87 98v112c0 63 -36 98 -87 98c-52 0 -89 -35 -89 -98v-112c0 -61 37 -98 89 -98z" />
    <glyph glyph-name="uni2080.zero" horiz-adv-x="389" 
d="M195 -121c-93 0 -158 70 -158 166v112c0 98 65 167 158 167c92 0 157 -69 157 -167v-112c0 -96 -65 -166 -157 -166zM195 -53c51 0 87 37 87 98v80l-174 -106c9 -45 43 -72 87 -72zM106 157v-79l173 107c-11 45 -43 70 -84 70c-52 0 -89 -35 -89 -98z" />
    <glyph glyph-name="one.numr" horiz-adv-x="214" 
d="M85 278v366h-67v66h134v-432h-67z" />
    <glyph glyph-name="two.numr" horiz-adv-x="351" 
d="M30 278v60l167 162c24 24 46 51 46 83c0 36 -27 65 -66 65s-70 -28 -77 -67l-69 16c15 73 72 120 148 120c75 0 135 -49 135 -130c0 -59 -30 -98 -73 -139l-105 -102h182v-68h-288z" />
    <glyph glyph-name="three.numr" horiz-adv-x="354" 
d="M175 271c-68 0 -139 41 -155 108l68 26c11 -39 43 -66 88 -66s79 29 79 72c0 47 -35 74 -83 74h-54v57l95 100h-167v68h257v-58l-101 -106c77 -8 123 -64 123 -135c0 -82 -62 -140 -150 -140z" />
    <glyph glyph-name="four.numr" horiz-adv-x="390" 
d="M240 278v107h-221v56l228 269h63v-261h58v-64h-58v-107h-70zM105 449h135v157z" />
    <glyph glyph-name="five.numr" horiz-adv-x="357" 
d="M184 272c-69 0 -140 41 -156 108l69 25c11 -37 42 -65 87 -65s76 35 76 78s-32 78 -76 78c-31 0 -55 -14 -68 -35h-68v249h254v-68h-184v-104c17 13 45 23 76 23c84 0 137 -62 137 -150c0 -83 -60 -139 -147 -139z" />
    <glyph glyph-name="six.numr" horiz-adv-x="343" 
d="M169 272c-88 0 -149 65 -149 144c0 47 19 75 50 114l141 180h87l-120 -153h5c68 0 135 -56 135 -139c0 -82 -61 -146 -149 -146zM169 339c45 0 78 35 78 78c0 44 -33 79 -78 79s-78 -35 -78 -79c0 -43 33 -78 78 -78z" />
    <glyph glyph-name="seven.numr" horiz-adv-x="334" 
d="M118 278h-79l198 364h-210v68h293v-60z" />
    <glyph glyph-name="eight.numr" horiz-adv-x="361" 
d="M180 272c-84 0 -149 56 -149 136c0 49 22 86 61 109c-27 21 -40 49 -40 86c0 65 53 114 128 114c77 0 128 -49 128 -114c0 -37 -13 -65 -40 -86c39 -23 62 -60 62 -109c0 -80 -62 -136 -150 -136zM180 336c51 0 78 35 78 74c0 40 -28 74 -77 74s-79 -34 -79 -74
c0 -39 30 -74 78 -74zM180 542c39 0 62 25 62 56c0 32 -25 56 -62 56c-35 0 -60 -24 -60 -56c0 -31 25 -56 60 -56z" />
    <glyph glyph-name="nine.numr" horiz-adv-x="343" 
d="M44 278l120 154h-4c-68 0 -135 56 -135 139c0 82 59 146 148 146s150 -65 150 -144c0 -47 -19 -76 -50 -115l-142 -180h-87zM173 492c47 0 79 36 79 79c0 44 -32 79 -79 79c-44 0 -77 -35 -77 -79c0 -43 33 -79 77 -79z" />
    <glyph glyph-name="zero.numr" horiz-adv-x="390" 
d="M196 272c-93 0 -158 70 -158 166v112c0 98 65 167 158 167c92 0 157 -69 157 -167v-112c0 -96 -65 -166 -157 -166zM196 340c51 0 87 37 87 98v112c0 63 -36 98 -87 98c-52 0 -89 -35 -89 -98v-112c0 -61 37 -98 89 -98z" />
    <glyph glyph-name="zero.numr_zero" horiz-adv-x="390" 
d="M196 272c-93 0 -158 70 -158 166v112c0 98 65 167 158 167c92 0 157 -69 157 -167v-112c0 -96 -65 -166 -157 -166zM196 340c51 0 87 37 87 98v80l-174 -106c9 -47 43 -72 87 -72zM107 550v-79l173 107c-11 45 -43 70 -84 70c-52 0 -89 -35 -89 -98z" />
    <glyph glyph-name="one.dnom" horiz-adv-x="214" 
d="M86 1v366h-67v66h134v-432h-67z" />
    <glyph glyph-name="two.dnom" horiz-adv-x="351" 
d="M30 1v60l167 162c24 24 46 51 46 83c0 36 -27 65 -66 65s-70 -28 -77 -67l-69 16c15 73 72 120 148 120c75 0 135 -49 135 -130c0 -59 -30 -98 -73 -139l-105 -102h182v-68h-288z" />
    <glyph glyph-name="three.dnom" horiz-adv-x="354" 
d="M175 -6c-68 0 -139 41 -155 108l68 26c11 -39 43 -66 88 -66s79 29 79 72c0 47 -35 74 -83 74h-54v57l95 100h-167v68h257v-58l-101 -106c77 -8 123 -64 123 -135c0 -82 -62 -140 -150 -140z" />
    <glyph glyph-name="four.dnom" horiz-adv-x="390" 
d="M240 1v107h-221v56l228 269h63v-261h58v-64h-58v-107h-70zM105 172h135v157z" />
    <glyph glyph-name="five.dnom" horiz-adv-x="357" 
d="M184 -5c-69 0 -140 41 -156 108l69 25c11 -37 42 -65 87 -65s76 35 76 78s-32 78 -76 78c-31 0 -55 -14 -68 -35h-68v249h254v-68h-184v-104c17 13 45 23 76 23c84 0 137 -62 137 -150c0 -83 -60 -139 -147 -139z" />
    <glyph glyph-name="six.dnom" horiz-adv-x="343" 
d="M169 -5c-88 0 -149 65 -149 144c0 47 19 75 50 114l141 180h87l-120 -153h5c68 0 135 -56 135 -139c0 -82 -61 -146 -149 -146zM169 62c45 0 78 35 78 78c0 44 -33 79 -78 79s-78 -35 -78 -79c0 -43 33 -78 78 -78z" />
    <glyph glyph-name="seven.dnom" horiz-adv-x="334" 
d="M119 1h-79l198 364h-210v68h293v-60z" />
    <glyph glyph-name="eight.dnom" horiz-adv-x="361" 
d="M180 -5c-84 0 -149 56 -149 136c0 49 22 86 61 109c-27 21 -40 49 -40 86c0 65 53 114 128 114c77 0 128 -49 128 -114c0 -37 -13 -65 -40 -86c39 -23 62 -60 62 -109c0 -80 -62 -136 -150 -136zM180 59c51 0 78 35 78 74c0 40 -28 74 -77 74s-79 -34 -79 -74
c0 -39 30 -74 78 -74zM180 265c39 0 62 25 62 56c0 32 -25 56 -62 56c-35 0 -60 -24 -60 -56c0 -31 25 -56 60 -56z" />
    <glyph glyph-name="nine.dnom" horiz-adv-x="343" 
d="M44 1l120 154h-4c-68 0 -135 56 -135 139c0 82 59 146 148 146s150 -65 150 -144c0 -47 -19 -76 -50 -115l-142 -180h-87zM173 215c47 0 79 36 79 79c0 44 -32 79 -79 79c-44 0 -77 -35 -77 -79c0 -43 33 -79 77 -79z" />
    <glyph glyph-name="zero.dnom" horiz-adv-x="390" 
d="M196 -5c-93 0 -158 70 -158 166v112c0 98 65 167 158 167c92 0 157 -69 157 -167v-112c0 -96 -65 -166 -157 -166zM196 63c51 0 87 37 87 98v112c0 63 -36 98 -87 98c-52 0 -89 -35 -89 -98v-112c0 -61 37 -98 89 -98z" />
    <glyph glyph-name="zero.dnom_zero" horiz-adv-x="391" 
d="M196 -6c-93 0 -158 70 -158 166v112c0 98 65 167 158 167c92 0 157 -69 157 -167v-112c0 -96 -65 -166 -157 -166zM196 62c51 0 87 37 87 98v80l-174 -106c9 -47 43 -72 87 -72zM107 272v-79l173 107c-11 45 -43 70 -84 70c-52 0 -89 -35 -89 -98z" />
    <glyph glyph-name="hyphen.case" horiz-adv-x="392" 
d="M68 312v86h255v-86h-255z" />
    <glyph glyph-name="uni00AD.case" horiz-adv-x="392" 
d="M68 312v86h255v-86h-255z" />
    <glyph glyph-name="endash.case" horiz-adv-x="571" 
d="M68 312v86h434v-86h-434z" />
    <glyph glyph-name="emdash.case" horiz-adv-x="641" 
d="M68 312v86h505v-86h-505z" />
    <glyph glyph-name="questiondown.case" horiz-adv-x="527" 
d="M325 474v-20c0 -53 -51 -101 -91 -130c-55 -40 -93 -72 -93 -130c0 -68 59 -122 130 -122c69 0 126 36 157 92l70 -42c-40 -77 -125 -134 -228 -134c-125 0 -215 96 -215 204c0 90 57 143 105 180c37 29 79 56 79 94v8h86zM226 710h124v-124h-124v124z" />
    <glyph glyph-name="exclamdown.case" horiz-adv-x="277" 
d="M165 474l16 -189v-285h-86v285l16 189h54zM195 580h-124v124h124v-124z" />
    <glyph glyph-name="guilsinglleft.case" horiz-adv-x="326" 
d="M148 355l114 -196l-58 -38l-152 234l152 234l58 -38z" />
    <glyph glyph-name="guilsinglright.case" horiz-adv-x="326" 
d="M64 159l114 196l-114 196l58 38l152 -234l-152 -234z" />
    <glyph glyph-name="guillemotleft.case" horiz-adv-x="499" 
d="M321 355l114 -196l-58 -38l-152 234l152 234l58 -38zM148 355l114 -196l-58 -38l-152 234l152 234l58 -38z" />
    <glyph glyph-name="guillemotright.case" horiz-adv-x="499" 
d="M-109 159l114 196l-114 196l58 38l152 -234l-152 -234zM64 159l114 196l-114 196l58 38l152 -234l-152 -234z" />
    <glyph glyph-name="parenleft.case" horiz-adv-x="269" 
d="M127 354c0 -155 31 -297 107 -450l-56 -30c-85 155 -128 315 -128 480s43 325 128 480l56 -30c-76 -153 -107 -295 -107 -450z" />
    <glyph glyph-name="parenright.case" horiz-adv-x="269" 
d="M142 354c0 155 -31 297 -107 450l56 30c85 -155 128 -315 128 -480s-43 -325 -128 -480l-56 30c76 153 107 295 107 450z" />
    <glyph glyph-name="bracketleft.case" horiz-adv-x="313" 
d="M95 -125v960h187v-72h-109v-816h109v-72h-187z" />
    <glyph glyph-name="bracketright.case" horiz-adv-x="311" 
d="M216 835v-960h-187v72h109v816h-109v72h187z" />
    <glyph glyph-name="braceleft.case" horiz-adv-x="320" 
d="M292 -125h-60c-95 0 -127 50 -127 143v230c0 45 -9 71 -58 71h-15v72h15c49 0 58 23 58 70v231c0 93 31 143 126 143h61v-72h-48c-51 0 -61 -22 -61 -73v-225c0 -63 -13 -91 -54 -110c41 -19 54 -48 54 -111v-224c0 -52 10 -73 61 -73h48v-72z" />
    <glyph glyph-name="braceright.case" horiz-adv-x="320" 
d="M88 -125h-60v72h48c51 0 61 21 61 73v224c0 63 13 92 54 111c-41 19 -54 47 -54 110v225c0 51 -10 73 -61 73h-48v72h61c95 0 126 -50 126 -143v-231c0 -47 9 -70 58 -70h15v-72h-15c-49 0 -58 -26 -58 -71v-230c0 -93 -32 -143 -127 -143z" />
    <glyph glyph-name="bar.case" horiz-adv-x="267" 
d="M94 -55v820h79v-820h-79z" />
    <glyph glyph-name="brokenbar.case" horiz-adv-x="267" 
d="M94 -55v362h79v-362h-79zM94 403v362h79v-362h-79z" />
    <glyph glyph-name="periodcentered.case" horiz-adv-x="260" 
d="M187 288h-124v124h124v-124z" />
    <glyph glyph-name="plus.case" horiz-adv-x="500" 
d="M38 316v77h173v172h78v-172h172v-77h-172v-172h-78v172h-173z" />
    <glyph glyph-name="minus.case" horiz-adv-x="560" 
d="M69 316v77h423v-77h-423z" />
    <glyph glyph-name="multiply.case" horiz-adv-x="503" 
d="M109 159l-56 55l143 141l-143 140l56 56l143 -140l142 140l56 -56l-143 -140l143 -141l-56 -55l-142 140z" />
    <glyph glyph-name="equal.case" horiz-adv-x="560" 
d="M68 208v76h424v-76h-424zM68 425v77h424v-77h-424z" />
    <glyph glyph-name="less.case" horiz-adv-x="464" 
d="M406 54l-360 235v87l360 234v-94l-282 -184l282 -184v-94z" />
    <glyph glyph-name="greater.case" horiz-adv-x="464" 
d="M418 289l-360 -235v94l282 184l-282 184v94l360 -234v-87z" />
    <glyph glyph-name="acute.case" 
d="M-94 768l78 137h109l-115 -137h-72z" />
    <glyph glyph-name="breve.case" 
d="M0 759c-88 0 -159 61 -159 158h58c0 -65 45 -101 101 -101s101 36 101 101h58c0 -97 -71 -158 -159 -158z" />
    <glyph glyph-name="caron.case" 
d="M-46 768l-127 137h93l80 -84l81 84h93l-127 -137h-93z" />
    <glyph glyph-name="cedilla.case" 
d="M-105 -187l14 50c22 -9 45 -14 68 -14c27 0 57 8 57 33c0 19 -16 27 -39 27c-19 0 -33 -4 -46 -9l-30 22l48 81h55l-32 -52c11 5 23 7 38 7c43 0 76 -27 76 -72c0 -59 -51 -90 -122 -90c-29 0 -60 5 -87 17z" />
    <glyph glyph-name="circumflex.case" 
d="M-173 768l127 137h93l127 -137h-93l-81 83l-80 -83h-93z" />
    <glyph glyph-name="dieresis.case" 
d="M-112 785c-33 0 -59 26 -59 58s26 59 59 59c32 0 58 -27 58 -59s-26 -58 -58 -58zM113 785c-32 0 -59 26 -59 58s27 59 59 59s58 -27 58 -59s-26 -58 -58 -58z" />
    <glyph glyph-name="dotaccent.case" 
d="M0 785c-33 0 -59 26 -59 58s26 59 59 59c32 0 58 -27 58 -59s-26 -58 -58 -58z" />
    <glyph glyph-name="_671" 
d="M0 -58c-33 0 -59 26 -59 58s26 59 59 59c32 0 58 -27 58 -59s-26 -58 -58 -58z" />
    <glyph glyph-name="_672" 
d="M0 -190c-33 0 -59 26 -59 58s26 59 59 59c32 0 58 -27 58 -59s-26 -58 -58 -58z" />
    <glyph glyph-name="_673" 
d="M15 -273h-47l26 93h-47v104h106v-104z" />
    <glyph glyph-name="grave.case" 
d="M93 768h-72l-115 137h109z" />
    <glyph glyph-name="hungarumlaut.case" 
d="M-161 768l55 137h99l-91 -137h-63zM7 768l54 137h100l-92 -137h-62z" />
    <glyph glyph-name="macron.case" 
d="M-161 805v69h322v-69h-322z" />
    <glyph glyph-name="ogonek.case" 
d="M8 -204c-57 0 -99 35 -99 86s34 86 74 118h92c-56 -35 -84 -66 -84 -99c0 -23 17 -31 36 -31c11 0 22 2 34 9l29 -58c-20 -15 -51 -25 -82 -25z" />
    <glyph glyph-name="ring.case" 
d="M0 753c-67 0 -121 54 -121 120s54 120 121 120c66 0 122 -54 122 -120s-56 -120 -122 -120zM0 804c39 0 71 30 71 69s-32 70 -71 70s-69 -31 -69 -70s30 -69 69 -69z" />
    <glyph glyph-name="tilde.case" 
d="M-173 786l3 18c11 57 53 95 106 95c52 0 97 -44 129 -44c22 0 36 15 43 44h66l-4 -19c-11 -56 -51 -94 -106 -94c-53 0 -96 44 -128 44c-21 0 -36 -15 -44 -44h-65z" />
    <glyph glyph-name="_680" 
d="M-163 319v82h326v-82h-326z" />
    <glyph glyph-name="_681" 
d="M339 679l-622 -699l-56 52l623 698z" />
    <glyph glyph-name="_682" 
d="M162 423l-325 -210v84l325 210v-84z" />
    <glyph glyph-name="_683" 
d="M-202 338v81h405v-81h-405z" />
    <glyph glyph-name="_684" 
d="M-361 533v72h721v-72h-721z" />
    <glyph glyph-name="uni0449.locl" horiz-adv-x="916" 
d="M575 -10c-69 0 -118 34 -147 81c-39 -53 -99 -81 -167 -81c-120 0 -188 80 -188 203v307h86v-293c0 -85 42 -138 114 -138c55 0 101 30 124 94c-1 11 -2 19 -2 30v307h86v-293c0 -85 42 -138 114 -138c60 0 99 35 122 84v347h86v-383c0 -25 12 -38 37 -38h40v-205h-81
v126h-5c-36 0 -67 16 -70 60c-31 -40 -80 -70 -149 -70z" />
    <glyph glyph-name="uni0437.locl" horiz-adv-x="482" 
d="M2 -89l68 53c21 -37 73 -89 150 -89c88 0 133 54 133 126c0 68 -40 128 -132 128h-78v77h76c76 0 112 58 112 118c0 63 -40 107 -111 107c-63 0 -108 -39 -135 -75l-60 52c34 50 103 102 202 102c118 0 190 -81 190 -177c0 -74 -27 -127 -81 -160
c72 -32 105 -94 105 -177c0 -115 -84 -200 -217 -200c-109 0 -179 51 -222 115z" />
    <glyph glyph-name="uni0446.locl" horiz-adv-x="618" 
d="M420 500h86v-383c0 -27 9 -38 36 -38h40v-205h-81v126h-4c-37 0 -71 18 -71 66v3c-35 -51 -90 -79 -161 -79c-114 0 -192 78 -192 203v307h86v-294c0 -88 46 -137 125 -137c68 0 115 41 136 98v333z" />
    <glyph glyph-name="uni043F.locl" horiz-adv-x="589" 
d="M81 0v500h86v-63c35 51 94 73 158 73c112 0 190 -78 190 -203v-307h-85v294c0 88 -48 137 -125 137c-71 0 -118 -40 -138 -99v-332h-86z" />
    <glyph glyph-name="uni044C.locl" horiz-adv-x="490" 
d="M273 -10h-12c-132 0 -186 77 -186 165v345h86v-180h112c132 0 186 -81 186 -165s-54 -165 -186 -165zM267 67c71 0 107 29 107 88c0 58 -35 87 -105 87h-108v-86c0 -59 35 -89 106 -89z" />
    <glyph glyph-name="uni0432.locl" horiz-adv-x="550" 
d="M297 -10h-18c-129 0 -206 77 -206 210v341c0 117 60 199 196 199c141 0 198 -92 198 -187c0 -68 -23 -125 -76 -157c76 -33 116 -101 116 -189c0 -132 -81 -217 -210 -217zM277 68h25c80 0 118 59 118 143c0 76 -48 142 -136 142h-125v-150c0 -87 38 -135 118 -135z
M159 553v-123h105c80 0 117 44 117 116c0 69 -31 115 -112 115c-68 0 -110 -35 -110 -108z" />
    <glyph glyph-name="uni041B.locl" horiz-adv-x="718" 
d="M6 0l314 710h77l315 -710h-97l-258 581l-255 -581h-96z" />
    <glyph glyph-name="uni0448.locl" horiz-adv-x="884" 
d="M575 -10c-69 0 -118 34 -147 81c-39 -53 -99 -81 -167 -81c-120 0 -188 80 -188 203v307h86v-293c0 -85 42 -138 114 -138c55 0 101 30 124 94c-1 11 -2 19 -2 30v307h86v-293c0 -85 42 -138 114 -138c59 0 103 36 122 88v343h86v-500h-86v53c-35 -44 -90 -63 -142 -63z
" />
    <glyph glyph-name="uni0442.locl" horiz-adv-x="885" 
d="M310 510c68 0 117 -35 146 -83c39 55 100 83 168 83c119 0 187 -80 187 -203v-307h-86v293c0 85 -42 138 -114 138c-56 0 -101 -30 -124 -94c1 -11 2 -19 2 -30v-307h-86v293c0 85 -42 138 -113 138c-60 0 -104 -36 -123 -88v-343h-86v500h86v-53c35 44 90 63 143 63z
" />
    <glyph glyph-name="uni0434.locl" horiz-adv-x="625" 
d="M294 -204c-103 0 -182 39 -225 92l59 60c40 -47 94 -74 166 -74c79 0 164 47 164 159v38c-40 -44 -99 -66 -163 -66c-148 0 -253 113 -253 253s106 252 253 252c64 0 123 -22 163 -65v55h86v-470c0 -160 -115 -234 -250 -234zM302 85c75 0 127 35 156 82v182
c-29 47 -81 82 -156 82c-100 0 -171 -76 -171 -173c0 -99 72 -173 171 -173z" />
    <glyph glyph-name="uni0433.locl" horiz-adv-x="443" 
d="M214 -10c-99 0 -173 54 -173 150c0 76 48 120 136 147l54 17c56 17 71 41 71 72c0 37 -41 60 -82 60c-49 0 -83 -25 -104 -57l-65 44c33 56 90 87 165 87c96 0 172 -52 172 -137c0 -71 -41 -122 -124 -146l-50 -16c-67 -20 -88 -42 -88 -78c0 -43 39 -67 87 -67
c55 0 109 28 128 79l70 -39c-31 -79 -106 -116 -197 -116z" />
    <glyph glyph-name="uni0438.locl" horiz-adv-x="579" 
d="M497 500v-500h-85v63c-35 -51 -95 -73 -151 -73c-109 0 -188 78 -188 203v307h86v-294c0 -88 46 -137 121 -137c64 0 111 40 132 99v332h85z" />
    <glyph glyph-name="uni0414.locl" horiz-adv-x="726" 
d="M18 -148v236h66l239 622h78l241 -622h65v-236h-87v148h-514v-148h-88zM361 568l-183 -480h367z" />
    <glyph glyph-name="uni043A.locl" horiz-adv-x="524" 
d="M417 0l-250 223v-223h-86v730h86v-452l222 222h109l-245 -245l282 -255h-118z" />
    <glyph glyph-name="uni0439.locl" horiz-adv-x="579" 
d="M497 500v-500h-85v63c-35 -51 -95 -73 -151 -73c-109 0 -188 78 -188 203v307h86v-294c0 -88 46 -137 121 -137c64 0 111 40 132 99v332h85zM285 561c-88 0 -159 60 -159 159v10h66v-10c0 -60 37 -100 93 -100s93 40 93 100v10h66v-10c0 -99 -71 -159 -159 -159z" />
    <glyph glyph-name="uni0436.locl" horiz-adv-x="778" 
d="M668 0l-236 222v-222h-86v222l-236 -222h-114l268 255l-233 245h107l208 -222v452h86v-452l209 222h106l-233 -245l268 -255h-114z" />
    <glyph glyph-name="uni0431.locl" horiz-adv-x="601" 
d="M73 581c0 89 64 149 213 149h189l14 -77h-202c-80 0 -129 -20 -129 -79s49 -79 129 -79h19c153 0 253 -113 253 -245c0 -145 -110 -260 -258 -260c-150 0 -258 115 -258 260c0 88 42 165 113 206c-47 20 -82 65 -83 125zM300 70c101 0 171 76 171 179
c0 96 -70 169 -171 169c-104 0 -170 -73 -170 -169c0 -103 70 -179 170 -179z" />
    <glyph glyph-name="uni044E.locl" horiz-adv-x="804" 
d="M511 -10c-134 0 -232 97 -248 226h-96v-216h-86v730h86v-437h97c19 124 115 217 247 217c147 0 251 -115 251 -260s-104 -260 -251 -260zM511 71c96 0 163 79 163 179s-67 179 -163 179s-162 -77 -162 -179c0 -100 66 -179 162 -179z" />
    <glyph glyph-name="uni043B.locl" horiz-adv-x="546" 
d="M6 0l231 500h72l231 -500h-96l-171 378l-171 -378h-96z" />
    <glyph glyph-name="uni044A.locl" horiz-adv-x="572" 
d="M355 -10h-12c-132 0 -186 77 -186 165v266h-140v79h226v-180h112c132 0 186 -81 186 -165s-54 -165 -186 -165zM456 155c0 58 -35 87 -105 87h-108v-86c0 -59 35 -89 106 -89s107 29 107 88z" />
    </font>
</defs>
</svg>
