<?xml version="1.0" standalone="no"?>
<!DOCTYPE svg PUBLIC "-//W3C//DTD SVG 1.1//EN" "http://www.w3.org/Graphics/SVG/1.1/DTD/svg11.dtd" >
<svg xmlns="http://www.w3.org/2000/svg" xmlns:xlink="http://www.w3.org/1999/xlink" version="1.1">
<metadata>
Created by FontForge 20201107 at Mon May 28 13:31:19 2018
 By Jimmy Wärting
Copyright (c) 2018 by Nikola Nikolov. All rights reserved.  This font may not be reproduced, used, displayed, modified, disclosed or transferred without the express written approval of the designer of the font Nikola E. Nikolov. Orborn is original artwork of Nikola E. Nikolov. The design may be protected in certain jurisdictions.
</metadata>
<defs>
<font id="Orborn-Regular" horiz-adv-x="579" >
  <font-face 
    font-family="Orborn "
    font-weight="400"
    font-stretch="normal"
    units-per-em="1000"
    panose-1="0 0 0 0 0 0 0 0 0 0"
    ascent="800"
    descent="-200"
    x-height="527"
    cap-height="676"
    bbox="17.0488 -251 1368 903"
    underline-thickness="50"
    underline-position="-125"
    unicode-range="U+000D-FB04"
  />
<missing-glyph horiz-adv-x="303" 
 />
    <glyph glyph-name=".notdef" horiz-adv-x="303" 
 />
    <glyph glyph-name="uni000D" unicode="&#xd;" horiz-adv-x="600" 
 />
    <glyph glyph-name="space" unicode=" " horiz-adv-x="303" 
 />
    <glyph glyph-name="exclam" unicode="!" horiz-adv-x="328" 
d="M235 209h-112v471h112v-471zM235 1h-112v111h112v-111z" />
    <glyph glyph-name="quotedbl" unicode="&#x22;" horiz-adv-x="345" 
d="M191 424v132h100v-132h-100zM52 424v132h100v-132h-100z" />
    <glyph glyph-name="numbersign" unicode="#" horiz-adv-x="708" 
d="M292 17l229 490h93l-230 -490h-92zM87 17l230 490h92l-229 -490h-93zM105 309l39 84h541l-39 -84h-541zM23 134l39 84h542l-39 -84h-542z" />
    <glyph glyph-name="dollar" unicode="$" horiz-adv-x="794" 
d="M705 306q1 -7 1 -14v-15q0 -50 -15 -95q-12 -39 -35 -73q-36 -57 -91 -92t-121 -46v-52h-120v57q-12 3 -24 7t-24 9q-56 24 -98 66q-44 43 -66 99q-25 56 -25 120v3h120v-3q0 -39 15 -73.5t40.5 -60t60.5 -40.5t74 -15q48 0 90.5 22.5t68.5 63.5q16 25 24 56l-446 193v39
q0 52 19.5 99t56.5 84q45 47 108 65v61h120v-54q65 -11 116.5 -51.5t77.5 -102.5q21 -48 21 -101h-120q0 27 -11 54q-17 38 -52 61.5t-77 23.5q-48 0 -85 -28.5t-49 -73.5l424 -183z" />
    <glyph glyph-name="percent" unicode="%" horiz-adv-x="1034" 
d="M642 667l-335 -719h132l336 719h-133zM792 -74q-42 0 -79.5 16t-65.5 43t-44 64t-16 79t16 78.5t44 64t65.5 43.5t79.5 16t79 -16t65 -43.5t44 -64t16 -78.5q0 -41 -15.5 -78t-44.5 -66q-29 -28 -66 -43t-78 -15zM792 218q-20 0 -36.5 -7t-29.5 -19t-20 -28.5t-7 -35.5
t7 -35.5t20 -29t29.5 -19.5t36.5 -7q37 0 66 27q26 26 26 64q0 19 -7 35.5t-19.5 28.5t-29.5 19t-36 7zM287 270q-42 0 -79.5 16t-65.5 43t-44 64t-16 79t16 78.5t44 64t65.5 43.5t79.5 16t79 -16t65 -43.5t44 -64t16 -78.5q0 -41 -15.5 -78t-44.5 -66q-29 -28 -66 -43
t-78 -15zM287 562q-20 0 -36.5 -7t-29.5 -19t-20 -28.5t-7 -35.5t7 -35.5t20 -29t29.5 -19.5t36.5 -7q37 0 66 27q26 26 26 64q0 19 -7 35.5t-19.5 28.5t-29.5 19t-36 7z" />
    <glyph glyph-name="ampersand" unicode="&#x26;" horiz-adv-x="722" 
d="M611 -95l-70 76q-35 -29 -79 -48q-29 -13 -60 -19t-63 -6q-66 0 -123 25q-58 25 -100 67q-44 44 -68 101q-25 59 -25 122q0 13 1 25t3 24h123q-3 -12 -5 -24t-2 -25q0 -40 15.5 -75.5t42 -62t62 -42t76.5 -15.5q34 0 64.5 11t55.5 31l-334 362v24q0 42 16 78.5t43 64
t64 43.5t79 16q61 0 112 -33t74 -90q16 -36 16 -79h-120q0 17 -6 32q-10 23 -30.5 36.5t-45.5 13.5q-29 0 -50.5 -17.5t-29.5 -44.5l280 -304q7 24 7 51q0 25 -6 49h122q2 -12 3 -24t1 -25q0 -32 -6 -62.5t-19 -59.5q-5 -15 -12 -26l82 -89z" />
    <glyph glyph-name="quotesingle" unicode="'" horiz-adv-x="158" 
d="M23 465v130h112v-130h-112z" />
    <glyph glyph-name="parenleft" unicode="(" horiz-adv-x="357" 
d="M334 -164q-14 4 -28 8.5t-27 10.5q-38 15 -71.5 38t-63.5 52q-29 29 -51.5 61.5t-36.5 70.5q-33 78 -33 165q0 41 8 82.5t25 80.5q15 37 37.5 70.5t50.5 62.5q30 29 63.5 50.5t71.5 37.5q13 7 27 11l28 8v-119q-42 -17 -78 -45.5t-62.5 -66t-41.5 -81.5t-15 -91
q0 -48 15 -92.5t41.5 -82t62.5 -66.5t78 -46v-119z" />
    <glyph glyph-name="parenright" unicode=")" horiz-adv-x="355" 
d="M23 -41q42 16 77.5 44t61.5 65t40.5 80.5t14.5 91.5t-14.5 91.5t-40.5 80t-61.5 64.5t-77.5 44v121q26 -6 56 -20q38 -17 71.5 -38t61.5 -50q28 -28 49.5 -61t37.5 -71q17 -38 25 -79t8 -82q0 -42 -7 -82.5t-24 -79.5q-15 -38 -37 -70.5t-50 -60.5q-27 -27 -62 -49.5
t-73 -39.5q-14 -6 -28.5 -11.5t-27.5 -8.5v121z" />
    <glyph glyph-name="asterisk" unicode="*" horiz-adv-x="371" 
d="M225 303h-79v329h79v-329zM63 351l-40 68l285 165l40 -68zM308 351l-285 165l40 68l285 -165z" />
    <glyph glyph-name="plus" unicode="+" horiz-adv-x="478" 
d="M455 262h-156v-153h-120v153h-156v120h156v153h120v-153h156v-120z" />
    <glyph glyph-name="comma" unicode="," horiz-adv-x="282" 
d="M97 36l99 52v-137l-100 -52z" />
    <glyph glyph-name="hyphen.001" horiz-adv-x="369" 
d="M346 181h-323v118h323v-118z" />
    <glyph glyph-name="period" unicode="." horiz-adv-x="249" 
d="M70 -11h105v112h-105v-112z" />
    <glyph glyph-name="slash" unicode="/" horiz-adv-x="523" 
d="M500 673l-345 -738h-132l344 738h133z" />
    <glyph glyph-name="zero" unicode="0" horiz-adv-x="703" 
d="M351 0q-68 0 -128 25q-59 25 -104 71q-46 45 -71 104q-25 60 -25 128q0 69 25 128t71 105t104 70q31 14 63 20t65 6q70 0 128 -26q58 -23 105 -70t70 -105q26 -61 26 -128q0 -65 -26 -128q-24 -58 -70 -104t-105 -71t-128 -25zM351 544q-45 0 -84 -17t-68.5 -46
t-46.5 -68.5t-17 -84.5t17 -84t46.5 -68.5t68.5 -46.5t84 -17t84 17t68.5 46.5t46.5 68.5t17 84t-17 84.5t-46.5 68.5t-68.5 46t-84 17z" />
    <glyph glyph-name="one" unicode="1" horiz-adv-x="372" 
d="M235 0v505l-135 -125l-77 83l210 194h116v-657h-114z" />
    <glyph glyph-name="two" unicode="2" horiz-adv-x="542" 
d="M250 0q-29 0 -55.5 3.5t-52.5 15.5q-55 25 -87 74t-32 110q0 40 15 76.5t40.5 63.5t60.5 43.5t76 18.5q21 1 42.5 0.5t42.5 -0.5h18.5t18.5 1q29 2 48.5 22.5t19.5 49.5q0 13 -5 26q-12 30 -36 38t-53 8h-100v112h100q26 0 50.5 -2.5t48.5 -13.5q49 -22 79 -68.5
t30 -100.5q0 -37 -13.5 -69.5t-37.5 -57.5t-56 -40.5t-69 -15.5h-79h-21t-21 -1q-38 -3 -62 -28t-24 -63q0 -26 13.5 -47.5t37.5 -32.5q15 -7 31.5 -8t33.5 -1h240v-113h-242z" />
    <glyph glyph-name="three" unicode="3" horiz-adv-x="520" 
d="M24 0v112h245q17 0 33 1.5t31 8.5q24 11 38.5 33t14.5 48q0 16 -7 35q-10 25 -25.5 37t-34.5 16.5t-40.5 4t-42.5 -0.5h-95v114h97q19 0 35 13t23 30q5 13 5 25t-5 25q-10 24 -29.5 33t-44.5 9h-135v113h125q25 0 49.5 -3t47.5 -14q48 -22 76.5 -66.5t28.5 -97.5
q0 -22 -6.5 -48t-18.5 -43l3 -2q49 -29 78 -74t29 -104q0 -29 -8.5 -57.5t-24.5 -53.5t-38 -44.5t-49 -31.5q-26 -11 -53.5 -14.5t-55.5 -3.5h-246z" />
    <glyph glyph-name="four" unicode="4" horiz-adv-x="504" 
d="M368 0v179h-345v116l344 361h114v-656h-113zM368 293v200l-191 -200h191z" />
    <glyph glyph-name="five" unicode="5" horiz-adv-x="540" 
d="M241 405q63 1 85 0q41 -3 76 -19.5t60.5 -43t40 -62t14.5 -77.5q0 -50 -18 -87.5t-49 -63.5t-72 -39t-87 -13h-230v112h229q22 0 42.5 4.5t36.5 15t25.5 27.5t9.5 43q0 17 -6.5 33t-18 29t-27 20.5t-33.5 7.5h-76h-45q-36 2 -68 17t-55.5 40t-37.5 57.5t-14 68.5v183h313
v-114h-200v-67q0 -20 11.5 -38.5t29.5 -26.5q13 -6 31.5 -6.5t32.5 -0.5z" />
    <glyph glyph-name="six" unicode="6" horiz-adv-x="559" 
d="M327 509q46 -9 84 -32t66 -56.5t43.5 -75.5t15.5 -89q0 -54 -20 -100.5t-55 -81t-82 -54.5t-100 -20t-100 20t-81.5 54.5t-54.5 81.5t-20 100q0 52 19.5 99.5t56.5 84.5l216 217h159zM279 112q30 0 56 11.5t45.5 31t31 45.5t11.5 56t-11.5 56t-31 45.5t-45.5 31t-56 11.5
t-56 -11.5t-45.5 -31t-31 -45.5t-11.5 -56t11.5 -56t31 -45.5t45.5 -31t56 -11.5z" />
    <glyph glyph-name="seven" unicode="7" horiz-adv-x="462" 
d="M439 545l-289 -545h-127l288 545h-275v113h403v-113z" />
    <glyph glyph-name="eight" unicode="8" horiz-adv-x="630" 
d="M579 306q28 -59 19 -120q-4 -32 -17 -61t-33 -52t-45.5 -38.5t-54.5 -24.5q-23 -7 -45 -8.5t-39 -1.5h-98q-17 0 -39 1.5t-45 8.5q-29 9 -54.5 24.5t-45.5 38.5t-33 52t-17 61q-9 61 19 120q28 56 78 87q-29 44 -27 98q1 34 14.5 65t37.5 54q26 25 60 37q25 8 50 10h103
q25 -2 49 -10q34 -12 60 -37q50 -48 52 -119q2 -54 -27 -98q50 -31 78 -87zM215 487q-2 -24 15 -42q7 -7 19 -12q10 -5 27 -6h78q16 1 27 6q12 5 19 12q17 18 15 42q0 24 -18 42q-9 9 -20 12q-9 4 -32 4h-60q-23 0 -32 -4q-11 -3 -20 -12q-18 -18 -18 -42zM487 201
q3 30 -10 55q-12 27 -38 43q-15 8 -29 11q-13 4 -39 4h-112q-26 0 -39 -4q-14 -3 -29 -11q-26 -16 -38 -43q-13 -25 -10 -55q5 -32 24 -53q9 -11 21 -18t26 -12q13 -4 27 -5t26 -1h96q12 0 26 1t27 5q14 5 26 12t21 18q19 21 24 53z" />
    <glyph glyph-name="nine" unicode="9" horiz-adv-x="559" 
d="M232 148q-38 8 -72 25.5t-62 45.5q-37 37 -56 83.5t-19 98.5q0 51 19 98t56 83q36 37 83 56t99 19q51 0 98 -19t83 -56q37 -36 56 -83t19 -98q0 -52 -19 -98.5t-56 -83.5l-1 -2l-216 -217h-159zM280 545q-30 0 -56.5 -11.5t-46 -31t-30.5 -45.5t-11 -56t11 -56.5
t30.5 -46t46 -30.5t56.5 -11t56 11t45.5 30.5t31 46t11.5 56.5t-11.5 56t-31 45.5t-45.5 31t-56 11.5z" />
    <glyph glyph-name="colon" unicode=":" horiz-adv-x="206" 
d="M23 35l45 137h115l-45 -137h-115zM50 306v133h115v-133h-115z" />
    <glyph glyph-name="semicolon" unicode=";" horiz-adv-x="161" 
d="M23 54v134h115v-134h-115zM23 300v134h115v-134h-115z" />
    <glyph glyph-name="less" unicode="&#x3c;" horiz-adv-x="348" 
d="M183 249l142 -142l-80 -80l-222 222l222 222l80 -80z" />
    <glyph glyph-name="equal" unicode="=" horiz-adv-x="377" 
d="M354 152h-331v120h331v-120zM354 343h-331v120h331v-120z" />
    <glyph glyph-name="greater" unicode="&#x3e;" horiz-adv-x="348" 
d="M23 390l80 80l222 -222l-222 -222l-80 80l142 142z" />
    <glyph glyph-name="question" unicode="?" horiz-adv-x="650" 
d="M319 112h109v-113h-109v113zM505 646q77 -77 77 -186q0 -53 -19.5 -100.5t-57.5 -85.5q-37 -37 -85 -57t-101 -20v108q32 0 60 12.5t49 33.5t33 49t12 60t-12 60.5t-33 49.5t-49 33t-60 12t-60 -12t-49 -33t-33.5 -49.5t-12.5 -60.5h-108q0 54 20 101t58 85q36 38 84 58
t101 20t101 -20t85 -58z" />
    <glyph glyph-name="at" unicode="@" horiz-adv-x="744" 
d="M372 -24q-71 0 -135 27q-32 14 -59.5 32t-51.5 42t-43 51t-32 58q-28 67 -28 135q0 69 28 134q13 31 32 58.5t43 51.5q50 48 111 73q64 27 135 27t136 -27q62 -26 111 -73q48 -48 75 -110q27 -63 27 -134q0 -33 -12.5 -62t-34.5 -50.5t-51 -34t-62 -12.5t-62 12t-51 33
t-34.5 49.5t-13.5 60.5v7q0 8 -6 13.5t-14 5.5q-9 0 -14.5 -5.5t-5.5 -13.5q0 -19 20 -19v-120q-29 0 -54.5 11t-44.5 29.5t-30 44t-11 54.5q0 28 11 53.5t30 44t44.5 29.5t54.5 11q28 0 53.5 -10.5t44 -29t30 -43t11.5 -52.5l1 -3v-3q0 -17 12 -28t29 -11t29 11t12 28
q0 46 -18 87t-49.5 71.5t-73 48t-89.5 17.5q-47 0 -89 -17.5t-73 -48t-49 -71.5t-18 -87q0 -47 18 -87.5t49 -71.5t73 -48.5t89 -17.5q37 0 71 11t63 31l2 2l71 -97q-2 -1 -4 -3q-91 -64 -203 -64z" />
    <glyph glyph-name="B" unicode="B" horiz-adv-x="735" 
d="M123 792v-218q19 19 43 37.5t54 33.5t66 24t80 9q70 0 133 -26t110.5 -72t75 -107.5t27.5 -132.5t-27.5 -133t-75 -108t-110 -72.5t-133.5 -26.5t-133 26.5t-109 72.5t-74 108t-27 133v452h100zM366 103q49 0 91.5 19t74 51.5t49.5 75.5t18 91q0 49 -18 91.5t-49.5 74.5
t-74 50.5t-91.5 18.5t-91.5 -18.5t-73.5 -50.5t-49 -75t-18 -91q0 -49 18 -92t49 -75t73.5 -51t91.5 -19z" />
    <glyph glyph-name="C" unicode="C" horiz-adv-x="657" 
d="M545 184l89 -62l-22 -23q-102 -99 -244 -99q-71 0 -133.5 26t-109.5 71.5t-74.5 107t-27.5 133.5q0 71 27.5 133t75 107.5t110 72t132.5 26.5q78 0 146 -31.5t119 -91.5l-89 -61q-35 36 -78.5 58t-97.5 22q-49 0 -91.5 -18.5t-73.5 -50.5t-49 -74.5t-18 -91.5t18 -91.5
t49 -74.5t73.5 -50.5t91.5 -18.5q48 0 91 18.5t86 62.5z" />
    <glyph glyph-name="D" unicode="D" horiz-adv-x="633" 
d="M23 0v675h249q70 0 131.5 -27t107.5 -73t72.5 -107.5t26.5 -131.5q0 -69 -27 -130.5t-73 -107t-107.5 -72t-130.5 -26.5h-249zM126 106h137q49 0 91.5 18t74.5 49.5t50.5 73.5t18.5 90q0 49 -18 91.5t-49.5 74t-74.5 50t-93 18.5h-137v-465z" />
    <glyph glyph-name="E" unicode="E" horiz-adv-x="811" 
d="M360 0q-70 0 -131.5 26.5t-107 72.5t-72 107.5t-26.5 130.5q0 67 26 129.5t75 108.5v1q55 54 112 74h1q63 26 131 26q50 0 98 -14.5t89.5 -41t75 -64t54.5 -82.5l-258 -377h361v-97h-428zM275 115l17 -7l262 378q-34 44 -82 67.5t-104 23.5q-50 0 -93 -19t-75 -51.5
t-50 -76.5t-18 -93q0 -35 10 -69t29 -63t45 -52.5t59 -37.5z" />
    <glyph glyph-name="F" unicode="F" horiz-adv-x="479" 
d="M25 0v417q0 54 20.5 101.5t56 82.5t83 55t100.5 20h171v-110h-173q-31 0 -58 -12t-47.5 -32t-32 -47t-11.5 -58v-39h256v-112h-255v-266h-110z" />
    <glyph glyph-name="G" unicode="G" horiz-adv-x="736" 
d="M424 362h288l1 -24q0 -71 -27.5 -133t-75 -107.5t-110.5 -71.5t-133 -26q-139 0 -244 99q-100 97 -100 238q0 72 27 134t73.5 108t109.5 72t134 26q52 0 101.5 -15.5t92 -43.5t75.5 -67.5t53 -87.5h-124q-31 52 -84.5 81t-113.5 29q-49 0 -91.5 -18.5t-73.5 -50.5
t-49 -74.5t-18 -91.5t17.5 -92t49 -74.5t74 -49.5t91.5 -18q37 0 71.5 11t64 31.5t51.5 49.5t34 64h-164v102z" />
    <glyph glyph-name="H" unicode="H" horiz-adv-x="736" 
d="M601 0v325q0 48 -18 91t-49.5 75.5t-74 51.5t-91.5 19t-91.5 -18.5t-74 -51t-49.5 -75.5t-18 -92v-325h-112v786h112v-207l32 23q86 63 201 63q71 0 134 -26t109.5 -71.5t74 -107.5t27.5 -134v-326h-112z" />
    <glyph glyph-name="I" unicode="I" horiz-adv-x="167" 
d="M23 0v676h120v-676h-120z" />
    <glyph glyph-name="J" unicode="J" horiz-adv-x="542" 
d="M23 0v103h150q49 0 91.5 18t74 49.5t49.5 74.5t18 92v245h-119v94h232v-339q0 -71 -27.5 -132.5t-75 -107t-110 -71.5t-133.5 -26h-150z" />
    <glyph glyph-name="K" unicode="K" horiz-adv-x="663" 
d="M522 0v75q0 48 -17.5 89.5t-48 72.5t-72 48.5t-89.5 17.5h-151v-303h-121v676h121v-263h127l178 263h138l-187 -278l19 -7q50 -20 91 -52t70 -72.5t44.5 -89t15.5 -102.5v-75h-118z" />
    <glyph glyph-name="L" unicode="L" horiz-adv-x="449" 
d="M371 0q-71 0 -134 25.5t-110.5 70.5t-75.5 106.5t-28 133.5v340h113v-339q0 -49 18.5 -91.5t50.5 -74t75 -50t91 -18.5h55v-103h-55z" />
    <glyph glyph-name="M" unicode="M" horiz-adv-x="997" 
d="M861 0v417q0 31 -13 58t-35 47t-50 31t-58 11q-31 0 -58 -11.5t-46.5 -31t-31 -46.5t-11.5 -58v-417h-118v417q0 31 -11 58t-31 46.5t-46.5 31t-57.5 11.5t-59.5 -11t-50.5 -31t-35 -47t-13 -58v-417h-113v417q0 55 22.5 102t60 82t86.5 55t102 20q56 0 104 -21t87 -61
l14 -15l15 15q37 40 87 61t104 21q52 0 99.5 -19.5t84 -53.5t59.5 -79.5t26 -97.5v-426h-113z" />
    <glyph glyph-name="N" unicode="N" horiz-adv-x="737" 
d="M714 338v-338h-113v338q0 48 -18 91t-50 75t-74.5 50.5t-90.5 18.5q-49 0 -91 -18.5t-73.5 -50.5t-49.5 -75t-18 -91v-338h-113v338q0 71 27.5 133t74.5 108t109.5 72t133.5 26t133.5 -26t110 -72t75 -108t27.5 -133z" />
    <glyph glyph-name="O" unicode="O" horiz-adv-x="736" 
d="M367 0q-71 0 -133.5 26t-109.5 71.5t-74 107t-27 133.5q0 71 27.5 133t74 107.5t109 72t133.5 26.5t133.5 -26t110 -72t75 -108t27.5 -133q0 -72 -27.5 -133.5t-74.5 -107t-110 -71.5t-134 -26zM367 573q-49 0 -91 -18.5t-73.5 -50.5t-49.5 -74.5t-18 -91.5t18 -92
t49 -74.5t73.5 -50t91.5 -18.5t92 18.5t74 50t49 74.5t18 92t-18 91.5t-49.5 74.5t-74 50.5t-91.5 18.5z" />
    <glyph glyph-name="P" unicode="P" horiz-adv-x="737" 
d="M23 -156v494q0 70 27.5 132t75 108t110 72.5t132.5 26.5t133 -26.5t110.5 -72t75 -107.5t27.5 -133t-27.5 -133t-75 -107.5t-110 -71.5t-133.5 -26q-111 0 -201 64l-31 23v-243h-113zM368 573q-49 0 -91.5 -18.5t-73.5 -50.5t-49 -74.5t-18 -91.5t17.5 -92t49 -74.5
t74 -50t91.5 -18.5q50 0 92.5 18t73.5 50t49 75t18 92t-18 92t-49.5 74.5t-74 50t-91.5 18.5z" />
    <glyph glyph-name="Q" unicode="Q" horiz-adv-x="736" 
d="M316 -113v117l-17 2q-99 17 -174 92v1q-102 96 -102 238q0 71 27.5 133t74 107.5t109.5 72t133 26.5q71 0 134 -26t110 -72t74.5 -107.5t27.5 -133.5q0 -142 -102 -238q-76 -76 -175 -93l-16 -3v-116h-104zM367 573q-49 0 -91.5 -18.5t-73.5 -51t-49 -75t-18 -91.5
t18 -91.5t49 -74.5t73.5 -50t91.5 -18t92 18t74.5 49.5t49.5 74.5t18 92t-18 92t-49.5 75t-74.5 50.5t-92 18.5z" />
    <glyph glyph-name="R" unicode="R" horiz-adv-x="471" 
d="M23 0v341q0 72 27.5 133.5t75 106.5t110.5 71t133 26h79v-106h-77q-48 0 -90.5 -18t-74 -49.5t-50 -74t-18.5 -90.5v-340h-115z" />
    <glyph glyph-name="S" unicode="S" horiz-adv-x="568" 
d="M27 0v103h333q37 2 57.5 30t20.5 63q0 38 -27 64.5t-65 26.5h-130q-41 2 -76 17t-61 41.5t-41 61.5t-15 75t15.5 76t42 62.5t62 42t75.5 15.5h182v-103h-182q-37 -3 -64 -28.5t-27 -64.5q0 -38 26.5 -65t65.5 -27h131q40 0 75.5 -15.5t62 -42.5t42 -62.5t15.5 -74.5
q0 -41 -14.5 -75t-42.5 -63q-30 -28 -63.5 -42.5t-74.5 -14.5h-323z" />
    <glyph glyph-name="T" unicode="T" horiz-adv-x="461" 
d="M369 0q-71 0 -134 26t-110 71.5t-74.5 107t-27.5 133.5v495h114v-154h115v-103h-115v-238q0 -33 11.5 -66.5t31.5 -63t47 -52.5t58 -35q37 -15 86 -18h67v-103h-69z" />
    <glyph glyph-name="U" unicode="U" horiz-adv-x="736" 
d="M135 677v-338q0 -48 18.5 -91t50 -75t74 -51t90.5 -19t90.5 19t74.5 51t50 75t18 91v338h112v-338q0 -72 -27.5 -133.5t-74 -107.5t-109.5 -72t-134 -26t-134 26t-109.5 72t-74 107.5t-27.5 133.5v338h112z" />
    <glyph glyph-name="V" unicode="V" horiz-adv-x="813" 
d="M790 678h-122l-261 -550l-262 550h-122l323 -678h121z" />
    <glyph glyph-name="W" unicode="W" horiz-adv-x="830" 
d="M367 0q-71 0 -133.5 26t-109.5 71.5t-74 107.5t-27 133v339h112v-339q0 -44 15 -84t42 -71.5t64.5 -52t81.5 -25.5l22 -2v161h109v-161l22 2q45 5 82 25.5t64.5 51.5t42.5 71t15 85v339h112v-339q0 -71 -27.5 -133t-74.5 -107.5t-110 -71.5t-133 -26h-95z" />
    <glyph glyph-name="X" unicode="X" horiz-adv-x="733" 
d="M568 0l-201 258l-202 -258h-142l273 349l-257 328h141l187 -238l186 238h141l-257 -328l273 -349h-142z" />
    <glyph glyph-name="Y" unicode="Y" horiz-adv-x="747" 
d="M314 0v255l-15 3q-56 10 -106.5 39.5t-88 72.5t-59.5 96.5t-22 111.5v99h112v-91q0 -50 18.5 -92.5t50.5 -74t75 -49t92 -17.5q50 0 94 17.5t76.5 48.5t51.5 74t19 93v91h112v-91q0 -60 -21.5 -115t-59 -99t-88 -73.5t-109.5 -40.5l-16 -3v-255h-116z" />
    <glyph glyph-name="Z" unicode="Z" horiz-adv-x="576" 
d="M23 0v125l352 451h-342v101h478v-121l-351 -448h393v-108h-530z" />
    <glyph glyph-name="bracketleft" unicode="[" horiz-adv-x="249" 
d="M134 668v-739h92v-111h-203v961h203v-111h-92z" />
    <glyph glyph-name="backslash" unicode="\" horiz-adv-x="523" 
d="M156 673l344 -738h-132l-345 738h133z" />
    <glyph glyph-name="bracketright" unicode="]" horiz-adv-x="249" 
d="M23 668v111h203v-961h-203v111h92v739h-92z" />
    <glyph glyph-name="asciicircum" unicode="^" horiz-adv-x="644" 
d="M621 351l-85 -85l-214 214l-214 -214l-85 85l299 299z" />
    <glyph glyph-name="underscore" unicode="_" horiz-adv-x="400" 
d="M23 99h354v-102h-354v102z" />
    <glyph glyph-name="grave" unicode="`" horiz-adv-x="361" 
d="M182 476l-159 159h156l159 -159h-156z" />
    <glyph glyph-name="a" unicode="a" 
d="M556 0h-103v56q-2 -2 -4 -3q-2 -2 -3 -2.5t-2 -1.5q-69 -49 -154 -49q-109 0 -188 77q-79 76 -79 186q0 109 79 187q79 77 188 77q108 0 187 -77q79 -78 79 -187v-263zM400 152q45 46 45 111t-45 112q-45 48 -110 48q-66 0 -111 -48q-45 -47 -45 -112t45 -111
q45 -47 111 -47q65 0 110 47z" />
    <glyph glyph-name="b" unicode="b" horiz-adv-x="578" 
d="M555 264q0 -109 -78 -187q-80 -77 -188 -77q-109 0 -188 77q-78 78 -78 187v378h110v-164q70 49 156 49q108 0 188 -77q78 -77 78 -186zM445 264q0 66 -46 112q-45 46 -110 46q-66 0 -111 -46q-45 -47 -45 -112q0 -66 45 -112q44 -47 111 -47q66 0 110 47q46 46 46 112z
" />
    <glyph glyph-name="c" unicode="c" horiz-adv-x="526" 
d="M503 107q-6 -8 -12 -15.5t-14 -14.5q-80 -77 -188 -77q-109 0 -188 77q-78 76 -78 186q0 109 78 187q79 77 188 77q108 0 188 -77q7 -8 13.5 -15t12.5 -15l-89 -62q-7 10 -15 17q-44 47 -110 47q-65 0 -111 -47q-45 -47 -45 -112q0 -66 45 -112q46 -46 111 -46t110 46
q8 8 16 18z" />
    <glyph glyph-name="d" unicode="d" horiz-adv-x="503" 
d="M403 449q77 -77 77 -186q0 -108 -77 -185q-77 -78 -184 -78h-196v527h196q107 0 184 -78zM323 152q24 23 35.5 51t11.5 60t-11.5 61t-34.5 52q-47 45 -111 45h-86v-314h86q63 0 110 45z" />
    <glyph glyph-name="e" unicode="e" horiz-adv-x="633" 
d="M283 0q-55 1 -102.5 22t-82.5 56.5t-55 83t-20 101.5q0 55 21.5 103t57.5 84t84.5 56.5t102.5 20.5q40 0 78 -12t70.5 -33.5t58.5 -52t41 -67.5q-57 -84 -89.5 -131.5t-42.5 -61.5t-17.5 -25.5t-13.5 -20.5q-13 -17 -13 -19l-2 -3h251v-101h-327zM289 425
q-34 0 -62.5 -13t-50 -35t-33.5 -51.5t-12 -62.5q0 -47 26 -89t70 -61h2l178 259l-5 5q-46 48 -113 48z" />
    <glyph glyph-name="f" unicode="f" horiz-adv-x="392" 
d="M228 419q-20 0 -37 -7.5t-29.5 -20.5t-20 -30.5t-7.5 -36.5v-17h187v-111h-186v-195v-1h-112v322q0 42 16 79.5t44 65.5t65.5 44t79.5 16h141v-108h-141z" />
    <glyph glyph-name="g" unicode="g" 
d="M554 295q1 -8 1.5 -16t0.5 -16q0 -109 -79 -186q-78 -77 -188 -77q-111 0 -188 77q-78 76 -78 186q0 109 78 186q78 78 188 78q108 0 188 -78q49 -47 67 -108h-119q-11 18 -25 34q-47 47 -111 47q-65 0 -110 -47q-46 -46 -46 -112t46 -112q45 -46 110 -46t111 46
q9 9 16 19t12 21h-111v105h237v-1z" />
    <glyph glyph-name="h" unicode="h" 
d="M556 0h-111v254q0 65 -45 112q-45 48 -110 48q-64 0 -111 -47q-45 -48 -45 -112v-255h-111v608h111v-140q67 50 156 50q110 0 188 -77q78 -78 78 -187v-254z" />
    <glyph glyph-name="i" unicode="i" horiz-adv-x="169" 
d="M23 0v417h123v-417h-123zM23 463h123v93h-123v-93z" />
    <glyph glyph-name="j" unicode="j" horiz-adv-x="436" 
d="M413 527v-264q0 -110 -78 -186q-80 -77 -188 -77h-124v105h124q65 0 110 46q46 46 46 112v166h-87v98h1h86h110z" />
    <glyph glyph-name="k" unicode="k" horiz-adv-x="529" 
d="M506 68v-68h-112v68q0 33 -12 62t-33.5 50t-50 33.5t-61.5 12.5h-100v-226h-114v527h114v-196h75l132 196h133l-143 -213q38 -15 70 -39.5t54.5 -56.5t35 -70t12.5 -80z" />
    <glyph glyph-name="l" unicode="l" horiz-adv-x="368" 
d="M345 0h-55q-111 0 -188 76q-79 76 -79 186v265h110v-265q0 -63 46 -111q45 -47 111 -47h55v-104z" />
    <glyph glyph-name="m" unicode="m" horiz-adv-x="769" 
d="M746 0v329q-2 41 -19.5 77t-46.5 63t-66.5 42.5t-78.5 15.5q-45 0 -83.5 -17.5t-66.5 -47.5q-28 30 -66.5 47.5t-83.5 17.5q-42 0 -80.5 -16t-68 -44t-46.5 -65.5t-17 -79.5v-322h111v322q0 19 8.5 36.5t22.5 30t32 20t38 7.5q39 0 65.5 -27.5t26.5 -66.5v-322h115v322
q0 39 27 66.5t66 27.5q19 0 37.5 -7.5t32 -20t22 -30t8.5 -36.5v-322h111z" />
    <glyph glyph-name="n" unicode="n" horiz-adv-x="578" 
d="M445 263q0 63 -46 112q-44 47 -110 47t-110 -47q-46 -46 -46 -112v-263h-110v263q0 109 78 187q79 77 188 77t188 -77q78 -78 78 -187v-263h-110v263z" />
    <glyph glyph-name="o" unicode="o" 
d="M477 450q79 -78 79 -187q0 -110 -79 -186q-79 -77 -188 -77q-108 0 -188 77q-78 76 -78 186q0 109 78 187q80 77 188 77q109 0 188 -77zM400 151q45 46 45 112q0 65 -45 112q-46 47 -111 47q-66 0 -110 -47q-45 -47 -45 -112q0 -66 45 -112t110 -46t111 46z" />
    <glyph glyph-name="p" unicode="p" 
d="M477 450q79 -78 79 -187q0 -110 -79 -186q-79 -77 -188 -77q-87 0 -155 50v-165h-111v378q0 108 79 187q79 77 187 77q109 0 188 -77zM400 151q45 46 45 112q0 65 -45 112q-44 47 -111 47q-66 0 -110 -47q-45 -47 -45 -112q0 -66 45 -112t110 -46q66 0 111 46z" />
    <glyph glyph-name="q" unicode="q" 
d="M477 449q79 -78 79 -187q0 -110 -79 -186q-59 -59 -135 -72v-88h-105v88q-77 13 -135 72q-79 76 -79 186q0 109 79 187q79 77 187 77q109 0 188 -77zM400 150q45 46 45 112q0 65 -45 112q-44 47 -111 47q-66 0 -110 -47q-45 -47 -45 -112q0 -66 45 -112t110 -46
q66 0 111 46z" />
    <glyph glyph-name="r" unicode="r" horiz-adv-x="385" 
d="M179 376q-45 -47 -45 -111v-265h-111v265q0 108 79 186q77 76 188 76h72v-104h-72q-66 0 -111 -47z" />
    <glyph glyph-name="s" unicode="s" horiz-adv-x="456" 
d="M276 316q33 0 61.5 -13t49.5 -34.5t33.5 -50t12.5 -60.5q0 -33 -12.5 -61.5t-33.5 -50t-49.5 -34t-61.5 -12.5h-3h-247v104h253q21 2 35.5 17.5t14.5 36.5q0 22 -15.5 37.5t-37.5 15.5h-98q-32 1 -60.5 13.5t-49.5 34t-33 50t-12 60.5q0 33 12.5 61.5t33.5 50t49.5 34
t61.5 12.5h147v-104h-144h-3q-22 -1 -37.5 -16.5t-15.5 -37.5t15.5 -37.5t37.5 -15.5h3h91h2z" />
    <glyph glyph-name="t" unicode="t" horiz-adv-x="378" 
d="M355 105v-105h-65q-109 0 -188 77q-79 76 -79 186v379h111v-113h84v-105h-84v-161q0 -33 14 -61.5t37 -51.5t48 -33t58 -12h64z" />
    <glyph glyph-name="v" unicode="v" horiz-adv-x="666" 
d="M527 527l-194 -405l-194 405h-116l252 -527h116l252 527h-116z" />
    <glyph glyph-name="w" unicode="w" horiz-adv-x="648" 
d="M625 527v-264q0 -110 -79 -186q-59 -57 -133 -72q-28 -5 -55 -5h-69q-14 0 -27.5 1.5t-27.5 3.5q-74 15 -133 72q-78 76 -78 186v264h110v-264q0 -66 46 -112q37 -39 90 -45v117h109v-117q52 6 91 45q45 46 45 112v264h111z" />
    <glyph glyph-name="x" unicode="x" horiz-adv-x="606" 
d="M23 0l210 271l-199 256h140l129 -166l129 166h140l-199 -256l210 -271h-140l-140 181l-140 -181h-140z" />
    <glyph glyph-name="y" unicode="y" horiz-adv-x="587" 
d="M23 439v88h111v-82q0 -33 12 -62t33.5 -50t50.5 -33t62 -12q34 0 63 11.5t51 32.5t34.5 49.5t12.5 63.5v82h111v-82q0 -48 -16 -90.5t-45 -76t-68.5 -57t-85.5 -32.5v-189h-113v189q-44 9 -82.5 32t-67.5 56t-46 74.5t-17 87.5z" />
    <glyph glyph-name="z" unicode="z" horiz-adv-x="462" 
d="M23 0v111l242 313h-235v103h378v-108l-241 -311h272v-108h-416z" />
    <glyph glyph-name="braceleft" unicode="{" horiz-adv-x="309" 
d="M286 668v0h-92v-739h92v-111h-203v436h-60v111h60v414h203v-111z" />
    <glyph glyph-name="bar" unicode="|" horiz-adv-x="162" 
d="M139 -172h-116v898h116v-898z" />
    <glyph glyph-name="braceright" unicode="}" horiz-adv-x="309" 
d="M23 668v111h203v-414h60v-111h-60v-436h-203v111h92v739h-92z" />
    <glyph glyph-name="asciitilde" unicode="~" horiz-adv-x="536" 
d="M513 263q0 -32 -12 -60t-32.5 -49t-48.5 -33.5t-59 -12.5q-32 0 -59.5 12.5t-48.5 33.5t-33 49t-12 60q0 14 -9 24t-23 10t-23.5 -10t-9.5 -24h-120q0 32 12 60t33 49t48.5 33t59.5 12q31 0 59 -12t48.5 -33t32.5 -49t12 -60q0 -14 9.5 -24.5t23.5 -10.5t23 10.5t9 24.5
h120z" />
    <glyph glyph-name="sterling" unicode="&#xa3;" horiz-adv-x="630" 
d="M295 247q0 -43 -12 -83t-36 -74h352v-120h-576v120q31 0 59 12.5t48.5 33.5t32.5 49.5t12 61.5v50h-66v120h66v87q0 44 16.5 83.5t46.5 70.5q31 32 70.5 48.5t82.5 16.5q44 0 83.5 -16.5t70.5 -48.5q30 -31 46 -70.5t16 -83.5h-120q0 20 -7.5 38t-20.5 31.5t-30.5 21.5
t-37.5 8t-37 -8t-30.5 -21.5t-21 -31.5t-7.5 -38v-29v-58h151v-120h-151v-50z" />
    <glyph glyph-name="currency" unicode="&#xa4;" horiz-adv-x="639" 
d="M612 299q0 -42 -15 -85.5t-44 -86.5l63 -61l-65 -65l-62 63q-83 -57 -169 -57q-44 0 -87 14t-84 43l-62 -63l-64 65l63 61q-58 87 -58 172q0 42 14.5 85t43.5 84l-63 64l64 64l62 -62q41 29 84 42.5t87 13.5q88 0 169 -56l62 62l65 -64l-63 -64q29 -41 44 -84t15 -85z
M121 299q0 -41 15.5 -77.5t42.5 -63.5t63 -42.5t78 -15.5q41 0 77 15.5t62.5 42.5t41.5 63.5t15 77.5t-15 76.5t-41.5 62t-62.5 41.5t-77 15q-42 0 -78 -15t-63 -41.5t-42.5 -62t-15.5 -76.5z" />
    <glyph glyph-name="yen" unicode="&#xa5;" horiz-adv-x="735" 
d="M712 723q0 -72 -27 -136q-25 -61 -73 -111q-24 -24 -51.5 -43t-58.5 -32q-18 -8 -36.5 -13.5t-37.5 -9.5v-37h114v-120h-114v-48h81v-120h-81v-83h-120v83h-82v120h82v48h-114v120h114v37q-20 4 -38.5 9.5t-36.5 13.5q-61 25 -109 75q-24 24 -42 51.5t-32 59.5
q-27 64 -27 136h120q0 -48 17.5 -89.5t48.5 -73t71.5 -49.5t87.5 -18q46 0 87 18t71.5 49.5t48 73t17.5 89.5h120z" />
    <glyph glyph-name="brokenbar" unicode="&#xa6;" horiz-adv-x="154" 
d="M23 591h108v-322h-108v322zM23 187h108v-322h-108v322z" />
    <glyph glyph-name="section" unicode="&#xa7;" horiz-adv-x="456" 
d="M433 205q0 -31 -10.5 -58t-29.5 -48q19 -21 29.5 -48t10.5 -58q0 -33 -12.5 -61.5t-33.5 -50t-49.5 -34t-61.5 -12.5h-250v104h253v1q21 1 35.5 16.5t14.5 36.5q0 22 -15.5 37.5t-37.5 15.5h-98q-32 1 -60.5 13.5t-49.5 34t-33 50t-12 60.5q0 31 11 58t30 48
q-19 21 -30 48t-11 58q0 33 12.5 61.5t33.5 50t49.5 34t61.5 12.5h147v-104h-147q-22 -1 -37.5 -16.5t-15.5 -37.5t15.5 -37.5t37.5 -15.5h96q33 0 61.5 -13t49.5 -34.5t33.5 -50t12.5 -60.5zM329 205q0 22 -15.5 37.5t-37.5 15.5h-98h-1q-20 -2 -35 -17.5t-15 -36.5
q0 -22 15.5 -37.5t37.5 -15.5h89l10 1q21 1 35.5 16.5t14.5 36.5z" />
    <glyph glyph-name="dieresis" unicode="&#xa8;" horiz-adv-x="318" 
d="M23 811q0 21 15 36t36 15q22 0 37 -15t15 -36q0 -22 -15 -37t-37 -15q-21 0 -36 15t-15 37zM192 811q0 21 15 36t36 15q22 0 37 -15t15 -36q0 -22 -15 -37t-37 -15q-21 0 -36 15t-15 37z" />
    <glyph glyph-name="copyright" unicode="&#xa9;" horiz-adv-x="555" 
d="M403 176q-4 -5 -7 -8.5t-7 -8.5q-21 -20 -46.5 -30.5t-54.5 -10.5q-31 0 -56 10.5t-47 30.5q-41 41 -41 101q0 61 41 102q22 20 47 31.5t56 11.5q29 0 54.5 -11.5t46.5 -31.5q6 -7 14 -17l-47 -33q-2 3 -4 5.5t-4 4.5q-26 24 -60 24q-36 0 -61 -24q-24 -26 -24 -62
q0 -35 24 -60q25 -25 61 -25q35 0 60 25l8 9zM458 441q35 -36 54.5 -82.5t19.5 -97.5q0 -52 -19.5 -98t-54.5 -82q-37 -37 -83.5 -56t-96.5 -19q-52 0 -98.5 19t-82.5 56q-74 74 -74 180q0 51 19 97.5t55 82.5q36 37 82.5 56t98.5 19q50 0 96.5 -19t83.5 -56zM278 36
q46 0 87 18t71.5 48.5t48.5 71.5t18 87q0 47 -18 88t-48.5 71.5t-71.5 48t-87 17.5q-47 0 -88.5 -17.5t-72 -48t-48 -71.5t-17.5 -88q0 -46 17.5 -87t48 -71.5t72 -48.5t88.5 -18z" />
    <glyph glyph-name="guillemotleft" unicode="&#xab;" horiz-adv-x="548" 
d="M224 187l71 -71l-64 -64l-135 135v0l-73 73l73 72v0l135 135l64 -64l-71 -71v0l-73 -72zM454 187l71 -71l-64 -64l-135 135v0l-73 73l73 72v0l135 135l64 -64l-71 -71v0l-73 -72z" />
    <glyph glyph-name="logicalnot" unicode="&#xac;" horiz-adv-x="525" 
d="M502 314v-314h-107v207h-372v107h479z" />
    <glyph glyph-name="uni00AD" unicode="&#xad;" horiz-adv-x="392" 
d="M369 314v-107h-346v107h346z" />
    <glyph glyph-name="registered" unicode="&#xae;" horiz-adv-x="555" 
d="M457 442q37 -37 56 -83t19 -97q0 -52 -19 -98t-56 -82q-36 -36 -82 -55.5t-97 -19.5q-52 0 -98.5 19.5t-82.5 55.5q-74 74 -74 180q0 51 19 97t55 83q36 36 82.5 55t98.5 19q51 0 97 -19t82 -55zM278 37q46 0 87 17.5t71.5 48.5t48.5 71.5t18 87.5q0 46 -18 87t-48.5 72
t-71.5 48.5t-87 17.5q-47 0 -88 -17.5t-71.5 -48.5t-48 -72t-17.5 -87q0 -47 17.5 -87.5t48 -71.5t71.5 -48.5t88 -17.5zM366 111l-79 109h-59v-109h-55v312h122q42 0 72 -30q14 -14 21.5 -33t7.5 -39q0 -27 -13.5 -50.5t-36.5 -37.5h-1l89 -122h-68zM228 274h67
q20 0 33 13.5t13 33.5t-13 33.5t-33 13.5h-67v-94z" />
    <glyph glyph-name="degree" unicode="&#xb0;" horiz-adv-x="356" 
d="M178 708q32 0 60 -12.5t49 -33.5t33.5 -49t12.5 -60t-12.5 -60.5t-33.5 -49.5t-49 -33.5t-60 -12.5t-60 12.5t-49 33.5t-33.5 49.5t-12.5 60.5t12.5 60t33.5 49t49 33.5t60 12.5zM178 476q31 0 53.5 22.5t22.5 54.5q0 31 -22.5 53.5t-53.5 22.5t-53.5 -22.5t-22.5 -53.5
q0 -32 22.5 -54.5t53.5 -22.5z" />
    <glyph glyph-name="plusminus" unicode="&#xb1;" horiz-adv-x="474" 
d="M451 323h-155v-121h-119v121h-154v119h154v123h119v-123h155v-119zM451 25h-155h-119h-154v119h154h119h155v-119z" />
    <glyph glyph-name="acute" unicode="&#xb4;" horiz-adv-x="189" 
d="M23 712v142h143l-70 -119z" />
    <glyph glyph-name="periodcentered" unicode="&#xb7;" horiz-adv-x="359" 
d="M23 271q0 32 12.5 60.5t33.5 50t49.5 34t60.5 12.5q33 0 61.5 -12.5t50 -34t33.5 -50t12 -60.5q0 -33 -12 -61.5t-33.5 -50t-50 -33.5t-61.5 -12q-32 0 -60.5 12t-49.5 33.5t-33.5 50t-12.5 61.5z" />
    <glyph glyph-name="OE" unicode="&#x152;" horiz-adv-x="758" 
d="M735 115v-116h-390q-64 0 -125 26q-58 24 -103 70q-21 21 -38.5 46.5t-29.5 54.5q-26 61 -26 125q0 65 25 126q13 29 30.5 54.5t38.5 48.5q46 45 103 68q61 26 125 26h328v-117h-212v-132h170v-116h-170v-164h274zM345 527q-42 0 -79.5 -16t-65.5 -44t-44.5 -65.5
t-16.5 -80.5q0 -42 16.5 -79.5t44.5 -65.5t65.5 -44.5t79.5 -16.5v412z" />
    <glyph glyph-name="Scaron" unicode="&#x160;" horiz-adv-x="554" 
d="M329 404q42 0 78.5 -16t64 -43.5t43.5 -64t16 -78.5q0 -41 -16 -78t-43.5 -64.5t-64 -43.5t-78.5 -16h-275v116h275q18 0 33.5 7t27 18.5t18.5 27t7 33.5t-7 33.5t-18.5 27t-27 18.5t-33.5 7h-110h-18q-37 0 -69.5 14t-56.5 38t-38 56.5t-14 69.5t14 69.5t38 57
t56.5 38.5t69.5 14h200v-117h-200q-26 0 -44 -18.5t-18 -43.5q0 -26 18 -44t44 -18h71h57zM421 844l-98 -109q-13 -13 -26.5 -22t-31.5 -9t-32.5 8t-25.5 21l-100 111h103l55 -61l53 61h103z" />
    <glyph glyph-name="florin" unicode="&#x192;" horiz-adv-x="392" 
d="M228 546q-20 0 -37 -7.5t-29.5 -20.5t-20 -30.5t-7.5 -36.5v-15h187v-111h-186v-196h-112v322q0 42 16 79.5t44 65.5t65.5 44t79.5 16h141v-110h-141z" />
    <glyph glyph-name="caron" unicode="&#x2c7;" horiz-adv-x="360" 
d="M337 844l-98 -109q-13 -13 -26.5 -22t-31.5 -9t-32.5 8t-25.5 21l-100 111h103l55 -61l53 61h103z" />
    <glyph glyph-name="breve" unicode="&#x2d8;" horiz-adv-x="286" 
d="M143 592q-48 0 -84 34q-34 34 -36 82h76q2 -17 14.5 -28.5t29.5 -11.5t29.5 11.5t14.5 28.5h76q-2 -48 -36 -82q-36 -34 -84 -34z" />
    <glyph glyph-name="dotaccent" unicode="&#x2d9;" horiz-adv-x="130" 
d="M23 38q0 17 12.5 29.5t29.5 12.5t29.5 -12.5t12.5 -29.5t-12.5 -29.5t-29.5 -12.5t-29.5 12.5t-12.5 29.5z" />
    <glyph glyph-name="ring" unicode="&#x2da;" horiz-adv-x="253" 
d="M127 699q-21 0 -40 8t-33.5 22t-22.5 33t-8 40q0 22 8.5 40.5t22.5 32t33 21t40 7.5q43 0 73 -28.5t30 -72.5q0 -21 -8 -40t-22 -33t-32.5 -22t-40.5 -8zM127 844q-18 0 -31.5 -11t-13.5 -31q0 -19 13 -31t32 -12q20 0 32 12.5t12 30.5q0 19 -12.5 30.5t-31.5 11.5z" />
    <glyph glyph-name="ogonek" unicode="&#x2db;" horiz-adv-x="202" 
d="M178 0q-15 0 -29 -6t-25 -17t-17 -25t-6 -29q0 -32 22.5 -55t54.5 -23v-78q-32 0 -60.5 12.5t-49.5 34t-33 49.5t-12 60q1 31 12.5 59t33.5 50q47 45 109 45h1v-77h-1z" />
    <glyph glyph-name="tilde" unicode="&#x2dc;" horiz-adv-x="351" 
d="M328 854q-5 -21 -14 -41.5t-23 -36.5t-33 -25.5t-44 -9.5q-17 0 -28 4.5t-19 10.5t-15 10.5t-17 4.5q-17 0 -24 -16.5t-10 -30.5h-78q3 24 11 46t21.5 38.5t33.5 26.5t47 10q15 0 25.5 -4.5t19.5 -9.5t16.5 -9.5t15.5 -4.5q17 0 25.5 11t10.5 26h79z" />
    <glyph glyph-name="hungarumlaut" unicode="&#x2dd;" horiz-adv-x="378" 
d="M212 712v142h143l-70 -119zM23 712v142h143l-70 -119z" />
    <glyph glyph-name="endash" unicode="&#x2013;" horiz-adv-x="415" 
d="M23 293h369v-110h-369v110z" />
    <glyph glyph-name="emdash" unicode="&#x2014;" horiz-adv-x="510" 
d="M23 296h464v-113h-464v113z" />
    <glyph glyph-name="quoteleft" unicode="&#x2018;" horiz-adv-x="265" 
d="M166 583q-30 0 -56.5 -11t-46 -30.5t-30.5 -46t-11 -57.5q0 -30 11.5 -56t31 -45.5t45.5 -31t56 -11.5h58v96h-58q-22 0 -36 13.5t-14 34.5t13.5 36t36.5 15v94z" />
    <glyph glyph-name="quoteright" unicode="&#x2019;" horiz-adv-x="266" 
d="M80 583q30 0 56.5 -11t46 -30.5t30.5 -46t11 -57.5q0 -30 -11.5 -56t-31 -45.5t-45.5 -31t-56 -11.5h-58v96h58q22 0 36 13.5t14 34.5t-13.5 36t-36.5 15v94z" />
    <glyph glyph-name="quotesinglbase" unicode="&#x201a;" horiz-adv-x="249" 
d="M81 86q30 0 56.5 -11t46 -30.5t31 -46t11.5 -57.5q0 -30 -11.5 -56t-31 -45.5t-46 -31t-56.5 -11.5h-58v96h58q20 0 34 13.5t14 34.5t-13.5 36t-34.5 15v94z" />
    <glyph glyph-name="quotedblleft" unicode="&#x201c;" horiz-adv-x="508" 
d="M400 583q-30 0 -56.5 -11t-46 -30.5t-31 -46t-11.5 -57.5q0 -30 11.5 -56t31 -45.5t46 -31t56.5 -11.5h58v96h-58q-20 0 -34 13.5t-14 34.5t13.5 36t34.5 15v94zM166 583q-30 0 -56.5 -11t-46 -30.5t-30.5 -46t-11 -57.5q0 -30 11.5 -56t31 -45.5t45.5 -31t56 -11.5h58
v96h-58q-22 0 -36 13.5t-14 34.5t13.5 36t36.5 15v94z" />
    <glyph glyph-name="quotedblright" unicode="&#x201d;" horiz-adv-x="508" 
d="M102 583q30 0 56.5 -11t46 -30.5t31 -46t11.5 -57.5q0 -30 -11.5 -56t-31 -45.5t-46 -31t-56.5 -11.5h-58v96h58q20 0 34 13.5t14 34.5t-13.5 36t-34.5 15v94zM336 583q30 0 56.5 -11t46 -30.5t30.5 -46t11 -57.5q0 -30 -11.5 -56t-31 -45.5t-45.5 -31t-56 -11.5h-58v96
h58q22 0 36 13.5t14 34.5t-13.5 36t-36.5 15v94z" />
    <glyph glyph-name="quotedblbase" unicode="&#x201e;" horiz-adv-x="482" 
d="M81 86q30 0 56.5 -11t46 -30.5t31 -46t11.5 -57.5q0 -30 -11.5 -56t-31 -45.5t-46 -31t-56.5 -11.5h-58v96h58q20 0 34 13.5t14 34.5t-13.5 36t-34.5 15v94zM315 86q30 0 56.5 -11t46 -30.5t30.5 -46t11 -57.5q0 -30 -11.5 -56t-31 -45.5t-45.5 -31t-56 -11.5h-58v96h58
q22 0 36 13.5t14 34.5t-13.5 36t-36.5 15v94z" />
    <glyph glyph-name="dagger" unicode="&#x2020;" horiz-adv-x="427" 
d="M404 254v-109h-136v-339h-109v339h-136v109h136v152h109v-152h136z" />
    <glyph glyph-name="daggerdbl" unicode="&#x2021;" horiz-adv-x="427" 
d="M404 219h-136v-105h136v-109h-136v-256h-109v256h-136v109h136v105h-136v109h136v256h109v-256h136v-109z" />
    <glyph glyph-name="bullet" unicode="&#x2022;" horiz-adv-x="396" 
d="M23 265q0 36 13.5 68t37.5 56t55.5 38t67.5 14q37 0 69 -14t56 -38t37.5 -56t13.5 -68q0 -37 -13.5 -69t-37.5 -56t-56 -37.5t-69 -13.5q-36 0 -67.5 13.5t-55.5 37.5t-37.5 56t-13.5 69z" />
    <glyph glyph-name="ellipsis" unicode="&#x2026;" horiz-adv-x="729" 
d="M23 58q0 15 6.5 29t17 25t24.5 17.5t30 6.5q15 0 29 -6.5t24 -17.5t16 -25t6 -29q0 -31 -22 -54t-53 -23q-32 0 -55 23t-23 54zM288 58q0 15 6.5 29t17 25t24.5 17.5t30 6.5q15 0 29 -6.5t24 -17.5t16 -25t6 -29q0 -31 -22 -54t-53 -23q-32 0 -55 23t-23 54zM553 58
q0 15 6.5 29t17 25t24.5 17.5t30 6.5q15 0 29 -6.5t24 -17.5t16 -25t6 -29q0 -31 -22 -54t-53 -23q-32 0 -55 23t-23 54z" />
    <glyph glyph-name="perthousand" unicode="&#x2030;" horiz-adv-x="1391" 
d="M583 707l-335 -719h132l336 719h-133zM733 -34q-42 0 -79.5 16t-65.5 43t-44 64t-16 79t16 78.5t44 64t65.5 43.5t79.5 16t79 -16t65 -43.5t44 -64t16 -78.5q0 -41 -15.5 -78t-44.5 -66q-29 -28 -66 -43t-78 -15zM733 258q-20 0 -36.5 -7t-29.5 -19t-20 -28.5t-7 -35.5
t7 -35.5t20 -29t29.5 -19.5t36.5 -7q37 0 66 27q26 26 26 64q0 19 -7 35.5t-19.5 28.5t-29.5 19t-36 7zM228 310q-42 0 -79.5 16t-65.5 43t-44 64t-16 79t16 78.5t44 64t65.5 43.5t79.5 16t79 -16t65 -43.5t44 -64t16 -78.5q0 -41 -15.5 -78t-44.5 -66q-29 -28 -66 -43
t-78 -15zM228 602q-20 0 -36.5 -7t-29.5 -19t-20 -28.5t-7 -35.5t7 -35.5t20 -29t29.5 -19.5t36.5 -7q37 0 66 27q26 26 26 64q0 19 -7 35.5t-19.5 28.5t-29.5 19t-36 7zM1164 -34q-42 0 -79.5 16t-65.5 43t-44 64t-16 79t16 78.5t44 64t65.5 43.5t79.5 16t79 -16t65 -43.5
t44 -64t16 -78.5q0 -41 -15.5 -78t-44.5 -66q-29 -28 -66 -43t-78 -15zM1164 258q-20 0 -36.5 -7t-29.5 -19t-20 -28.5t-7 -35.5t7 -35.5t20 -29t29.5 -19.5t36.5 -7q37 0 66 27q26 26 26 64q0 19 -7 35.5t-19.5 28.5t-29.5 19t-36 7z" />
    <glyph glyph-name="guilsinglleft" unicode="&#x2039;" horiz-adv-x="290" 
d="M187 43l-164 276l164 276l80 -48l-134 -228l134 -228z" />
    <glyph glyph-name="guilsinglright" unicode="&#x203a;" horiz-adv-x="319" 
d="M296 227v-5q-2 -13 -8 -24q-2 -4 -3 -5l-146 -234l-1 -1q-13 -21 -37 -27t-45 8t-27 38t8 45l128 205l-128 206q-14 21 -8 45t27 37q21 14 45 8t37 -27q1 0 1 -1l148 -236v-1q7 -12 9 -26v-5z" />
    <glyph glyph-name="fraction" unicode="&#x2044;" horiz-adv-x="521" 
d="M366 733h132l-343 -733h-132z" />
    <glyph glyph-name="Euro" unicode="&#x20ac;" horiz-adv-x="775" 
d="M484 90q52 0 98.5 20t82.5 58l87 -82q-26 -27 -55.5 -48.5t-64.5 -36.5q-69 -31 -148 -31q-75 0 -145 29q-33 14 -62 34.5t-55 46.5q-50 50 -78 117h-121v120h92q-1 8 -1 14.5v14.5v15t1 14h-92v120h121q27 66 78 117q51 52 117 81q69 30 145 30t148 -32q67 -29 120 -85
l-87 -82q-36 38 -82.5 58.5t-98.5 20.5q-63 0 -116 -29.5t-88 -78.5h124v-120h-169q-1 -7 -1 -14v-15v-14.5t1 -14.5h169v-120h-124q35 -49 88 -78t116 -29z" />
    <glyph glyph-name="trademark" unicode="&#x2122;" horiz-adv-x="230" 
d="M110 528v-18h-34v-80h-18v80h-35v18h87zM201 528h-11l-28 -33l-27 33h-18v-98h18v71l27 -33l28 33v-71h17v98h-6z" />
    <glyph glyph-name="f_f" unicode="&#xfb00;" horiz-adv-x="648" 
d="M537 417q-20 0 -37 -7.5t-29.5 -20.5t-20 -30.5t-7.5 -36.5v-15h109v-111h-108v-196h-112v195h-197v-196h-112v322q0 42 16 79.5t44 65.5t65.5 44t79.5 16h82v-110h-82q-20 0 -37 -7.5t-29.5 -20.5t-20 -30.5t-7.5 -36.5v-15h198v16q0 42 16 79.5t44 65.5t65.5 44
t79.5 16h88v-110h-88z" />
    <glyph glyph-name="fi" unicode="&#xfb01;" horiz-adv-x="499" 
d="M228 417q-20 0 -37 -7.5t-29.5 -20.5t-20 -30.5t-7.5 -36.5v-15h342v-307h-123v196h-218v-196h-112v322q0 42 16 79.5t44 65.5t65.5 44t79.5 16h63v-110h-63zM353 527h123v-110h-123v110z" />
    <glyph glyph-name="fl" unicode="&#xfb02;" horiz-adv-x="694" 
d="M228 417q-20 0 -37 -7.5t-29.5 -20.5t-20 -30.5t-7.5 -36.5v-15h136v-111h-135v-196h-112v322q0 42 16 79.5t44 65.5t65.5 44t79.5 16h231v-265q0 -32 12 -60t35 -51q46 -48 111 -48h54v-103h-55q-111 0 -188 76q-79 76 -79 186v155h-121z" />
    <glyph glyph-name="f_f_i" unicode="&#xfb03;" horiz-adv-x="808" 
d="M537 417q-8 0 -12 -1q-5 -1 -10.5 -2t-10.5 -3l-10 -5q-2 0 -4 -2q-4 -2 -12 -8q-6 -5 -11.5 -11t-9.5 -13q-2 -2 -2 -4l-5 -9q0 -1 -0.5 -2t-0.5 -2q-2 -5 -3 -9t-2 -9t-1 -15v-15h219h123v-307h-123v196h-218v-196h-112v195h-197v-196h-112v322q0 42 16 79.5t44 65.5
t65.5 44t79.5 16h82v-110h-82q-20 0 -37 -7.5t-29.5 -20.5t-20 -30.5t-7.5 -36.5v-15h198v16v8q1 29 10 56t25 50q19 29 49 51l6 5q27 18 58 27q6 2 12 3l12 2q4 1 7.5 1.5t8.5 0.5q4 1 8 1h9h88v-110h-88zM662 527h123v-110h-123v110z" />
    <glyph glyph-name="f_f_l" unicode="&#xfb04;" horiz-adv-x="1003" 
d="M228 416q-20 0 -37 -7.5t-29.5 -20.5t-20 -30.5t-7.5 -36.5v-15h198v16v17q3 31 13 55l3 7l3 8q4 7 7.5 14t8.5 13l4 7l15 18l17 16q3 3 6.5 5.5t6.5 4.5q15 12 34 20l14 7q10 3 19.5 5.5t20.5 4.5q4 1 7.5 1.5t8.5 0.5q2 0 4 0.5t4 0.5h9h231v-265q0 -32 12 -60t35 -51
q46 -48 111 -48h54v-103h-55q-111 0 -188 76q-79 76 -79 186v155h-121h-4q-5 0 -15 -2t-14 -4q-10 -4 -14 -7q-4 -2 -12 -8q-19 -15 -29 -41q-6 -14 -6 -29v-4v-15h136v-111h-135v-196h-112v195h-197v-196h-112v322q0 42 16 79.5t44 65.5t65.5 44t79.5 16h82v-110h-82z" />
    <glyph glyph-name="colon.002" horiz-adv-x="249" 
d="M23 28l88 137h115l-89 -137h-114zM106 300v134h115v-134h-115z" />
    <glyph glyph-name="colon.001" horiz-adv-x="161" 
d="M23 300v134h115v-134h-115z" />
    <glyph glyph-name="_154" horiz-adv-x="154" 
d="M23 768q0 23 15.5 38.5t38.5 15.5t38.5 -15.5t15.5 -38.5t-15.5 -38.5t-38.5 -15.5t-38.5 15.5t-15.5 38.5z" />
    <glyph glyph-name="backslash.002" horiz-adv-x="521" 
d="M498 -66h-132l-343 733h133z" />
    <glyph glyph-name="backslash.003" horiz-adv-x="511" 
d="M156 647l332 -712h-132l-333 712h133z" />
    <glyph glyph-name="percent.001" horiz-adv-x="521" 
d="M366 733h132l-343 -733h-132z" />
    <glyph glyph-name="Atilde" unicode="&#xc3;" horiz-adv-x="351" 
d="M328 826q-5 -21 -14 -41.5t-23 -36.5t-33 -25.5t-44 -9.5q-17 0 -28 4.5t-19 10.5t-15 10.5t-17 4.5q-17 0 -24 -16.5t-10 -30.5h-78q3 24 11 46t21.5 38.5t33.5 26.5t47 10q15 0 25.5 -4.5t19.5 -9.5t16.5 -9.5t15.5 -4.5q17 0 25.5 11t10.5 26h79z" />
    <glyph glyph-name="Adieresis" unicode="&#xc4;" horiz-adv-x="318" 
d="M23 783q0 21 15 36t36 15q22 0 37 -15t15 -36q0 -22 -15 -37t-37 -15q-21 0 -36 15t-15 37zM192 783q0 21 15 36t36 15q22 0 37 -15t15 -36q0 -22 -15 -37t-37 -15q-21 0 -36 15t-15 37z" />
    <glyph glyph-name="u" unicode="u" 
d="M134 264q0 -66 45 -112q46 -47 110 -47q67 0 111 47q45 46 45 112v263h111v-1v-262q0 -109 -78 -187q-80 -77 -189 -77q-108 0 -187 77q-79 79 -79 187v262v1h111v-263z" />
    <glyph glyph-name="mu" unicode="&#xb5;" 
d="M556 527v-1v-118v-14v-130v-269h-111v54q-69 -49 -156 -49t-155 50v-107h-111v321v130v14v118v1h111v-119v-14v-130q0 -66 45 -112q46 -47 110 -47q67 0 111 47q45 46 45 112v130v14v119h111z" />
    <glyph glyph-name="cedilla" unicode="&#xb8;" horiz-adv-x="241" 
d="M131 1l-7 -24h5q37 -1 63 -27.5t26 -64.5q0 -19 -7 -36t-19.5 -29.5t-29 -19.5t-35.5 -7h-104v71h104q8 0 14 6.5t6 14.5t-6 14.5t-14 6.5h-49h-44l28 104z" />
    <glyph glyph-name="Oslash" unicode="&#xd8;" horiz-adv-x="692" 
d="M612 504q9 -13 17 -27t13 -29q26 -60 26 -126q0 -64 -26 -125q-23 -58 -69 -101q-23 -23 -48.5 -40.5t-53.5 -29.5q-60 -26 -126 -26q-64 0 -125 26q-28 11 -56 30l-56 -56l-85 85l57 57q-18 26 -32 55q-25 62 -25 125q0 65 25 126q13 29 30.5 54.5t38.5 48.5
q46 45 103 68q61 26 125 26q66 0 126 -26q30 -13 56 -30l57 57l85 -85zM139 322q0 -52 25 -96l278 278q-44 24 -97 24q-42 0 -79.5 -16t-65.5 -44t-44.5 -65.5t-16.5 -80.5zM345 116q43 0 80.5 16.5t65.5 44.5t44 65.5t16 79.5q0 53 -24 97l-278 -278q44 -25 96 -25z" />
    <glyph glyph-name="multiply" unicode="&#xd7;" horiz-adv-x="586" 
d="M563 457l-185 -185l185 -186l-84 -85l-186 186l-185 -186l-85 85l185 186l-185 185l85 85l185 -186l186 186z" />
    <glyph glyph-name="questiondown" unicode="&#xbf;" horiz-adv-x="572" 
d="M319 411.975h109v112.993h-109v-112.993zM505 -121.992q77 76.9951 77 185.988q0 52.9971 -19.5 100.494t-57.5 85.4941q-37 36.998 -85 56.9971t-101 19.999v-107.994q32 0 60 -12.499t49 -33.498t33 -48.9971t12 -59.9961t-12 -60.4961t-33 -49.4971t-49 -32.998
t-60 -11.999t-60 11.999t-49 32.998t-33.5 49.4971t-12.5 60.4961h-108q0 -53.9971 20 -100.994t58 -84.9941q36 -37.998 84 -57.9971t101 -19.999t101 19.999t85 57.9971z" />
    <glyph glyph-name="oslash" unicode="&#xf8;" 
d="M511 409q45 -65 45 -146q0 -110 -79 -186q-79 -77 -188 -77q-81 0 -145 42l-42 -42l-76 76l40 41q-43 62 -43 146q0 109 78 187q80 77 188 77q79 0 145 -43l42 43l77 -77zM134 263q0 -37 13 -66l209 210q-30 15 -67 15q-66 0 -110 -47q-45 -47 -45 -112zM445 263
q0 33 -14 66l-209 -210q28 -14 67 -14q65 0 111 46q45 46 45 112z" />
    <glyph glyph-name="circumflex" unicode="&#x2c6;" horiz-adv-x="360" 
d="M234 714l-53 61l-55 -61h-103l100 111q11 13 25.5 21t32.5 8t31.5 -9t26.5 -22l98 -109h-103z" />
    <glyph glyph-name="exclamdown" unicode="&#xa1;" horiz-adv-x="155" 
d="M164 209h-112v471h112v-471zM164 1h-112v111h112v-111z" />
    <glyph glyph-name="paragraph" unicode="&#xb6;" horiz-adv-x="519" 
d="M427 477h69v-575h-69v575zM496 645v-116h-125v-627h-116v280q-48 0 -90.5 18t-74 49.5t-49.5 73.5t-18 90t18 90t49.5 73.5t74 50t90.5 18.5h52h64h125z" />
    <glyph glyph-name="Abreve" unicode="&#x102;" horiz-adv-x="286" 
d="M143 742q-48 0 -84 34q-34 34 -36 82h76q2 -17 14.5 -28.5t29.5 -11.5t29.5 11.5t14.5 28.5h76q-2 -48 -36 -82q-36 -34 -84 -34z" />
    <glyph glyph-name="lslash.001" horiz-adv-x="523" 
d="M208 337l178 156l50 -58l-221 -193l-88 -77l-58 -50l-49 58l82 72zM500 0h-55q-111 0 -188 76q-79 76 -79 186v265h111v-134h-1v-131q0 -63 46 -111q45 -47 111 -47h55v-104z" />
    <glyph glyph-name="guillemotright" unicode="&#xbb;" horiz-adv-x="548" 
d="M324 187l73 73l-73 72v0l-71 71l64 64l135 -135v0l73 -72l-73 -73v0l-135 -135l-64 64zM94 187l73 73l-73 72v0l-71 71l64 64l135 -135v0l73 -72l-73 -73v0l-135 -135l-64 64z" />
    <glyph glyph-name="divide" unicode="&#xf7;" horiz-adv-x="419" 
d="M151 341v130h115v-130h-115zM396 181h-373v118h373v-118zM151 6v130h115v-130h-115z" />
    <glyph glyph-name="uni0162" unicode="&#x162;" horiz-adv-x="833" 
 />
    <glyph glyph-name="_319" horiz-adv-x="163" 
d="M23 1v644h117v-644h-117zM23 1h117h-117z" />
    <glyph glyph-name="onesuperior" unicode="&#xb9;" horiz-adv-x="206" 
d="M121.224 158.307v247.506l-66.2559 -61.2637l-37.79 40.6797l103.064 95.082h56.9307v-322.004h-55.9492z" />
    <glyph glyph-name="twosuperior" unicode="&#xb2;" horiz-adv-x="288" 
d="M127.626 157.104q-14.127 0 -27.0352 1.70215q-12.9092 1.70312 -25.5742 7.53906q-26.792 12.1602 -42.3799 35.9932t-15.5879 53.5029q0 19.4551 7.30762 37.209q7.30664 17.7529 19.7285 30.8857q12.4209 13.1318 29.4707 21.1572q17.0488 8.02539 37.0205 8.99902
q10.2305 0.486328 20.7031 0.243164t20.7031 -0.243164h9.01172q4.62695 0 9.01172 0.486328q14.126 0.972656 23.625 10.9434t9.49902 24.0762q0 6.32324 -2.43555 12.6465q-5.8457 14.5918 -17.5361 18.4824q-11.6914 3.8916 -25.8184 3.8916h-48.7119v54.4756h48.7119
q12.666 0 24.5996 -1.2168q11.9346 -1.21582 23.626 -6.56543q23.8691 -10.7012 38.4824 -33.3184t14.6133 -48.8818q0 -17.9961 -6.57617 -33.8037q-6.5752 -15.8076 -18.2666 -27.9678t-27.2793 -19.6982q-15.5879 -7.53906 -33.6113 -7.53906h-38.4824h-10.2295
t-10.2295 -0.487305q-18.5107 -1.45898 -30.2012 -13.6182q-11.6914 -12.1602 -11.6914 -30.6426q0 -12.6465 6.57617 -23.1035q6.57617 -10.458 18.2676 -15.8076q7.30664 -3.40527 15.3438 -3.8916q8.03809 -0.486328 16.3184 -0.486328h116.91v-54.9619h-117.884z" />
    <glyph glyph-name="threesuperior" unicode="&#xb3;" horiz-adv-x="279" 
d="M17.6973 158.307v54.8926h120.436q8.35742 0 16.2227 0.734375q7.86523 0.735352 15.2383 4.16602q11.7979 5.3916 18.9258 16.1738q7.12793 10.7832 7.12793 23.5254q0 7.8418 -3.44043 17.1543q-4.91602 12.2529 -12.5352 18.1338q-7.62012 5.88184 -16.96 8.08691
q-9.33984 2.20605 -19.9092 1.96094q-10.5684 -0.245117 -20.8916 -0.245117h-46.7002v55.8721h47.6836q9.33984 0 17.2051 6.37207q7.86523 6.37109 11.3066 14.7031q2.45703 6.37207 2.45703 12.2529t-2.45703 12.2529q-4.91602 11.7627 -14.502 16.1738t-21.875 4.41113
h-66.3633v55.3828h61.4473q12.2891 0 24.333 -1.4707t23.3496 -6.86133q23.5957 -10.7832 37.6064 -32.5928q14.0098 -21.8096 14.0098 -47.7861q0 -10.7822 -3.19531 -23.5254t-9.09473 -21.0742l1.47559 -0.980469q24.0869 -14.2139 38.3428 -36.2686t14.2559 -50.9717
q0 -14.2129 -4.17871 -28.1816q-4.17871 -13.9678 -12.0439 -26.2207t-18.6797 -21.8105q-10.8145 -9.55664 -24.0869 -15.4385q-12.7812 -5.39062 -26.2998 -7.10645q-13.5186 -1.71484 -27.2822 -1.71484h-120.928z" />
    <glyph glyph-name="ordmasculine" unicode="&#xba;" horiz-adv-x="280" 
d="M23 369h234v-46h-234v46zM223 611q34 -34 34 -82t-34 -81q-34 -34 -83 -34q-48 0 -82 34q-35 33 -35 81q0 47 35 82q34 34 82 34q49 0 83 -34zM189 480q20 22 20 49q0 29 -20 49q-21 21 -49 21q-29 0 -48 -21q-20 -20 -20 -49q0 -27 20 -49q20 -20 48 -20q15 0 26.5 5
t22.5 15z" />
    <glyph glyph-name="onequarter" unicode="&#xbc;" horiz-adv-x="608" 
d="M127 320v248l-66 -62l-38 41l103 95h57v-322h-56zM433 645h56l-156 -318l-160 -327h-56l160 327zM530 4v88h-170v57l169 177h56v-322h-55zM530 148v98l-94 -98h94z" />
    <glyph glyph-name="onehalf" unicode="&#xbd;" horiz-adv-x="619" 
d="M127 320v248l-66 -62l-38 41l103 95h57v-322h-56zM489 645l-156 -318l-160 -327h-56l160 327l156 318h56zM465 3q-14 0 -27 1.5t-26 7.5q-26 12 -42 36t-16 54q0 19 7 36.5t20 31t30 21.5t37 9h41h18q14 2 23.5 12t9.5 24q0 4 -2 12q-6 15 -17.5 19t-25.5 4h-49v54h49
q12 0 24 -1.5t24 -6.5q23 -11 38 -33.5t15 -48.5q0 -36 -25 -61.5t-61 -27.5h-38h-21q-18 -2 -30 -14t-12 -31q0 -12 7 -23t18 -16q8 -3 16 -3.5t16 -0.5h117v-55h-118z" />
    <glyph glyph-name="threequarters" unicode="&#xbe;" horiz-adv-x="649" 
d="M530 645l-156 -318l-160 -327h-56l160 327l156 318h56zM571 4v88h-170v57l169 177h56v-322h-55zM571 148v98l-94 -98h94zM23 323v55h120q8 0 16 0.5t16 4.5q26 11 26 39q0 5 -1 9t-3 9q-9 24 -29 26t-41 2h-45v55h46q9 0 17 6.5t12 15.5q2 6 2 12q0 4 -2 12
q-5 12 -15 16.5t-22 4.5h-4h-72v55h71q13 0 25 -1.5t23 -6.5q23 -11 37.5 -33t14.5 -48q0 -11 -3.5 -23.5t-9.5 -20.5l2 -1q24 -14 38 -36.5t14 -51.5t-16 -54t-43 -37q-12 -6 -25.5 -7.5t-27.5 -1.5h-121z" />
    <glyph glyph-name="ordfeminine" unicode="&#xaa;" horiz-adv-x="280" 
d="M23 369h234v-46h-234v46zM257 527v-113h-45v25l-4 -4q-30 -21 -68 -21q-48 0 -82 34q-35 33 -35 81q0 47 35 82q34 34 82 34q49 0 83 -34t34 -82v-2zM189 481q19 19 19 48q0 30 -19 49q-20 21 -49 21t-48 -21q-20 -20 -20 -49q0 -28 20 -48q19 -21 48 -21t49 21z" />
    <glyph glyph-name="hyphen" unicode="-" horiz-adv-x="342" 
d="M23 290l296 1v-108l-296 -1v108z" />
    <glyph glyph-name="A" unicode="A" horiz-adv-x="735" 
d="M612 0v104q-44 -53 -110 -78.5t-133 -25.5q-70 0 -133 26t-110.5 72t-75 107.5t-27.5 132.5t27.5 133t75 108t110 72.5t133.5 26.5t133 -26.5t109 -72.5t74 -108t27 -133v-338h-100zM369 575q-49 0 -91 -19t-74 -51.5t-50 -75.5t-18 -91q0 -49 18 -91.5t49.5 -74.5
t74 -50.5t91.5 -18.5t91.5 18.5t73.5 50.5t49 75t18 91q0 49 -18 92t-49 75t-73.5 51t-91.5 19z" />
    <glyph glyph-name="uni0000" horiz-adv-x="600" 
 />
    <glyph glyph-name="uni0000" horiz-adv-x="600" 
 />
    </font>
</defs>
</svg>
