<svg width="262" height="900" viewBox="0 0 262 900" fill="none" xmlns="http://www.w3.org/2000/svg">
<path opacity="0.5" d="M264 900.15H9.81999V813.514C9.81999 777.714 22.2307 747.165 47.052 721.866C71.8733 696.567 101.826 683.918 136.91 683.918C171.994 683.918 201.947 696.567 226.768 721.866C251.589 747.165 264 777.714 264 813.514V900.15ZM211.732 843.228V813.514C211.732 792.511 204.572 775.327 190.252 761.962C175.693 748.358 157.913 741.556 136.91 741.556C115.907 741.556 98.246 748.358 83.926 761.962C69.3673 775.327 62.088 792.511 62.088 813.514V843.228H211.732ZM267.938 564.402C267.938 591.371 259.465 614.045 242.52 632.422C225.336 650.561 202.663 659.63 174.5 659.63C147.769 659.63 125.573 650.68 107.912 632.78C90.012 614.88 81.062 592.445 81.062 565.476C81.062 540.416 88.6993 519.294 103.974 502.11C119.249 484.926 140.729 476.334 168.414 476.334C175.335 476.334 181.66 476.692 187.388 477.408V607.362C197.651 605.93 205.527 601.037 211.016 592.684C216.267 584.331 218.892 574.665 218.892 563.686C218.892 553.901 216.983 545.189 213.164 537.552C209.107 529.915 204.214 524.187 198.486 520.368L228.558 480.272C240.73 488.864 250.396 500.439 257.556 514.998C264.477 529.557 267.938 546.025 267.938 564.402ZM151.946 605.93V530.034C143.115 532.182 136.433 536.717 131.898 543.638C127.363 550.559 125.096 558.316 125.096 566.908C125.096 575.977 127.363 584.211 131.898 591.61C136.194 599.009 142.877 603.782 151.946 605.93ZM267.938 380.695C267.938 413.869 257.198 438.691 235.718 455.159L203.14 419.359C215.551 410.767 221.756 397.879 221.756 380.695C221.756 369.716 218.415 364.227 211.732 364.227C208.629 364.227 206.123 365.659 204.214 368.523C202.066 371.387 199.918 377.234 197.77 386.065L194.906 397.879C190.849 414.824 183.689 427.712 173.426 436.543C163.163 445.135 150.753 449.192 136.194 448.715C119.726 448.237 106.48 441.674 96.456 429.025C86.1933 416.137 81.062 399.788 81.062 379.979C81.062 352.293 90.9667 331.291 110.776 316.971L139.774 352.055C130.227 359.692 125.454 369.119 125.454 380.337C125.454 390.122 128.557 395.015 134.762 395.015C140.49 395.015 144.786 390.003 147.65 379.979L151.946 363.511C156.481 346.327 163.283 333.319 172.352 324.489C181.183 315.419 193.235 310.885 208.51 310.885C225.455 310.885 239.656 317.687 251.112 331.291C262.329 344.656 267.938 361.124 267.938 380.695ZM67.816 250.405C67.816 259.475 64.594 267.351 58.15 274.033C51.4673 280.716 43.472 284.057 34.164 284.057C24.856 284.057 16.98 280.716 10.536 274.033C3.85332 267.351 0.511978 259.475 0.511978 250.405C0.511978 240.859 3.85332 232.863 10.536 226.419C16.98 219.737 24.856 216.395 34.164 216.395C43.472 216.395 51.4673 219.737 58.15 226.419C64.594 232.863 67.816 240.859 67.816 250.405ZM264 277.255H85V223.197H264V277.255ZM337.032 98.4733C337.032 131.171 329.395 157.305 314.12 176.875L273.666 148.593C284.406 134.512 289.776 118.044 289.776 99.1893C289.776 87.972 286.793 78.1867 280.826 69.8333C274.859 61.48 266.267 57.3033 255.05 57.3033H244.668C254.931 68.282 260.062 82.602 260.062 100.263C260.062 125.801 251.47 147.042 234.286 163.987C217.102 180.933 195.861 189.405 170.562 189.405C145.263 189.405 124.022 180.933 106.838 163.987C89.654 147.042 81.062 125.801 81.062 100.263C81.062 82.8407 86.074 68.5207 96.098 57.3033H85V3.24531H254.334C266.983 3.24531 278.201 5.15465 287.986 8.97332C297.771 12.792 305.647 17.804 311.614 24.0093C317.581 29.976 322.473 37.2553 326.292 45.8473C330.349 54.4393 333.094 63.0313 334.526 71.6233C336.197 79.9767 337.032 88.9267 337.032 98.4733ZM211.016 91.3133C211.016 77.232 205.288 65.8953 193.832 57.3033H146.934C135.717 66.134 130.108 77.4707 130.108 91.3133C130.108 103.724 133.927 113.867 141.564 121.743C148.963 129.619 158.629 133.557 170.562 133.557C182.495 133.557 192.281 129.619 199.918 121.743C207.317 113.867 211.016 103.724 211.016 91.3133ZM264 -41.239H85V-95.297H97.888C86.6707 -107.23 81.062 -122.744 81.062 -141.837C81.062 -164.749 88.4607 -182.53 103.258 -195.179C117.817 -208.067 137.387 -214.511 161.97 -214.511H264V-160.453H171.278C158.629 -160.453 148.605 -157.947 141.206 -152.935C133.807 -147.923 130.108 -140.286 130.108 -130.023C130.108 -115.464 135.597 -103.889 146.576 -95.297H264V-41.239Z" fill="#EBECF5"/>
</svg>
