<svg width="260" height="900" viewBox="0 0 260 900" fill="none" xmlns="http://www.w3.org/2000/svg">
<path opacity="0.5" d="M262 900.15H7.81999V813.514C7.81999 777.714 20.2307 747.165 45.052 721.866C69.8733 696.567 99.826 683.918 134.91 683.918C169.994 683.918 199.947 696.567 224.768 721.866C249.589 747.165 262 777.714 262 813.514V900.15ZM209.732 843.228V813.514C209.732 792.511 202.572 775.327 188.252 761.962C173.693 748.358 155.913 741.556 134.91 741.556C113.907 741.556 96.246 748.358 81.926 761.962C67.3673 775.327 60.088 792.511 60.088 813.514V843.228H209.732ZM265.938 564.402C265.938 591.371 257.465 614.045 240.52 632.422C223.336 650.561 200.663 659.63 172.5 659.63C145.769 659.63 123.573 650.68 105.912 632.78C88.012 614.88 79.062 592.445 79.062 565.476C79.062 540.416 86.6993 519.294 101.974 502.11C117.249 484.926 138.729 476.334 166.414 476.334C173.335 476.334 179.66 476.692 185.388 477.408V607.362C195.651 605.93 203.527 601.037 209.016 592.684C214.267 584.331 216.892 574.665 216.892 563.686C216.892 553.901 214.983 545.189 211.164 537.552C207.107 529.915 202.214 524.187 196.486 520.368L226.558 480.272C238.73 488.864 248.396 500.439 255.556 514.998C262.477 529.557 265.938 546.025 265.938 564.402ZM149.946 605.93V530.034C141.115 532.182 134.433 536.717 129.898 543.638C125.363 550.559 123.096 558.316 123.096 566.908C123.096 575.977 125.363 584.211 129.898 591.61C134.194 599.009 140.877 603.782 149.946 605.93ZM262 391.317L83 469.719L83 409.933L191.832 366.615L83 322.939V262.795L262 341.197V391.317ZM265.938 162.701C265.938 189.67 257.465 212.343 240.52 230.721C223.336 248.859 200.663 257.929 172.5 257.929C145.769 257.929 123.573 248.979 105.912 231.079C88.012 213.179 79.062 190.744 79.062 163.775C79.062 138.715 86.6993 117.593 101.974 100.409C117.249 83.2248 138.729 74.6328 166.414 74.6328C173.335 74.6328 179.66 74.9908 185.388 75.7068V205.661C195.651 204.229 203.527 199.336 209.016 190.983C214.267 182.629 216.892 172.963 216.892 161.985C216.892 152.199 214.983 143.488 211.164 135.851C207.107 128.213 202.214 122.485 196.486 118.667L226.558 78.5707C238.73 87.1628 248.396 98.7381 255.556 113.297C262.477 127.855 265.938 144.323 265.938 162.701ZM149.946 204.229V128.333C141.115 130.481 134.433 135.015 129.898 141.937C125.363 148.858 123.096 156.615 123.096 165.207C123.096 174.276 125.363 182.51 129.898 189.909C134.194 197.307 140.877 202.081 149.946 204.229ZM262 40.5696H0.659993V-13.4884H262V40.5696ZM239.088 -207.664C256.988 -189.287 265.938 -167.091 265.938 -141.076C265.938 -115.062 256.988 -92.8656 239.088 -74.4882C220.949 -56.1109 198.753 -46.9222 172.5 -46.9222C146.247 -46.9222 124.17 -56.1109 106.27 -74.4882C88.1313 -92.8656 79.062 -115.062 79.062 -141.076C79.062 -167.091 88.1313 -189.287 106.27 -207.664C124.17 -226.042 146.247 -235.23 172.5 -235.23C198.753 -235.23 220.949 -226.042 239.088 -207.664ZM203.646 -112.436C211.522 -120.074 215.46 -129.62 215.46 -141.076C215.46 -152.532 211.522 -161.96 203.646 -169.358C195.77 -176.996 185.388 -180.814 172.5 -180.814C159.612 -180.814 149.23 -176.996 141.354 -169.358C133.478 -161.96 129.54 -152.532 129.54 -141.076C129.54 -129.62 133.478 -120.074 141.354 -112.436C149.23 -105.038 159.612 -101.338 172.5 -101.338C185.388 -101.338 195.77 -105.038 203.646 -112.436ZM331.452 -268.485H83V-322.543H94.098C84.074 -333.76 79.062 -347.842 79.062 -364.787C79.062 -390.563 88.2507 -411.685 106.628 -428.153C124.767 -444.621 146.724 -452.855 172.5 -452.855C198.276 -452.855 220.353 -444.621 238.73 -428.153C256.869 -411.685 265.938 -390.563 265.938 -364.787C265.938 -347.603 260.807 -333.522 250.544 -322.543H331.452V-268.485ZM216.892 -356.553C216.892 -368.486 212.596 -378.152 204.004 -385.551C195.412 -393.188 184.911 -397.007 172.5 -397.007C160.089 -397.007 149.588 -393.188 140.996 -385.551C132.404 -378.152 128.108 -368.486 128.108 -356.553C128.108 -342.71 133.717 -331.374 144.934 -322.543H199.708C211.164 -331.135 216.892 -342.472 216.892 -356.553Z" fill="#EBECF5"/>
</svg>
