<svg width="262" height="900" viewBox="0 0 262 900" fill="none" xmlns="http://www.w3.org/2000/svg">
<path opacity="0.5" d="M264 900.15H9.81999V813.514C9.81999 777.714 22.2307 747.165 47.052 721.866C71.8733 696.567 101.826 683.918 136.91 683.918C171.994 683.918 201.947 696.567 226.768 721.866C251.589 747.165 264 777.714 264 813.514V900.15ZM211.732 843.228V813.514C211.732 792.511 204.572 775.327 190.252 761.962C175.693 748.358 157.913 741.556 136.91 741.556C115.907 741.556 98.246 748.358 83.926 761.962C69.3673 775.327 62.088 792.511 62.088 813.514V843.228H211.732ZM67.816 624.487C67.816 633.557 64.594 641.433 58.15 648.115C51.4673 654.798 43.472 658.139 34.164 658.139C24.856 658.139 16.98 654.798 10.536 648.115C3.85332 641.433 0.511978 633.557 0.511978 624.487C0.511978 614.941 3.85332 606.945 10.536 600.501C16.98 593.819 24.856 590.477 34.164 590.477C43.472 590.477 51.4673 593.819 58.15 600.501C64.594 606.945 67.816 614.941 67.816 624.487ZM264 651.337H85V597.279H264V651.337ZM267.938 491.171C267.938 524.346 257.198 549.167 235.718 565.635L203.14 529.835C215.551 521.243 221.756 508.355 221.756 491.171C221.756 480.193 218.415 474.703 211.732 474.703C208.629 474.703 206.123 476.135 204.214 478.999C202.066 481.863 199.918 487.711 197.77 496.541L194.906 508.355C190.849 525.301 183.689 538.189 173.426 547.019C163.163 555.611 150.753 559.669 136.194 559.191C119.726 558.714 106.48 552.151 96.456 539.501C86.1933 526.613 81.062 510.265 81.062 490.455C81.062 462.77 90.9667 441.767 110.776 427.447L139.774 462.531C130.227 470.169 125.454 479.596 125.454 490.813C125.454 500.599 128.557 505.491 134.762 505.491C140.49 505.491 144.786 500.479 147.65 490.455L151.946 473.987C156.481 456.803 163.283 443.796 172.352 434.965C181.183 425.896 193.235 421.361 208.51 421.361C225.455 421.361 239.656 428.163 251.112 441.767C262.329 455.133 267.938 471.601 267.938 491.171ZM267.938 303.244C267.938 329.974 259.107 352.528 241.446 370.906C223.785 389.283 201.469 398.472 174.5 398.472C147.531 398.472 125.215 389.283 107.554 370.906C89.8927 352.528 81.062 329.974 81.062 303.244C81.062 284.866 85.8353 267.921 95.382 252.408C104.929 236.894 117.578 225.319 133.33 217.682L158.39 264.938C140.49 272.814 131.54 285.582 131.54 303.244C131.54 314.7 135.597 324.366 143.712 332.242C151.827 340.118 162.089 344.056 174.5 344.056C186.911 344.056 197.173 340.118 205.288 332.242C213.403 324.366 217.46 314.7 217.46 303.244C217.46 285.582 208.51 272.814 190.61 264.938L215.67 217.682C231.422 225.319 244.071 236.894 253.618 252.408C263.165 267.921 267.938 284.866 267.938 303.244ZM241.088 39.16C258.988 57.5373 267.938 79.7333 267.938 105.748C267.938 131.763 258.988 153.959 241.088 172.336C222.949 190.713 200.753 199.902 174.5 199.902C148.247 199.902 126.17 190.713 108.27 172.336C90.1313 153.959 81.062 131.763 81.062 105.748C81.062 79.7333 90.1313 57.5373 108.27 39.16C126.17 20.7827 148.247 11.594 174.5 11.594C200.753 11.594 222.949 20.7827 241.088 39.16ZM205.646 134.388C213.522 126.751 217.46 117.204 217.46 105.748C217.46 94.292 213.522 84.8647 205.646 77.466C197.77 69.8287 187.388 66.01 174.5 66.01C161.612 66.01 151.23 69.8287 143.354 77.466C135.478 84.8647 131.54 94.292 131.54 105.748C131.54 117.204 135.478 126.751 143.354 134.388C151.23 141.787 161.612 145.486 174.5 145.486C187.388 145.486 197.77 141.787 205.646 134.388ZM264 -71.2159L85 7.18613V-52.5999L193.832 -95.9179L85 -139.594V-199.738L264 -121.336L264 -71.2159ZM267.938 -299.832C267.938 -272.863 259.465 -250.19 242.52 -231.812C225.336 -213.674 202.663 -204.604 174.5 -204.604C147.769 -204.604 125.573 -213.554 107.912 -231.454C90.012 -249.354 81.062 -271.789 81.062 -298.758C81.062 -323.818 88.6993 -344.94 103.974 -362.124C119.249 -379.308 140.729 -387.9 168.414 -387.9C175.335 -387.9 181.66 -387.542 187.388 -386.826V-256.872C197.651 -258.304 205.527 -263.197 211.016 -271.55C216.267 -279.904 218.892 -289.57 218.892 -300.548C218.892 -310.334 216.983 -319.045 213.164 -326.682C209.107 -334.32 204.214 -340.048 198.486 -343.866L228.558 -383.962C240.73 -375.37 250.396 -363.795 257.556 -349.236C264.477 -334.678 267.938 -318.21 267.938 -299.832ZM151.946 -258.304V-334.2C143.115 -332.052 136.433 -327.518 131.898 -320.596C127.363 -313.675 125.096 -305.918 125.096 -297.326C125.096 -288.257 127.363 -280.023 131.898 -272.624C136.194 -265.226 142.877 -260.452 151.946 -258.304ZM264 -421.964H85V-476.022H105.048C98.604 -478.886 93.3533 -484.017 89.296 -491.416C85 -498.814 82.852 -506.929 82.852 -515.76C82.852 -523.874 84.0453 -531.154 86.432 -537.598L136.91 -529.364C135.478 -527.454 134.762 -522.442 134.762 -514.328C134.762 -496.428 140.132 -483.659 150.872 -476.022H264V-421.964Z" fill="#EBECF5"/>
</svg>
