<svg width="218" height="219" viewBox="0 0 218 219" fill="none" xmlns="http://www.w3.org/2000/svg">
<g opacity="0.1" clip-path="url(#clip0)">
<path d="M57.6665 57.4249C56.3267 57.4249 55.2475 56.3457 55.2475 55.0059C55.2475 53.6661 56.3267 52.5869 57.6665 52.5869C59.0063 52.5869 60.0855 53.6661 60.0855 55.0059C60.0855 56.3457 59.0063 57.4249 57.6665 57.4249Z" fill="#101011"/>
<path d="M57.6849 72.9249C56.3452 72.9249 55.2659 71.8457 55.2659 70.5059C55.2659 69.1661 56.3452 68.0869 57.6849 68.0869C59.0247 68.0869 60.104 69.1661 60.104 70.5059C60.104 71.8457 59.0247 72.9249 57.6849 72.9249Z" fill="#101011"/>
<path d="M57.6689 88.4249C56.3292 88.4249 55.2499 87.3457 55.2499 86.0059C55.2499 84.6661 56.3292 83.5869 57.6689 83.5869C59.0087 83.5869 60.088 84.6661 60.088 86.0059C60.088 87.3457 59.0087 88.4249 57.6689 88.4249Z" fill="#101011"/>
<path d="M57.6874 103.925C56.3476 103.925 55.2683 102.846 55.2683 101.506C55.2683 100.166 56.3476 99.0869 57.6874 99.0869C59.0271 99.0869 60.1064 100.166 60.1064 101.506C60.1064 102.846 59.0271 103.925 57.6874 103.925Z" fill="#101011"/>
<path d="M57.6662 119.425C56.3265 119.425 55.2472 118.346 55.2472 117.006C55.2472 115.666 56.3265 114.587 57.6663 114.587C59.006 114.587 60.0853 115.666 60.0853 117.006C60.0853 118.346 59.006 119.425 57.6662 119.425Z" fill="#101011"/>
<path d="M57.6847 134.929C56.3449 134.929 55.2657 133.85 55.2657 132.51C55.2657 131.17 56.3449 130.091 57.6847 130.091C59.0245 130.091 60.1037 131.17 60.1037 132.51C60.1037 133.85 59.0245 134.929 57.6847 134.929Z" fill="#101011"/>
<path d="M57.6688 150.425C56.329 150.425 55.2498 149.346 55.2498 148.006C55.2498 146.666 56.329 145.587 57.6688 145.587C59.0086 145.587 60.0879 146.666 60.0879 148.006C60.0879 149.346 59.0086 150.425 57.6688 150.425Z" fill="#101011"/>
<path d="M57.6871 165.925C56.3474 165.925 55.2681 164.846 55.2681 163.506C55.2681 162.166 56.3474 161.087 57.6871 161.087C59.0269 161.087 60.1062 162.166 60.1062 163.506C60.1062 164.846 59.0269 165.925 57.6871 165.925Z" fill="#101011"/>
<path d="M72.2919 57.4249C70.9521 57.4249 69.8728 56.3457 69.8728 55.0059C69.8728 53.6661 70.9521 52.5869 72.2919 52.5869C73.6316 52.5869 74.7109 53.6661 74.7109 55.0059C74.7295 56.3271 73.6317 57.4249 72.2919 57.4249Z" fill="#101011"/>
<path d="M72.3103 72.9249C70.9705 72.9249 69.8913 71.8457 69.8913 70.5059C69.8913 69.1661 70.9705 68.0869 72.3103 68.0869C73.6501 68.0869 74.7293 69.1661 74.7293 70.5059C74.7293 71.8457 73.6501 72.9249 72.3103 72.9249Z" fill="#101011"/>
<path d="M72.2943 88.4249C70.9545 88.4249 69.8753 87.3457 69.8753 86.0059C69.8753 84.6661 70.9545 83.5869 72.2943 83.5869C73.6341 83.5869 74.7133 84.6661 74.7133 86.0059C74.732 87.3271 73.6341 88.4249 72.2943 88.4249Z" fill="#101011"/>
<path d="M72.3127 103.925C70.973 103.925 69.8937 102.846 69.8937 101.506C69.8937 100.166 70.973 99.0869 72.3127 99.0869C73.6525 99.0869 74.7318 100.166 74.7318 101.506C74.7318 102.846 73.6525 103.925 72.3127 103.925Z" fill="#101011"/>
<path d="M72.2916 119.425C70.9519 119.425 69.8726 118.346 69.8726 117.006C69.8726 115.666 70.9519 114.587 72.2916 114.587C73.6314 114.587 74.7107 115.666 74.7107 117.006C74.7293 118.327 73.6314 119.425 72.2916 119.425Z" fill="#101011"/>
<path d="M72.3101 134.929C70.9703 134.929 69.891 133.85 69.891 132.51C69.891 131.17 70.9703 130.091 72.3101 130.091C73.6498 130.091 74.7291 131.17 74.7291 132.51C74.7291 133.85 73.6498 134.929 72.3101 134.929Z" fill="#101011"/>
<path d="M72.2942 150.425C70.9544 150.425 69.8751 149.346 69.8751 148.006C69.8751 146.666 70.9544 145.587 72.2942 145.587C73.634 145.587 74.7132 146.666 74.7132 148.006C74.7318 149.327 73.634 150.425 72.2942 150.425Z" fill="#101011"/>
<path d="M72.3125 165.925C70.9727 165.925 69.8935 164.846 69.8935 163.506C69.8935 162.166 70.9727 161.087 72.3125 161.087C73.6523 161.087 74.7315 162.166 74.7315 163.506C74.7315 164.846 73.6523 165.925 72.3125 165.925Z" fill="#101011"/>
<path d="M86.9174 57.4288C85.5776 57.4288 84.4983 56.3496 84.4983 55.0098C84.4983 53.67 85.5776 52.5908 86.9174 52.5908C88.2571 52.5908 89.3364 53.67 89.3364 55.0098C89.355 56.331 88.2571 57.4288 86.9174 57.4288Z" fill="#101011"/>
<path d="M86.9358 72.9288C85.596 72.9288 84.5168 71.8496 84.5168 70.5098C84.5168 69.17 85.596 68.0908 86.9358 68.0908C88.2756 68.0908 89.3548 69.17 89.3548 70.5098C89.3548 71.8496 88.2756 72.9288 86.9358 72.9288Z" fill="#101011"/>
<path d="M86.9198 88.4288C85.58 88.4288 84.5008 87.3496 84.5008 86.0098C84.5008 84.67 85.58 83.5908 86.9198 83.5908C88.2596 83.5908 89.3388 84.67 89.3388 86.0098C89.3574 87.331 88.2596 88.4288 86.9198 88.4288Z" fill="#101011"/>
<path d="M86.9382 103.929C85.5985 103.929 84.5192 102.85 84.5192 101.51C84.5192 100.17 85.5985 99.0908 86.9382 99.0908C88.278 99.0908 89.3573 100.17 89.3573 101.51C89.3573 102.85 88.278 103.929 86.9382 103.929Z" fill="#101011"/>
<path d="M86.9171 119.429C85.5773 119.429 84.4981 118.35 84.4981 117.01C84.4981 115.67 85.5773 114.591 86.9171 114.591C88.2569 114.591 89.3361 115.67 89.3361 117.01C89.3548 118.331 88.2569 119.429 86.9171 119.429Z" fill="#101011"/>
<path d="M86.9355 134.933C85.5958 134.933 84.5165 133.853 84.5165 132.514C84.5165 131.174 85.5958 130.095 86.9355 130.095C88.2753 130.095 89.3546 131.174 89.3546 132.514C89.3546 133.853 88.2753 134.933 86.9355 134.933Z" fill="#101011"/>
<path d="M86.9197 150.429C85.5799 150.429 84.5006 149.35 84.5006 148.01C84.5006 146.67 85.5799 145.591 86.9197 145.591C88.2594 145.591 89.3387 146.67 89.3387 148.01C89.3573 149.331 88.2594 150.429 86.9197 150.429Z" fill="#101011"/>
<path d="M86.9381 165.929C85.5983 165.929 84.5191 164.85 84.5191 163.51C84.5191 162.17 85.5983 161.091 86.9381 161.091C88.2779 161.091 89.3571 162.17 89.3571 163.51C89.3571 164.85 88.2779 165.929 86.9381 165.929Z" fill="#101011"/>
<path d="M101.543 57.4288C100.203 57.4288 99.1237 56.3496 99.1237 55.0098C99.1237 53.67 100.203 52.5908 101.543 52.5908C102.882 52.5908 103.962 53.67 103.962 55.0098C103.98 56.331 102.882 57.4288 101.543 57.4288Z" fill="#101011"/>
<path d="M101.561 72.9288C100.221 72.9288 99.1421 71.8496 99.1421 70.5098C99.1421 69.17 100.221 68.0908 101.561 68.0908C102.901 68.0908 103.98 69.17 103.98 70.5098C103.98 71.8496 102.901 72.9288 101.561 72.9288Z" fill="#101011"/>
<path d="M101.545 88.4288C100.205 88.4288 99.1261 87.3496 99.1261 86.0098C99.1261 84.67 100.205 83.5908 101.545 83.5908C102.885 83.5908 103.964 84.67 103.964 86.0098C103.964 87.3496 102.885 88.4288 101.545 88.4288Z" fill="#101011"/>
<path d="M101.564 103.929C100.224 103.929 99.1446 102.85 99.1446 101.51C99.1446 100.17 100.224 99.0908 101.564 99.0908C102.903 99.0908 103.983 100.17 103.983 101.51C103.983 102.85 102.903 103.929 101.564 103.929Z" fill="#101011"/>
<path d="M101.542 119.429C100.203 119.429 99.1234 118.35 99.1234 117.01C99.1234 115.67 100.203 114.591 101.542 114.591C102.882 114.591 103.962 115.67 103.962 117.01C103.98 118.331 102.882 119.429 101.542 119.429Z" fill="#101011"/>
<path d="M101.561 134.933C100.221 134.933 99.1419 133.853 99.1419 132.514C99.1419 131.174 100.221 130.095 101.561 130.095C102.901 130.095 103.98 131.174 103.98 132.514C103.98 133.853 102.901 134.933 101.561 134.933Z" fill="#101011"/>
<path d="M101.545 150.429C100.205 150.429 99.126 149.35 99.126 148.01C99.126 146.67 100.205 145.591 101.545 145.591C102.885 145.591 103.964 146.67 103.964 148.01C103.983 149.331 102.885 150.429 101.545 150.429Z" fill="#101011"/>
<path d="M101.563 165.929C100.224 165.929 99.1443 164.85 99.1443 163.51C99.1443 162.17 100.224 161.091 101.563 161.091C102.903 161.091 103.982 162.17 103.982 163.51C103.982 164.85 102.903 165.929 101.563 165.929Z" fill="#101011"/>
<path d="M116.208 57.4249C114.868 57.4249 113.789 56.3457 113.789 55.0059C113.789 53.6661 114.868 52.5869 116.208 52.5869C117.548 52.5869 118.627 53.6661 118.627 55.0059C118.608 56.3271 117.529 57.4063 116.208 57.4249Z" fill="#101011"/>
<path d="M116.187 72.9288C114.847 72.9288 113.768 71.8496 113.768 70.5098C113.768 69.17 114.847 68.0908 116.187 68.0908C117.526 68.0908 118.606 69.17 118.606 70.5098C118.606 71.8496 117.526 72.9288 116.187 72.9288Z" fill="#101011"/>
<path d="M116.21 88.4249C114.87 88.4249 113.791 87.3457 113.791 86.0059C113.791 84.6661 114.87 83.5869 116.21 83.5869C117.55 83.5869 118.629 84.6661 118.629 86.0059C118.629 87.3457 117.531 88.4063 116.21 88.4249Z" fill="#101011"/>
<path d="M116.189 103.925C114.849 103.925 113.77 102.846 113.77 101.506C113.77 100.166 114.849 99.0869 116.189 99.0869C117.529 99.0869 118.608 100.166 118.608 101.506C118.608 102.846 117.529 103.925 116.189 103.925Z" fill="#101011"/>
<path d="M116.208 119.425C114.868 119.425 113.788 118.346 113.788 117.006C113.788 115.666 114.868 114.587 116.208 114.587C117.547 114.587 118.627 115.666 118.627 117.006C118.608 118.327 117.529 119.406 116.208 119.425Z" fill="#101011"/>
<path d="M116.192 134.925C114.852 134.925 113.773 133.846 113.773 132.506C113.773 131.166 114.852 130.087 116.192 130.087C117.531 130.087 118.611 131.166 118.611 132.506C118.611 133.846 117.531 134.925 116.192 134.925Z" fill="#101011"/>
<path d="M116.21 150.425C114.87 150.425 113.791 149.346 113.791 148.006C113.791 146.666 114.87 145.587 116.21 145.587C117.55 145.587 118.629 146.666 118.629 148.006C118.611 149.327 117.531 150.406 116.21 150.425Z" fill="#101011"/>
<path d="M116.189 165.929C114.849 165.929 113.77 164.85 113.77 163.51C113.77 162.17 114.849 161.091 116.189 161.091C117.529 161.091 118.608 162.17 118.608 163.51C118.608 164.85 117.529 165.929 116.189 165.929Z" fill="#101011"/>
<path d="M130.833 57.4249C129.493 57.4249 128.414 56.3457 128.414 55.0059C128.414 53.6661 129.493 52.5869 130.833 52.5869C132.173 52.5869 133.252 53.6661 133.252 55.0059C133.252 56.3457 132.173 57.4249 130.833 57.4249Z" fill="#101011"/>
<path d="M130.812 72.9288C129.472 72.9288 128.393 71.8496 128.393 70.5098C128.393 69.17 129.472 68.0908 130.812 68.0908C132.152 68.0908 133.231 69.17 133.231 70.5098C133.231 71.8496 132.152 72.9288 130.812 72.9288Z" fill="#101011"/>
<path d="M130.836 88.4249C129.496 88.4249 128.417 87.3457 128.417 86.0059C128.417 84.6661 129.496 83.5869 130.836 83.5869C132.175 83.5869 133.255 84.6661 133.255 86.0059C133.255 87.3457 132.175 88.4249 130.836 88.4249Z" fill="#101011"/>
<path d="M130.814 103.925C129.475 103.925 128.395 102.846 128.395 101.506C128.395 100.166 129.475 99.0869 130.814 99.0869C132.154 99.0869 133.233 100.166 133.233 101.506C133.233 102.846 132.154 103.925 130.814 103.925Z" fill="#101011"/>
<path d="M130.833 119.425C129.493 119.425 128.414 118.346 128.414 117.006C128.414 115.666 129.493 114.587 130.833 114.587C132.173 114.587 133.252 115.666 133.252 117.006C133.252 118.346 132.173 119.425 130.833 119.425Z" fill="#101011"/>
<path d="M130.817 134.925C129.477 134.925 128.398 133.846 128.398 132.506C128.398 131.166 129.477 130.087 130.817 130.087C132.157 130.087 133.236 131.166 133.236 132.506C133.236 133.846 132.157 134.925 130.817 134.925Z" fill="#101011"/>
<path d="M130.835 150.425C129.496 150.425 128.416 149.346 128.416 148.006C128.416 146.666 129.496 145.587 130.835 145.587C132.175 145.587 133.254 146.666 133.254 148.006C133.254 149.346 132.175 150.425 130.835 150.425Z" fill="#101011"/>
<path d="M130.814 165.929C129.475 165.929 128.395 164.85 128.395 163.51C128.395 162.17 129.475 161.091 130.814 161.091C132.154 161.091 133.233 162.17 133.233 163.51C133.233 164.85 132.154 165.929 130.814 165.929Z" fill="#101011"/>
<path d="M145.459 57.4249C144.119 57.4249 143.04 56.3457 143.04 55.0059C143.04 53.6661 144.119 52.5869 145.459 52.5869C146.798 52.5869 147.878 53.6661 147.878 55.0059C147.878 56.3457 146.798 57.4249 145.459 57.4249Z" fill="#101011"/>
<path d="M145.437 72.9288C144.098 72.9288 143.018 71.8496 143.018 70.5098C143.018 69.17 144.098 68.0908 145.438 68.0908C146.777 68.0908 147.857 69.17 147.857 70.5098C147.875 71.831 146.777 72.9288 145.437 72.9288Z" fill="#101011"/>
<path d="M145.461 88.4249C144.121 88.4249 143.042 87.3457 143.042 86.0059C143.042 84.6661 144.121 83.5869 145.461 83.5869C146.801 83.5869 147.88 84.6661 147.88 86.0059C147.88 87.3457 146.801 88.4249 145.461 88.4249Z" fill="#101011"/>
<path d="M145.44 103.925C144.1 103.925 143.021 102.846 143.021 101.506C143.021 100.166 144.1 99.0869 145.44 99.0869C146.78 99.0869 147.859 100.166 147.859 101.506C147.878 102.827 146.78 103.925 145.44 103.925Z" fill="#101011"/>
<path d="M145.458 119.425C144.119 119.425 143.039 118.346 143.039 117.006C143.039 115.666 144.119 114.587 145.458 114.587C146.798 114.587 147.877 115.666 147.877 117.006C147.877 118.346 146.798 119.425 145.458 119.425Z" fill="#101011"/>
<path d="M145.443 134.925C144.103 134.925 143.023 133.846 143.023 132.506C143.023 131.166 144.103 130.087 145.443 130.087C146.782 130.087 147.862 131.166 147.862 132.506C147.88 133.827 146.782 134.925 145.443 134.925Z" fill="#101011"/>
<path d="M145.461 150.425C144.121 150.425 143.042 149.346 143.042 148.006C143.042 146.666 144.121 145.587 145.461 145.587C146.801 145.587 147.88 146.666 147.88 148.006C147.88 149.346 146.801 150.425 145.461 150.425Z" fill="#101011"/>
<path d="M145.44 165.929C144.1 165.929 143.021 164.85 143.021 163.51C143.021 162.17 144.1 161.091 145.44 161.091C146.78 161.091 147.859 162.17 147.859 163.51C147.859 164.85 146.78 165.929 145.44 165.929Z" fill="#101011"/>
<path d="M160.084 57.4288C158.744 57.4288 157.665 56.3496 157.665 55.0098C157.665 53.67 158.744 52.5908 160.084 52.5908C161.424 52.5908 162.503 53.67 162.503 55.0098C162.503 56.3496 161.424 57.4288 160.084 57.4288Z" fill="#101011"/>
<path d="M160.063 72.9327C158.723 72.9327 157.644 71.8535 157.644 70.5137C157.644 69.1739 158.723 68.0947 160.063 68.0947C161.403 68.0947 162.482 69.1739 162.482 70.5137C162.501 71.8349 161.403 72.9327 160.063 72.9327Z" fill="#101011"/>
<path d="M160.086 88.4288C158.747 88.4288 157.667 87.3496 157.667 86.0098C157.667 84.67 158.747 83.5908 160.086 83.5908C161.426 83.5908 162.505 84.67 162.505 86.0098C162.505 87.3496 161.426 88.4288 160.086 88.4288Z" fill="#101011"/>
<path d="M160.065 103.929C158.726 103.929 157.646 102.85 157.646 101.51C157.646 100.17 158.726 99.0908 160.065 99.0908C161.405 99.0908 162.484 100.17 162.484 101.51C162.503 102.831 161.405 103.929 160.065 103.929Z" fill="#101011"/>
<path d="M160.084 119.429C158.744 119.429 157.665 118.35 157.665 117.01C157.665 115.67 158.744 114.591 160.084 114.591C161.424 114.591 162.503 115.67 162.503 117.01C162.503 118.35 161.424 119.429 160.084 119.429Z" fill="#101011"/>
<path d="M160.068 134.929C158.728 134.929 157.649 133.85 157.649 132.51C157.649 131.17 158.728 130.091 160.068 130.091C161.408 130.091 162.487 131.17 162.487 132.51C162.506 133.831 161.408 134.929 160.068 134.929Z" fill="#101011"/>
<path d="M160.086 150.429C158.747 150.429 157.667 149.35 157.667 148.01C157.667 146.67 158.747 145.591 160.086 145.591C161.426 145.591 162.505 146.67 162.505 148.01C162.505 149.35 161.426 150.429 160.086 150.429Z" fill="#101011"/>
<path d="M160.065 165.933C158.725 165.933 157.646 164.853 157.646 163.514C157.646 162.174 158.725 161.095 160.065 161.095C161.405 161.095 162.484 162.174 162.484 163.514C162.503 164.835 161.405 165.933 160.065 165.933Z" fill="#101011"/>
</g>
<defs>
<clipPath id="clip0">
<rect width="153.973" height="153.973" fill="white" transform="translate(108.875 0.375) rotate(45)"/>
</clipPath>
</defs>
</svg>
